<svg xmlns="http://www.w3.org/2000/svg" width="128" height="128" viewBox="0 0 128 128">
  <defs>
    <radialGradient id="icon-ayandeh-bank-a" cx="49.982%" cy="49.967%" r="50.007%" fx="49.982%" fy="49.967%" gradientTransform="matrix(1 0 0 .99021 0 .005)">
      <stop offset="0%" stop-color="#F4B31B"/>
      <stop offset="100%" stop-color="#CC932B"/>
    </radialGradient>
    <linearGradient id="icon-ayandeh-bank-b" x1="50.021%" x2="50.021%" y1="99.939%" y2="-.056%">
      <stop offset="0%" stop-color="#6E2616"/>
      <stop offset="100%" stop-color="#9B4722"/>
    </linearGradient>
    <linearGradient id="icon-ayandeh-bank-c" x1="50.061%" x2="50.061%" y1=".043%" y2="100.033%">
      <stop offset="0%" stop-color="#6E2616"/>
      <stop offset="100%" stop-color="#9B4722"/>
    </linearGradient>
  </defs>
  <g fill="none" fill-rule="evenodd">
    <path fill="url(#icon-ayandeh-bank-a)" d="M18.2857143,0.0946996466 L109.714286,0.0946996466 C119.372894,0.0946996466 127.34359,8.14416961 127.34359,17.8982332 L127.34359,110.230389 C127.34359,119.984452 119.372894,128.033922 109.714286,128.033922 L18.2857143,128.033922 C8.62710623,128.033922 0.656410256,119.984452 0.656410256,110.230389 L0.656410256,17.8982332 C0.656410256,8.04946996 8.53333333,0.0946996466 18.2857143,0.0946996466"/>
    <path fill="url(#icon-ayandeh-bank-b)" d="M121.810989,59.4713781 L121.810989,109.188693 C121.810989,116.575265 115.903297,122.541343 108.589011,122.541343 L19.3172161,122.541343 C12.0029304,122.541343 6.0952381,116.575265 6.0952381,109.188693 L6.0952381,88.44947 C10.9714286,35.3229682 61.2336996,89.1123675 84.5831502,89.1123675 C103.150183,89.0176678 114.215385,74.6233216 121.810989,59.4713781"/>
    <path fill="url(#icon-ayandeh-bank-c)" d="M19.3172161,5.58727915 L108.589011,5.58727915 C115.903297,5.58727915 121.810989,11.5533569 121.810989,18.9399293 L121.810989,39.0162544 C117.684982,94.5102473 66.7663004,39.1109541 43.229304,39.1109541 C24.756044,39.1109541 13.6908425,53.9787986 6.0014652,69.130742 L6.0014652,18.9399293 C6.0952381,11.6480565 12.0967033,5.58727915 19.3172161,5.58727915"/>
  </g>
</svg>
