<svg xmlns="http://www.w3.org/2000/svg" width="123" height="64" viewBox="0 0 123 64">
  <path fill="#008BA0" fill-rule="evenodd" d="M63.1241536,45.3195294 L68.7577646,39.6561569 L68.9438037,39.8155294 C75.4763952,45.4475294 85.2240906,53.8465882 93.3436325,55.4026667 C93.9417042,55.4553725 94.5422731,55.4930196 95.142842,55.4930196 L95.142842,55.4867451 C95.1802996,55.4867451 95.224,55.4804706 95.2589604,55.4917647 L95.2439773,55.4917647 L95.2439773,55.4930196 L95.283932,55.4917647 C100.675318,55.424 105.087814,51.0506667 105.087814,45.593098 C105.087814,40.1970196 100.677815,35.712 95.2439773,35.6931765 L95.2439773,17.9852549 L99.9411504,17.9852549 C105.049108,18.0116078 109.761264,19.7195294 113.558208,22.5869804 C117.341417,25.4431373 120.215658,29.4500392 121.666512,34.0894118 C122.346991,36.2691765 122.714074,38.5882353 122.714074,40.9913725 C122.714074,47.2621176 120.218155,52.9468235 116.168997,57.0967843 C115.358666,57.9275294 114.485906,58.6980392 113.558208,59.3982745 C109.761264,62.2657255 105.049108,63.9736471 99.9411504,64 L99.7026709,64 C85.9744896,63.9297255 72.9679899,54.0436078 63.1241536,45.3195294 Z M10.6698905,33.5422745 C8.01165513,38.208 7.93923726,43.9341176 10.6673933,48.588549 C13.3106457,53.0986667 18.2999874,55.4867451 23.4104418,55.4867451 C42.8221775,55.4867451 53.8684003,31.1090196 63.2103059,17.9852549 C64.1804556,16.6224314 65.1893115,15.2997647 66.2481108,14.0310588 C67.6752423,12.3206275 69.1922719,10.7068235 70.8266683,9.22729412 C76.8835494,3.73960784 84.5348722,0.0778039216 95.0766671,0.0401568627 C95.1316048,0.0389019608 95.1877911,0.0389019608 95.2439773,0.0389019608 L95.2439773,17.9852549 C90.4631492,17.9852549 85.9158062,19.7496471 81.47709,22.5869804 C79.4056891,23.910902 77.3580113,25.4682353 75.3215708,27.1887059 C65.6512876,35.3593725 57.7302706,45.4023529 47.935129,53.4500392 C46.3519245,54.7501176 44.7449969,55.974902 43.1081032,57.0967843 C41.9044682,57.9225098 40.6846016,58.6942745 39.4460063,59.3982745 C34.5615456,62.1791373 29.1813971,64 23.51782,64 C18.5609415,63.9887059 13.7464015,62.3924706 9.78214726,59.3982745 C8.85444934,58.6980392 7.98044053,57.9275294 7.1701095,57.0967843 C3.12220013,52.9468235 0.62628068,47.2621176 0.62628068,40.9926275 C0.62628068,38.5869804 0.99336438,36.2691765 1.67384267,34.0894118 C3.12469729,29.4500392 5.9989377,25.4431373 9.78089868,22.5869804 C13.7364128,19.6003137 18.5696816,17.9852549 23.51782,17.9852549 C29.6321359,18.0015686 35.4305601,19.7734902 40.8194487,22.5869804 C43.252939,23.8569412 45.6190057,25.3352157 47.935129,26.9527843 C48.0475016,27.0305882 48.1598741,27.1096471 48.2722467,27.1887059 C48.4782631,27.3342745 48.7641888,27.4861176 49.0750862,27.699451 L50.7157256,28.8200784 L50.7456916,28.8414118 L46.4205966,35.1297255 C39.9304569,30.387451 31.8546155,26.0241569 23.613961,26.0241569 C18.1963549,26.0241569 13.3768206,28.7912157 10.6698905,33.5422745 Z"/>
</svg>
