<svg xmlns="http://www.w3.org/2000/svg" width="128" height="112" viewBox="0 0 128 112">
  <g fill="none" fill-rule="evenodd" transform="translate(0 -7)">
    <path d="M18.4611604,6.77080234e-07 L109.027198,6.77080234e-07 C118.595802,6.77080234e-07 126.48833,7.90460445 126.48833,17.4852837 L126.48833,108.181737 C126.48833,117.762416 118.595802,125.66702 109.027198,125.66702 L18.4611604,125.66702 C8.89255658,125.66702 1.00002828,117.762416 1.00002828,108.181737 L1.00002828,17.4876988 C0.991690001,12.8517252 2.82781242,8.40284334 6.10345328,5.12221879 C9.37909415,1.84159424 13.8251795,-0.00128960545 18.4611604,6.77080236e-07"/>
    <g transform="translate(0 7)">
      <path fill="#069C94" d="M63.0066351,72.6131304 C72.2787488,72.6131304 79.8410616,65.0251304 79.8410616,55.7218261 C79.8410616,46.4182174 72.2787488,38.829913 63.0066351,38.829913 C53.7348246,38.829913 46.1722085,46.4182174 46.1722085,55.7218261 C46.1722085,65.0251304 53.7348246,72.6131304 63.0066351,72.6131304"/>
      <path fill="#881813" d="M30.6186919,0.0894782609 L73.2572512,0.0894782609 L95.5838483,38.8923043 L89.440455,49.5694348 L78.1294408,29.9122174 L30.0696872,29.9122174 L8.14619905,68.0135217 L0,53.8564783 L19.7738768,19.4913478 L70.3332701,19.4913478 L67.3301232,14.2717826 L22.7403223,14.2717826 L30.6186919,0.0894782609 Z M31.7339905,112 L10.4147109,74.9483913 L32.7416114,36.1458696 L45.0287014,36.1455652 L33.7182938,55.8033913 L57.748019,97.5656957 L101.594995,97.5656957 L93.4490995,111.723043 L53.9019526,111.722739 L28.6222559,67.7883043 L25.6188057,73.0078696 L47.9135545,111.755 L31.7339905,112 Z M127.765536,55.0756957 L106.446256,92.127 L61.792455,92.127 L55.6487583,81.4498696 L78.2704834,81.4495652 L102.300209,39.6872609 L80.3770237,1.58565217 L96.6688152,1.58565217 L116.442389,35.9507826 L91.1626919,79.8855217 L97.1692891,79.8855217 L119.464038,41.1383913 L127.765536,55.0756957 Z"/>
    </g>
  </g>
</svg>
