<svg xmlns="http://www.w3.org/2000/svg" width="124" height="128" viewBox="0 0 124 128">
  <g fill="none">
    <path fill="#007D3D" d="M97.0414815,20.1669065 L25.2133333,20.1669065 L25.2133333,71.8733813 C25.2133333,71.8733813 30.2651852,91.3496403 53.0903704,91.3496403 C75.9155556,91.3496403 79.7274074,74.4057554 79.7274074,74.4057554 C79.7274074,74.4057554 84.7792593,102.353957 43.3540741,102.353957 C1.92888889,102.353957 0.22962963,72.2877698 0.22962963,72.2877698 L0.22962963,9.11654676 C0.22962963,9.11654676 1.51555556,0.230215827 7.85333333,0.230215827 C14.1911111,0.230215827 75.042963,0.230215827 75.042963,0.230215827 L97.0414815,20.1669065 Z"/>
    <path fill="#007D3D" d="M26.9125926,108.063309 L98.7407407,108.063309 L98.7407407,56.3568345 C98.7407407,56.3568345 93.6888889,36.8805755 70.8637037,36.8805755 C48.0385185,36.8805755 44.2266667,53.8244604 44.2266667,53.8244604 C44.2266667,53.8244604 39.1748148,25.876259 80.6,25.876259 C122.025185,25.876259 123.724444,55.9884892 123.724444,55.9884892 L123.724444,119.113669 C123.724444,119.113669 122.438519,128 116.100741,128 C109.762963,128 48.9111111,128 48.9111111,128 L26.9125926,108.063309 Z"/>
    <ellipse cx="62.413" cy="63.816" fill="#DEEC3D" rx="23.652" ry="23.712"/>
  </g>
</svg>
