<svg xmlns="http://www.w3.org/2000/svg" width="89" height="118" viewBox="0 0 89 118">
  <path fill="#324C88" fill-rule="evenodd" d="M13.1892337,54.103 C5.92494953,54.103 0,48.0715326 0,40.6772935 C0,33.282413 5.92494953,27.2509457 13.1892337,27.2509457 C20.452888,27.2509457 26.3778375,33.282413 26.3778375,40.6772935 C26.3778375,48.0715326 20.452888,54.103 13.1892337,54.103 Z M75.3826194,54.3492609 C68.1183352,54.3492609 62.1933857,48.3177935 62.1933857,40.9235543 C62.1933857,33.5286739 68.1183352,27.4972065 75.3826194,27.4972065 C82.6469036,27.4972065 88.5712231,33.5286739 88.5712231,40.9235543 C88.5712231,48.3177935 82.6469036,54.3492609 75.3826194,54.3492609 Z M44.4065675,72.0864565 C37.1422833,72.0864565 31.2179637,66.0549891 31.2179637,58.66075 C31.2179637,51.2658696 37.1422833,45.2344022 44.4065675,45.2344022 C51.6708517,45.2344022 57.5951712,51.2658696 57.5951712,58.66075 C57.5951712,66.0549891 51.6708517,72.0864565 44.4065675,72.0864565 Z M44.4065675,36.3658043 C34.609769,36.3658043 26.6197493,28.2321413 26.6197493,18.2592174 C26.6197493,8.28629348 34.609769,0.152630435 44.4065675,0.152630435 C54.203366,0.152630435 62.1933857,8.28629348 62.1933857,18.2592174 C62.1933857,28.2321413 54.203366,36.3658043 44.4065675,36.3658043 Z M17.7868182,80.9550543 C13.0550483,80.9550543 9.19579886,77.0264239 9.19579886,72.209587 C9.19579886,67.39275 13.0550483,63.4641196 17.7868182,63.4641196 C22.5185881,63.4641196 26.3778375,67.39275 26.3778375,72.209587 C26.3778375,77.0264239 22.5185881,80.9550543 17.7868182,80.9550543 Z M71.1479027,80.9550543 C66.4161328,80.9550543 62.5568834,77.0264239 62.5568834,72.209587 C62.5568834,67.39275 66.4161328,63.4641196 71.1479027,63.4641196 C75.8790426,63.4641196 79.738292,67.39275 79.738292,72.209587 C79.738292,77.0264239 75.8790426,80.9550543 71.1479027,80.9550543 Z M44.2856116,99.1847717 C39.5538417,99.1847717 35.6945923,95.2561413 35.6945923,90.4393043 C35.6945923,85.6224674 39.5538417,81.693837 44.2856116,81.693837 C49.0173815,81.693837 52.8766309,85.6224674 52.8766309,90.4393043 C52.8766309,95.2561413 49.0173815,99.1847717 44.2856116,99.1847717 Z M22.3850326,108.545891 C19.919296,108.545891 17.9077741,106.498207 17.9077741,103.988141 C17.9077741,101.478076 19.919296,99.4310326 22.3850326,99.4310326 C24.8507692,99.4310326 26.8616611,101.478076 26.8616611,103.988141 C26.8616611,106.498207 24.8507692,108.545891 22.3850326,108.545891 Z M66.7916001,108.545891 C64.3258635,108.545891 62.3149715,106.498207 62.3149715,103.988141 C62.3149715,101.478076 64.3258635,99.4310326 66.7916001,99.4310326 C69.2573366,99.4310326 71.2682286,101.478076 71.2682286,103.988141 C71.2682286,106.498207 69.2573366,108.545891 66.7916001,108.545891 Z M44.5275234,117.53762 C42.0617868,117.53762 40.0508949,115.489935 40.0508949,112.97987 C40.0508949,110.469804 42.0617868,108.422761 44.5275234,108.422761 C46.99326,108.422761 49.0047819,110.469804 49.0047819,112.97987 C49.0047819,115.489935 46.99326,117.53762 44.5275234,117.53762 Z"/>
</svg>
