<svg xmlns="http://www.w3.org/2000/svg" width="127" height="127" viewBox="0 0 127 127">
  <g fill="none" fill-rule="evenodd">
    <path fill="#BA0B22" d="M24.7428541,87.9574361 L24.8702046,28.5662579 C24.8702046,28.5662579 23.3844487,20.6865532 30.6009777,17.794534 L58.6180904,1.49025147 C58.6180904,1.49025147 62.735757,-1.86281434 67.3203754,1.49025147 L95.7619899,18.0879272 C95.7619899,18.0879272 101.407863,19.5548935 101.195612,28.9853911 L101.407863,40.3439016 L64.3488635,19.3872402 C64.3488635,19.3872402 59.0425921,14.8606014 58.6180904,22.1535195 L58.6180904,45.4573269 C58.6180904,45.4573269 31.9593832,50.403099 39.7702146,79.5328582 L24.7428541,87.9574361 Z"/>
    <path fill="#BA0B22" d="M66.2591212,28.9853911 L118.854883,59.0791568 C118.854883,59.0791568 126.538364,61.8035227 125.56201,69.3898341 L126.113862,101.411613 C126.113862,101.411613 127.047766,106.608865 121.783945,108.788357 L92.9602786,124.58968 C92.9602786,124.58968 88.8850622,128.655272 80.5648287,123.7095 L70.3767877,118.135028 L107.350886,97.2202804 C107.350886,97.2202804 113.973113,94.9988743 107.732938,90.933282 L87.102155,79.1975516 C87.102155,79.1975516 95.9317905,54.0495581 66.2591212,46.0022001 L66.2591212,28.9853911 Z"/>
    <path fill="#BA0B22" d="M97.8844984,94.2444345 L44.9491354,123.751414 C44.9491354,123.751414 38.6665101,128.948666 32.5536855,124.21246 L4.32432197,108.453051 C4.32432197,108.453051 -0.684798186,106.608865 0.0793048885,101.034393 L0.928308304,68.5096544 C0.928308304,68.5096544 -0.557447673,62.9770958 7.97503666,58.4085436 L17.993277,52.5825918 L17.4838749,94.6216544 C17.4838749,94.6216544 16.0830193,101.411613 22.7476961,98.1423735 L43.4633794,86.5323831 C43.4633794,86.5323831 60.9528498,106.818431 83.0269386,85.61029 L97.8844984,94.2444345 Z"/>
    <ellipse cx="62.906" cy="70.48" fill="#FFC730" fill-rule="nonzero" rx="17.956" ry="17.729"/>
  </g>
</svg>
