<svg xmlns="http://www.w3.org/2000/svg" width="128" height="113" viewBox="0 0 128 113">
  <path fill="#891E1B" fill-rule="evenodd" d="M56.9604961,0.599758725 C56.8694404,0.736392045 56.7826798,0.813301996 56.6761618,0.859276101 C56.5700733,0.905250206 56.4055717,0.987745796 56.31108,1.04274286 C55.9356899,1.26058277 55.8721227,1.2953856 55.6238671,1.41912898 C55.4821294,1.48959397 55.2888508,1.59185413 55.1943591,1.64599186 C54.8224051,1.85824614 54.7579789,1.89218963 54.5651298,1.97511489 C54.4551757,2.02237799 54.307425,2.11905251 54.2369857,2.18994715 C53.7851432,2.31841685 53.691081,2.35493833 53.691081,2.39962344 C53.3620778,2.65484418 53.0429533,2.82112435 52.7702157,2.96248398 C52.4970486,3.10427327 52.222593,3.26883479 52.1603143,3.32769883 C51.7978096,3.43554463 51.7046063,3.46948813 51.6788358,3.51073592 C51.609685,3.62330803 50.456456,4.29487369 50.3327577,4.29487369 C49.9582267,4.53204851 49.4861973,4.79801086 48.3870863,5.37505032 C48.0920143,5.52972955 47.7488373,5.73682786 47.6238505,5.83522103 C47.4992932,5.93318455 47.3403752,6.01353181 47.2707949,6.01353181 C47.2012146,6.01353181 46.9782999,6.12567426 46.7751426,6.26316691 C46.5719853,6.40022989 46.3151395,6.54030053 46.2043265,6.57424403 C45.7477594,6.8410657 45.536012,6.9609421 45.0150187,7.22346713 C44.8024123,7.3304536 44.5361173,7.48899981 44.4235862,7.57536238 C44.3110551,7.66172495 44.1465535,7.73218994 44.0585043,7.73218994 C43.8982978,7.85636299 43.8111077,7.91952367 43.7050192,7.95303751 C43.5989307,7.98655134 43.4193964,8.08580385 43.3068653,8.17388507 C43.1943342,8.26153664 43.0298326,8.33372028 42.9417835,8.33372028 C42.781577,8.43898809 42.5788492,8.5769104 42.3305935,8.70795809 C42.0823379,8.83943543 41.7249872,9.03879978 41.5360037,9.15180155 C41.3470201,9.26437365 41.1344137,9.38081274 41.0635448,9.41002993 C40.7349712,9.58705172 40.5812073,9.66396167 40.4639516,9.71423242 C40.1169091,9.99609235 39.5362143,10.3101771 39.3906111,10.3101771 C39.308575,10.3101771 39.0981161,10.4236086 38.9233063,10.5623902 C38.7484966,10.7007422 38.5010999,10.8403832 38.3739655,10.8721783 C38.1428902,11.0358805 38.0368017,11.1089235 37.9066608,11.1604832 C37.7769494,11.2124726 37.4384971,11.3907834 37.1550218,11.5570636 C36.6666711,11.8440795 36.4635138,11.948488 36.1671533,12.0657864 C36.0962845,12.0937146 35.9223337,12.1929671 35.7805961,12.286634 C35.6388584,12.3803008 35.4262519,12.4997476 35.3081372,12.5525963 C35.1900225,12.605445 35.0353996,12.683644 34.9645308,12.7261808 C34.6359572,12.891172 34.4370949,13.0265163 34.2648622,13.160142 C34.0926295,13.2941973 33.9126656,13.4037617 33.8649902,13.4037617 C33.7713575,13.4037617 33.1103446,13.7449154 32.6881382,14.0113074 C32.5464006,14.1006776 32.1984991,14.293597 31.9150238,14.4401126 C30.699516,15.0682821 30.3030801,15.291278 30.028195,15.5009543 C29.867559,15.6238384 29.6717033,15.7239502 29.5935329,15.7239502 C29.5149329,15.7239502 29.3525789,15.8012898 29.2327461,15.895816 C29.1124839,15.9903422 28.961297,16.0676818 28.8968708,16.0676818 C28.7796151,16.1982999 28.6782512,16.2618902 28.5541234,16.292826 C28.4299956,16.3241916 28.1314875,16.4793005 27.8905335,16.6382763 C27.64915,16.7972522 27.3884386,16.9270109 27.3102682,16.9270109 C27.0027404,17.1268049 26.9013765,17.1848096 26.8365208,17.1848096 C26.7179766,17.3051157 26.5998619,17.3811663 26.4551177,17.4314371 C26.310803,17.4817078 26.0290457,17.6308014 25.8293245,17.7622787 C25.6296032,17.8937561 25.1580034,18.1558515 24.7817544,18.3449038 C24.4059349,18.5339562 24.0786497,18.7118374 24.0550268,18.7397656 C24.0077809,18.7960516 23.7638204,18.9313959 22.9812567,19.3361399 C22.6977814,19.4830852 22.3498799,19.6742859 22.2081423,19.7619375 C22.0664046,19.849589 21.737831,20.0304778 21.4779786,20.1641035 C21.2181263,20.2972995 20.9544083,20.455416 20.8921297,20.5142801 C20.6000642,20.6221259 20.3427889,20.7574702 20.0915267,20.922891 C19.8402645,21.0883119 19.5696744,21.2236562 19.4897859,21.2236562 C19.2715959,21.3882177 18.7471665,21.7392536 18.6423666,21.7392536 C18.5908256,21.7392536 18.3962585,21.8260459 18.209852,21.9326027 L17.8713997,22.1259517 L17.8709702,31.728954 C17.8705407,37.0108201 17.8933046,41.3319563 17.9212226,41.3319563 C18.3258192,41.1484895 18.6024223,41.0092782 18.8150288,40.9040104 C19.0276353,40.7983129 19.4601499,40.57145 19.7766973,40.3991546 C20.0928152,40.2268591 20.5760117,39.9703494 20.8504674,39.8289897 C21.1244935,39.6876301 21.3684541,39.5492781 21.392077,39.5209203 C21.4156999,39.4929921 21.6476343,39.364952 21.9074866,39.236912 C22.167339,39.1084423 22.6505355,38.8545106 22.9812567,38.6727625 C23.3119779,38.4905847 23.8724859,38.1893899 24.22683,38.0033451 C24.5811741,37.8173004 25.1223543,37.5281362 25.4294525,37.360567 C26.2133047,36.9334804 26.4838947,36.7934098 26.632075,36.7379831 C26.7029438,36.7113439 26.8768946,36.6133804 27.0186322,36.5201432 C27.1603699,36.426906 27.3729763,36.3113262 27.4910911,36.2632038 C27.6092058,36.215511 27.7638287,36.1373121 27.8346975,36.090049 C28.2500317,35.8790837 28.3586973,35.8017441 28.3896219,35.7514733 C28.7547037,35.6603844 28.8960118,35.5985128 28.95872,35.5224621 C29.3448477,35.2655227 29.4917395,35.1924798 29.574205,35.144787 C29.8795852,34.9699135 30.0410802,34.8852696 30.7553521,34.5247811 C31.1569421,34.3224091 31.527178,34.1178888 31.57786,34.0706257 C31.6285419,34.0233626 31.8798041,33.8880183 32.1362204,33.7702902 C32.3926367,33.6521324 32.6533481,33.5073355 32.7156267,33.4480418 C33.0029676,33.340196 33.1017545,33.2821913 33.1605971,33.2112966 C33.5080691,33.0823973 33.6287608,33.0325562 33.691469,32.9719735 C33.8813115,32.7867881 34.4186261,32.4808669 34.5539211,32.4808669 C34.6239309,32.4808669 34.841262,32.3648575 35.0366881,32.2230682 C35.2325438,32.0812789 35.4176618,31.9652695 35.4481568,31.9652695 C35.5705666,31.9652695 36.3003008,31.5716968 36.364727,31.4711553 C36.6945891,31.3637391 36.9626022,31.2283948 37.1979726,31.062974 C37.433343,30.8975531 37.701356,30.7622088 37.7932707,30.7622088 C38.0483985,30.6208492 38.157064,30.5409316 38.2584279,30.4936685 C38.3602213,30.4459757 38.7141359,30.257353 39.0448571,30.0743159 C39.3755783,29.8912788 39.8974305,29.6107078 40.2045288,29.4513023 C41.4067218,28.8274294 41.9307216,28.5339685 42.1484821,28.3625324 C42.2730395,28.2645689 42.462023,28.1842216 42.567682,28.1842216 C42.9263212,27.9844276 43.0289736,27.9264229 43.0955473,27.9264229 C43.293121,27.7266289 43.3669964,27.6686242 43.4305636,27.6686242 C43.5564095,27.6686242 44.3213633,27.2793481 44.4523632,27.1487301 C44.7534483,27.0670938 44.9059237,26.9897542 45.0150187,26.895228 C45.376235,26.7233622 45.4715858,26.6653575 45.5304284,26.5944628 C45.9427561,26.4655635 46.0445495,26.4320496 46.0600118,26.3916612 C46.0759036,26.3508431 46.3980346,26.1527677 46.7760017,25.9516847 C47.1539687,25.750172 47.5242046,25.5319025 47.598939,25.4670231 C47.9631619,25.3484357 48.6057059,25.0090007 48.7753615,24.8543215 C49.149463,24.7469054 49.2241974,24.7155398 49.2241974,24.67687 C49.2241974,24.6382002 49.5914268,24.4160637 50.0402627,24.1827558 C51.0813902,23.6418082 51.1578426,23.5992714 51.2982917,23.4866993 C51.741544,23.2924909 51.8888653,23.210425 51.953721,23.1459753 C52.3115012,23.0282472 52.4296159,22.9702425 52.4884585,22.8993479 C52.7912616,22.7704485 52.946314,22.6931089 53.0661468,22.5985827 C53.186409,22.5040565 53.3375958,22.4267169 53.4020221,22.4267169 C53.5192777,22.2960989 53.6257957,22.2320789 53.7555072,22.2002837 C53.8856481,22.1684885 54.0840808,22.0713843 54.1966119,21.9841624 C54.5260446,21.8251865 54.6205363,21.7671818 54.6914052,21.6962872 C55.0603526,21.5673878 55.1784673,21.5093831 55.2373099,21.4384885 C55.511336,21.3095891 55.6079753,21.2515844 55.6668179,21.1806898 C55.9936735,21.0517904 56.2625455,20.9164461 56.5138077,20.7510252 C56.7650699,20.5856044 57.006883,20.4502601 57.0515518,20.4502601 C57.7121351,20.0708663 58.4981348,20.2341388 58.8451773,20.6173996 C58.9229183,20.7037621 59.22701,20.8812136 59.5323902,21.0191359 C59.6977508,21.0934679 59.9558851,21.2472878 60.1066424,21.3611489 C60.2569702,21.4745803 60.4347866,21.5673878 60.5013603,21.5673878 C60.9364519,21.8397951 61.2130551,22.0034973 61.4398354,22.1079058 C61.6661861,22.2118846 61.8517336,22.3261754 61.8517336,22.3618375 C62.0308384,22.4267169 62.1528187,22.5040565 62.2382908,22.5985827 C62.6317201,22.7704485 62.7214873,22.8039624 62.7468283,22.8452101 C62.7721693,22.8864579 63.0161298,23.0299659 63.2888674,23.1644509 C63.561605,23.2985062 63.9198147,23.5068935 64.0851753,23.6267699 C64.2505359,23.7466463 64.5404538,23.9202308 64.7294374,24.012179 C64.9184209,24.1045569 65.1310274,24.2252926 65.2018962,24.281149 C65.272765,24.3365757 65.5046994,24.4749277 65.7173058,24.5879295 C66.5866301,25.0511078 66.7983776,25.3716376 66.4586367,25.7115022 C66.2520433,26.1106606 66.1695778,26.2391303 66.100427,26.2962757 C65.9750107,26.7010196 65.9170271,26.836364 65.8461582,26.895228 C65.7173058,27.2428266 65.6640468,27.3657107 65.5987616,27.4310197 C65.5339059,27.4963287 65.4522994,27.6828031 65.4175092,27.8452163 C65.3827191,28.0080591 65.3062666,28.1992599 65.2469945,28.2701545 C65.1877224,28.3410492 65.1138471,28.505181 65.0829225,28.6353694 C64.8960865,28.8716849 64.8582898,28.9997249 64.8582898,29.1561228 C64.8582898,29.3125207 64.8015947,29.5153223 64.7320144,29.6072705 C64.5971489,29.9737744 64.520267,30.1864583 64.4287817,30.3755107 C64.3372965,30.5645631 64.2612736,30.796582 64.2595556,30.8911082 C64.257408,30.9856343 64.1981359,31.1738274 64.1276966,31.3091717 C64.0568278,31.4445161 63.9992737,31.6511847 63.9992737,31.7689128 C63.9992737,31.8862112 63.9417196,32.1040511 63.8717098,32.2531447 C63.7394214,32.534575 63.5190837,33.4901489 63.4108477,34.2549518 C63.3760576,34.4981419 63.3064773,34.7494956 63.2557953,34.8135157 C63.2051134,34.8775357 63.1406872,35.1907611 63.1123396,35.5095722 C63.0839921,35.8283833 63.0114052,36.1764115 62.9508446,36.2829683 C62.7923561,36.561391 62.7889201,45.2831513 62.946979,45.4739223 C63.0062511,45.5452466 63.078838,45.9087428 63.1093331,46.2821213 C63.1393986,46.6550701 63.2046839,47.0379012 63.2545068,47.1324274 C63.3043297,47.2269536 63.3717625,47.4783074 63.4039756,47.6909913 C63.5195132,48.4497789 63.7493,49.4556235 63.8455098,49.6244817 C63.8991983,49.7190079 63.9730737,49.9316918 64.0095819,50.0971127 C64.1650638,50.8026218 64.3325719,51.3603264 64.4614244,51.6009385 C64.5374473,51.7427278 64.5997259,51.902563 64.6001554,51.9562711 C64.6001554,52.0099792 64.658139,52.1646584 64.7290079,52.3000027 C64.7994472,52.4353471 64.8574308,52.6106502 64.8578603,52.6897085 C64.8578603,52.7683371 64.9115488,52.9423512 64.976834,53.0764065 C65.2414109,53.6203618 65.3706929,53.9327279 65.4222338,54.1540052 C65.4518699,54.2820452 65.5304698,54.4315685 65.5970436,54.4865655 C65.7173058,54.7830341 65.7692763,54.9424396 65.8328435,55.0679016 C65.8968402,55.1933637 66.0415844,55.4885432 66.1549745,55.7239994 C66.2687941,55.9594555 66.4101023,56.2039347 66.4689449,56.267525 C66.5763219,56.5631342 66.6321579,56.6718393 66.7004497,56.740156 C66.7687415,56.8084727 66.9671742,57.1281431 67.1415545,57.4512508 C67.3159347,57.7739289 67.5113609,58.0910213 67.5757871,58.155471 C67.6930428,58.4442055 67.8283378,58.6710684 67.9936984,58.8876193 C68.159059,59.1041702 68.294354,59.3194322 68.294354,59.3654063 C68.400872,59.493876 68.615626,59.7581197 68.8402587,60.0653298 C69.3827274,60.8073604 70.0927042,61.7105153 70.592222,62.294859 C70.7455564,62.4744588 70.8714022,62.6648002 70.8714022,62.7180786 C71.0341858,62.8151828 71.4727135,63.1868426 71.4727135,63.2637526 C71.4727135,63.3161716 72.4163426,64.2760422 72.4683131,64.2760422 C72.5340278,64.2760422 73.4484504,65.2432171 73.4484504,65.3128227 C73.6322798,65.39317 74.2280075,65.855489 74.7369745,66.319097 C74.8550892,66.4265132 75.1063514,66.6198622 75.2953349,66.7483319 C75.4843185,66.8772313 75.6698659,67.0310512 75.7076626,67.0899152 C75.9460396,67.197761 76.0890658,67.2987322 76.2037444,67.4216162 C76.3184231,67.54493 76.4893673,67.6802743 76.583859,67.7223814 C76.6783508,67.7644885 76.9682687,67.9552596 77.2281211,68.1464603 C77.4879734,68.3372313 77.7903471,68.53101 77.8998716,68.5761248 C78.0093962,68.6216693 78.2220027,68.7527169 78.37276,68.867867 C78.5230878,68.9825875 78.7425664,69.1183615 78.8606811,69.1694915 C78.9783663,69.2206216 79.1909728,69.3387794 79.3327104,69.4320166 C79.4744481,69.5252538 79.6870546,69.6404039 79.8051693,69.6885263 C79.923284,69.7362191 80.0779069,69.814418 80.1487757,69.8616811 C80.56411,70.0726464 80.6727755,70.149986 80.7037001,70.2002568 C81.0344212,70.2913456 81.3367949,70.42669 81.609103,70.5921108 C81.8814111,70.7575316 82.17047,70.892876 82.2512175,70.892876 C82.3323945,70.892876 82.5011912,70.9448654 82.6266075,71.0088854 C83.2738761,71.3375788 84.33562,71.752205 84.5306166,71.752205 C84.8321313,71.9352421 85.0722262,72.0143004 85.3118917,72.0460956 C85.5515572,72.0778908 85.8118391,72.1350361 85.8900095,72.1732763 C86.4079962,72.4250597 87.250691,72.6364546 88.6959855,72.8770668 C88.9794608,72.9243299 89.2887066,72.9973728 89.3831984,73.03948 C89.4776901,73.0815871 89.8062638,73.1537707 90.113362,73.2001745 C90.4204603,73.2465783 90.8456732,73.3307925 91.0582797,73.3870786 C91.3228566,73.4566842 92.5899053,73.4936354 95.0694552,73.5039473 C97.062802,73.512111 98.724998,73.5499214 98.7632243,73.5877319 C98.9384635,73.7634647 98.8422537,94.8746018 98.6657259,95.0039308 C98.4372277,95.1710703 17.9684685,95.1899755 17.8013899,95.022836 C17.7215014,94.9429184 17.6983079,89.1970147 17.6983079,69.6833703 L17.6983079,44.4470241 C17.2821147,44.3636692 13.3383719,44.339608 8.66575404,44.339608 L0.17008518,44.339608 C-0.0287770381,44.8625097 -0.0287770381,112.477098 0.0863311143,112.779582 L58.7627118,113 C98.987857,113 117.407738,112.972072 117.521558,112.911059 C117.685201,112.823408 117.687778,112.460341 117.690784,88.785396 L117.693791,64.7486732 L118.82898,63.5658067 C119.453485,62.9152946 120.176777,62.1225636 120.436629,61.8041822 C120.696481,61.4858007 120.957622,61.1944882 121.016465,61.1566777 C121.123842,60.956454 121.31712,60.6586965 121.55335,60.3416041 C122.384448,59.224906 122.498268,59.0594851 122.498268,58.9653886 C122.747382,58.7114569 123.099579,58.2057417 123.099579,58.0931696 C123.099579,58.0441878 123.22972,57.8336522 123.388638,57.6252649 C123.547985,57.4168776 123.703467,57.1457593 123.733962,57.0228753 C123.920798,56.7998794 123.958595,56.7272661 123.958595,56.6383255 C124.149726,56.3186551 124.229614,56.1622572 124.258821,56.0277722 C124.50407,55.7093908 124.559906,55.6122866 124.559906,55.5199087 C124.759627,55.1516862 124.817611,55.0163419 124.817611,54.9218157 C125.017332,54.5501559 125.075745,54.4410211 125.075745,54.3782901 C125.076175,54.3159887 125.153057,54.1488492 125.247119,54.0070599 C125.341181,53.8652706 125.418063,53.6478604 125.418493,53.5232576 C125.418493,53.3990846 125.476906,53.2495613 125.547775,53.1906973 C125.676627,52.8632929 125.729027,52.7227926 125.793453,52.6299851 C125.857879,52.5367479 126.011214,52.1173953 126.134912,51.6984724 C126.25861,51.2791198 126.396482,50.8915624 126.44201,50.836995 C126.487538,50.7819979 126.551535,50.5345112 126.584607,50.2865947 C126.61725,50.0382486 126.675663,49.8161121 126.713889,49.7924805 C126.752115,49.768849 126.809669,49.566477 126.842312,49.3430514 C126.874525,49.1196259 126.935945,48.8931927 126.978466,48.8390549 C127.060931,48.7355058 127.276115,47.6059177 127.396807,46.6434692 C127.436321,46.3272361 127.506761,45.9981131 127.553148,45.9113208 C127.599105,45.8249583 127.663531,45.4262296 127.695744,45.0253526 C127.727957,44.6244756 127.808705,44.0525921 127.875279,43.7544049 C128.017016,43.1172124 128.0488,38.6465529 127.913934,38.2920797 C127.869266,38.1734923 127.787659,37.6587542 127.733111,37.147883 C127.678564,36.6370119 127.580207,36.0732921 127.514062,35.8949813 C127.448348,35.7166705 127.394659,35.3613379 127.394659,35.1052579 C127.394659,34.8487481 127.35901,34.617159 127.31563,34.5905198 C127.27182,34.5634509 127.212548,34.2807316 127.183341,33.9623502 C127.154135,33.6439688 127.076394,33.267153 127.010249,33.1253637 C126.944105,32.9835744 126.845748,32.674216 126.79163,32.4379005 C126.591479,31.5635331 126.479807,31.1433212 126.391758,30.9340746 C126.249161,30.5937803 126.097974,30.1464995 126.000047,29.7739804 C125.950224,29.584928 125.85745,29.3692364 125.793024,29.2944748 C125.676627,28.8858638 125.618643,28.7586831 125.547775,28.699819 C125.418922,28.2796071 125.283627,27.9380238 125.118267,27.631673 C124.952906,27.3253222 124.817611,27.0030738 124.817611,26.9162816 C124.600709,26.5403251 124.2163,25.7776706 124.2163,25.6444746 C124.079716,25.5203015 124.002834,25.4330796 123.956877,25.3269525 C123.910919,25.2208253 123.834467,25.0661461 123.786792,24.9832209 C123.566884,24.5999601 123.480552,24.4353986 123.422998,24.3172408 C123.365015,24.1990831 123.268805,24.0714727 123.208674,24.0336622 C123.099579,23.7212961 123.041595,23.6027087 122.970726,23.5438447 C122.841874,23.3199895 122.774441,23.2134326 122.691546,23.1244921 C122.418809,22.8314609 122.240563,22.5654985 122.240563,22.4520671 C122.099684,22.340784 121.774117,21.8866286 121.655143,21.6331265 C121.638822,21.597894 121.535311,21.4625497 121.424497,21.3323613 C121.314114,21.2017433 121.065858,20.9087121 120.873009,20.6814196 C120.68016,20.454127 120.522531,20.2122259 120.522531,20.1443389 C120.264826,19.8672053 119.889436,19.4444154 118.804499,18.2980704 C118.4974,17.9736737 118.201469,17.6582999 118.147351,17.5968579 C118.092804,17.5358455 117.891794,17.3502305 117.700233,17.1848096 C117.509102,17.0193888 117.074011,16.6228084 116.73427,16.3039973 C116.394099,15.9851862 116.085713,15.7239502 116.048345,15.7239502 C116.010978,15.7239502 115.794077,15.5662633 115.566867,15.373344 C115.339657,15.1804246 115.043297,14.9290708 114.908431,14.8147801 C114.561389,14.6068224 114.038677,14.2235617 114.007753,14.1535264 C113.536153,13.9021726 113.325694,13.7663986 113.225189,13.6658571 C113.124684,13.5653156 112.956747,13.4441502 112.852376,13.3964574 C112.555157,13.2615428 112.257937,13.0823727 112.199954,13.0033144 C112.170747,12.9637853 111.954704,12.8344562 111.719764,12.7162985 C111.484393,12.5981407 111.140357,12.3953391 110.955239,12.2651507 C110.769692,12.135392 110.554079,12.0288352 110.476338,12.0288352 C110.122853,11.8174403 109.357469,11.4273049 109.232483,11.4273049 C108.952873,11.2275109 108.817578,11.1695062 108.71106,11.1695062 C108.358863,10.9783055 108.189637,10.8962395 108.039309,10.8640147 C107.888981,10.8322195 107.539791,10.6942972 107.263188,10.5580936 C106.987015,10.4214602 106.677769,10.3088881 106.575975,10.3071695 C106.474611,10.3054508 106.237094,10.2298299 106.04811,10.1383113 C105.859126,10.0467928 105.639218,9.97117181 105.55933,9.96945315 C105.335127,9.8392648 105.080858,9.75676921 104.797812,9.70091282 C104.514766,9.64505643 104.262216,9.56599815 104.236875,9.52518002 C103.766134,9.44998873 103.538495,9.39542134 103.410931,9.32882333 C103.283367,9.26222533 102.908836,9.16555081 102.579403,9.11442073 C102.249541,9.06329065 101.878016,8.98294339 101.753459,8.93525062 C101.628902,8.88798752 101.376351,8.84931772 101.192092,8.84931772 C101.007833,8.84931772 100.691286,8.79517999 100.488988,8.72944131 C100.286689,8.66327298 99.7343419,8.58335537 99.2618831,8.5515602 C98.7894242,8.51976502 98.3659293,8.45789333 98.3212605,8.41363788 C98.2121655,8.30665141 92.3214628,8.30751074 92.2136563,8.41449721 C92.1689875,8.45918232 91.7287417,8.52320234 91.2356665,8.55671617 C90.7425913,8.59065967 90.2400669,8.67014761 90.1189456,8.73330829 C89.9978244,8.79646898 89.8019687,8.84802872 89.683854,8.84759906 C89.3419656,8.8458804 87.5105433,9.19863498 87.3215598,9.30218413 C87.227068,9.35417354 86.9951337,9.42678685 86.8061502,9.463738 C86.1374062,9.59435601 85.5137605,9.76751082 85.1980721,9.90887045 C85.0224033,9.98792872 84.8432985,10.0523784 84.7999182,10.0523784 C84.3399151,10.2513131 84.1277381,10.3093178 84.0031808,10.3097475 C83.6118989,10.5099711 83.4997973,10.5679758 83.4216269,10.5679758 C83.0170303,10.7505833 82.8052829,10.8330789 82.6399223,10.868741 C82.4745617,10.9044032 82.2628142,10.9868988 82.169611,11.0517781 C81.7778996,11.1695062 81.691139,11.2275109 81.66408,11.2984055 C81.2040769,11.4273049 80.5714116,11.7882231 80.6066312,11.8999359 C81.0236835,12.1727729 81.1564015,12.2569871 81.180454,12.2930789 C81.5996538,12.4533438 81.7293652,12.5336911 81.7542767,12.5985704 C81.9969487,12.7162985 82.1528602,12.7936381 82.2726929,12.8881643 C82.3929552,12.9826905 82.5445715,13.0600301 82.6094272,13.0600301 C82.6742829,13.0600301 82.8873189,13.1760395 83.0831746,13.3178288 C83.2786007,13.4596181 83.5006564,13.5756276 83.5766793,13.5756276 C83.6522727,13.5756276 83.9043939,13.7109719 84.1371873,13.8763927 C84.3695511,14.0418136 84.6281149,14.1771579 84.7114395,14.1771579 C84.9506755,14.3185175 85.059341,14.3980055 85.1607049,14.4448389 C85.2624983,14.4912427 85.5004458,14.6235793 85.6894293,14.7382998 C85.8784128,14.8530202 86.0716914,14.963444 86.1189373,14.9836382 C86.4045602,15.1009366 86.6364945,15.2255394 86.849101,15.3492827 C87.0617075,15.4725965 87.5062483,15.7166459 87.8369694,15.8910897 C88.1676906,16.0659632 88.6315593,16.3310662 88.8677887,16.4801598 C89.1040181,16.629683 89.3436836,16.7525671 89.4003787,16.7534264 C89.4570737,16.7542858 89.6696802,16.8664282 89.8728375,17.0022022 C90.0759948,17.1379762 90.3388537,17.2784765 90.4569684,17.3145683 C90.5750831,17.3502305 90.8070175,17.4847155 90.9723781,17.6131852 C91.1377387,17.7416548 91.3791222,17.8727025 91.5092631,17.904068 C91.7454925,18.0922611 91.798322,18.1300716 91.8627482,18.1300716 C92.2974104,18.3762694 92.4962726,18.4733735 92.625984,18.5051687 C92.8622134,18.6937914 92.9373773,18.7316019 93.0288625,18.7316019 C93.2689575,18.8501893 93.5322459,19.0087355 93.8277475,19.1604071 C94.9448979,19.7331499 95.27476,19.9144684 95.4195042,20.0356338 C95.5011108,20.1039504 95.7420648,20.2328498 95.9546712,20.3213607 C96.1672777,20.4098716 96.3992121,20.5293183 96.4700809,20.5864637 C96.6242743,20.7110664 97.2835691,21.0758516 98.2585523,21.5755515 C98.6515522,21.7770641 99.0282307,22.0211136 99.096093,22.1173584 C99.2008929,22.2673114 99.2189323,23.7728559 99.2189323,32.4048163 C99.2189323,41.5463589 99.2318175,42.5216973 99.3546568,42.5689604 C99.4293912,42.5973183 103.529475,42.6209498 108.46624,42.6209498 C114.488802,42.6209498 117.496217,42.650167 117.60746,42.7098904 C117.770243,42.7971123 117.773679,43.0072183 117.773679,53.4287315 L117.773679,64.0582023 L117.236794,64.5536055 C116.941722,64.8264425 116.651804,65.0494384 116.592532,65.0494384 C116.485155,65.1770487 116.205116,65.4365661 115.862368,65.7085437 C115.520051,65.9805214 115.191047,66.2503507 115.131775,66.3083554 C114.758103,66.4974078 114.681221,66.5549829 114.681221,66.5953713 C114.681221,66.6817339 113.549897,67.4512631 113.201996,67.6016457 C112.963189,67.8448358 112.905206,67.8852243 112.834337,67.8852243 C112.705484,68.0167016 112.580068,68.1120871 112.426304,68.1821224 C112.27297,68.2525874 111.91519,68.4463661 111.631714,68.6135056 C111.348239,68.7806451 111.010216,68.9593856 110.880075,69.011375 C110.643846,69.2193326 110.509839,69.2773373 110.346197,69.3082732 C110.182554,69.3387794 110.003879,69.4178376 109.949331,69.484006 C109.656836,69.6038824 109.542587,69.6618871 109.471718,69.7327817 C109.102771,69.8616811 108.984656,69.9196858 108.925814,69.9905805 C108.645775,70.1194798 108.078394,70.3669666 107.623975,70.6028524 C107.498559,70.6677318 107.308287,70.7210102 107.201339,70.7210102 C106.706975,70.9745122 105.677015,71.3225405 105.429618,71.3225405 C105.087301,71.5223345 104.95716,71.5807689 104.856655,71.5807689 C104.75572,71.5811986 104.566307,71.6374846 104.435307,71.7058013 C104.304307,71.7741179 103.956406,71.8566135 103.662193,71.889268 C103.36798,71.9219225 103.051003,72.0009808 102.9578,72.0650008 C102.865026,72.1294505 102.659292,72.1818696 102.501233,72.1818696 C102.343603,72.1818696 102.129708,72.2295623 102.026626,72.2884264 C101.923544,72.3468607 101.510358,72.4211927 101.108768,72.4534176 C100.707178,72.4856424 100.069358,72.5741533 99.6913911,72.6502039 C99.2013224,72.7485971 98.9487717,72.7632057 98.8108996,72.7017636 L98.6073128,59.830733 C98.6012997,52.7992729 98.6051653,46.406724 98.6154735,45.6247346 C98.6360899,44.0826686 98.5471817,43.6371065 98.1958441,43.5258233 C98.0163098,43.3573948 97.9102213,43.2834926 97.7800804,43.2319328 C97.6503689,43.1808027 97.4764182,43.0995961 97.3935231,43.0519034 C97.0477692,42.85125 96.9253594,42.7850817 96.5894841,42.6175125 C96.395776,42.520838 96.155681,42.3661588 96.0564646,42.2733512 C95.6973959,42.1053524 95.6024747,42.062386 95.5496452,42.0095372 C95.436255,41.8961058 95.1583633,41.7302553 94.7795373,41.5502258 C94.6292095,41.4789015 94.4818882,41.3813677 94.4522521,41.3332452 C94.1988424,41.2460233 93.9978326,41.1338809 93.8234524,40.9968179 C93.6490721,40.8597549 93.4106952,40.7192546 93.2934395,40.6840221 C93.0975838,40.6255878 92.6204004,40.3304082 92.518607,40.2049462 C92.1518071,40.0506966 91.9044105,39.9101963 91.717145,39.7744223 C91.52945,39.6386483 91.3267222,39.5273652 91.2665911,39.5273652 C91.20646,39.5273652 90.9882699,39.3980362 90.781247,39.2403493 C90.5742241,39.0822328 90.301057,38.9266942 90.1734931,38.894899 C89.9415588,38.7058466 89.8822867,38.6680362 89.8101293,38.6680362 C89.6018179,38.4682422 89.5425458,38.4102374 89.4974475,38.4102374 C89.3423951,38.4102374 88.4812315,37.9681126 88.4812315,37.888195 C88.3115758,37.8087071 88.0616021,37.6763704 87.8159236,37.5143869 C87.570245,37.352833 87.2910647,37.1955758 87.1952844,37.1650696 C87.0209042,36.9854699 86.9461698,36.949378 86.8551141,36.949378 C86.4973339,36.757318 86.2147176,36.5785775 85.9368259,36.4286246 C85.6589342,36.2786717 85.3350852,36.0909083 85.2169705,36.0114204 C85.0988557,35.9319324 84.9055771,35.818501 84.7874624,35.7592073 C84.281502,35.5065645 84.1002496,35.3884068 84.1002496,35.3119265 C83.8434038,35.2307199 83.7179874,35.1817382 83.6552793,35.1224445 C83.5930006,35.0627211 83.4452498,34.9664762 83.3271351,34.9080418 C83.2090204,34.8500371 83.0449483,34.7632449 82.9620533,34.7155521 C82.5785026,34.4955639 82.4238797,34.4190836 82.3177912,34.3731095 C82.1245126,34.1638629 82.0085455,34.1015615 81.8668078,34.0706257 C81.609103,33.9043455 81.5030145,33.8308729 81.3728736,33.7793131 C81.2427326,33.728183 81.0786606,33.6486951 81.0077917,33.6031507 C80.7118607,33.4115203 78.3332452,32.0512024 78.2945895,32.0512024 C78.2447666,32.0512024 77.7207668,31.6894248 77.6576291,31.6116556 C77.2818096,31.4565467 77.0498752,31.321632 76.8845146,31.1931623 C76.7191541,31.0646926 76.4777705,30.9336449 76.3476296,30.9022794 C76.1114002,30.7140864 76.0585707,30.6762759 75.9941445,30.6762759 C75.9297183,30.6762759 75.7785315,30.5989363 75.6582692,30.5044101 C75.2803022,30.3325443 75.0934662,30.2246985 74.9212334,30.0932211 C74.7490007,29.9613141 74.3852074,29.7434742 74.1124698,29.6094189 C73.8397322,29.4749339 73.5957717,29.3314259 73.5704307,29.2901781 C73.3097193,29.2154165 73.1761423,29.1509668 73.0893817,29.0727679 C72.9150014,28.9146513 72.759949,28.8218438 72.0955001,28.4763935 C71.8472445,28.3474941 71.6445167,28.2100015 71.6445167,28.1704723 C71.474861,28.0982887 71.2309004,27.969819 70.992094,27.8125618 C70.753717,27.6557342 70.5033138,27.5001957 70.4358811,27.4671115 C70.3684483,27.434457 70.1584189,27.3132916 69.9694353,27.1985712 C69.7804518,27.0838507 69.5386388,26.9502251 69.4325503,26.901673 C69.2392717,26.6769584 69.1615307,26.6374293 69.0666095,26.6374293 C68.9716882,26.6374293 68.7015276,26.502085 68.4661572,26.3366641 C68.2307868,26.1712433 67.9760886,26.035899 67.8996361,26.035899 C67.8231837,26.035899 67.6200264,25.9280532 67.4477937,25.7957165 C67.275561,25.6638095 67.0285939,25.5099896 66.8984529,25.4541332 C66.502017,25.2831267 66.5711678,25.0678648 67.5169445,23.5223614 C67.7703542,23.1090242 68.0100197,22.7704485 68.049964,22.7704485 C68.1225508,22.5044862 68.7672424,21.6331265 68.9051144,21.5815668 C68.9815669,21.3933737 69.414511,20.7716491 69.6889666,20.452838 C69.7486682,20.383662 70.0248419,20.0549687 70.3027336,19.7224083 C70.7945203,19.1346273 71.4735725,18.4145095 72.2320837,17.6763458 C72.436959,17.4769815 72.8437031,17.0816901 73.1357686,16.7981115 C73.427834,16.5145329 73.8775289,16.1085 74.1352337,15.895816 C74.3925091,15.6831321 74.6656762,15.4476759 74.7425581,15.3724846 C74.8190105,15.2972933 75.1003383,15.0906247 75.3674923,14.9127436 C75.6350758,14.7352921 75.8536954,14.5552627 75.8536954,14.5127259 C76.0577117,14.4349566 76.1388887,14.3769519 76.1663772,14.3060573 C76.3334558,14.1771579 76.5379017,14.0516959 76.7462131,13.897876 C77.2848161,13.5008659 78.1403961,12.9740972 78.2464846,12.9740972 C78.4882976,12.7364927 78.6570943,12.6325139 79.3464547,12.2870636 C80.0418282,11.9386057 80.0645921,11.8449388 79.5191169,11.5613602 C79.2747268,11.4346092 79.017022,11.2971165 78.9461532,11.2562984 C78.6175796,11.0994709 78.4049731,10.9843208 78.2159895,10.8734673 C78.027006,10.7621842 77.5532587,10.5069635 77.1636949,10.3063101 C76.7741311,10.1056568 76.4550066,9.91144844 76.4550066,9.87492695 C75.995433,9.65622771 75.729138,9.52174271 75.565925,9.41131892 C75.4031414,9.30089514 75.1789383,9.1814484 75.0681252,9.14621591 C74.9568826,9.11098342 74.711204,8.98380272 74.5222205,8.86392631 C74.3332369,8.74362024 73.8899847,8.49656314 73.5373586,8.31438538 C73.1847325,8.13220762 72.8338244,7.92682797 72.757372,7.85765198 C72.4279393,7.73218994 72.1796837,7.60286091 71.9438838,7.44517403 C71.7085134,7.28705748 71.4095758,7.13151892 71.2794348,7.09972375 C71.0432054,6.91067135 70.9839333,6.87286088 70.911776,6.87286088 C70.7086187,6.6859568 70.5595794,6.60775786 70.4032385,6.57854067 C70.246468,6.54932348 69.9595567,6.41011218 69.765419,6.26918221 C69.5712814,6.12868191 69.3569569,6.01353181 69.2890946,6.01353181 C68.9897275,5.84553298 68.8419768,5.74928813 68.7238621,5.69085375 C68.6057473,5.63284904 68.4511245,5.54906446 68.3802556,5.50480901 C68.051682,5.34669246 67.8777312,5.24958828 67.7359936,5.1584994 C67.5942559,5.06741052 67.2463544,4.87234282 66.9628791,4.72453822 C65.5317584,3.97907026 65.0146307,3.6903357 64.8935094,3.56874063 C64.5765325,3.43554463 64.3557654,3.32254286 64.1504605,3.18376121 C63.9455852,3.04540923 63.6698411,2.9053386 63.5379821,2.87225443 C63.2283068,2.6290643 63.1393986,2.57621557 63.0556446,2.57621557 C62.7378086,2.37642156 62.6171169,2.31841685 62.5286382,2.31841685 C62.1201761,2.07135974 61.9462253,1.97382589 61.8212385,1.94246038 C61.5940287,1.75469698 61.5218714,1.7168865 61.4338222,1.7168865 C61.3457731,1.7168865 61.1812715,1.64642152 61.0687404,1.56005895 C60.9562093,1.47369638 60.6899143,1.31643916 60.4773079,1.21031202 C60.2647014,1.10461455 59.9747835,0.943920014 59.8330458,0.853690462 C59.6913082,0.763031246 59.334387,0.569682207 59.040174,0.424025931 C58.745961,0.278369655 58.4826726,0.12326076 58.455184,0.0785756486 C58.3907578,-0.0258328324 57.9861613,-0.026262497 57.9861613,0.0777163195 C57.9861613,0.160211909 57.1224206,0.599758725 56.9604961,0.599758725 Z"/>
</svg>
