<svg xmlns="http://www.w3.org/2000/svg" width="127" height="127" viewBox="0 0 127 127">
  <g fill="none" fill-rule="evenodd">
    <path fill="#8C44AB" d="M19.2785748,17.2044793 C-3.25606612,70.3653345 38.1959457,110.596634 83.5464724,91.0768287 C27.0116502,138.997655 -29.1147891,66.2381154 19.2785748,17.2044793 Z M18.812402,108.572464 C72.1495096,130.300876 111.539959,88.0349669 91.3388789,42.8517007 C140.021193,98.7853016 68.4682853,156.318132 18.812402,108.572464 Z M108.643138,108.742981 C130.834891,55.4367415 89.1247505,15.4753315 43.9009766,35.2886123 C100.126044,-12.9976081 156.719812,59.3961498 108.643138,108.742981 Z M112.905344,22.1506463 C61.8605742,-4.55409276 18.6552131,33.7740614 34.4977696,80.6756489 C-8.68216386,20.3619527 67.9828491,-30.1042622 112.905344,22.1506463 Z"/>
    <path fill="#E92D9D" d="M63.8146475,86.7899187 C76.8062296,86.7899187 87.4022226,76.155969 87.4022226,63.1173748 C87.4022226,50.0787806 76.8062296,39.4444443 63.8146475,39.4444443 C50.8230654,39.4444443 40.2270723,50.0787806 40.2270723,63.1173748 C40.2270723,76.155969 50.8230654,86.7899187 63.8146475,86.7899187"/>
  </g>
</svg>
