<svg xmlns="http://www.w3.org/2000/svg" width="128" height="128" viewBox="0 0 128 128">
  <g fill="none" fill-rule="evenodd">
    <path fill="#0C730A" d="M63.8863125,0.0454404357 C73.3451166,9.5002968 82.8039207,18.9519074 92.265973,28.403518 C93.3996003,29.5654949 94.6046883,30.6625568 95.6733513,31.8894486 C87.6664996,32.0387529 79.6499033,31.9121688 71.6398033,31.9543635 C58.5170119,31.9446263 45.3974687,31.973838 32.2746772,31.9381348 C32.7489167,31.0715208 33.5349849,30.4548291 34.2171102,29.7602396 C43.308866,20.6753982 52.3973735,11.5873111 61.4891293,2.50571545 C62.3011832,1.69752485 63.1327264,0.908808713 63.8863125,0.0454404357 M31.8718985,32.0712103 C31.9336146,32.853435 31.9563521,33.6389054 31.9498557,34.4243758 C31.9076289,54.7232675 31.9985789,75.025405 31.9011324,95.3242968 C21.3119492,84.8080817 10.7584964,74.2529176 0.227781126,63.6782791 C10.8169643,53.1847842 21.3476796,42.6263744 31.8718985,32.0712103 M95.699337,45.7715017 C95.728571,41.1203485 95.6311245,36.4659496 95.7513085,31.8147965 C105.443984,41.6688795 115.299071,51.3671668 125.050214,61.1660722 C125.875261,62.0554064 126.891952,62.7921906 127.51561,63.8567951 C126.346252,64.7720953 125.378284,65.9016147 124.312869,66.9240245 C118.147756,73.0909408 111.976146,79.2546113 105.807784,85.4182818 C102.507597,88.7906113 99.0547439,92.020128 95.8552514,95.4833383 C95.7675496,95.0256882 95.7155781,94.5680381 95.6928406,94.1038965 C95.7025852,77.9952621 95.6960888,61.8833819 95.699337,45.7715017 M32.2681808,95.6683458 C53.3036257,95.5872022 74.3423188,95.6391341 95.3810119,95.6423799 C94.825567,96.3434609 94.2311435,97.0088387 93.591245,97.628776 C85.9124631,105.298472 78.2369294,112.968169 70.5613957,120.637865 C68.4403109,122.802777 66.2185313,124.870317 64.1851483,127.113127 C64.0552197,127.119619 63.7921142,127.135848 63.6621856,127.142339 C53.2516542,116.596912 42.6657193,106.22351 32.2681808,95.6683458"/>
    <path fill="#AB7342" d="M52.0725519,41.4416773 C56.5420967,39.0528087 61.7067597,38.0174159 66.7479905,38.5724384 C68.5442538,38.9164874 70.3470135,39.2248332 72.0815607,39.8252961 C72.4421126,39.9940749 72.8059128,40.1563622 73.1729611,40.3121579 C73.9103061,40.5555888 74.5989278,40.9191123 75.3460174,41.12684 L75.3070389,41.3475507 C75.6578462,41.4806263 76.0119017,41.6201933 76.362709,41.7597604 C77.327429,42.4381212 78.3441205,43.0418298 79.3055924,43.7331736 C79.9552355,44.340128 80.6568501,44.8854132 81.3454718,45.4501729 C81.5533577,45.6741293 81.7612435,45.89484 81.9691293,46.1187965 C82.8299064,47.0535711 83.5802443,48.0922097 84.4735036,48.9977726 C84.4605107,49.121111 84.4312768,49.3710334 84.4182839,49.4976174 L84.7431055,49.4619142 C84.9932181,50.0169367 85.3505218,50.51029 85.7630452,50.9582029 C85.7500523,51.0815412 85.7240666,51.3217263 85.7110738,51.4450647 L86.1300936,51.4840136 C86.1041079,51.6463009 86.0521364,51.9676297 86.0261507,52.1266712 L86.5328723,52.0877223 C86.4809009,52.2532553 86.376958,52.5810756 86.3249865,52.7466086 L86.8154671,52.7466086 C86.7764885,52.9088958 86.6952831,53.2399619 86.6530563,53.4022491 L86.994119,53.3860204 C87.2117494,54.2786004 87.7347121,55.0770538 87.7769389,56.0118285 L87.9718319,56.0150742 C88.4460714,57.9819959 89.0924663,59.9489176 89.0469913,61.996983 C89.0339984,63.7074908 89.1346931,65.4309816 88.9430484,67.1382437 C88.6409643,68.6475153 88.3291356,70.1632784 87.8061729,71.6173724 C87.6405139,72.1366916 87.4651102,72.6527651 87.3091959,73.1753302 L87.1175511,73.1818216 C87.0298493,74.0386984 86.5296241,74.7657454 86.1398382,75.5090211 C85.9969167,75.8335956 85.8572435,76.1614159 85.7175702,76.492482 C85.5908898,76.6125745 85.3310325,76.8527597 85.2043521,76.9728523 C85.1556289,77.1189108 85.0581824,77.4110279 85.0094592,77.5570865 C84.4605107,78.2679047 83.8465979,78.939774 83.4210817,79.7382274 L83.2716638,79.6798039 C82.2679651,81.0917032 80.9914163,82.3705269 79.5589532,83.3442505 L79.5979318,83.5000463 C78.7826297,83.9998911 78.0322918,84.6035997 77.1747629,85.0352839 C77.0675718,85.148885 76.8531895,85.3760871 76.7459984,85.4864425 C76.3821983,85.6097808 76.0216463,85.7331191 75.6610944,85.8564575 C75.6513497,85.9181266 75.6318604,86.0447107 75.6221158,86.1063799 C74.6833814,86.6127161 73.5789881,86.7620204 72.7247074,87.4144152 C72.5103251,87.4468727 72.0815607,87.5085419 71.8671784,87.5377536 C68.1252339,89.0892199 63.9642696,89.0470252 59.9884536,88.6899932 C57.6140079,88.1641824 55.2330658,87.5734568 53.0567613,86.4471831 C52.3454021,86.168049 51.7802125,85.5578489 50.9843997,85.4994255 L51.049364,85.2819605 C50.341253,84.9671232 49.678617,84.5581593 49.015981,84.1589326 L49.1004346,83.9933996 C48.6294433,83.7791804 48.2364092,83.4448686 47.8498715,83.1138026 C47.541291,82.9060749 47.2457034,82.6853642 46.9761015,82.4354418 C46.7584711,82.2147311 46.5375924,82.0005119 46.3102173,81.79603 C46.0990833,81.5688278 45.8944457,81.3416256 45.6930563,81.1111777 C45.3747312,80.9359074 45.17659,80.673002 45.0986328,80.3127243 L44.9297256,80.3711477 C44.6633719,79.8972689 44.3093164,79.4818135 43.9357716,79.092324 C43.8285805,78.6736229 43.5492339,78.3847515 43.1367105,78.2451845 C43.1659445,78.1478121 43.2244124,77.9530674 43.2568945,77.855695 C42.5617764,77.5798067 42.3993656,76.7618788 41.9283743,76.2522968 C41.9348707,76.13545 41.9478636,75.905002 41.95436,75.7881552 L41.5483331,75.739469 C41.577567,75.5804275 41.6295385,75.2688359 41.6587724,75.1130402 L41.1682918,75.1390061 C41.2072704,74.9799646 41.291724,74.6618816 41.3307026,74.50284 L40.9019381,74.4476624 C40.9311721,74.2918666 40.9863918,73.9835208 41.0156257,73.827725 L40.703797,73.8244792 C39.047207,69.4751804 38.1084726,64.7428836 38.8782998,60.0982219 C39.2291071,58.3844683 39.5506804,56.654486 40.2035718,55.0218761 C40.8337256,53.3081225 41.6620206,51.6690211 42.6267407,50.1208005 C43.1172213,49.5041089 43.5492339,48.8452226 43.9325234,48.1603703 L44.0819413,48.202565 C44.5496844,47.3716542 45.2902776,46.7517168 45.9464171,46.0766018 C46.74223,45.3106059 47.4535892,44.4342546 48.4280539,43.8824779 L48.3728343,43.7234364 C49.633142,43.0093724 50.7505282,42.0518775 52.0725519,41.4416773"/>
  </g>
</svg>
