<svg xmlns="http://www.w3.org/2000/svg" width="109" height="126" viewBox="0 0 109 126">
  <g fill="#447913" fill-rule="evenodd">
    <path d="M24.4339332,83.9349558 L84.4820051,83.9349558 L84.4820051,106.59823 L24.4339332,106.59823 L24.4339332,83.9349558 L24.4339332,83.9349558 Z M22.0521851,81.7884956 L22.0521851,108.716814 L86.8637532,108.716814 L86.8637532,81.7884956 L22.0521851,81.7884956 Z"/>
    <g transform="translate(31.943 85.3)">
      <path d="M40.4336761 12.4048673L40.4336761 12.6278761C40.4336761 13.0460177 40.5457584 13.3247788 40.7699229 13.4641593 40.9100257 13.5477876 41.0781491 13.6035398 41.2462725 13.6035398 41.3863753 13.6035398 41.5264781 13.4362832 41.6385604 13.129646 41.666581 13.0738938 41.6946015 12.9902655 41.6946015 12.8787611 41.7226221 12.7951327 41.7506427 12.7393805 41.8066838 12.7393805 41.8627249 12.7393805 41.8907455 12.7951327 41.8907455 12.8787611 41.8907455 12.9066372 41.8907455 12.9902655 41.8627249 13.0460177 41.8347044 13.129646 41.8347044 13.1853982 41.8347044 13.2411504 41.6946015 13.8265487 41.5264781 14.2725664 41.3303342 14.6070796 41.1341902 14.9415929 40.9100257 15.0809735 40.6858612 15.0809735 40.3496144 15.0809735 40.0974293 14.9415929 39.985347 14.6349558 39.8452442 14.3283186 39.7892031 13.9659292 39.7892031 13.5199115L40.4336761 12.4048673zM41.470437 18.8721239C41.4984576 18.9836283 41.470437 19.0672566 41.4424165 19.1787611 41.4143959 19.2902655 41.3583548 19.429646 41.2742931 19.5690265 41.1902314 19.7084071 41.0781491 19.8477876 40.9660668 19.959292 40.8820051 20.0429204 40.825964 20.0707965 40.7699229 20.0707965 40.7419023 20.0707965 40.6578406 20.0150442 40.5737789 19.9314159 40.4616967 19.8477876 40.377635 19.7641593 40.2655527 19.7084071 40.181491 19.6526549 40.0974293 19.5690265 40.0413882 19.5132743 39.985347 19.4575221 39.9573265 19.4017699 39.9573265 19.3738938 40.0133676 19.2345133 40.0694087 19.150885 40.0974293 19.0672566 40.2095116 18.8442478 40.2655527 18.6769912 40.3215938 18.5933628 40.4056555 18.4539823 40.5177378 18.2867257 40.6017995 18.119469 40.6298201 18.0915929 40.6578406 18.0358407 40.6858612 17.9800885 40.7138817 18.0079646 40.7419023 18.0358407 40.7699229 18.0637168 40.7979434 18.0915929 40.8539846 18.119469 40.8820051 18.1473451 41.1061697 18.3146018 41.2462725 18.4539823 41.3023136 18.5376106 41.3863753 18.649115 41.4424165 18.7606195 41.470437 18.8721239z"/>
      <path d="M40.4336761 12.4048673C40.3496144 12.6557522 40.2655527 12.9066372 40.181491 13.1575221 40.0694087 13.4362832 39.9293059 13.5477876 39.7892031 13.5477876 39.7892031 13.4362832 39.8452442 12.9066372 39.9573265 11.9867257 40.0694087 11.0668142 40.1534704 10.3699115 40.2375321 9.8960177 40.2375321 9.86814159 40.3215938 9.64513274 40.4897172 9.28274336 40.6578406 8.92035398 40.7699229 8.64159292 40.8539846 8.44646018 40.8820051 8.44646018 40.8820051 8.41858407 40.9100257 8.41858407 40.9100257 8.44646018 40.9100257 8.5300885 40.8820051 8.66946903L40.825964 9.05973451 40.5737789 10.8716814C40.5177378 11.2340708 40.4897172 11.5685841 40.4616967 11.819469 40.4336761 12.070354 40.4336761 12.2654867 40.4336761 12.4048673zM37.4354756 12.4048673L37.4354756 12.6278761C37.4354756 13.0460177 37.5475578 13.3247788 37.7717224 13.4641593 37.9118252 13.5477876 38.0799486 13.6035398 38.248072 13.6035398 38.3881748 13.6035398 38.5282776 13.4362832 38.6403599 13.129646 38.6683805 13.0738938 38.696401 12.9902655 38.696401 12.8787611 38.7244216 12.7951327 38.7524422 12.7393805 38.8084833 12.7393805 38.8645244 12.7393805 38.892545 12.7951327 38.892545 12.8787611 38.892545 12.9066372 38.892545 12.9902655 38.8645244 13.0460177 38.8365039 13.129646 38.8365039 13.1853982 38.8365039 13.2411504 38.696401 13.8265487 38.5282776 14.2725664 38.3321337 14.6070796 38.1359897 14.9415929 37.9118252 15.0809735 37.6876607 15.0809735 37.3514139 15.0809735 37.0992288 14.9415929 36.9871465 14.6349558 36.8470437 14.3283186 36.7910026 13.9659292 36.7910026 13.5199115L37.4354756 12.4048673zM38.3321337 4.65530973C38.3601542 4.76681416 38.3321337 4.85044248 38.3041131 4.9619469 38.2760925 5.07345133 38.2200514 5.21283186 38.1359897 5.35221239 38.051928 5.49159292 37.9398458 5.63097345 37.8277635 5.74247788 37.7437018 5.82610619 37.6876607 5.8539823 37.6316195 5.8539823 37.603599 5.8539823 37.5195373 5.79823009 37.4354756 5.71460177 37.3233933 5.63097345 37.2393316 5.54734513 37.1272494 5.49159292 37.0431877 5.43584071 36.959126 5.35221239 36.9030848 5.29646018 36.8470437 5.24070796 36.8190231 5.18495575 36.8190231 5.15707965 36.8750643 5.01769912 36.9311054 4.9340708 36.959126 4.85044248 37.0712082 4.62743363 37.1272494 4.4880531 37.1832905 4.37654867 37.2673522 4.23716814 37.3794344 4.0699115 37.4634961 3.90265487 37.4915167 3.87477876 37.5195373 3.81902655 37.5475578 3.76327434 37.5755784 3.79115044 37.603599 3.81902655 37.6316195 3.84690265 37.6596401 3.87477876 37.7156812 3.90265487 37.7437018 3.93053097 37.9678663 4.09778761 38.1079692 4.23716814 38.1640103 4.32079646 38.248072 4.43230088 38.3041131 4.5159292 38.3321337 4.65530973z"/>
      <path d="M37.4354756 12.4048673C37.407455 12.5163717 37.3794344 12.6557522 37.3514139 12.7672566 37.3233933 12.9066372 37.2673522 13.0460177 37.2113111 13.1853982 37.1552699 13.3247788 37.0712082 13.4362832 36.9871465 13.4920354 36.9030848 13.5477876 36.8470437 13.5756637 36.7910026 13.5477876 36.7910026 13.3247788 36.8190231 13.0738938 36.8470437 12.7672566 36.8750643 12.4884956 36.9030848 12.2933628 36.9030848 12.1818584L36.9311054 12.0146018C36.9311054 11.9867257 36.9311054 11.9588496 36.9030848 11.9588496 36.9030848 11.9588496 36.8750643 11.9588496 36.8470437 11.9867257 36.8190231 12.0424779 36.7349614 12.1261062 36.6508997 12.2654867 36.4547558 12.5163717 36.314653 12.7115044 36.2025707 12.8230088 35.8943445 13.1853982 35.5020566 13.5477876 35.0257069 13.8823009 34.5493573 14.2168142 34.0730077 14.4676991 33.540617 14.6628319 33.0082262 14.8579646 32.4197943 15.0252212 31.7473008 15.1367257 31.0748072 15.2761062 30.3742931 15.3318584 29.6737789 15.3318584L29.4496144 15.3318584C29.0012853 15.3318584 28.637018 15.3039823 28.3568123 15.2482301 27.9084833 15.1646018 27.6002571 15.0252212 27.4601542 14.8579646 27.2920308 14.6628319 27.2079692 14.3840708 27.2079692 14.0216814 27.2079692 13.7150442 27.2359897 13.380531 27.2640103 13.0460177 27.3200514 12.7115044 27.3760925 12.5442478 27.4601542 12.5442478 27.4881748 12.5442478 27.5161954 12.6278761 27.5161954 12.8230088 27.5442159 13.0181416 27.6002571 13.1853982 27.7403599 13.3247788 28.0205656 13.6314159 28.6930591 13.7707965 29.7858612 13.7707965 30.3742931 13.7707965 30.8506427 13.7429204 31.1868895 13.7150442 32.896144 13.5756637 34.2691517 13.1853982 35.3339332 12.5442478 35.8383033 12.2654867 36.2305913 11.9030973 36.5388175 11.5128319 36.762982 11.2061947 36.9311054 10.8438053 37.0431877 10.4256637L37.2673522 9.58938053C37.2953728 9.50575221 37.407455 9.25486726 37.603599 8.83672566 37.7437018 8.5579646 37.8277635 8.39070796 37.8557841 8.33495575 37.8838046 8.27920354 37.9398458 8.19557522 38.0239075 8.13982301 38.0239075 8.22345133 38.0239075 8.30707965 38.0239075 8.36283186 37.9678663 8.58584071 37.9398458 8.75309735 37.9118252 8.86460177L37.5755784 10.4256637C37.5195373 10.8438053 37.4634961 11.2340708 37.4354756 11.5964602 37.4634961 11.9588496 37.4354756 12.2097345 37.4354756 12.4048673zM38.696401 7.05265487C38.9205656 6.80176991 39.3969152 6.41150442 40.1534704 5.82610619 40.825964 5.32433628 41.470437 4.82256637 42.1429306 4.29292035 42.6192802 3.93053097 43.0676093 3.54026549 43.5159383 3.15 43.8241645 2.87123894 44.244473 2.50884956 44.7488432 2.03495575 45.533419 1.31017699 45.9257069.947787611 45.9257069.947787611 45.9257069 1.00353982 45.9257069 1.03141593 45.8976864 1.08716814 45.8696658 1.22654867 45.7575835 1.42168142 45.5894602 1.70044248 45.4213368 1.97920354 45.2812339 2.17433628 45.1691517 2.31371681 45.0010283 2.50884956 44.8329049 2.73185841 44.6367609 2.92699115 44.440617 3.12212389 44.3005141 3.28938053 44.1884319 3.40088496 44.0203085 3.54026549 43.7681234 3.79115044 43.403856 4.09778761 43.1236504 4.34867257 42.7033419 4.68318584 42.1429306 5.12920354 41.7506427 5.43584071 41.3863753 5.71460177 41.0781491 5.93761062 40.6578406 6.24424779 40.2375321 6.55088496 39.8452442 6.82964602L38.7804627 7.6380531C38.6123393 7.74955752 38.4722365 7.86106195 38.3321337 7.97256637 38.1920308 8.0840708 38.1079692 8.1119469 38.0799486 8.0840708 38.1640103 7.86106195 38.248072 7.6659292 38.3601542 7.49867257 38.4442159 7.33141593 38.5562982 7.1920354 38.696401 7.05265487zM24.8822622 12.7672566C25.1064267 12.5442478 25.218509 12.4048673 25.2745501 12.3769912 25.4426735 12.2097345 25.5547558 11.9867257 25.666838 11.7358407 25.7789203 11.4849558 25.862982 11.1504425 25.9470437 10.7323009 26.0311054 10.3141593 26.059126 9.97964602 26.059126 9.78451327 26.059126 9.50575221 26.059126 9.22699115 26.059126 8.94823009 26.059126 8.66946903 26.0871465 8.36283186 26.1151671 8.05619469 26.1151671 7.77743363 26.1431877 7.61017699 26.1431877 7.52654867 26.1431877 7.47079646 26.1431877 7.41504425 26.1151671 7.41504425 26.0871465 7.41504425 26.059126 7.44292035 26.0311054 7.44292035L25.4706941 8.75309735C25.4426735 8.83672566 25.414653 8.97610619 25.3866324 9.14336283 25.3866324 9.31061947 25.3586118 9.50575221 25.3586118 9.75663717L25.3866324 10.760177C25.3866324 11.1783186 25.3305913 11.4849558 25.218509 11.7079646 25.1624679 11.819469 25.1064267 11.9030973 25.0503856 11.9867257 24.9943445 12.070354 24.9102828 12.1261062 24.8822622 12.1539823L24.8822622 12.7672566 24.8822622 12.7672566zM26.7596401 6.32787611C26.9838046 6.07699115 27.4601542 5.68672566 28.2167095 5.10132743 28.8892031 4.59955752 29.5336761 4.09778761 30.2061697 3.56814159 30.6825193 3.20575221 31.1308483 2.81548673 31.5791774 2.42522124 31.8874036 2.14646018 32.3077121 1.7840708 32.8120823 1.31017699 33.5966581.58539823 33.988946.22300885 33.988946.22300885 33.988946.278761062 33.988946.306637168 33.9609254.362389381 33.9329049.501769912 33.8208226.696902655 33.6526992.975663717 33.4845758 1.25442478 33.344473 1.44955752 33.2323907 1.58893805 33.0642674 1.7840708 32.896144 2.00707965 32.7 2.20221239 32.503856 2.39734513 32.3637532 2.56460177 32.251671 2.67610619 32.0835476 2.81548673 31.8313625 3.06637168 31.4670951 3.37300885 31.1868895 3.62389381 30.766581 3.95840708 30.2061697 4.40442478 29.8138817 4.71106195 29.4496144 4.98982301 29.1413882 5.21283186 28.7210797 5.51946903 28.3007712 5.82610619 27.9084833 6.10486726L26.8437018 6.91327434C26.6755784 7.02477876 26.5354756 7.13628319 26.3953728 7.24778761 26.2552699 7.35929204 26.1712082 7.38716814 26.1431877 7.35929204 26.2272494 7.13628319 26.3113111 6.94115044 26.4233933 6.77389381 26.4794344 6.60663717 26.6195373 6.46725664 26.7596401 6.32787611z"/>
      <path d="M24.8822622 12.7672566L24.7982005 12.850885C24.6300771 12.9345133 24.5179949 12.9902655 24.4619537 13.0181416 24.4059126 13.0460177 24.3498715 13.0738938 24.2938303 13.129646 24.2377892 13.1853982 24.1537275 13.2411504 24.0976864 13.3247788 24.0696658 13.3526549 23.9856041 13.380531 23.9015424 13.380531 23.8174807 13.380531 23.7614396 13.4084071 23.7053985 13.4362832 23.6493573 13.4641593 23.5652956 13.5477876 23.4251928 13.659292 23.28509 13.7707965 23.2010283 13.8265487 23.1169666 13.8544248 23.0609254 13.8544248 23.0048843 13.8544248 22.9488432 13.8544248 22.8928021 13.8544248 22.8087404 13.8544248 22.7246787 13.8265487 22.5565553 13.8265487 22.3043702 14.0495575 22.0241645 14.4676991 21.7439589 14.8858407 21.3796915 15.1088496 20.9874036 15.1088496 20.511054 15.1088496 20.2028278 14.8579646 20.0066838 14.3283186 19.9786632 14.2446903 19.9506427 14.1331858 19.9226221 13.9380531 19.8946015 13.7707965 19.8946015 13.6314159 19.8946015 13.5199115L20.5390746 12.349115C20.5390746 12.6557522 20.5951157 12.9066372 20.7071979 13.1017699 20.9033419 13.4084071 21.2115681 13.5756637 21.6318766 13.5756637 21.8560411 13.5756637 22.0802057 13.5199115 22.248329 13.4084071 22.4724936 13.2411504 22.6966581 13.1017699 22.9208226 12.9345133 23.0329049 12.9623894 23.1730077 12.9623894 23.3411311 12.9623894 23.4532134 12.9623894 23.5933162 12.9066372 23.7053985 12.7951327 23.7614396 12.7393805 23.8455013 12.6557522 23.9015424 12.6 23.929563 12.6557522 24.0136247 12.6557522 24.0976864 12.6278761 24.2097686 12.6 24.3218509 12.5163717 24.4339332 12.3769912 24.4899743 12.3212389 24.5460154 12.2376106 24.6020566 12.1539823 24.6861183 12.1818584 24.7701799 12.1818584 24.8262211 12.1818584 24.8542416 12.1539823 24.9102828 12.1539823 24.9102828 12.1261062 24.9383033 12.1818584 24.9383033 12.2376106 24.9663239 12.2933628 24.9943445 12.349115 24.9943445 12.4048673 24.9943445 12.4606195 24.9943445 12.4884956 24.9943445 12.5442478 24.9663239 12.6 24.9383033 12.6557522 24.9102828 12.7115044 24.8822622 12.7672566zM22.9488432 4.23716814C22.9768638 4.34867257 22.9488432 4.43230088 22.9208226 4.54380531 22.8928021 4.65530973 22.8367609 4.79469027 22.7526992 4.9340708 22.6686375 5.07345133 22.5565553 5.21283186 22.444473 5.32433628 22.3604113 5.4079646 22.3043702 5.43584071 22.248329 5.43584071 22.2203085 5.43584071 22.1362468 5.3800885 22.0521851 5.29646018 21.9401028 5.21283186 21.8560411 5.12920354 21.7439589 5.07345133 21.6598972 5.01769912 21.5758355 4.9340708 21.5197943 4.87831858 21.4637532 4.82256637 21.4357326 4.76681416 21.4357326 4.73893805 21.4917738 4.59955752 21.5478149 4.5159292 21.5758355 4.43230088 21.6879177 4.20929204 21.7439589 4.0420354 21.8 3.95840708 21.8840617 3.81902655 21.996144 3.65176991 22.0802057 3.48451327 22.1082262 3.45663717 22.1362468 3.40088496 22.1642674 3.34513274 22.1922879 3.37300885 22.2203085 3.40088496 22.248329 3.42876106 22.2763496 3.45663717 22.3323907 3.48451327 22.3604113 3.51238938 22.5845758 3.67964602 22.7246787 3.81902655 22.7807198 3.90265487 22.8928021 4.01415929 22.9208226 4.12566372 22.9488432 4.23716814L22.9488432 4.23716814zM24.5460154 4.15353982C24.574036 4.26504425 24.5460154 4.34867257 24.5179949 4.46017699 24.4899743 4.57168142 24.4339332 4.71106195 24.3498715 4.85044248 24.2658098 4.98982301 24.1537275 5.12920354 24.0416452 5.24070796 23.9575835 5.32433628 23.9015424 5.35221239 23.8455013 5.35221239 23.8174807 5.35221239 23.733419 5.29646018 23.6493573 5.21283186 23.5372751 5.12920354 23.4532134 5.04557522 23.3411311 4.98982301 23.2570694 4.9340708 23.1730077 4.85044248 23.1169666 4.79469027 23.0609254 4.73893805 23.0329049 4.68318584 23.0329049 4.65530973 23.088946 4.5159292 23.1449871 4.43230088 23.1730077 4.34867257 23.28509 4.12566372 23.3411311 3.98628319 23.3971722 3.87477876 23.4812339 3.73539823 23.5933162 3.56814159 23.6773779 3.40088496 23.7053985 3.37300885 23.733419 3.31725664 23.7614396 3.26150442 23.7894602 3.28938053 23.8174807 3.31725664 23.8455013 3.34513274 23.8735219 3.37300885 23.929563 3.40088496 23.9575835 3.42876106 24.1817481 3.5960177 24.3218509 3.73539823 24.4059126 3.81902655 24.4899743 3.93053097 24.5179949 4.0420354 24.5460154 4.15353982L24.5460154 4.15353982zM23.733419 2.31371681C23.7053985 2.20221239 23.6773779 2.09070796 23.5933162 2.00707965 23.5092545 1.92345133 23.3691517 1.7840708 23.1449871 1.61681416 23.088946 1.58893805 23.0609254 1.56106195 23.0329049 1.53318584 23.0048843 1.50530973 22.9768638 1.47743363 22.9488432 1.44955752 22.9208226 1.50530973 22.8647815 1.56106195 22.8647815 1.58893805 22.7807198 1.75619469 22.6686375 1.89557522 22.5845758 2.06283186 22.5285347 2.17433628 22.444473 2.31371681 22.3604113 2.53672566 22.3323907 2.59247788 22.2763496 2.7039823 22.2203085 2.84336283 22.2203085 2.87123894 22.248329 2.92699115 22.3043702 2.98274336 22.3604113 3.03849558 22.444473 3.09424779 22.5285347 3.17787611 22.6125964 3.23362832 22.7246787 3.31725664 22.8367609 3.40088496 22.9488432 3.48451327 23.0048843 3.54026549 23.0329049 3.54026549 23.088946 3.54026549 23.1449871 3.51238938 23.2290488 3.42876106 23.3691517 3.31725664 23.4812339 3.17787611 23.5372751 3.03849558 23.6213368 2.89911504 23.6773779 2.75973451 23.7053985 2.64823009 23.7614396 2.50884956 23.7614396 2.39734513 23.733419 2.31371681z"/>
      <path d="M20.5390746 12.4048673C20.4550129 12.6557522 20.3709512 12.9066372 20.2868895 13.1575221 20.1748072 13.4362832 20.0347044 13.5477876 19.8946015 13.5477876 19.8946015 13.4362832 19.9506427 12.9066372 20.0627249 11.9867257 20.1748072 11.0668142 20.2588689 10.3699115 20.3429306 9.8960177 20.3429306 9.86814159 20.4269923 9.64513274 20.5951157 9.28274336 20.7632391 8.92035398 20.8753213 8.64159292 20.959383 8.44646018 20.9874036 8.44646018 20.9874036 8.41858407 21.0154242 8.41858407 21.0154242 8.44646018 21.0154242 8.5300885 20.9874036 8.66946903L20.9313625 9.05973451 20.6791774 10.8716814C20.6231362 11.2340708 20.5951157 11.5685841 20.5670951 11.819469 20.5390746 12.070354 20.5390746 12.2654867 20.5390746 12.4048673zM18.4375321 13.1017699L18.2133676 13.659292C18.1293059 13.8544248 18.0172237 14.0495575 17.8771208 14.2168142 17.737018 14.3840708 17.6529563 14.4955752 17.5688946 14.5513274 17.4848329 14.6070796 17.3167095 14.6628319 17.092545 14.7464602 16.9804627 14.7743363 16.8683805 14.8300885 16.7562982 14.8579646 16.5041131 14.9415929 16.3359897 14.9973451 16.251928 15.0252212 16.0277635 15.0809735 15.8596401 15.1367257 15.7475578 15.1367257L15.6915167 15.1088496C15.6915167 15.0530973 15.8876607 14.8858407 16.251928 14.6628319L16.8683805 14.2446903C16.9804627 14.1889381 17.092545 14.0774336 17.2046272 13.9938053 17.3167095 13.8823009 17.4568123 13.7707965 17.5969152 13.6314159 17.737018 13.4920354 17.8210797 13.3247788 17.8771208 13.1575221 17.8771208 13.129646 17.8771208 13.1017699 17.9051414 13.0738938L17.5128535 13.1017699C17.3167095 13.1017699 17.1766067 13.0460177 17.0365039 12.9345133 16.9244216 12.8230088 16.8683805 12.6836283 16.8683805 12.5442478 16.8683805 12.4606195 16.896401 12.3769912 16.9524422 12.2654867 16.9804627 12.1539823 17.092545 11.9588496 17.2326478 11.6800885 17.3167095 11.4849558 17.4287918 11.3455752 17.5128535 11.2061947 17.6529563 11.0389381 17.7650386 10.9274336 17.9051414 10.9274336 18.1012853 10.9274336 18.2974293 11.0110619 18.4375321 11.1783186 18.6056555 11.3455752 18.6616967 11.540708 18.6616967 11.7915929 18.6616967 11.9030973 18.6616967 12.0424779 18.6336761 12.1539823 18.6056555 12.2654867 18.6056555 12.3769912 18.577635 12.4606195 18.5496144 12.5442478 18.5496144 12.6557522 18.5215938 12.7672566 18.5215938 12.9066372 18.4935733 12.9902655 18.4375321 13.1017699zM14.7107969 11.1225664C14.7107969 11.2340708 14.6827763 11.4292035 14.6267352 11.7079646 14.5706941 11.9867257 14.514653 12.2376106 14.4586118 12.4327434L14.2624679 13.1575221C14.1503856 13.4362832 14.0663239 13.6314159 14.0102828 13.7707965 13.9262211 13.9659292 13.8421594 14.1053097 13.7580977 14.2446903 13.674036 14.3561947 13.5899743 14.4676991 13.5059126 14.5234513 13.4218509 14.5792035 13.2817481 14.6628319 13.0856041 14.7743363L12.5251928 14.9973451C12.4691517 15.0252212 12.3570694 15.0530973 12.1609254 15.0809735 11.9647815 15.1088496 11.8526992 15.1367257 11.7966581 15.1367257 11.740617 15.1367257 11.7125964 15.1088496 11.7125964 15.0809735 11.7125964 15.0530973 11.7125964 14.9973451 11.740617 14.9415929 11.7966581 14.8579646 11.9367609 14.7185841 12.1329049 14.5792035 12.3570694 14.4119469 12.5532134 14.2725664 12.7493573 14.1053097 12.9735219 13.910177 13.1696658 13.7429204 13.2817481 13.6035398 13.4498715 13.4362832 13.5899743 13.2411504 13.7580977 12.9902655 13.7861183 12.9345133 13.8421594 12.850885 13.8982005 12.6836283 13.9542416 12.5442478 14.0383033 12.2933628 14.1784062 11.9309735L14.3745501 11.4013274C14.4025707 11.3176991 14.4305913 11.2340708 14.4586118 11.1225664 14.4866324 11.0110619 14.5426735 10.9553097 14.6267352 10.9553097 14.6827763 11.0389381 14.7107969 11.0946903 14.7107969 11.1225664zM10.703856 11.1225664C10.703856 11.2340708 10.6758355 11.4292035 10.6197943 11.7079646 10.5637532 11.9867257 10.5077121 12.2376106 10.451671 12.4327434L10.255527 13.1575221C10.1434447 13.4362832 10.059383 13.6314159 10.0033419 13.7707965 9.91928021 13.9659292 9.83521851 14.1053097 9.75115681 14.2446903 9.66709512 14.3561947 9.58303342 14.4676991 9.49897172 14.5234513 9.41491003 14.5792035 9.2748072 14.6628319 9.07866324 14.7743363L8.51825193 14.9973451C8.4622108 15.0252212 8.35012853 15.0530973 8.15398458 15.0809735 7.95784062 15.1088496 7.84575835 15.1367257 7.78971722 15.1367257 7.73367609 15.1367257 7.70565553 15.1088496 7.70565553 15.0809735 7.70565553 15.0530973 7.70565553 14.9973451 7.73367609 14.9415929 7.78971722 14.8579646 7.92982005 14.7185841 8.12596401 14.5792035 8.35012853 14.4119469 8.54627249 14.2725664 8.74241645 14.1053097 8.96658098 13.910177 9.16272494 13.7429204 9.2748072 13.6035398 9.44293059 13.4362832 9.58303342 13.2411504 9.75115681 12.9902655 9.77917738 12.9345133 9.83521851 12.850885 9.89125964 12.6836283 9.94730077 12.5442478 10.0313625 12.2933628 10.1714653 11.9309735L10.3676093 11.4013274C10.3956298 11.3176991 10.4236504 11.2340708 10.451671 11.1225664 10.4796915 11.0110619 10.5357326 10.9553097 10.6197943 10.9553097 10.6758355 11.0389381 10.703856 11.0946903 10.703856 11.1225664zM10.9 5.90973451C10.9280206 6.02123894 10.9 6.10486726 10.8719794 6.21637168 10.8439589 6.32787611 10.7879177 6.46725664 10.703856 6.60663717 10.6197943 6.7460177 10.5077121 6.88539823 10.3956298 6.99690265 10.3115681 7.08053097 10.255527 7.10840708 10.1994859 7.10840708 10.1714653 7.10840708 10.0874036 7.05265487 10.0033419 6.96902655 9.89125964 6.88539823 9.80719794 6.80176991 9.69511568 6.7460177 9.61105398 6.69026549 9.52699229 6.60663717 9.47095116 6.55088496 9.41491003 6.49513274 9.38688946 6.43938053 9.38688946 6.41150442 9.44293059 6.27212389 9.49897172 6.18849558 9.52699229 6.10486726 9.63907455 5.88185841 9.69511568 5.74247788 9.75115681 5.63097345 9.83521851 5.49159292 9.94730077 5.32433628 10.0313625 5.15707965 10.059383 5.12920354 10.0874036 5.07345133 10.1154242 5.01769912 10.1434447 5.04557522 10.1714653 5.07345133 10.1994859 5.10132743 10.2275064 5.12920354 10.2835476 5.15707965 10.3115681 5.18495575 10.5357326 5.35221239 10.6758355 5.49159292 10.7598972 5.57522124 10.8439589 5.68672566 10.8719794 5.79823009 10.9 5.90973451zM7.31336761 9.97964602C7.28534704 10.0911504 7.25732648 10.2026549 7.22930591 10.3420354 7.20128535 10.4535398 7.11722365 10.6207965 7.03316195 10.8159292 6.92107969 11.0110619 6.86503856 11.1225664 6.86503856 11.1783186 6.78097686 11.289823 6.69691517 11.3455752 6.64087404 11.3455752 6.61285347 11.3176991 6.55681234 11.289823 6.52879177 11.2619469 6.50077121 11.2340708 6.47275064 11.2340708 6.41670951 11.2340708 6.30462725 11.2340708 6.13650386 11.289823 5.91233933 11.3734513 5.71619537 11.4849558 5.49203085 11.6243363 5.26786632 11.819469 4.98766067 12.070354 4.79151671 12.2654867 4.65141388 12.4606195 4.51131105 12.6557522 4.45526992 12.7672566 4.45526992 12.850885 4.45526992 12.9345133 4.48329049 13.0181416 4.56735219 13.1017699L4.84755784 13.2411504C4.93161954 13.2690265 4.98766067 13.2969027 5.0437018 13.3247788 5.09974293 13.3526549 5.15578406 13.380531 5.21182519 13.4084071 5.37994859 13.5199115 5.46401028 13.7429204 5.46401028 14.0495575 5.46401028 14.4955752 5.37994859 14.9973451 5.21182519 15.5827434 5.0437018 16.1681416 4.79151671 16.6699115 4.51131105 17.0880531 4.37120823 17.2831858 4.20308483 17.4783186 4.00694087 17.6734513 3.81079692 17.8685841 3.58663239 18.0358407 3.36246787 18.1752212 2.91413882 18.4539823 2.4377892 18.5933628 1.84935733 18.5933628 1.17686375 18.5933628.700514139 18.3982301.420308483 17.9800885.25218509 17.7849558.168123393 17.5619469.0840616967 17.3110619.0280205656 17.0880531 0 16.8650442 0 16.6420354 0 16.3632743.0280205656 16.1123894.0560411311 15.8615044.0840616967 15.6106195.168123393 15.3597345.25218509 15.1088496.392287918 14.690708.560411311 14.3004425.728534704 13.910177.924678663 13.5199115 1.06478149 13.2132743 1.17686375 12.9623894L1.54113111 12.2376106C1.56915167 12.1539823 1.6251928 12.070354 1.68123393 11.9867257 1.73727506 11.9030973 1.76529563 11.8752212 1.7933162 11.8752212 1.87737789 11.8752212 1.90539846 11.9309735 1.90539846 12.0146018 1.90539846 12.070354 1.90539846 12.1261062 1.87737789 12.1818584 1.82133676 12.3212389 1.76529563 12.4606195 1.73727506 12.5442478 1.7092545 12.6278761 1.6251928 12.7951327 1.51311054 13.0181416 1.45706941 13.129646 1.34498715 13.3247788 1.23290488 13.6035398 1.17686375 13.7429204 1.12082262 13.8823009 1.03676093 14.0216814.728534704 14.7743363.588431877 15.3318584.588431877 15.7221239.588431877 16.1123894.728534704 16.4190265 1.03676093 16.6699115 1.34498715 16.8929204 1.73727506 17.0323009 2.29768638 17.0323009 2.74601542 17.0323009 3.16632391 16.9207965 3.58663239 16.7256637 3.89485861 16.5862832 4.1470437 16.3911504 4.37120823 16.1960177 4.56735219 15.9730088 4.73547558 15.7778761 4.84755784 15.5827434 4.9596401 15.3876106 5.01568123 15.220354 5.01568123 15.0809735 5.01568123 14.9973451 4.93161954 14.9137168 4.79151671 14.8858407 4.65141388 14.8300885 4.53933162 14.8022124 4.48329049 14.8022124 4.42724936 14.7743363 4.34318766 14.7464602 4.25912596 14.7185841 4.09100257 14.6628319 3.97892031 14.5513274 3.89485861 14.439823 3.81079692 14.3283186 3.78277635 14.1889381 3.78277635 13.9938053 3.78277635 13.7150442 3.89485861 13.3526549 4.09100257 12.9066372 4.28714653 12.4606195 4.56735219 12.0424779 4.90359897 11.5964602 5.18380463 11.2619469 5.46401028 10.9553097 5.68817481 10.760177 5.80025707 10.6486726 5.96838046 10.5371681 6.16452442 10.3699115 6.36066838 10.230531 6.55681234 10.0911504 6.72493573 10.0075221 6.94910026 9.86814159 7.14524422 9.81238938 7.25732648 9.78451327 7.31336761 9.81238938 7.34138817 9.84026549 7.36940874 9.86814159 7.31336761 9.92389381 7.34138817 9.95176991 7.31336761 9.97964602z"/>
    </g>
    <rect width="12.105" height="7.805" x="48.644" y="107.769"/>
    <polygon points="44.132 107.769 44.132 118.864 47.691 118.864 47.691 125.944 61.225 125.944 61.225 118.864 64.531 118.864 64.531 107.546 62.206 108.159 62.206 116.996 58.591 116.996 58.591 124.773 50.549 124.773 50.549 116.968 46.99 116.968 46.99 107.518"/>
    <polygon points="52.398 13.018 56.461 13.018 56.461 52.881 55.481 54.665 53.519 54.665 52.398 52.881"/>
    <rect width="1.905" height="39.612" x="53.491" y="42.929"/>
    <path d="M59.1794344,0.0836283186 L49.9606684,0.0836283186 L49.9606684,6.82964602 L43.9922879,6.82964602 L43.9922879,22.4402655 L46.7102828,29.1862832 L46.7102828,56.950885 L54.0236504,63.1393805 L62.1496144,56.6721239 L62.1496144,28.6287611 L65.1197943,22.1615044 L65.1197943,6.80176991 L59.1514139,6.80176991 L59.1514139,0.0836283186 L59.1794344,0.0836283186 Z M56.6575835,2.31371681 L56.6575835,9.33849558 L63.3264781,9.33849558 L63.3264781,22.3566372 L59.6838046,29.1584071 L59.6838046,56.2539823 L54.4439589,60.6862832 L49.3442159,56.1146018 L49.3442159,29.1584071 L46.0658098,22.2451327 L46.0658098,9.22699115 L52.3424165,9.22699115 L52.3424165,2.31371681 L56.6575835,2.31371681 Z"/>
    <polygon points="44.665 20.517 30.29 20.517 23.201 27.374 26.143 27.374 31.411 22.357 44.861 22.357"/>
    <polygon points="64.307 20.517 78.682 20.517 85.771 27.374 82.801 27.374 77.561 22.357 64.111 22.357"/>
    <path d="M63.5786632 82.6526549L63.5786632 62.9721239C65.9884319 60.630531 68.3982005 58.2889381 70.8079692 55.9473451L70.8079692 36.2668142 75.7956298 27.6252212 82.8568123 27.6252212 77.8691517 36.2668142 81.0915167 36.2668142 81.0915167 40.2530973 86.3874036 40.2530973 86.3874036 45.0477876 91.3750643 45.0477876C91.3750643 48.3650442 91.3750643 51.6544248 91.3750643 54.9716814 92.0195373 54.9716814 92.6640103 54.9716814 93.3084833 54.9716814 94.7375321 55.1110619 95.7182519 55.6964602 96.2786632 56.6721239 103.05964 59.3482301 107.262725 64.3659292 108.887918 71.7530973 106.786375 70.1084071 104.712853 68.4358407 102.611311 66.7911504 99.0807198 66.7911504 95.5501285 66.7911504 91.9915167 66.7911504 91.3470437 67.9061947 90.7025707 69.0212389 90.0580977 70.1362832 91.7673522 70.1362832 93.4766067 70.1362832 95.2138817 70.1362832 95.2138817 71.4185841 95.2138817 72.700885 95.2138817 73.9831858 96.5028278 73.9831858 97.7917738 73.9831858 99.0807198 73.9831858 99.0807198 75.2097345 99.0807198 76.4362832 99.0807198 77.6628319 97.8478149 77.6628319 96.61491 77.6628319 95.3820051 77.6628319L95.3820051 81.3424779 90.5624679 81.3424779 90.5624679 83.0986726 85.911054 83.0986726 79.9706941 82.7920354 69.6871465 82.7920354 63.5786632 82.6526549 63.5786632 82.6526549zM88.3208226 66.6517699L85.7429306 66.6517699 75.2912596 81.370354 77.8691517 81.370354 88.3208226 66.6517699 88.3208226 66.6517699zM85.911054 77.690708L90.8987147 77.690708 90.8987147 74.819469 87.844473 74.819469 85.911054 77.690708 85.911054 77.690708zM78.2053985 49.2292035L78.2053985 54.8323009 80.9514139 54.8323009 80.9514139 49.2292035 78.2053985 49.2292035 78.2053985 49.2292035zM79.6344473 29.5486726L77.3928021 29.5486726 73.6940874 35.960177 73.6940874 54.6650442 75.7956298 54.6650442 75.7956298 36.4340708 79.6344473 29.5486726 79.6344473 29.5486726zM66.1565553 81.2030973C67.977892 81.2030973 69.7992288 81.2030973 71.6205656 81.2030973 75.6275064 75.6557522 79.6624679 70.1084071 83.6694087 64.5610619 90.2542416 64.5610619 96.8390746 64.5610619 103.451928 64.5610619 101.434447 61.160177 98.548329 59.4876106 95.2419023 58.6513274 94.9336761 57.3690265 94.1771208 56.7278761 93.0002571 56.7278761 86.5275064 56.7278761 80.0267352 56.7278761 73.5539846 56.7278761 71.0881748 59.1252212 68.622365 61.5225664 66.1565553 63.9199115 66.1565553 69.6902655 66.1565553 75.4606195 66.1565553 81.2030973zM45.5053985 82.6526549L45.5053985 62.9721239C43.0956298 60.630531 40.6858612 58.2889381 38.2760925 55.9473451L38.2760925 36.2668142 33.2884319 27.6252212 26.2272494 27.6252212 31.21491 36.2668142 27.992545 36.2668142 27.992545 40.2530973 22.6966581 40.2530973 22.6966581 45.0477876 17.7089974 45.0477876C17.7089974 48.3650442 17.7089974 51.6544248 17.7089974 54.9716814 17.0645244 54.9716814 16.4200514 54.9716814 15.7755784 54.9716814 14.3465296 55.1110619 13.3658098 55.6964602 12.8053985 56.6721239 6.02442159 59.3482301 1.82133676 64.3659292.196143959 71.7530973 2.29768638 70.1084071 4.37120823 68.4358407 6.47275064 66.7911504 10.0033419 66.7911504 13.5339332 66.7911504 17.092545 66.7911504 17.737018 67.9061947 18.381491 69.0212389 19.025964 70.1362832 17.3167095 70.1362832 15.607455 70.1362832 13.8701799 70.1362832 13.8701799 71.4185841 13.8701799 72.700885 13.8701799 73.9831858 12.5812339 73.9831858 11.2922879 73.9831858 10.0033419 73.9831858 10.0033419 75.2097345 10.0033419 76.4362832 10.0033419 77.6628319 11.2362468 77.6628319 12.4691517 77.6628319 13.7020566 77.6628319L13.7020566 81.3424779 18.4935733 81.3424779 18.4935733 83.0986726 23.1449871 83.0986726 29.085347 82.7920354 39.3688946 82.7920354 45.5053985 82.6526549 45.5053985 82.6526549zM20.7632391 66.6517699L23.3411311 66.6517699 33.7928021 81.370354 31.21491 81.370354 20.7632391 66.6517699 20.7632391 66.6517699zM23.1730077 77.690708L18.185347 77.690708 18.185347 74.819469 21.2395887 74.819469 23.1730077 77.690708 23.1730077 77.690708zM30.8786632 49.2292035L30.8786632 54.8323009 28.1326478 54.8323009 28.1326478 49.2292035 30.8786632 49.2292035 30.8786632 49.2292035zM29.4215938 29.5486726L31.6632391 29.5486726 35.3619537 35.9323009 35.3619537 54.6371681 33.2604113 54.6371681 33.2604113 36.4061947 29.4215938 29.5486726 29.4215938 29.5486726zM42.9275064 81.2030973C41.1061697 81.2030973 39.2848329 81.2030973 37.4634961 81.2030973 33.4565553 75.6557522 29.4215938 70.1084071 25.414653 64.5610619 18.8298201 64.5610619 12.2449871 64.5610619 5.63213368 64.5610619 7.6496144 61.160177 10.5357326 59.4876106 13.8421594 58.6513274 14.1503856 57.3690265 14.9069409 56.7278761 16.0838046 56.7278761 22.5565553 56.7278761 29.0573265 56.7278761 35.5300771 56.7278761 37.9958869 59.1252212 40.4616967 61.5225664 42.9275064 63.9199115 42.9275064 69.6902655 42.9275064 75.4606195 42.9275064 81.2030973z"/>
  </g>
</svg>
