<svg xmlns="http://www.w3.org/2000/svg" width="128" height="128" viewBox="0 0 128 128">
  <g fill="none" fill-rule="evenodd">
    <rect width="128" height="128" fill="#FFF"/>
    <path fill="#F29200" d="M30.7793846,2.00360402 C37.7088035,1.99639598 44.6382224,2.00360402 51.5712579,2 C55.5278258,4.9408824 59.5205599,7.83851654 63.650725,10.5379294 C61.1878157,7.77364413 58.5223764,5.18235192 56.2656137,2.24146951 C59.6471411,2.24867756 63.0539849,1.9207115 66.4246625,2.31354996 C68.3016815,3.51008545 69.2890152,5.61483462 70.8007569,7.18979248 C70.2691157,5.52113004 69.6072766,3.89931989 68.977987,2.26309365 C71.3830306,2.21624135 73.8025406,1.97477184 76.2039676,2.25228158 C77.1768349,2.29192583 77.4010645,3.40196477 77.7301758,4.11916526 C79.2057514,8.16287857 80.90194,12.1200953 82.3594326,16.1710167 C77.8097411,17.9586119 74.1605847,21.4509097 71.4553628,25.4369587 C57.8930868,17.6342498 44.1535971,10.1306749 30.7793846,2.00360402 M2.11777472,2.71720049 C7.05444318,2.71720049 11.987495,2.72440853 16.9205469,2.70999244 C18.0344618,2.65953613 19.1049775,3.02354241 20.0995444,3.49206534 C36.9963319,11.2190897 54.0052343,18.7046445 70.8658558,26.5073534 C68.5693104,31.0988781 68.0774519,36.3643551 68.5476108,41.4135907 C46.3416442,47.1151543 24.2658756,53.3068651 2.07799205,59.0877173 C2.0526758,53.775388 2.07075883,48.4594547 2.07075883,43.1471255 C16.0706443,41.4532349 29.9981975,39.2007208 44.0197826,37.6942394 C39.7304868,36.9013544 35.3507758,36.987851 31.0216973,36.6058246 C21.4159893,36.039993 11.8247477,35.2471081 2.2081899,34.8794978 C1.92247795,30.435738 2.05629241,25.9811661 2.14309097,21.5338022 C13.8138815,23.1556124 25.5172215,24.5503691 37.1952453,26.121723 C40.1717128,26.5469976 43.1554135,26.9722723 46.1644305,27.0767889 C31.5533385,22.9501831 16.9820292,18.6830204 2.37093721,14.5492065 C1.65846564,10.6388421 2.2081899,6.66000116 2.11777472,2.71720049 M80.2003183,2.7352206 C82.5040969,2.70638842 84.8114921,2.69197233 87.1152708,2.83613323 C87.3901329,4.24170203 87.8060427,5.61843864 88.410016,6.91949079 C88.3810832,5.52113004 88.3304507,4.11916526 88.4895814,2.72801256 C90.5438141,2.70999244 92.5980469,2.69918038 94.6522796,2.67755624 C94.6124969,4.40027902 94.464216,6.11579376 94.4244334,7.83851654 C95.3213519,6.26355868 95.6866292,4.47596349 96.1640213,2.74963669 C98.5907645,2.70999244 101.021124,2.72080451 103.447868,2.72440853 C102.10249,7.09248387 100.185688,11.2587339 98.6956461,15.579957 C93.6794123,14.0698715 88.2255691,14.0590595 83.2238017,15.6412254 C82.337733,11.3127943 81.1442527,7.05283962 80.2003183,2.7352206 M106.626865,2.82532116 C109.487601,2.6559321 112.351954,2.73161658 115.219923,2.73161658 C113.039109,6.97355112 110.142207,10.790211 107.914377,14.9997094 C111.852862,11.0208685 115.509252,6.77172586 119.379021,2.72801256 C121.516436,2.71359647 123.650234,2.73161658 125.787649,2.69918038 C125.888914,4.62733244 126.218025,6.59512876 125.773182,8.50526071 C125.7334,8.9665756 125.30664,9.21885718 125.006462,9.50717898 C120.959478,12.7940475 116.861863,16.0196477 112.77148,19.252456 C117.353721,17.666686 121.393471,14.9096088 125.90338,13.1544498 C125.957629,16.1782247 125.961246,19.2056037 125.896147,22.2293786 C121.060743,23.7646922 116.500202,26.1145149 111.541834,27.2678021 C109.006592,22.3627274 104.887277,18.1928733 99.6793632,16.1602046 C101.469584,11.4533512 104.467751,7.35197349 106.626865,2.82532116 M112.145807,28.359821 C116.789531,27.5308958 121.284973,26.0316224 125.943163,25.2639656 C125.961246,27.3002383 125.93593,29.3365111 125.867214,31.3727838 C123.397071,32.0287159 120.923312,32.6702319 118.460403,33.3477882 C120.930546,33.9929082 123.458554,34.3857467 125.946779,34.9551822 C125.939546,36.987851 125.932313,39.0205197 125.910613,41.0567924 C124.138476,41.1396849 122.366338,41.1973493 120.597818,41.3234901 C122.326556,42.2353078 124.174642,42.8948439 125.986562,43.6264605 C125.90338,46.3366855 125.968479,49.0469104 125.863597,51.7571354 C121.216257,49.8578155 116.590617,47.9152473 111.968594,45.9582631 C114.207273,40.3684241 114.142174,34.0109283 112.145807,28.359821 M2.13585776,68.4329477 C24.500955,59.9418706 46.7141548,51.050747 69.0322361,42.4371331 C70.3667641,47.7278382 73.7157421,52.3914434 78.1171527,55.5882114 C67.0431023,74.2966924 56.0160678,93.0304017 44.9167011,111.720863 C42.222329,116.34122 39.5894391,120.997617 36.6563709,125.470209 C30.8336337,125.794571 25.0036634,125.61437 19.1773096,125.527873 C30.8625666,108.030344 43.2747616,91.0229611 54.8876864,73.4785793 C45.6834218,82.52828 36.609355,91.7077254 27.4340232,100.789862 C18.9566966,109.151195 10.3274725,117.364762 2.13224115,126 C2.08884187,116.885427 1.90801152,107.76725 2.19734008,98.6562809 C3.45591929,97.3768529 4.93511152,96.3533105 6.35643804,95.2684997 C17.8500149,86.3016916 29.3399751,77.3384875 40.8335519,68.3752834 C42.8371521,66.8111376 44.9347841,65.3443004 46.7033049,63.5062489 C38.5804058,67.8490961 30.2115773,71.7198163 22.0271959,75.9437307 C15.4051886,79.2990757 8.78318129,82.6580248 2.09607508,85.8800209 C2.06714223,80.0631285 1.99119348,74.2462361 2.13585776,68.4329477 M111.379087,47.2557112 C116.178324,50.2182178 121.136692,52.9248387 125.845514,56.0315061 C126.062511,58.7849794 125.928696,61.5492647 125.874447,64.3063419 C122.872663,63.0124978 119.979378,61.4807882 117.089709,59.9562867 C119.798548,64.0973086 123.154759,67.7914317 125.784032,71.98291 C126.156543,75.4932279 125.859981,79.0395861 125.899763,82.5643202 C120.970328,78.8774051 116.977594,74.1200953 112.120491,70.3502877 C116.373621,78.4881707 121.476653,86.1647387 125.7334,94.2954136 C126.163776,103.633436 125.88168,113.000291 125.89253,122.352729 C125.93593,123.17805 125.823815,124.01058 125.429605,124.749404 C116.22534,102.739638 107.136807,80.6830204 97.7914944,58.730919 C100.384602,57.4623031 103.122373,56.3630762 105.346586,54.4781724 C107.860128,52.5320002 109.650349,49.8722316 111.379087,47.2557112 M79.2744669,56.33064 C84.3883491,59.4012672 90.6342293,60.172528 96.4533498,59.1093414 C101.957826,81.259664 108.272421,103.200953 113.729881,125.362088 C109.15849,125.163867 104.565399,125.736906 100.008474,125.145847 C97.3394185,112.755217 94.7752442,100.342963 92.1929869,87.9343138 C91.7698439,85.9665175 91.4660489,83.966285 90.7535773,82.0777771 C90.7969766,83.8473522 90.9163246,85.6205313 90.8295261,87.3973144 C90.6016798,91.7293495 90.710178,96.0685927 90.6197629,100.404232 C90.5112647,108.686276 90.3195845,116.964715 90.2942682,125.246759 C85.6107623,125.369296 80.9200231,125.506249 76.2365171,125.261175 C77.0430205,111.464977 78.2835166,97.7012149 79.1732019,83.9122246 L79.6180446,83.7428356 C79.513163,83.7031913 79.3070164,83.6239028 79.2057514,83.5842586 C74.8368902,97.3660408 71.2130501,111.367668 67.1407507,125.232343 C61.4916107,125.545893 55.8352374,125.347672 50.1824808,125.351276 C52.3452117,119.62088 54.7647218,113.991397 57.1806152,108.365518 C64.6055092,91.0445852 71.7157585,73.593908 79.2744669,56.33064"/>
  </g>
</svg>
