<svg xmlns="http://www.w3.org/2000/svg" width="126" height="121" viewBox="0 0 126 121">
  <g fill="none" fill-rule="evenodd" transform="translate(-1)">
    <path fill="#940509" d="M87.4890323,0.569622939 C88.5059498,0.393450896 88.4941935,1.67950681 88.7587097,2.31372616 C90.0283871,7.04688172 91.8270968,11.6332272 92.8792832,16.4309792 C92.5442294,17.394053 91.2980645,17.129795 90.5221505,17.335329 C80.9113978,18.4393405 71.4711111,21.3109448 62.9595699,25.9266523 C53.4605018,31.2705376 45.3898208,39.6269649 41.5220072,49.9212846 C38.5241577,56.7273978 37.5718996,64.2616889 37.7423656,71.6432975 C37.5072401,78.8957133 39.5175627,85.9895742 42.0921864,92.701729 C37.7012186,84.7504975 34.997276,75.9360229 33.7511111,66.9571211 C33.5159857,60.7558652 33.18681,54.4312889 34.8326882,48.3827154 C36.2022939,41.1479168 39.5175627,34.4181448 43.7380645,28.4341677 C51.6324014,17.6465663 62.5833692,9.14920143 74.8804301,3.93450896 C79.0010036,2.58385663 83.074552,0.598984946 87.4890323,0.569622939 Z M79.8004301,34.7704889 C94.6956272,37.653838 108.69147,46.3038853 116.89147,59.1996789 C125.132616,72.4478165 128.206882,88.5499412 126.637419,103.97674 C126.167168,109.291263 124.615341,114.435487 123.010609,119.497497 C122.793118,120.595636 121.458781,120.143461 120.70638,120.072992 C115.568889,118.898512 110.525448,117.324708 105.423226,115.979928 C110.01405,106.542979 113.341075,96.2780215 113.64086,85.7135713 C113.805448,79.5240602 113.29405,73.2053563 111.05448,67.3799341 C107.016201,55.3708731 97.5994265,45.8634552 86.8835842,39.46841 C84.3030824,38.2469505 81.7049462,37.0372358 79.0539068,35.9743312 C77.1082437,35.1580674 74.9098208,35.0288746 73.1111111,33.8661391 C75.3859498,33.5783914 77.5843728,34.4005276 79.8004301,34.7704889 Z M84.5558423,52.2702452 C90.7220072,56.5453534 94.0607885,64.2616889 93.6022939,71.6609147 C93.0262366,75.4897204 92.1092473,79.447719 89.7168459,82.5894538 C85.4963441,88.4207484 78.3602867,92.4315986 71.036129,91.8619756 C60.3790681,92.0146581 50.6389964,82.871329 49.9336201,72.2833892 C49.151828,65.5301276 51.7734767,58.5243527 56.7757706,53.9321348 C59.597276,51.5479398 62.8949104,49.5983025 66.545233,48.8290179 C72.6584946,47.5664516 79.4888889,48.4120774 84.5558423,52.2702452 Z M53.9483871,60.444628 C52.2084588,63.8917276 51.0798566,67.7792573 51.4443011,71.6667871 C52.0908961,76.4469219 53.9895341,81.1859498 57.5869534,84.509729 C63.1006452,90.053276 72.1235842,91.9676789 79.3125448,88.7496029 C84.3207168,86.9409032 88.2473118,82.7773706 90.3164158,77.9326394 C94.7308961,68.5661591 90.0812903,56.2693505 80.6880287,51.9942423 C76.7437993,49.927157 72.1000717,49.1989792 67.7443728,50.2031599 C61.9896774,51.4657262 56.6229391,55.1183599 53.9483871,60.444628 Z M12.8837276,78.1323011 C15.3995699,80.9040746 17.5450896,83.9929577 20.2078853,86.6296659 C28.7017921,95.9374222 39.7526882,103.471713 52.2966308,105.838291 C66.1866667,108.480872 80.6057348,104.070698 91.9916846,96.0783599 C96.5178495,92.8896459 100.068244,88.6086652 103.80086,84.5801978 C100.285735,90.5759197 95.5126882,95.7025262 90.5045161,100.476789 C81.9929749,108.445637 70.8832975,113.548754 59.3033692,114.840682 C53.7602867,114.893534 48.1231541,115.351581 42.6741219,114.106632 C38.018638,113.2199 33.3984229,112.086526 29.0192115,110.23672 C20.1726165,107.206561 12.1430824,102.003613 5.4302509,95.5263541 C3.93132616,94.134595 2.41476703,92.7252186 1.25089606,91.0280946 C1.9562724,89.366205 3.47283154,88.2269591 4.63082437,86.893924 C7.55225806,84.1338953 9.97405018,80.9040746 12.8837276,78.1323011 Z"/>
    <circle cx="71.639" cy="70.125" r="20.301" fill="#FECB05"/>
  </g>
</svg>
