<svg xmlns="http://www.w3.org/2000/svg" width="124" height="128" viewBox="0 0 124 128">
  <g fill="none" fill-rule="evenodd">
    <path fill="#EB8C30" d="M41.5667666,63.9776 C41.5667666,52.6293333 50.4339186,43.4229333 61.3711349,43.4229333 C72.3042398,43.4229333 81.1724197,52.6293333 81.1724197,63.9776 C81.1724197,75.3290667 72.3042398,84.5237333 61.3701071,84.5237333 C50.4339186,84.5237333 41.5667666,75.3237333 41.5667666,63.9776"/>
    <path fill="#029A4C" d="M61.6373448,128 L48.0236403,113.8752 L82.1632548,78.2997333 C92.2000857,67.8389333 109.305353,72.16 115.786895,87.4282667 C108.994946,86.7989333 102.376702,85.7056 96.7503212,91.6490667 L61.6373448,128"/>
    <path fill="#029A4C" d="M0,64.08 L13.6116488,49.952 L47.8910493,85.3824 C57.9720771,95.7994667 53.8083084,113.5488 39.094818,120.276267 C39.701242,113.227733 40.755803,106.359467 35.0286938,100.520533 L0,64.08"/>
    <path fill="#029A4C" d="M61.837773,0.0970666667 L75.4494218,14.2229333 L41.3087794,49.7973333 C31.2740043,60.2581333 14.1687366,55.9370667 7.68411135,40.6698667 C14.4791435,41.2981333 21.0973876,42.3925333 26.7217131,36.4490667 L61.837773,0.0970666667"/>
    <path fill="#029A4C" d="M123.386724,63.9861333 L109.775075,78.1141333 L75.4956745,42.6848 C65.4156745,32.2688 69.5794433,14.5173333 84.2908779,7.79093333 C83.6854818,14.8384 82.6309208,21.7077333 88.35803,27.5466667 L123.386724,63.9861333"/>
  </g>
</svg>
