<svg xmlns="http://www.w3.org/2000/svg" width="128" height="108" viewBox="0 0 128 108">
  <path fill="#209B1C" fill-rule="evenodd" d="M45.1649001,0.796801614 C61.6504024,-2.19075257 79.3636055,3.37209474 91.3886402,14.9796529 C83.00918,24.686527 76.0718662,35.6301843 70.8340335,47.3234071 C69.7886114,49.6363523 69.0273296,52.0724404 67.7513786,54.2729507 C64.0468315,47.2323884 59.1789174,40.6040872 52.5150216,36.0959857 C47.3308002,32.492717 41.149407,30.3243309 34.8339853,30.0566289 C33.9225917,30.0245047 33.0487261,30.2814986 32.1694993,30.46889 C33.4132835,33.038829 35.0430697,35.4106686 36.0456027,38.0983966 C38.9567012,45.5672821 40.2380134,53.5233852 42.5057752,61.1903701 C44.5966194,68.5200505 47.5881349,75.7051719 52.1933533,81.8355474 C56.0640956,87.0450281 60.9856212,91.4299866 66.4432606,94.9261746 C67.2313481,95.4348084 68.6681333,96.2486224 69.1452747,94.9261746 C69.7778891,91.9118502 69.8690284,88.7957991 70.5338097,85.7761207 C73.9113272,68.4236778 81.3311435,51.9332353 91.5548355,37.5415765 C99.9664626,25.89654 110.549351,15.38656 123.662697,9.18122788 C125.051232,8.5922835 126.429044,7.7035129 127.999858,7.78917754 C128.015942,9.54530258 126.659573,10.9052287 126.048404,12.4739623 C122.054355,21.1314446 120.017122,30.4956602 117.663582,39.6885464 C114.6399,51.617347 111.873552,63.7549551 106.507052,74.9074199 C100.89394,86.6488291 91.3243066,96.5109704 79.5566065,102.159482 C67.9336573,107.786578 54.380698,109.531995 41.7766603,106.587273 C29.5854303,103.808527 18.5307617,96.5645108 10.9876392,86.627413 C4.14682591,77.6808125 0.243916741,66.5444098 0.0187489049,55.2902183 C-0.308280572,43.1579642 3.65360112,30.9561076 11.0626952,21.3295441 C19.2705989,10.4929676 31.7245247,2.95983368 45.1649001,0.796801614"/>
</svg>
