<svg xmlns="http://www.w3.org/2000/svg" width="89" height="128" viewBox="0 0 89 128">
  <g fill="none" fill-rule="evenodd" transform="translate(1)">
    <path stroke="#091532" stroke-width="1.623" d="M43.2836972 21.5858882C58.9369128 21.5858882 71.7035642 40.0441242 71.7035642 62.6758758 71.7035642 85.3064348 58.9369128 103.764671 43.2836972 103.764671 27.6292844 103.764671 14.862633 85.3064348 14.862633 62.6758758 14.862633 40.0441242 27.6292844 21.5858882 43.2836972 21.5858882M22.7429174 91.1002236L63.4940367 91.1002236M26.5166422 95.8302609L59.9928853 95.8302609M31.1998761 99.8435776L55.1998761 99.8435776"/>
    <path fill="#091532" d="M49.9834954,35.5001242 C53.0779817,39.6589317 46.6483624,43.3931925 43.9625367,39.2280248 C39.4545,44.3718758 34.9001697,38.3912547 37.4283578,35.9051925 C37.1230596,38.6746832 40.5551697,41.2382609 43.9026743,36.660472 C45.0843578,38.541118 48.526445,40.7660124 49.9834954,35.5001242"/>
    <path fill="#091532" d="M35.8080826,42.4037764 C28.7574908,44.9407205 22.7668624,66.4634037 38.2668303,75.9656149 C33.9323945,77.8923727 29.8469862,76.7435528 29.0188899,77.8597764 C30.8670413,78.3908571 37.6721972,79.7706335 41.4758532,78.9207453 L43.1488073,81.4875031 L44.7974174,78.9763975 C48.2502798,79.6708571 53.7137202,78.5991553 56.7507385,78.2787578 C55.0929495,77.2197764 50.5214587,77.8184348 48.7906376,76.1389317 C64.5069083,65.3014658 58.3805917,44.7924472 51.0793761,42.8235528 C54.2145688,49.8655404 58.1606972,65.2179876 45.9447798,71.8445714 L45.791133,43.3923975 L43.4241743,40.7588571 L40.0906376,43.5597516 L40.4725596,71.7626832 C31.890289,65.9903602 30.3717798,55.346087 35.8080826,42.4037764"/>
    <path stroke="#091532" stroke-width="1.623" d="M21.3952156,36.569441 C19.7857156,31.5957267 15.0873165,31.8024348 11.1998532,28.2442733 C18.4994725,20.8930186 19.2385734,16.0214658 24.3208899,12.4788075 C33.6686009,4.53485714 38.3163165,7.91016149 43.9142477,0.256397516 C49.4443349,7.93759006 58.1926239,7.52775155 63.5076055,12.5674534 C68.1086284,15.7901118 70.2205734,23.2753292 76.1856606,30.5470807 C71.0051697,30.861118 67.7398761,34.189913 65.0141422,36.3925466"/>
    <path stroke="#091532" stroke-width="1.082" d="M34.2883761,108.881093 C34.3211009,107.287851 37.5460872,106.311553 39.4269633,107.170584 C39.7095138,106.448696 42.1287523,104.266335 43.9230275,104.247255 C45.6478624,104.614559 47.4804495,105.84964 47.705133,107.169789 C51.2920872,106.766708 51.8603807,107.701267 52.3440688,108.596075 M52.3440688,108.596075 L52.3440688,112.446012 L45.6354908,117.864547 M45.6354908,117.864547 C44.0655,117.864149 42.3526376,117.934907 40.7830459,117.935304 M40.7830459,117.935304 L34.2169404,112.374857 L34.2883761,108.881093 M36.7151972,109.024199 L40.8540826,113.016447 L46.1351422,112.944894 L49.7747752,109.380373 M43.2809037,109.380373 C41.552078,109.69441 40.3037477,110.21118 39.1416193,111.30554 C39.7841422,111.946335 40.5687385,112.302907 41.2108624,112.944894 C43.0430505,112.968348 44.3743899,112.991801 46.2061789,113.016447 C46.776867,112.374062 47.062211,112.160199 47.6336972,111.518609 C46.9500688,110.700522 45.8613716,109.62564 43.2809037,109.380373"/>
    <path fill="#091532" d="M34.2959587,42.0833789 C22.5341972,42.4256398 15.3016239,67.5824099 29.7615826,74.5448944 C20.9087339,63.8998261 25.8817018,47.5237764 34.2959587,42.0833789"/>
    <path stroke="#091532" stroke-width="1.623" d="M7.29123853,33.2493913 C8.56630734,34.2932671 9.1968578,34.9213416 9.84297248,36.8433292 C10.8099495,35.1252671 12.0111881,33.5328199 13.4506789,32.9866335 C14.5565367,34.5627826 14.3430275,36.8353789 14.4627523,38.771677 C15.5067523,37.6781118 16.9797661,36.340472 18.3781514,36.5364472 C17.1405963,41.7478758 16.0830275,45.3056398 13.4051835,48.4126211 C10.3114954,48.5171677 7.0972844,47.5603478 5.5312844,46.9664596 C4.92188532,42.0046708 5.67375688,37.8593789 7.29123853,33.2493913"/>
    <path stroke="#091532" stroke-width="1.082" d="M8.10297248,47.8187329 C7.90542661,43.0882981 9.06555963,39.8366211 10.0006101,36.7944348 M14.5689083,38.6901863 C12.6501193,42.8529689 12.2179128,45.5314286 10.913711,48.1697391"/>
    <path stroke="#091532" stroke-width="1.623" d="M1.04120642,48.6117764 C2.55452752,49.4095901 3.32954587,49.9148323 4.42063761,51.6976894 C4.98533945,49.8190311 5.8130367,48.0206708 7.12083028,47.2145093 C8.58985321,48.5704348 8.90552752,50.8589317 9.47461927,52.7530932 C10.2616101,51.4782609 11.4189495,49.8826335 12.8588394,49.818236 C12.8364908,55.2045714 12.6094128,58.9213416 10.6618899,62.4910311 C8.29812385,64.7350062 4.65170642,63.8855155 2.47590826,62.5132919 C0.714756881,57.714882 0.500050459,53.4729938 1.04120642,48.6117764"/>
    <path stroke="#091532" stroke-width="1.082" d="M5.51292661,63.4868075 C4.21670642,58.841441 4.34161927,54.8038758 4.56630275,51.6205714 M9.56201835,52.6533168 C8.61659174,57.1277516 8.86402294,60.7932422 8.17720183,63.6454161"/>
    <path stroke="#091532" stroke-width="1.623" d="M0.00957798165,66.4665839 C1.67016055,66.8843727 2.54295413,67.1924472 4.02674312,68.6672298 C4.12850917,66.7090683 4.50524312,64.7664099 5.58436239,63.6752298 C7.33394037,64.6459627 8.18438532,66.7949317 9.1876789,68.5014658 C9.64901835,67.0771677 10.3945046,65.253764 11.7781239,64.8514783 C13.0364312,70.0903354 13.6993073,73.7550311 12.6557064,77.682087 C12.5291972,79.2045714 11.7968807,82.3608447 9.91161468,82.7516025 C7.51432569,83.2480994 5.29063761,80.6169441 4.70757798,79.6342857 C1.85613303,75.3876273 0.639729358,71.3170683 0.00957798165,66.4665839"/>
    <path stroke="#091532" stroke-width="1.082" d="M9.90044037,82.8605217 C6.83748165,79.4530186 4.34640826,72.0954037 4.15005963,68.557913 M9.24873853,68.3834037 C9.39400459,72.9536398 10.5042523,79.7416149 10.5146284,82.674087"/>
    <path stroke="#091532" stroke-width="1.623" d="M15.142789,82.5838509 C19.468445,87.5730683 21.6530229,92.7411677 21.6989174,98.0893416 M21.6989174,98.0893416 L16.0123899,102.901267 M16.0123899,102.901267 C13.0699541,101.019031 6.42483028,100.972919 3.50234862,97.1531925 C4.21590826,96.0659876 5.24115138,95.2534658 7.38222936,95.4160497 C4.9957156,93.2658882 3.7250367,90.8374658 2.76604128,88.331528 C4.23825688,87.6605217 5.7763211,87.1683975 7.78330734,87.9300373 C7.69151835,85.7448944 7.80206422,83.6945093 9.32216972,82.5838509 C11.1767064,83.3379379 12.2462477,84.875528 13.2024495,86.5268075 C13.6019312,85.4332422 13.8465688,83.8491429 15.142789,82.5838509"/>
    <path stroke="#091532" stroke-width="1.082" d="M20.561133,99.224646 C18.4164633,94.1368447 15.1124587,90.1604969 13.2694954,86.5268075 M19.2238073,100.361143 C14.2085367,97.0196273 10.2256927,93.5866832 7.78330734,87.8636522 M7.04739908,95.4160497 C11.9469358,97.0315528 15.2936422,99.008795 18.2197156,101.163329"/>
    <path stroke="#091532" stroke-width="1.623" d="M19.5897661,112.034186 C18.0345413,111.810385 15.5111422,110.22072 14.5593303,108.180671 C15.5267064,106.747627 17.1505734,106.139826 18.4176606,106.215354 C18.1614495,104.808547 17.2467523,103.280099 17.6981147,101.265888 C19.260922,101.178435 21.2276009,101.707925 22.0860275,102.323677 C22.0465183,100.713739 22.3071193,99.5752547 22.8802018,99.0739876 C28.0423349,100.481988 32.9410734,106.277366 34.1510917,109.201093 C34.1127798,111.191453 34.074867,110.271602 34.0373532,112.26077 M34.0373532,112.26077 L19.5897661,112.034186"/>
    <path stroke="#091532" stroke-width="1.082" d="M21.9726881,102.210385 C25.3293716,105.796373 28.8620505,108.834981 31.6165183,112.223801 M18.4168624,106.064298 C21.2435642,108.704199 24.3787569,110.905242 26.095211,112.034186 M26.4958899,106.895901 L26.6515321,100.841342 M34.2169404,112.232149 C29.3884404,112.209093 24.5591422,112.185242 19.729844,112.160994 C18.0540963,112.397913 16.6744679,112.871752 15.9477385,113.871503 C17.6147064,115.223851 19.0893165,116.126609 20.372367,116.723677 C25.6338716,115.796671 31.3140138,115.384845 37.1430138,115.01277 M37.1430138,115.01277 L34.2169404,112.232149"/>
    <path stroke="#091532" stroke-width="1.623" d="M44.2798073,117.721441 L38.1427156,115.65436 M38.1427156,115.65436 C32.1480963,116.586534 26.7724541,118.522435 22.2991376,121.928348 M22.2991376,121.928348 L26.5094587,123.353839 M26.5094587,123.353839 C30.3633991,120.536646 35.1208624,118.849988 40.4969037,117.936099 C38.1774358,119.051925 36.5376055,119.978137 35.3587156,121.856795 M35.3587156,121.856795 L39.3555275,123.924671 M39.3555275,123.924671 C41.9176376,122.253516 43.5925872,120.125615 44.2798073,117.721441 M26.796,125.065143 L35.5726239,121.785242 M35.5726239,121.785242 C36.5024862,122.161689 37.9443716,122.839851 40.2119587,124.352 C37.8817156,126.824149 34.1403165,127.652969 30.7201789,127.987677 M30.7201789,127.987677 L31.2916651,125.705938 L26.796,125.065143"/>
    <path fill="#091532" d="M52.3951514,42.0833789 C64.1565138,42.4256398 71.3890872,67.5824099 56.9295275,74.5448944 C65.7819771,63.8998261 60.8090092,47.5237764 52.3951514,42.0833789"/>
    <path stroke="#091532" stroke-width="1.623" d="M79.3994725,33.2493913 C78.1248028,34.2932671 77.4942523,34.9213416 76.8481376,36.8433292 C75.8811606,35.1252671 74.6795229,33.5328199 73.2404312,32.9866335 C72.1341743,34.5627826 72.3480826,36.8353789 72.2283578,38.771677 C71.1843578,37.6781118 69.711344,36.340472 68.3125596,36.5364472 C69.5505138,41.7478758 70.6080826,45.3056398 73.2859266,48.4126211 C76.3796147,48.5171677 79.5938257,47.5603478 81.1594266,46.9664596 C81.7692248,42.0046708 81.0173532,37.8593789 79.3994725,33.2493913"/>
    <path stroke="#091532" stroke-width="1.082" d="M78.5881376,47.8187329 C78.7852844,43.0882981 77.6251514,39.8366211 76.6901009,36.7944348 M72.1218028,38.6901863 C74.0409908,42.8529689 74.4735963,45.5314286 75.7773991,48.1697391"/>
    <path stroke="#091532" stroke-width="1.623" d="M85.6495046,48.6117764 C84.1361835,49.4095901 83.3615642,49.9148323 82.2704725,51.6976894 C81.7057706,49.8190311 80.8780734,48.0206708 79.5698807,47.2145093 C78.1008578,48.5704348 77.7855826,50.8589317 77.2164908,52.7530932 C76.4295,51.4782609 75.2721606,49.8826335 73.8318716,49.818236 C73.8546193,55.2045714 74.0816972,58.9213416 76.0288211,62.4910311 C78.3929862,64.7350062 82.0394037,63.8855155 84.2152018,62.5132919 C85.9763532,57.714882 86.1906606,53.4729938 85.6495046,48.6117764"/>
    <path stroke="#091532" stroke-width="1.082" d="M81.1777844,63.4868075 C82.4744037,58.841441 82.3490917,54.8038758 82.1244083,51.6205714 M77.1290917,52.6533168 C78.0741193,57.1277516 77.8270872,60.7932422 78.5139083,63.6454161"/>
    <path stroke="#091532" stroke-width="1.623" d="M86.681133,66.4665839 C85.0209495,66.8843727 84.148156,67.1924472 82.664367,68.6672298 C82.5622018,66.7090683 82.185867,64.7664099 81.1063486,63.6752298 C79.3571697,64.6459627 78.5063257,66.7949317 77.5034312,68.5014658 C77.0420917,67.0771677 76.2966055,65.253764 74.9125872,64.8514783 C73.6546789,70.0903354 72.9918028,73.7550311 74.0354037,77.682087 C74.1615138,79.2045714 74.8942294,82.3608447 76.7798945,82.7516025 C79.1767844,83.2480994 81.4004725,80.6169441 81.9835321,79.6342857 C84.8349771,75.3876273 86.0513807,71.3170683 86.681133,66.4665839"/>
    <path stroke="#091532" stroke-width="1.082" d="M76.7906697,82.8605217 C79.8532294,79.4530186 82.3447018,72.0954037 82.5410505,68.557913 M77.4419725,68.3834037 C77.2971055,72.9536398 76.1868578,79.7416149 76.1760826,82.674087"/>
    <path stroke="#091532" stroke-width="1.623" d="M71.547922,82.5838509 C67.2226651,87.5730683 65.0376881,92.7411677 64.9921927,98.0893416 M64.9921927,98.0893416 L70.6787202,102.901267 M70.6787202,102.901267 C73.621156,101.019031 80.2658807,100.972919 83.1887615,97.1531925 C82.4752018,96.0659876 81.4495596,95.2534658 79.3092798,95.4160497 C81.6949954,93.2658882 82.9660734,90.8374658 83.9246697,88.331528 C82.4528532,87.6605217 80.9143899,87.1683975 78.9078028,87.9300373 C78.9991927,85.7448944 78.8890459,83.6945093 77.3689404,82.5838509 C75.5144037,83.3379379 74.4448624,84.875528 73.4886606,86.5268075 C73.0891789,85.4332422 72.8445413,83.8491429 71.547922,82.5838509"/>
    <path stroke="#091532" stroke-width="1.082" d="M66.129578,99.224646 C68.2746468,94.1368447 71.5786514,90.1604969 73.4216147,86.5268075 M67.4673028,100.361143 C72.4821743,97.0196273 76.4650183,93.5866832 78.9078028,87.8636522 M79.643711,95.4160497 C74.7441743,97.0315528 71.3974679,99.008795 68.4709954,101.163329"/>
    <path stroke="#091532" stroke-width="1.623" d="M67.101344,112.034186 C68.6561697,111.810385 71.180367,110.22072 72.1317798,108.180671 C71.1644037,106.747627 69.5401376,106.139826 68.2738486,106.215354 C68.5292615,104.808547 69.4439587,103.280099 68.9925963,101.265888 C67.429789,101.178435 65.4631101,101.707925 64.6050826,102.323677 C64.6445917,100.713739 64.3835917,99.5752547 63.8109083,99.0739876 C58.6483761,100.481988 53.7496376,106.277366 52.5404174,109.201093 C52.5779312,111.191453 52.6162431,110.271602 52.6537569,112.26077 M52.6537569,112.26077 L67.101344,112.034186"/>
    <path stroke="#091532" stroke-width="1.082" d="M64.718422,102.210385 C61.3617385,105.796373 57.8290596,108.834981 55.0745917,112.223801 M68.2738486,106.064298 C65.4471468,108.704199 62.3123532,110.905242 60.5958991,112.034186 M60.1948211,106.895901 L60.0399771,100.841342"/>
    <path stroke="#091532" stroke-width="1.309" d="M52.4741697,112.232149 C57.3026697,112.209093 62.1319679,112.185242 66.9612661,112.160994 C68.6370138,112.397913 70.0166422,112.871752 70.7433716,113.871503 C69.0764037,115.223851 67.6017936,116.126609 66.3187431,116.723677 C61.0568394,115.796671 55.3770963,115.384845 49.5480963,115.01277 M49.5480963,115.01277 L52.4741697,112.232149"/>
    <path stroke="#091532" stroke-width="1.623" d="M42.4113028,117.721441 L48.5483945,115.65436 M48.5483945,115.65436 C54.5426147,116.586534 59.918656,118.522435 64.3919725,121.928348 M64.3919725,121.928348 L60.1812523,123.353839 M60.1812523,123.353839 C56.327711,120.536646 51.5698486,118.849988 46.1938073,117.936099 C48.5136743,119.051925 50.1535046,119.978137 51.3319954,121.856795 M51.3319954,121.856795 L47.3355826,123.924671 M47.3355826,123.924671 C44.7734725,122.253516 43.0985229,120.125615 42.4113028,117.721441 M59.8951101,125.065143 L51.1180872,121.785242 M51.1180872,121.785242 C50.1882248,122.161689 48.7467385,122.839851 46.4787523,124.352 C48.8089954,126.824149 52.5503945,127.652969 55.9705321,127.987677 M55.9705321,127.987677 L55.399445,125.705938 L59.8951101,125.065143"/>
    <path stroke="#091532" stroke-width=".5" d="M20.5786927,38.6985342 C29.3860459,16.140323 56.4446422,16.5938882 64.645789,36.5531429"/>
    <path stroke="#091532" stroke-width="1.623" d="M11.2413578,28.3941366 C10.647922,25.036323 11.9305734,21.6769193 13.8916651,18.317118 C14.6614954,20.2971429 15.7098853,21.4010435 17.168133,21.2229565 M76.0830963,30.1288944 C76.676133,26.7706832 75.3938807,23.411677 73.4323899,20.0518758 C72.6625596,22.0319006 71.6149679,23.1358012 70.155922,22.9577143"/>
    <path stroke="#091532" stroke-width="1.309" d="M43.3894541,113.032745 C44.8181697,113.032745 45.9826927,114.192696 45.9826927,115.615404 C45.9826927,117.038509 44.8181697,118.19846 43.3894541,118.19846 C41.9611376,118.19846 40.7966147,117.038509 40.7966147,115.615404 C40.7966147,114.192696 41.9611376,113.032745 43.3894541,113.032745"/>
    <path fill="#091532" d="M60.0643211 19.8272795L59.9725321 20.0335901C59.8053165 20.4092422 59.7901514 20.7153292 59.9274358 20.9514534 60.010445 21.0866087 60.1345596 21.1907578 60.3001789 21.2639006 60.4290826 21.3211429 60.6074725 21.2297143 60.8349495 20.9900124 60.8820413 20.9339627 60.9351193 20.8699627 60.9949817 20.7976149 61.054844 20.7252671 61.103133 20.6970435 61.1398486 20.7133416 61.1857431 20.7340124 61.1885367 20.7896646 61.1478303 20.8814907 61.1314679 20.9180621 61.0999404 20.9701366 61.0536468 21.0373168 61.0069541 21.1044969 60.9694404 21.1589565 60.9395092 21.2006957 60.5791376 21.6888447 60.2407156 22.0410435 59.9242431 22.2576894 59.6073716 22.4747329 59.3527569 22.540323 59.1592018 22.4548571 58.8555 22.3208944 58.7074404 22.0907329 58.7146239 21.7651677 58.7222064 21.439205 58.8195826 21.0655404 59.0071514 20.6437764L60.0643211 19.8272795M58.9684404 24.8164969C58.9460917 24.9162733 58.8954083 25.011677 58.8163899 25.1027081 58.7373716 25.1941366 58.6336101 25.2907329 58.5055046 25.3932919 58.3773991 25.4958509 58.2289404 25.5757516 58.0601284 25.6329938 57.9539725 25.6739379 57.8777477 25.6838758 57.8318532 25.6636025 57.8043165 25.651677 57.7604174 25.5829068 57.700555 25.4576894 57.6406927 25.332472 57.5848211 25.2227578 57.5329404 25.1285466 57.4814587 25.0347329 57.4403532 24.947677 57.4092248 24.8685714 57.3784954 24.7890683 57.3713119 24.7310311 57.3876743 24.6944596 57.4962248 24.5994534 57.5784358 24.5263106 57.6343073 24.474236 57.816289 24.3132422 57.9503807 24.1971677 58.0373807 24.1256149 58.1814495 24.024646 58.3275138 23.9193043 58.4755734 23.8091925 58.5059037 23.7897143 58.5521972 23.7606957 58.6132569 23.7221366 58.628422 23.7618882 58.6459817 23.7968696 58.6655367 23.8270807 58.6850917 23.8576894 58.7114312 23.8970435 58.7453532 23.9447453 58.8694679 24.1860373 58.9448945 24.3617391 58.9728303 24.4730435 59.000367 24.5839503 58.9991697 24.6984348 58.9684404 24.8164969"/>
    <path fill="#091532" d="M60.083078 19.8356273C59.9030917 20.0415404 59.7255 20.2426832 59.5499037 20.4394534 59.3383899 20.6421863 59.1639908 20.7129441 59.0259083 20.6521242 59.0749954 20.5424099 59.338789 20.0856646 59.8168899 19.2822857 60.2953899 18.4793043 60.6669358 17.8671304 60.9315275 17.446559 60.9566697 17.4139627 61.1139083 17.2585342 61.402844 16.9802733 61.6917798 16.7020124 61.9164633 16.4941118 62.0768945 16.3561739 62.0992431 16.3553789 62.1219908 16.3541863 62.1443394 16.3533913 62.1411468 16.384795 62.1040321 16.4559503 62.0325963 16.5668571L61.818289 16.9003727 60.837344 18.4741366C60.6401972 18.7929441 60.4777706 19.0723975 60.3492661 19.3117019 60.2203624 19.5510062 60.1317661 19.7255155 60.083078 19.8356273M57.3896697 18.6466584L57.2978807 18.8529689C57.1306651 19.2286211 57.1155 19.5347081 57.2527844 19.7704348 57.3357936 19.9059876 57.4599083 20.0101366 57.6255275 20.0832795 57.7544312 20.1401242 57.9328211 20.0490932 58.1602982 19.8093913 58.2073899 19.7533416 58.2604679 19.6893416 58.3203303 19.6169938 58.3801927 19.544646 58.4284817 19.5164224 58.4651972 19.5327205 58.5110917 19.5529938 58.5138853 19.6090435 58.4727798 19.700472 58.4564174 19.7370435 58.425289 19.7895155 58.3789954 19.8562981 58.3323028 19.9238758 58.2943899 19.9783354 58.2648578 20.0200745 57.9044862 20.5078261 57.5660642 20.8604224 57.2495917 21.0770683 56.9327202 21.2937143 56.6781055 21.3593043 56.4845505 21.274236 56.1808486 21.1398758 56.032789 20.9101118 56.0399725 20.5841491 56.047555 20.2585839 56.1449312 19.8845217 56.3325 19.4631553L57.3896697 18.6466584M60.8920183 13.1295404C60.8696697 13.2293168 60.8189862 13.325118 60.7395688 13.4161491 60.6605505 13.5071801 60.556789 13.6041739 60.4286835 13.7067329 60.300578 13.8088944 60.1521193 13.888795 59.9837064 13.9460373 59.8775505 13.9869814 59.8013257 13.9973168 59.7554312 13.976646 59.7274954 13.9647205 59.6839954 13.8959503 59.624133 13.7707329 59.5638716 13.645913 59.508 13.5361988 59.4565183 13.4419876 59.4046376 13.3477764 59.3635321 13.261118 59.3328028 13.1816149 59.3020734 13.1025093 59.2948899 13.044472 59.3112523 13.0079006 59.4194037 12.9128944 59.5016147 12.839354 59.5578853 12.787677 59.7394679 12.6262857 59.8739587 12.5102112 59.9605596 12.4390559 60.1046284 12.3376894 60.2506927 12.2323478 60.3987523 12.122236 60.4294817 12.1027578 60.4753761 12.0737391 60.5364358 12.0351801 60.552 12.0749317 60.5695596 12.109913 60.5891147 12.1405217 60.6082706 12.1711304 60.6350092 12.210087 60.6689312 12.2581863 60.7926468 12.4990807 60.8684725 12.6751801 60.8960092 12.786087 60.923945 12.8969938 60.9223486 13.0118758 60.8920183 13.1295404"/>
    <path fill="#091532" d="M57.3952569 18.6490435C57.318633 18.7468323 57.2404128 18.8493913 57.1597982 18.956323 57.0787844 19.0632547 56.9790138 19.1697888 56.8600872 19.276323 56.7411606 19.3832547 56.6306147 19.4520248 56.5284495 19.4838261 56.4262844 19.5156273 56.3628303 19.5092671 56.3384862 19.4655404 56.4322706 19.2548571 56.5555872 19.0215155 56.7076376 18.765118 56.8604862 18.509118 56.9594587 18.341764 57.0053532 18.2634534L57.0867661 18.1179627C57.0987385 18.0905342 57.1023303 18.0702609 57.0971422 18.0567453 57.0923532 18.0436273 57.0696055 18.0448199 57.0296972 18.0599255 56.9726284 18.0897391 56.8760505 18.1457888 56.7403624 18.228472 56.4594083 18.3894658 56.2530826 18.5067329 56.1213853 18.5802733 55.6903761 18.8068571 55.2003028 18.9797764 54.6515642 19.0994286 54.1028257 19.2190807 53.5548853 19.2624099 53.0081422 19.2294161 52.4613991 19.1964224 51.8635734 19.110559 51.2150642 18.9722236 50.566156 18.8342857 49.9200413 18.6228075 49.275922 18.3381863L49.0687982 18.2467578C48.6729083 18.0722484 48.3612248 17.906882 48.1329495 17.7518509 47.7701835 17.5038012 47.555078 17.2633043 47.487633 17.0307578 47.4205872 16.7982112 47.4644862 16.5080248 47.6193303 16.1594037 47.7498303 15.8660373 47.9050734 15.5726708 48.0854587 15.2793043 48.265445 14.9859379 48.3923532 14.8555528 48.4657844 14.8881491 48.4933211 14.900472 48.4745642 14.9990559 48.4087156 15.1835031 48.342867 15.3683478 48.3392752 15.5559752 48.3979404 15.7463851 48.5240505 16.1311801 49.0652064 16.5346584 50.0222064 16.9572174 50.547 17.1885714 50.9716239 17.3599006 51.2968761 17.4704099 52.8632752 18.0082484 54.2576697 18.1907081 55.4796606 18.0173913 56.0491514 17.9506087 56.5440138 17.7908075 56.9650459 17.5379876 57.284711 17.3388323 57.5872156 17.0669317 57.8733578 16.7214907L58.4153119 16.0230559C58.4703853 15.9487205 58.6755138 15.7599006 59.0306972 15.4558012 59.2605688 15.2610186 59.4094266 15.1377888 59.4764725 15.0849193 59.5439174 15.0324472 59.6173486 14.9911056 59.6971651 14.9604969 59.6648394 15.0336398 59.6341101 15.1024099 59.6053761 15.1668075 59.4696881 15.3480745 59.3683211 15.4895901 59.3008761 15.591354L58.3686193 16.907528C58.1379495 17.2772174 57.9364128 17.6182857 57.7640092 17.9319255 57.5916055 18.2451677 57.4686881 18.4840745 57.3952569 18.6490435M60.7152248 14.2008447C61.0157339 14.0700621 61.615555 13.8852174 62.5146881 13.645913 63.311656 13.4384099 65.2747431 12.2665342 64.9119771 13.0098882L64.5416284 13.7679503C64.3233303 14.2159503 63.6361101 14.0207702 63.2665596 14.1094161 62.7720963 14.2310559 62.2796284 14.348323 61.7887569 14.4608199L60.5061055 14.7828075C60.3189358 14.8317019 60.1421422 14.8770186 59.9749266 14.9183602 59.8081101 14.9597019 59.7215092 14.962882 59.7151239 14.9271056 59.8783486 14.757764 60.0427706 14.6110807 60.2083899 14.4870559 60.3736101 14.362236 60.5428211 14.2672298 60.7152248 14.2008447M35.8216514 9.79080745C35.8212523 9.72362733 35.8272385 9.63617391 35.8400092 9.5284472 35.8400092 9.50618634 35.8483899 9.46802484 35.8663486 9.41396273 35.9158349 9.44496894 35.9477615 9.47359006 35.9617294 9.50062112L36.1273486 9.99036025 36.4310505 10.7814161 36.8935872 12.0490932C36.9949541 12.3353043 37.0655917 12.5781863 37.1051009 12.7773416 37.1454083 12.9764969 37.1749404 13.1947329 37.1948945 13.4324472L37.2148486 14.232646C37.1992844 14.5331677 37.1817248 14.7362981 37.1621697 14.8416398 37.1430138 14.9473789 37.1106881 15.0113789 37.0659908 15.0340373L36.9773945 14.9608944C36.9259128 14.6834286 36.8732339 14.4147081 36.8189587 14.1551304 36.7650826 13.8955528 36.7199862 13.696 36.6828716 13.5572671 36.5619495 13.1009193 36.4382339 12.7053913 36.3117248 12.3698882 36.1852156 12.0347826 36.0714771 11.7350559 35.9705092 11.4715031L35.9058578 10.9809689 35.8216514 9.79080745M34.8498853 11.5172174C35.0326651 12.403677 35.0190963 12.9844472 34.809578 13.2599255L34.4288532 13.773913C34.3933349 13.8144596 34.3522294 13.8832298 34.3055367 13.9802236 34.2592431 14.0768199 34.2293119 14.1567205 34.2165413 14.219528 34.1906009 14.3678012 34.1854128 14.567354 34.2009771 14.8181863 34.2500642 15.2888447 34.2772018 15.6295155 34.2835872 15.8401988 34.2955596 16.216646 34.1898028 16.5402236 33.9671147 16.8109317 33.8821101 16.9103106 33.726867 17.048646 33.5009862 17.2251429 33.2751055 17.4016398 33.1038991 17.5197019 32.987367 17.5789317 32.8840046 17.6425342 32.799 17.6520745 32.731156 17.6079503 32.7036193 17.5769441 32.7199817 17.498236 32.779844 17.3722236 32.8397064 17.2462112 32.9159312 17.0975404 33.0093165 16.9266087 33.0180963 16.8995776 33.1222569 16.7167205 33.3221972 16.3788323 33.4463119 16.1582112 33.5173486 16.0321988 33.5353073 16.0003975 33.6857615 15.6768199 33.780344 15.4311553 33.8194541 15.2653913 33.8326239 15.2021863 33.8258394 14.9298882 33.7995 14.4480994 33.7731606 13.9663106 33.775156 13.6391553 33.8050872 13.466236 33.8354174 13.2929193 33.9172294 13.0941615 34.0505229 12.8687702 34.0768624 12.8329938 34.1726422 12.6994286 34.3374633 12.4696646 34.4575872 12.3074783 34.5354083 12.1834534 34.5709266 12.0979876 34.6060459 12.0125217 34.6283945 11.8574907 34.6379725 11.6332919 34.6475505 11.4090932 34.6726927 11.2922236 34.7126009 11.2830807 34.7624862 11.2691677 34.8075826 11.3470807 34.8498853 11.5172174M37.8082844 17.9243727C37.8721376 18.0046708 37.9144404 18.1040497 37.9355917 18.2229068 37.9567431 18.3413665 37.9671193 18.4824845 37.965922 18.6462609 37.9651239 18.8100373 37.9339954 18.9750062 37.8721376 19.1415652 37.8370183 19.2492919 37.7971101 19.3144845 37.7524128 19.3375404 37.7252752 19.3510559 37.6442615 19.3415155 37.5089725 19.3093168 37.3736835 19.276323 37.2527615 19.2504845 37.1470046 19.2310062 37.0408486 19.2119255 36.9474633 19.1892671 36.8664495 19.1630311 36.7850367 19.1363975 36.7351514 19.1053913 36.7167936 19.0700124 36.7112064 18.9265093 36.7060183 18.8163975 36.7008303 18.740472 36.690055 18.4983851 36.6836697 18.3214907 36.6828716 18.2089938 36.6952431 18.034087 36.7048211 17.8548075 36.7124037 17.6707578 36.7167936 17.6349814 36.7231789 17.5809193 36.7315596 17.5093665 36.771867 17.5224845 36.8101789 17.5312298 36.8464954 17.535205 36.8824128 17.5391801 36.9299037 17.5435528 36.9881697 17.547528 37.2543578 17.6035776 37.4395321 17.6560497 37.5432936 17.7045466 37.647055 17.7530435 37.7356514 17.8265839 37.8082844 17.9243727zM36.4641743 18.7086708C36.5276284 18.7889689 36.5703303 18.8883478 36.5914817 19.0068075 36.612633 19.1256646 36.6226101 19.2667826 36.6218119 19.430559 36.6210138 19.5939379 36.5894862 19.7593043 36.5276284 19.9254658 36.4929083 20.0335901 36.4526009 20.0987826 36.4079037 20.121441 36.3811651 20.135354 36.2997523 20.1258137 36.1644633 20.0932174 36.0291743 20.0606211 35.9086514 20.0347826 35.8024954 20.0153043 35.6967385 19.9962236 35.6033532 19.9731677 35.5219404 19.9473292 35.4409266 19.9206957 35.3906422 19.8896894 35.3726835 19.853913 35.3670963 19.7108075 35.3615092 19.6006957 35.3567202 19.5247702 35.3455459 19.2826832 35.3395596 19.1053913 35.3387615 18.9932919 35.3507339 18.8183851 35.360711 18.6387081 35.3682936 18.4550559 35.3722844 18.4192795 35.3786697 18.3652174 35.3870505 18.2936646 35.4277569 18.3067826 35.4660688 18.3151304 35.5019862 18.3195031 35.5383028 18.3238758 35.5853945 18.3278509 35.6440596 18.3318261 35.9102477 18.3878758 36.0950229 18.4403478 36.1987844 18.4888447 36.302945 18.5373416 36.3911422 18.6104845 36.4641743 18.7086708L36.4641743 18.7086708zM30.4268532 12.531677C30.426055 12.4644969 30.4320413 12.3770435 30.445211 12.2693168 30.4448119 12.2466584 30.4531927 12.2084969 30.4711514 12.1548323 30.5206376 12.1858385 30.5525642 12.2144596 30.5665321 12.2414907L30.7325505 12.7308323 31.0358532 13.5222857 31.4979908 14.7899627C31.5997569 15.0761739 31.6703945 15.3186584 31.7099037 15.5178137 31.750211 15.7173665 31.7797431 15.9356025 31.7996972 16.1733168L31.8196514 16.9735155C31.8040872 17.2740373 31.7865275 17.4767702 31.7669725 17.5825093 31.7478165 17.6882484 31.7154908 17.7522484 31.6707936 17.7749068L31.5825963 17.701764C31.5307156 17.4242981 31.4780367 17.1555776 31.4241606 16.896 31.3702844 16.6364224 31.324789 16.4368696 31.2876743 16.2981366 31.1667523 15.8417888 31.0434358 15.4462609 30.9165275 15.1107578 30.7904174 14.7756522 30.6762798 14.4759255 30.5753119 14.2119752L30.5106606 13.721441 30.4268532 12.531677M28.381555 18.0277267C28.3220917 17.9343106 28.2350917 17.8631553 28.1197569 17.8146584 28.004422 17.766559 27.816055 17.7184596 27.554656 17.6711553 27.5051697 17.6628075 27.4500963 17.6600248 27.3894358 17.6628075 27.3283761 17.6651925 27.2641239 17.6667826 27.1966789 17.6675776 27.1882982 17.739528 27.1819128 17.7931925 27.1775229 17.8289689 27.1611606 17.972472 27.1467936 18.1541366 27.1348211 18.3743602L27.1823119 19.2278261C27.2230183 19.2858634 27.2944541 19.3200497 27.3958211 19.3307826 27.4971881 19.341118 27.6061376 19.3502609 27.7234679 19.3582112 27.7370367 19.3625839 27.8858945 19.3884224 28.1696422 19.4353292 28.255445 19.4484472 28.3073257 19.4500373 28.3252844 19.4408944 28.4146789 19.3729193 28.4893073 19.1324224 28.5491697 18.7194037 28.5787018 18.5126957 28.5527615 18.329441 28.4701514 18.1684472 28.4382248 18.1060373 28.4086927 18.0591304 28.381555 18.0277267zM30.4599771 17.8500373C30.5110596 18.060323 30.5517661 18.2225093 30.5816972 18.3365963 30.6120275 18.4506832 30.6367706 18.5818634 30.6559266 18.7297391 30.7173853 19.0922733 30.7409312 19.4798509 30.7261651 19.892472 30.7113991 20.3054907 30.6603165 20.7141366 30.5737156 21.1184099 30.4344358 21.7289938 30.2193303 22.246559 29.928 22.6703106 29.6362706 23.0940621 29.2443716 23.4311553 28.7511055 23.6819876 28.1860046 23.9689938 27.6640046 24.0143106 27.1851055 23.8187329 26.7066055 23.6227578 26.3254817 23.2482981 26.0417339 22.694559 25.9000596 22.4174907 25.7827294 22.1002733 25.6897431 21.7421118 25.5967569 21.3843478 25.539289 21.0786584 25.5169404 20.825441 25.4945917 20.5722236 25.4822202 20.2999255 25.4798257 20.0081491 25.4770321 19.6273292 25.4850138 19.2349814 25.5045688 18.8311056 25.5121514 18.6697143 25.5193349 18.5786832 25.5257202 18.5584099 25.5325046 18.5385342 25.5560505 18.5234286 25.5963578 18.5142857 25.6191055 18.5138882 25.6462431 18.5619876 25.6785688 18.6581863 25.7108945 18.7543851 25.7340413 18.8382609 25.7480092 18.9098137L25.7982936 20.1003727C25.8326147 20.4541615 25.8589541 20.6934658 25.8781101 20.8190807 25.9160229 21.0476522 25.9874587 21.2642981 26.0928165 21.4698137 26.3625963 21.9969193 26.7365367 22.2855155 27.2138394 22.3356025 27.574211 22.3773416 27.960922 22.2934658 28.3735734 22.0839752 28.6692936 21.9337143 28.9167248 21.7770932 29.1154679 21.6141118 29.3146101 21.4511304 29.5045734 21.236472 29.6845596 20.9705342 29.864945 20.7045963 29.9986376 20.4140124 30.0860367 20.0995776 30.1474954 19.8884969 30.1993761 19.6030807 30.2412798 19.2441242 30.2576422 19.0107826 30.2524541 18.8024845 30.2261147 18.6188323 30.2001743 18.4351801 30.1275413 18.2272795 30.0086147 17.9951304L29.541289 17.0164472C29.459078 16.8558509 29.4016101 16.6992298 29.3688853 16.5469814 29.3361606 16.3947329 29.3074266 16.1955776 29.2830826 15.949118L29.2846789 15.2900373C29.2878716 15.1644224 29.2906651 15.0869068 29.2926606 15.0578882 29.295055 15.028472 29.3022385 14.9823602 29.3154083 14.9199503 29.3828532 14.9418137 29.4307431 14.9907081 29.4582798 15.0666335L29.6314817 15.5698882 29.9068486 16.2738882C30.039344 16.5326708 30.140711 16.7683975 30.2097523 16.9810683 30.2791927 17.1933416 30.3622018 17.4831304 30.4599771 17.8500373L30.4599771 17.8500373zM44.5467936 9.89455901L44.5467936 10.150559C44.5467936 10.471354 44.6122431 10.714236 44.7431422 10.88 44.8740413 11.0453665 45.0197064 11.1280497 45.1809358 11.1280497 45.2112661 11.1181118 45.2615505 11.0103851 45.331789 10.8048696 45.4024266 10.5989565 45.4626881 10.4415404 45.5129725 10.3310311 45.6542477 10.3608447 45.757211 10.431205 45.8226606 10.5413168 45.8881101 10.6518261 45.9260229 10.7619379 45.936 10.8724472 45.936 11.2433292 45.8553853 11.6042733 45.694156 11.9552795 45.4726651 12.4263354 45.1761468 12.6620621 44.8034037 12.6620621 44.592289 12.6620621 44.4007294 12.5543354 44.229922 12.338882 44.0587156 12.1230311 43.9629358 11.9175155 43.9429817 11.7219379 43.9226284 11.5267578 43.9126514 11.4039255 43.9126514 11.353441 43.9126514 11.303354 43.9126514 11.2683727 43.9126514 11.2484969L43.9126514 11.0680248 44.5467936 9.89455901"/>
    <path fill="#091532" d="M44.5352202 9.89455901L44.399133 10.8573416C44.3488486 11.1880745 44.2961697 11.4587826 44.2406972 11.6694658 44.1852248 11.8797516 44.1325459 11.9850932 44.0818624 11.9850932 44.0419541 11.9850932 43.9812936 12.0550559 43.901078 12.1957764 43.7198945 12.4966957 43.6289037 12.6871056 43.6289037 12.7674037 43.6289037 12.8274286 43.6871697 12.9001739 43.8029037 12.9852422 43.9186376 13.0703106 43.9964587 13.1283478 44.0367661 13.1581615 44.1776422 13.2686708 44.2909817 13.3863354 44.3763853 13.5115528 44.4621881 13.6371677 44.5048899 13.7949814 44.5048899 13.9853913 44.5048899 14.2362236 44.4342523 14.6071056 44.2933761 15.0984348 44.1121927 15.7400248 43.8679541 16.2989317 43.5610596 16.7755528 43.2541651 17.2517764 42.8993807 17.6401491 42.4967064 17.9410683 41.9934633 18.3218882 41.4598899 18.5126957 40.8959862 18.5126957 40.261844 18.5126957 39.7837431 18.3119503 39.4616835 17.9108571 39.1799312 17.5602484 39.039055 17.0939627 39.039055 16.512 39.039055 16.1613913 39.0641972 15.8401988 39.1144817 15.5496149 39.1647661 15.2590311 39.2605459 14.9330683 39.401422 14.5721242 39.5019908 14.311354 39.6253073 14.0231553 39.7713716 13.7071304 39.9170367 13.3915031 40.0631009 13.0957516 40.2091651 12.8198758 40.3548303 12.5443975 40.4733578 12.3110559 40.5639495 12.120646 40.7551101 11.7493665 40.870844 11.5692919 40.9111514 11.5792298 40.9414817 11.5991056 40.9566468 11.6491925 40.9566468 11.7294907 40.9566468 11.8598758 40.9211284 11.9950311 40.8508899 12.1357516 40.4885229 12.9474783 40.2267248 13.5393789 40.0658945 13.9102609 39.7837431 14.5621863 39.642867 15.0682236 39.642867 15.4291677 39.642867 15.9204969 39.8040963 16.2965466 40.126156 16.5573168 40.4178853 16.7878758 40.8006055 16.9031553 41.2735183 16.9031553 41.8777294 16.9031553 42.4109037 16.755677 42.8742385 16.459528 43.3371743 16.1637764 43.6592339 15.7451925 43.8404174 15.2037764 43.8507936 15.1437516 43.8180688 15.0757764 43.7422431 15.000646 43.6668165 14.9255155 43.5183578 14.8177888 43.296867 14.6774658 43.1256606 14.5768944 43.0250917 14.5117019 42.9947615 14.4818882 42.8439083 14.3515031 42.7684817 14.1809689 42.7684817 13.9706832 42.7684817 13.8498385 42.8287431 13.6395528 42.9496651 13.3386335L43.417789 12.4064596C43.5383119 12.1858385 43.6289037 12.0153043 43.6895642 11.8948571 43.8001101 11.674236 43.8655596 11.5088696 43.8859128 11.3987578L43.901078 11.0676273 43.9461743 10.2857143C43.9765046 10.0050683 44.0192064 9.72919255 44.0746789 9.45848447 44.1297523 9.1877764 44.1776422 8.97709317 44.2179495 8.8268323 44.2985642 8.56606211 44.3588257 8.38559006 44.399133 8.28541615 44.4797477 8.08467081 44.6002706 7.84934161 44.7615 7.57863354 44.8018073 7.54842236 44.8345321 7.54086957 44.8596743 7.55597516 44.8848165 7.57108075 44.8772339 7.63865839 44.8369266 7.75870807 44.7666881 8.18007453 44.7164037 8.50086957 44.6860734 8.72149068 44.5855046 9.38335404 44.5352202 9.7741118 44.5352202 9.89455901M45.5796193 5.05560248C45.6303028 5.05560248 45.655445 5.11085714 45.655445 5.22096894 45.655445 5.34141615 45.6478624 5.44675776 45.6326972 5.53659627 45.6175321 5.62722981 45.5848073 5.71229814 45.5345229 5.79259627 45.423578 6.02315528 45.2878899 6.13843478 45.1270596 6.13843478 45.0260917 6.13843478 44.9454771 6.08834783 44.8852156 5.9877764L44.7946239 5.80770186C44.7746697 5.84785093 44.7543165 5.8776646 44.7343624 5.89754037 44.7140092 5.91781366 44.694055 5.93808696 44.6741009 5.95796273 44.563156 6.14837267 44.4123028 6.2437764 44.2207431 6.2437764 44.1101972 6.2437764 44.0120229 6.19090683 43.9266193 6.08596273 43.8408165 5.98062112 43.7981147 5.84785093 43.7981147 5.68725466 43.7981147 5.52665839 43.8156743 5.37639752 43.8507936 5.23607453 43.8863119 5.09575155 43.9389908 5.0253913 44.0096284 5.0253913 44.0196055 5.0253913 44.0271881 5.06792547 44.0319771 5.1533913 44.0371651 5.23845963 44.0423532 5.30881988 44.0471422 5.36367702 44.0523303 5.41893168 44.0698899 5.47418634 44.1002202 5.52904348 44.1301514 5.58469565 44.200789 5.61212422 44.3113349 5.61212422 44.4019266 5.61212422 44.4825413 5.57714286 44.5531789 5.50678261 44.6234174 5.43642236 44.688867 5.35652174 44.7495275 5.26628571 44.7794587 5.21619876 44.809789 5.19075776 44.8397202 5.19075776 44.8700505 5.19075776 44.8927982 5.22096894 44.9079633 5.28099379 44.9231284 5.34141615 44.9406881 5.38156522 44.9606422 5.40144099 45.0213028 5.49167702 45.1015183 5.53659627 45.2020872 5.53659627 45.2427936 5.53659627 45.2827018 5.52149068 45.3230092 5.49167702 45.3633165 5.46186335 45.3884587 5.44159006 45.3984358 5.43165217 45.4487202 5.37162733 45.4994037 5.28099379 45.5496881 5.16054658 45.5496881 5.14067081 45.5596651 5.10568944 45.5796193 5.05560248"/>
  </g>
</svg>
