<svg xmlns="http://www.w3.org/2000/svg" width="127" height="126" viewBox="0 0 127 126">
  <g fill="none" fill-rule="evenodd" transform="translate(-1)">
    <path fill="#FF6100" d="M43.7374894,27.4429372 C41.9511201,29.4222526 41.4104087,30.5922293 41.3152367,32.679736 C41.2065891,35.0842687 41.3447147,35.4541323 44.0019495,39.8899793 C46.1159461,43.4200379 46.5606434,43.7194512 48.1128728,42.6643755 C48.4868228,42.4102516 49.3206302,41.8416177 49.9649359,41.4013039 C52.7981967,39.4647619 56.5899149,37.989501 60.2325584,37.4074481 C63.3858665,36.9033937 63.4195557,36.8102988 62.1974804,31.9056224 C61.1522733,27.7071255 60.9189756,27.1795877 59.4619182,25.7110363 C57.4852051,23.7199793 54.6805801,22.9483817 51.1095261,23.4155337 C48.2139403,23.7937842 45.880964,25.0685975 43.7374894,27.4429372 Z M66.6040262,31.6649175 C65.2850945,36.7423646 65.3373127,36.8992002 68.5167299,37.4074481 C72.7447231,38.0834346 76.8884933,39.849722 80.2094051,42.3918003 C81.5224413,43.3973932 82.5971264,43.3588133 83.3130216,42.2819315 C87.7583101,35.5916779 88.4775743,32.4549663 86.3265196,29.1404518 C83.5235791,24.8228605 79.1397734,22.7915462 73.9903809,23.425598 C69.7859701,23.9439103 68.128462,25.7923895 66.6040262,31.6649175 Z M25.3078187,56.2419756 C26.4743068,58.7052168 28.0341163,59.668875 32.8011365,60.8682059 C37.7972432,62.1254066 38.1223438,62.03986 38.4861871,59.3828807 C39.0479543,55.2816722 40.7686296,51.1293034 43.3669083,47.606793 C45.0277853,45.3549025 44.9039775,45.1032946 40.9800293,42.7675348 C36.1582641,39.8966888 34.6026658,39.4924388 31.9016351,40.4082915 C26.0902501,42.3800586 22.6531106,50.6336359 25.3078187,56.2419756 Z M87.7692591,42.7675348 C83.8621554,45.094069 83.7181341,45.3800633 85.3495331,47.5774388 C87.9242293,51.0454341 89.642378,55.1936094 90.2689969,59.4600405 C90.647158,62.0331504 90.9562563,62.1103102 95.9043559,60.8757541 C101.422645,59.4986203 103.235966,58.073681 104.03103,54.4924621 C105.763497,46.6909404 99.35834,38.6176821 92.7299921,40.2489398 C91.6494114,40.5139668 90.99921,40.8444118 87.7692591,42.7675348 Z M26.8314122,67.9736126 C20.1314748,74.6756079 28.066121,88.8033906 36.795832,85.7136457 C37.855357,85.3379113 43.629684,81.9722365 43.9741559,81.5285679 C44.5679279,80.76368 44.4036931,79.9836955 43.3551171,78.5814009 C40.8452725,75.2283065 39.0151073,70.7907822 38.4752381,66.7507982 C38.1307661,64.1743335 37.7248114,64.0653034 33.0015871,65.276376 C28.6775798,66.3851281 28.2194068,66.584737 26.8314122,67.9736126 Z M90.2799459,66.6434455 C89.6524847,70.9945845 87.9638141,75.0983091 85.3301618,78.6719798 C83.702974,80.8802583 83.8309929,81.1218019 87.9090692,83.541431 C94.0084968,87.1587137 96.5284482,87.1218112 100.501246,83.3560799 C105.853616,78.2811489 105.582418,68.9976566 100.010226,66.5235124 C99.3650778,66.2375182 92.3088773,64.3563299 91.966932,64.3798133 C91.9231361,64.3823294 91.6923651,64.4695534 91.4548563,64.5727127 C90.7414878,64.8821904 90.4635519,65.3728257 90.2799459,66.6434455 Z M42.643433,88.5811369 C40.3281435,92.593444 40.803161,95.8408631 44.209138,99.2719559 C49.3694795,104.471852 58.3619662,104.084376 60.9535071,98.55068 C61.3274571,97.7505669 63.0413945,91.2238584 63.0405523,90.6015482 C63.0388678,89.6529865 62.3398172,89.1606738 60.6031395,88.8847438 C56.231125,88.1886286 52.1909491,86.5322101 48.8489815,84.0639367 C47.5991126,83.1413745 46.7989944,82.9107339 46.0906792,83.2680171 C45.7874765,83.4214979 44.2849387,85.7371291 42.643433,88.5811369 Z M68.3752353,88.8386157 C65.3752131,89.2806068 65.3137303,89.4667967 66.5577036,94.3664409 C67.6130174,98.5213257 67.8985333,99.1612484 69.323586,100.568575 C75.0296924,106.202076 87.4685831,101.06592 87.4879544,93.0681442 C87.4930077,91.052765 86.724052,89.3518957 83.515999,84.2819969 C82.5937575,82.8235099 81.6984673,82.6985446 80.2245653,83.8232318 C76.9103913,86.3527298 72.4600495,88.2364341 68.3752353,88.8386157 Z"/>
    <path fill="#0033E3" d="M61.7662587,0.405154046 C61.734254,0.433669606 61.2019648,0.494055498 60.5846104,0.539344917 C49.6044616,1.34197407 38.3337435,10.1172184 34.4283243,20.901971 C33.506925,23.447404 32.5678388,27.5997728 32.8845172,27.7272541 C33.0209584,27.7826079 33.422702,27.4068734 33.422702,27.2248771 C33.422702,27.1544269 33.5844101,27.0235908 33.7823341,26.9338506 C34.0467942,26.8139175 34.1200682,26.6998553 34.0577432,26.5036011 C34.0114206,26.3568299 34.0383719,26.1966395 34.119226,26.1471566 C34.1992378,26.0976738 34.2649317,26.1236732 34.2649317,26.2050265 C34.2649317,26.2872184 34.3592615,26.3534751 34.4754892,26.3534751 C34.6077192,26.3534751 34.6860466,26.2201229 34.6860466,25.9953532 C34.6860466,25.7890348 34.7466871,25.6749725 34.8283834,25.7261328 C34.907553,25.7739383 34.9353466,25.8720654 34.8907084,25.9441929 C34.8460702,26.0154818 34.9083952,26.0741904 35.0288341,26.0741904 C35.1492729,26.0741904 35.2478138,26.0129658 35.2478138,25.9383221 C35.2478138,25.8645171 35.4213131,25.7093589 35.633555,25.594458 C35.8457969,25.4803957 35.9477067,25.3839461 35.8592726,25.3805913 C35.7708385,25.3772365 35.6588219,25.2715612 35.6099726,25.1457573 C35.5366986,24.955374 35.5577543,24.9461483 35.7312537,25.0895648 C35.94518,25.2656904 36.7916209,25.0249855 36.7916209,24.7876354 C36.7916209,24.7331203 37.0661878,24.5276406 37.4030797,24.3313864 C38.1257128,23.9095239 38.5038739,23.5245638 38.4466023,23.2670851 C38.3994374,23.0523797 38.9182509,22.999542 39.0647989,23.2041831 C39.1187016,23.2788268 39.2062935,23.2964393 39.2601962,23.242763 C39.3140989,23.1890866 39.2770408,23.0481862 39.1776577,22.9290918 C39.0791168,22.8099974 39.0471121,22.6665809 39.1069104,22.6112272 C39.1675509,22.5550348 39.2441938,22.5877438 39.2787252,22.6841935 C39.373055,22.9467044 39.8505992,22.8947054 40.0064117,22.6045176 C40.0822124,22.4644559 40.399733,22.2656857 40.7130425,22.1625265 C41.0271941,22.0602059 41.283232,21.9243377 41.283232,21.8622744 C41.283232,21.7993724 41.488736,21.6936971 41.7397205,21.6274404 C42.1111438,21.5284746 42.1894712,21.4429279 42.1599931,21.1686753 C42.1347262,20.9271317 42.1599931,20.8868745 42.2509539,21.0260975 C42.3873951,21.2357707 43.1049749,21.1342889 43.2607874,20.8818423 C43.3079522,20.80636 43.5614634,20.710749 43.824239,20.6704917 C44.42896,20.5765581 44.4356978,20.5673325 44.1324951,20.2628869 C43.889933,20.0188273 43.8907752,20.0129564 44.1535509,20.1119222 C44.4550691,20.2259844 45.7756853,19.9374741 45.7756853,19.7571551 C45.7756853,19.6950918 45.8860174,19.6422541 46.0207741,19.6397381 C46.1563731,19.637222 46.3896708,19.5424497 46.5404299,19.4292261 C46.6928735,19.3143252 46.9345934,19.2614876 47.0878792,19.3101317 C47.2933832,19.3747111 47.3413903,19.3436795 47.2807498,19.1868439 C47.2209515,19.0300083 47.2773809,18.9931058 47.5056251,19.0409113 C47.791141,19.1012972 47.7953522,19.0929103 47.5620545,18.902527 C47.325388,18.7096276 47.3262302,18.6962085 47.5881636,18.6282744 C47.7574518,18.5838237 47.8947353,18.6391774 47.9461113,18.7725296 C48.0168586,18.957042 48.0581278,18.9494938 48.2316272,18.722208 C48.3428015,18.5754367 48.4354467,18.5066639 48.4379734,18.5687272 C48.4405001,18.6307905 48.5828369,18.582985 48.7546518,18.4638906 C48.9256244,18.3439575 49.2700964,18.2458304 49.5185542,18.2458304 C49.7670119,18.2458304 50.0087319,18.1829284 50.056739,18.1066074 C50.104746,18.0294476 50.3532038,17.9665456 50.6092417,17.9665456 C50.8652795,17.9665456 51.1541643,17.8717733 51.2501785,17.7568724 C51.3461927,17.6411328 51.6249707,17.5471992 51.8709018,17.5471992 C52.1159906,17.5471992 52.3821352,17.4817811 52.462147,17.402944 C52.5421589,17.3232682 53.0213876,17.244431 53.5275676,17.2276572 C54.0345899,17.2108833 54.3765352,17.1513361 54.2881011,17.0951437 C54.1954558,17.0355965 54.2754676,16.9903071 54.478445,16.9886297 C55.1488598,16.9802427 55.5607102,16.8192137 55.2431896,16.6892163 C55.0882193,16.6254756 55.3198325,16.6112178 55.7771632,16.6556686 C56.2681831,16.7034741 56.5840193,16.6808294 56.5840193,16.5969601 C56.5840193,16.5080586 56.7743632,16.5021878 57.1104129,16.5801862 C57.8507328,16.7512796 58.1640422,16.7403766 58.0444456,16.5474772 C57.9720139,16.4300602 58.111824,16.4132863 58.5624169,16.4845752 C59.1738757,16.5818636 59.2193561,16.3931577 58.6196885,16.2489025 C58.4647182,16.212 58.6424287,16.1742588 59.013852,16.1658719 C59.5191898,16.1532915 59.6623689,16.1935488 59.5831993,16.3243849 C59.5132942,16.4401245 59.5596169,16.4325762 59.7187983,16.3042562 C59.8990355,16.1591623 60.2258206,16.1298081 61.0107787,16.1885166 C61.6685601,16.2379995 62.0307189,16.2178709 61.9785006,16.1331629 C61.888382,15.988069 62.8636841,15.9620695 66.0591036,16.0216167 C66.9080712,16.0375519 66.9746073,16.0560031 66.5501235,16.1583237 C66.1365887,16.2572894 67.0672526,16.2363221 67.7839901,16.1306468 C68.2093161,16.0685835 68.6590668,16.170904 68.5723171,16.3109658 C68.5175722,16.3998672 68.5293634,16.4367697 68.5992684,16.3939964 C68.7685566,16.2899984 70.3401573,16.127292 70.3401573,16.2136774 C70.3401573,16.2505799 70.1422333,16.3327718 69.8996711,16.3948351 C69.5686749,16.4803817 69.7699678,16.5130908 70.7065272,16.5273485 C71.9942964,16.5457998 72.2663366,16.5785088 72.5299545,16.7420539 C72.6141775,16.7948916 72.9611762,16.8804383 73.301437,16.9324372 C73.6416978,16.9835975 73.9979609,17.0875954 74.0939751,17.1622391 C74.1891471,17.2377215 74.4207603,17.2603662 74.6085775,17.2133994 C74.7955525,17.1664326 74.9707363,17.1915934 74.9960032,17.2679144 C75.035588,17.3861701 76.4606406,17.5773921 77.2363342,17.5698439 C77.3643531,17.5681665 77.4569984,17.670487 77.4468916,17.8021618 C77.4342582,17.9715778 77.5445903,18.0386732 77.8503197,18.0428667 C78.614222,18.0554471 79.7411254,18.2793781 79.6644825,18.4035047 C79.622371,18.4706001 79.6872227,18.5335021 79.8068193,18.5435664 C79.9272582,18.552792 80.1521335,18.5762754 80.3071038,18.5955654 C80.4612318,18.6148553 80.7181119,18.6383387 80.8781355,18.648403 C81.0971152,18.6609834 81.1468068,18.7305949 81.0827973,18.9335586 C81.0145767,19.1465866 81.0524771,19.1868439 81.2680879,19.1306515 C81.4163203,19.0920716 81.5805551,19.1289741 81.6327733,19.2120047 C81.6849916,19.295874 81.8340662,19.3621307 81.9646119,19.3596146 C82.1701159,19.3562599 82.1642203,19.3252282 81.9208159,19.1314901 C81.6740426,18.9343973 81.6715159,18.9184621 81.8972335,18.9964606 C82.0387281,19.0451048 82.2172808,19.0845233 82.2930814,19.0845233 C82.3705666,19.0845233 82.3890956,19.2161981 82.3360352,19.3839367 C82.2526544,19.6464476 82.2846591,19.6741245 82.6072331,19.6128999 C82.808526,19.57432 82.9744453,19.5810296 82.9744453,19.6279964 C82.9761297,19.7907028 83.8402574,20.2033397 84.1788338,20.2033397 C84.3649666,20.2033397 84.5182524,20.2511452 84.5182524,20.3098537 C84.5182524,20.3685622 84.659747,20.4809471 84.8340885,20.5597842 C85.0075878,20.6377827 85.1322378,20.7837152 85.1111821,20.882681 C85.0901263,20.9816468 85.1406601,21.0210654 85.2240409,20.9690664 C85.3065794,20.9179061 85.7217986,21.0453874 86.144598,21.2517059 C86.5682395,21.4580244 87.0045145,21.5922152 87.1131621,21.5511193 C87.2437077,21.5007977 87.2841348,21.5444098 87.2327587,21.6777619 C87.1847517,21.8027272 87.241181,21.8807256 87.3809912,21.8807256 C87.5047989,21.8807256 87.6058665,21.9511758 87.6058665,22.0375612 C87.6058665,22.1356883 87.7549412,22.1650425 88.00003,22.1163983 C88.3402908,22.0484642 88.4295672,22.1038179 88.6536003,22.5181323 C88.7967793,22.7823205 88.9989145,22.9987033 89.1025087,22.9987033 C89.206103,22.9987033 89.290326,23.0683148 89.290326,23.1530228 C89.290326,23.2385695 89.3804445,23.2737946 89.4899344,23.23186 C89.598582,23.190764 89.723232,23.2461177 89.7661857,23.3568252 C89.8082972,23.4675327 89.9068381,23.5581115 89.9851655,23.5581115 C90.1611915,23.5581115 91.4843344,24.3984818 91.9534563,24.8086027 C92.2238121,25.0451141 92.4175249,25.0954357 92.8310597,25.0375659 C93.3818779,24.9612448 93.4509408,25.020792 93.221012,25.3747204 C93.1300512,25.5147822 93.0845708,25.5265239 93.0828864,25.4099455 C93.0812019,25.3134959 92.98603,25.2354974 92.8698023,25.2354974 C92.7544168,25.2354974 92.6592448,25.2983994 92.6592448,25.3747204 C92.6592448,25.4518802 92.7266232,25.5147822 92.8083195,25.5147822 C92.8900158,25.5147822 92.9186516,25.5768454 92.8714867,25.6531665 C92.8217952,25.7320036 92.8782246,25.755487 93.0028746,25.7076815 C93.1233134,25.6623921 93.221012,25.6942624 93.221012,25.7798091 C93.221012,25.8645171 93.3060772,25.9341286 93.4096715,25.9341286 C93.5132658,25.9341286 93.7128742,26.0599326 93.8526843,26.2134134 C93.9924945,26.3677329 94.1634671,26.4935368 94.2316877,26.4935368 C94.3007505,26.4935368 94.5054124,26.6637915 94.6856495,26.8734647 C94.9501097,27.1795877 95.0528617,27.2206836 95.215412,27.0864927 C95.3476421,26.9774627 95.4655542,26.9665596 95.5548306,27.0562998 C96.0728019,27.572096 95.4217583,24.3632567 94.4169782,21.445444 C90.5241925,10.1440565 79.7495477,1.64641961 67.849684,0.494055498 C66.5349634,0.36657417 61.8866976,0.298640041 61.7662587,0.405154046 M28.6598929,31.7697541 C28.5402963,31.9718791 28.4922892,31.9802661 28.3870105,31.8209144 C28.2851007,31.6665949 28.1680308,31.6590467 27.8067142,31.7840119 C27.5582565,31.8703973 27.3013764,31.9081385 27.2356825,31.8687199 C27.1253504,31.8007858 26.0287673,32.0448454 24.1581751,32.5530934 C21.9170018,33.1628231 17.97284,34.9819481 15.8765303,36.3733397 C-6.0803985,50.9489844 -2.60788537,83.0667308 21.9826957,92.839181 C24.1851265,93.7147765 28.5706166,94.7254015 28.304472,94.2959907 C28.2463582,94.2020571 28.3760615,94.1827671 28.678422,94.2406369 L29.1416483,94.3295384 L28.7963342,94.0460602 C28.5259784,93.8246452 28.3979595,93.795291 28.2059311,93.9152241 C27.9212575,94.0921883 27.8749348,94.0594793 27.7494426,93.5889725 C27.6567974,93.2442697 27.6584818,93.243431 27.838719,93.5478766 C27.9692646,93.7676141 28.0804389,93.8204518 28.2253024,93.7307116 C28.399644,93.6233589 28.3937484,93.5680052 28.1882443,93.3415581 C28.0560142,93.1956255 27.9894781,93.0345965 28.0416963,92.9834362 C28.0930723,92.9314372 28.0745433,92.8895026 27.9995848,92.8895026 C27.9246264,92.8895026 27.7890274,92.9641463 27.6980666,93.0555638 C27.4453977,93.306333 27.3418034,93.0958211 27.5363585,92.7267962 C27.7039622,92.4097702 27.7005933,92.4072541 27.4310798,92.6454429 C27.07987,92.9557593 27.0259673,92.9524046 27.0259673,92.6202822 C27.0259673,92.4726722 27.0849234,92.3879642 27.1573551,92.4324149 C27.4184463,92.5926053 27.0436541,92.1212599 26.6461217,91.7874601 C26.3403923,91.5316587 26.2881741,91.4226286 26.4296687,91.3337272 C26.5315784,91.2691478 26.5829545,91.211278 26.5442119,91.2045685 C25.9462288,91.0972158 25.7786251,91.0561198 25.7221957,90.9999274 C25.6859798,90.9630249 25.7651494,90.932832 25.8990639,90.932832 C26.1163592,90.932832 26.1197281,90.9093485 25.9327531,90.7231587 C25.8173676,90.6074191 25.6388149,90.5126468 25.5369052,90.5109694 C25.3996217,90.5101307 25.4055173,90.4749056 25.5604876,90.3776172 C25.7314602,90.2702645 25.7365136,90.2123947 25.5899656,90.0664621 C25.4434177,89.9205296 25.386146,89.924723 25.2825518,90.0916229 C25.2134889,90.2040078 25.107368,90.2467811 25.0475697,90.1872339 C24.9869291,90.1276867 25.004616,90.0354305 25.0846278,89.9817541 C25.4181508,89.7603392 25.4063595,89.4215073 25.0610454,89.3351219 C24.8732281,89.2881551 24.7199423,89.1824798 24.7199423,89.0994492 C24.7199423,89.0172573 24.5860278,88.7631333 24.4234775,88.5350088 C24.2609271,88.307723 24.1185903,87.9730845 24.1076413,87.7927656 C24.0966923,87.6124466 24.0402629,87.4941909 23.9813069,87.5302547 C23.923193,87.5663185 23.8364433,87.4941909 23.7884363,87.3692256 C23.7404292,87.2442604 23.6140947,87.1754876 23.5079738,87.2165835 C23.2805717,87.3029689 23.2679383,87.2291639 23.4523866,86.8861385 C23.5618765,86.6831748 23.4894447,86.5255005 23.102019,86.1162184 C22.8333478,85.8327401 22.614368,85.4796504 22.614368,85.3312018 C22.614368,85.1835918 22.5512008,85.0619813 22.4737157,85.0619813 C22.3962305,85.0619813 22.3330633,84.9646929 22.3330633,84.8447599 C22.3330633,84.7256655 22.1755663,84.3960591 21.9826957,84.1134196 C21.7898251,83.8307801 21.6314859,83.4877547 21.6314859,83.3518864 C21.6314859,83.2160182 21.5683187,83.1053107 21.4908336,83.1053107 C21.4141907,83.1053107 21.3510234,82.987055 21.3510234,82.8427998 C21.3510234,82.5509346 21.0259228,82.2171349 20.8819015,82.3605513 C20.8305255,82.4117116 20.7892562,82.3815187 20.7892562,82.2942946 C20.7892562,82.2062318 20.6797664,82.170168 20.5433251,82.2137801 C20.3445589,82.2775207 20.3361366,82.265779 20.5003714,82.1500394 C20.663764,82.0342998 20.6713441,81.9378501 20.539114,81.648501 C20.4237285,81.3960545 20.4203596,81.3004435 20.5298495,81.3239269 C20.6149147,81.3423781 20.7159822,81.2694118 20.755567,81.1603817 C20.8052586,81.0245135 20.7572515,80.9909658 20.5980701,81.0513517 C20.4329931,81.1142536 20.3681414,81.061416 20.3681414,80.8643231 C20.3681414,80.7125197 20.3108697,80.5892318 20.2401224,80.5892318 C20.1693752,80.5892318 20.1289481,80.2705285 20.1483194,79.881375 C20.1702174,79.4653833 20.1365282,79.2490005 20.0683076,79.3571919 C19.9807157,79.4947376 19.9503954,79.4779637 19.9495532,79.2917739 C19.9478687,79.1542282 19.8493279,79.0049409 19.728889,78.9596515 C19.5680231,78.8975882 19.5351762,78.7675908 19.604239,78.4572744 C19.6741441,78.1394098 19.6530883,78.0639274 19.5191738,78.146958 C19.3835748,78.2299886 19.3599924,78.1125716 19.4181062,77.6403874 C19.490538,77.0491089 19.4863268,77.040722 19.3178809,77.4307142 C19.0921633,77.955736 18.9953069,77.6647095 19.1073235,76.7958237 C19.1553306,76.4242827 19.1662796,76.147514 19.1325904,76.1810617 C18.9725667,76.3412521 18.6828397,75.7986177 18.6735752,75.3222401 C18.6659951,74.8852811 18.6407282,74.839153 18.5362917,75.0672775 C18.4486998,75.2584995 18.4326975,75.125986 18.4857579,74.647931 C18.5287117,74.2638096 18.5118671,74.0180726 18.4478576,74.1027806 C18.3846904,74.1874886 18.22214,74.2554227 18.0865411,74.254584 C17.8658769,74.2520679 17.862508,74.2277459 18.0511674,74.01975 C18.2886762,73.7589165 18.3307877,73.3680856 18.130337,73.2967967 C18.057063,73.2716359 17.9627333,72.8103548 17.9206218,72.2719139 C17.8776681,71.733473 17.8220809,71.1044533 17.796814,70.8738128 C17.7707049,70.6431722 17.734489,70.2347287 17.71596,69.9655083 C17.6873242,69.5604196 17.661215,69.5243558 17.5643586,69.7558351 C17.5003492,69.9093159 17.4826623,70.318598 17.5239316,70.6641395 C17.5660431,71.0105197 17.547514,71.244515 17.4826623,71.1849678 C17.2872651,71.0029715 17.21736,70.3085337 17.3319032,69.6862235 C17.5214049,68.6630182 17.5643586,68.0859974 17.4279174,68.392959 C17.228309,68.8441758 17.0371228,68.7804352 17.1095546,68.2881224 C17.1466127,68.0348371 17.1087124,67.8687759 17.0143826,67.8687759 C16.9032083,67.8687759 16.9074195,67.7874227 17.0295428,67.592846 C17.165984,67.3747858 17.1668262,67.2808522 17.030385,67.1449839 C16.8391988,66.9546006 16.8021407,66.7415726 16.9638488,66.7667334 C17.2224134,66.8078294 17.2485225,66.7197666 17.1188191,66.2517759 C17.0152249,65.8785576 17.0270161,65.6957225 17.1651417,65.5263065 C17.3007407,65.3594066 17.3032674,65.3266976 17.1744063,65.4038574 C17.048914,65.4793397 16.9992225,65.3845674 16.9992225,65.0734123 C16.9992225,64.8184497 17.0573363,64.6733558 17.1398749,64.7236774 C17.2165178,64.7714829 17.279685,64.743806 17.279685,64.6624528 C17.279685,64.5802609 17.2232556,64.5140041 17.1533505,64.5140041 C17.0842877,64.5140041 16.9916424,64.2154295 16.9470042,63.8497593 C16.8265654,62.8584243 16.821512,62.8366183 16.6951776,62.8366183 C16.6311681,62.8366183 16.6884397,62.7208786 16.8240387,62.5791395 C16.9587955,62.4374004 17.1171347,62.3468216 17.1744063,62.3778532 C17.3276921,62.4592064 17.3032674,61.8838631 17.1415593,61.5819336 C17.0548097,61.4217433 17.0438607,60.8128522 17.1120813,59.9733205 C17.1718796,59.2310773 17.1710374,58.592832 17.1103968,58.5550908 C16.9377397,58.4494155 16.9747978,56.5464212 17.1491394,56.5464212 C17.2316779,56.5464212 17.2645249,56.6562899 17.2224134,56.7913195 C17.1803019,56.9255104 17.2038843,57.1284741 17.2754738,57.2416976 C17.5121404,57.6165934 17.580361,57.284471 17.4237063,56.5254538 C17.3386411,56.1144943 17.2712627,55.6993413 17.2746316,55.6028916 C17.2881073,55.1659326 17.3361144,55.009097 17.4548688,55.009097 C17.5256161,55.009097 17.5424607,55.1919321 17.4936113,55.4150244 C17.4439198,55.6381167 17.4649755,55.8586929 17.5390917,55.9039824 C17.6174191,55.9526266 17.7109066,55.6465036 17.7597559,55.1835451 C17.8069208,54.7415539 17.8667191,54.1745975 17.8928282,53.9229896 C17.9189373,53.6722204 17.976209,53.4298382 18.0216894,53.3853874 C18.0663275,53.3409367 18.0705387,53.2210036 18.0317961,53.1186831 C17.9922113,53.0172012 18.0334806,52.7974637 18.1235992,52.6305638 C18.4486998,52.0258662 18.3821637,51.1217552 18.0520096,51.6543252 C18.0040025,51.7306463 17.9079884,51.7935482 17.8389255,51.7935482 C17.7690205,51.7935482 17.9661022,51.542779 18.2777272,51.2366561 C18.6154613,50.9028563 18.8015941,50.6126686 18.7401113,50.5137028 C18.6710485,50.4021566 18.71316,50.3769959 18.8714992,50.4373817 C18.9995181,50.4868646 19.1047968,50.4658973 19.1047968,50.3912536 C19.1047968,50.3174487 19.0416296,50.2562241 18.9641444,50.2562241 C18.8875015,50.2562241 18.8243343,50.0993885 18.8243343,49.9064891 C18.8243343,49.7144284 18.8942394,49.5575928 18.9793046,49.5575928 C19.0753187,49.5575928 19.1140613,49.3454035 19.0803721,48.9981846 C19.0172049,48.3347785 19.032365,48.3230368 19.3052475,48.8237365 C19.5402296,49.2556634 19.5966589,49.062764 19.3919971,48.5260005 C19.2395535,48.125944 19.615188,47.1522215 19.8046897,47.4575057 C19.8788059,47.5774388 19.9318664,47.5615036 19.9933491,47.402152 C20.0472518,47.2620902 20.0026137,47.180737 19.8720681,47.180737 C19.5848677,47.180737 19.615188,46.9903537 19.9520799,46.6875856 C20.1087346,46.5458465 20.2013799,46.3361732 20.1575839,46.2229497 C20.113788,46.1088874 20.1592684,45.9629549 20.2578093,45.8992142 C20.4009883,45.806958 20.3950927,45.7541203 20.227489,45.6434129 C20.0952589,45.5553501 20.0691498,45.4647713 20.1575839,45.3985145 C20.4212018,45.2022604 20.9299086,44.3971151 20.9299086,44.1773776 C20.9299086,44.0557671 21.0166582,43.9240923 21.1227792,43.8838351 C21.2289001,43.8427391 21.3156498,43.6615814 21.3156498,43.4795851 C21.3156498,43.2984274 21.4478799,42.9646276 21.609588,42.7381805 C21.7712961,42.5117334 21.8639413,42.2869637 21.8142498,42.2383195 C21.7654005,42.1888366 21.7940363,42.1485794 21.8782593,42.1485794 C21.96164,42.1485794 22.108188,41.9129066 22.2025177,41.6243963 C22.4240241,40.9492484 22.8409278,40.3990659 22.9470488,40.6431255 C22.9891603,40.7412526 22.988318,40.6481577 22.9445221,40.4368071 C22.8645103,40.0526857 23.0851744,39.8866245 23.2233001,40.2271338 C23.2738339,40.3529378 23.2965741,40.3554538 23.3049964,40.2355207 C23.310892,40.1432645 23.2494092,40.0275249 23.1685552,39.978042 C23.0683298,39.9168174 23.0759099,39.8228838 23.1912954,39.6844995 C23.3193143,39.53018 23.3209988,39.4421172 23.1980332,39.319668 C22.9975825,39.1200591 22.9874758,38.9338693 23.175293,38.9338693 C23.2527782,38.9338693 23.3159454,39.0210934 23.3159454,39.1284461 C23.3159454,39.2357988 23.4077484,39.3582479 23.519765,39.4010213 C23.6570484,39.4538589 23.6966332,39.4119243 23.6427305,39.2710239 C23.5989346,39.1569616 23.655364,38.9556753 23.769065,38.8240005 C23.9543555,38.6092951 24.1842842,38.1572396 24.216289,37.9450503 C24.2230268,37.9014383 24.3392545,37.7555057 24.4740112,37.6213148 C24.608768,37.4862853 24.7199423,37.3000954 24.7199423,37.2078392 C24.7199423,37.1147443 24.8504879,36.9268771 25.0113538,36.7901701 C25.2471781,36.5897225 25.2699183,36.5024984 25.1317927,36.3364372 C24.920393,36.0839907 25.0812589,35.883543 25.3111876,36.1125062 C25.4029906,36.2039238 25.5385896,36.2777287 25.6135481,36.2777287 C25.6876643,36.2777287 25.7061933,36.2349554 25.6531329,36.1829564 C25.6009146,36.1301188 25.7247224,35.913736 25.9293842,35.7023854 C26.1584707,35.4633579 26.2671183,35.2302012 26.2132156,35.0909782 C26.1584707,34.9475617 26.1828953,34.9005949 26.2814362,34.9609808 C26.5021004,35.0968491 26.6991822,34.7169212 26.518945,34.5005384 C26.33197,34.2757687 26.6082214,33.9017116 26.9611156,33.9017116 C27.2255757,33.9017116 27.5725744,33.5586862 27.7174379,33.1535975 C27.7688139,33.0110197 27.8959906,32.9271504 27.9995848,32.966569 C28.1444484,33.0219227 28.1789798,32.9011509 28.1436061,32.4566437 C28.1090747,32.010459 28.1309727,31.9316219 28.2404625,32.1194891 C28.3988017,32.3903869 28.6497862,32.4482567 28.6497862,32.2142614 C28.6497862,32.0314263 28.9319331,31.7387225 29.2140801,31.6288537 C29.3547325,31.5735 29.3218855,31.5441457 29.1130125,31.5365975 C28.9437244,31.5307267 28.7390625,31.6355633 28.6598929,31.7697541 M99.5377349,31.6833688 C99.5377349,31.8033019 99.8190397,31.9987173 100.028755,32.0247168 C100.10624,32.0339424 100.255315,32.051555 100.359751,32.0632967 C100.468399,32.0750384 100.515564,32.1748428 100.469241,32.2939372 C100.425445,32.4096769 100.465872,32.5061266 100.560202,32.5086426 C100.653689,32.5111587 100.608209,32.6050923 100.458292,32.7183159 C100.308375,32.8307007 100.245208,32.9305052 100.31764,32.9397308 C100.390914,32.9481177 100.513037,32.9699238 100.590522,32.988375 C100.668007,33.0059876 100.802764,33.0303096 100.890356,33.0420513 C100.977106,33.053793 101.082384,33.1888226 101.122811,33.3423034 C101.163238,33.4966229 101.294626,33.6224269 101.415065,33.6224269 C101.547295,33.6224269 101.603724,33.701264 101.557402,33.8220358 C101.50013,33.9704844 101.563297,34.0015161 101.807544,33.9436463 C102.127591,33.8681639 102.129276,33.8715187 101.853867,34.0828693 C101.699739,34.201125 101.605409,34.3227355 101.643309,34.3537671 C101.682052,34.3839601 101.875765,34.5307313 102.073689,34.67918 C102.271613,34.8284673 102.429952,34.9861416 102.424898,35.0305923 C102.413949,35.1228485 103.210699,36.2056011 103.78173,36.8757168 C103.99313,37.1239699 104.166629,37.4368024 104.167472,37.5709933 C104.169156,37.7051841 104.233166,37.8158916 104.310651,37.8158916 C104.387294,37.8158916 104.450461,37.9098252 104.450461,38.0255648 C104.450461,38.2796888 104.677021,38.3031722 104.789037,38.0599512 C104.832833,37.9643402 104.83536,38.0213714 104.794933,38.1882713 C104.68039,38.6503911 104.859785,39.1628325 105.198361,39.3414741 C105.45103,39.4739876 105.455241,39.4874066 105.226154,39.4194725 C104.96759,39.3431515 104.970117,39.3599253 105.261528,39.6685643 C105.433343,39.8513994 105.573995,40.0744917 105.573995,40.1659092 C105.573995,40.2573268 105.625371,40.3319704 105.689381,40.3319704 C105.752548,40.3319704 105.947945,40.6305451 106.123971,40.9953766 C106.99989,42.8195337 107.258455,43.1927521 107.258455,42.638376 C107.258455,42.5226364 107.314884,42.4287028 107.383947,42.4287028 C107.452168,42.4287028 107.545655,42.5226364 107.589451,42.638376 C107.640827,42.7700508 107.588609,42.8480493 107.448799,42.8480493 C107.282879,42.8480493 107.250032,42.9352733 107.315726,43.1969455 C107.368787,43.4082962 107.34352,43.5466805 107.252559,43.5466805 C107.169178,43.5466805 107.144754,43.616292 107.196972,43.701 C107.26435,43.8100301 107.327518,43.8008045 107.408372,43.6708071 C107.591136,43.3764258 107.719154,43.6313885 107.548182,43.9492531 C107.418478,44.189958 107.447956,44.2713112 107.73263,44.4566623 C108.132689,44.7183345 108.258181,45.0881981 108.064469,45.4329009 C107.970139,45.6006395 107.970981,45.6534772 108.067838,45.5930913 C108.147007,45.5452858 108.253128,45.6132199 108.303662,45.7448947 C108.382831,45.9503745 108.414836,45.9554066 108.525168,45.7792811 C108.609391,45.6442516 108.624551,45.7574751 108.568122,46.1055327 C108.497375,46.5424917 108.533591,46.6741665 108.769415,46.8385503 C108.946283,46.9618382 109.031348,47.1396411 108.989237,47.2989927 C108.951337,47.4415705 109.020399,47.6579533 109.142523,47.7795638 C109.263804,47.9003356 109.364029,48.1301374 109.364029,48.2894891 C109.364029,48.4488408 109.435619,48.5788382 109.52321,48.5788382 C109.631016,48.5788382 109.654598,48.7809632 109.596484,49.2078579 C109.527422,49.7093963 109.551846,49.8368776 109.717766,49.8368776 C109.831467,49.8368776 109.924954,49.9618428 109.924954,50.1153237 C109.924954,50.2679658 110.051289,50.4726068 110.206259,50.5682178 C110.527991,50.7686655 110.573471,50.9548553 110.300589,50.9548553 C110.14646,50.9548553 110.147303,51.1049813 110.305642,51.8287733 C110.410921,52.3093444 110.565891,53.0172012 110.650956,53.4013226 C110.735179,53.785444 110.840458,54.1620171 110.884254,54.2374995 C110.985321,54.4102702 111.023222,54.6853615 111.119236,55.9534652 C111.16219,56.5120348 111.258204,57.1293128 111.333162,57.3255669 C111.408121,57.5218211 111.469603,57.8371696 111.469603,58.0250368 C111.469603,58.2137427 111.546246,58.4896727 111.640576,58.6397988 C111.774491,58.8545041 111.774491,59.0499196 111.638049,59.5564901 C111.542877,59.9104186 111.503293,60.2626696 111.550457,60.3389907 C111.598465,60.414473 111.633838,61.1986509 111.629627,62.0801172 C111.624574,63.2920285 111.664158,63.6610534 111.791335,63.5889258 C111.913458,63.5209917 111.910932,63.5478299 111.78544,63.6828594 C111.688583,63.7860187 111.603518,64.0317557 111.595938,64.2271712 L111.58162,64.5836157 L111.469603,64.2347194 C111.369378,63.924403 111.35506,63.9453703 111.343269,64.4175545 C111.334847,64.7396126 111.384538,64.9157381 111.469603,64.8637391 C111.555511,64.8109015 111.609414,65.0281229 111.609414,65.4223086 C111.609414,65.7779144 111.562249,66.0387479 111.504135,66.0026841 C111.446863,65.9666203 111.41907,66.5310607 111.444336,67.2556914 C111.478868,68.2906385 111.448548,68.5657298 111.303684,68.5363755 C111.17735,68.510376 111.131869,68.6244383 111.160505,68.8944974 C111.184087,69.1125576 111.1285,69.3792619 111.038382,69.488292 C110.947421,69.5973221 110.921312,69.6862235 110.980268,69.6862235 C111.039224,69.6862235 111.171454,69.5755161 111.274206,69.4413252 C111.446863,69.2140394 111.460339,69.2182329 111.46455,69.5008724 C111.467077,69.668611 111.390434,69.8891872 111.293577,69.9906691 C111.197563,70.0921509 111.125974,70.3949191 111.13608,70.6641395 C111.145345,70.93336 111.10576,71.2168382 111.047646,71.2931592 C110.956685,71.4130923 110.486721,73.5115021 110.486721,73.7966577 C110.486721,73.8511727 110.43703,73.8654305 110.375547,73.8276893 C110.314906,73.7899481 110.288797,73.9669123 110.318275,74.2201976 C110.348596,74.4734829 110.278691,74.8626364 110.163305,75.0840513 C109.904741,75.582235 109.826413,76.1265467 109.978857,76.3697676 C110.156567,76.6549232 109.945168,76.7555664 109.743875,76.4813138 C109.590589,76.2724793 109.572902,76.3194461 109.619225,76.805888 C109.653756,77.1598164 109.615856,77.3736831 109.518999,77.3736831 C109.433934,77.3736831 109.364029,77.5036805 109.364029,77.6621935 C109.364029,77.8332868 109.302546,77.9112853 109.210743,77.8559315 C109.112202,77.794707 109.070091,77.9028983 109.091147,78.1620545 C109.109676,78.381792 109.038928,78.7508169 108.935334,78.9814575 C108.83174,79.212098 108.740779,79.4637059 108.733199,79.5408657 C108.725619,79.6171867 108.64308,79.8176343 108.550435,79.9853729 C108.456948,80.1539502 108.381147,80.4072355 108.381147,80.5489746 C108.381147,80.689875 108.204279,80.9993527 107.987826,81.2350254 C107.771373,81.4706981 107.618929,81.7365638 107.648407,81.8254652 C107.678727,81.9143667 107.625667,81.9864943 107.532179,81.9864943 C107.412583,81.9864943 107.383947,82.1810711 107.436165,82.6431909 C107.487541,83.0977624 107.469854,83.2269212 107.377209,83.0625373 C107.303935,82.9325399 107.180127,82.8251872 107.102642,82.8251872 C107.024315,82.8251872 106.99231,82.8771862 107.031895,82.9392495 C107.106853,83.06086 106.8146,84.0127765 106.652892,84.1738055 C106.599831,84.2266432 106.556035,84.3851561 106.556035,84.5260565 C106.556035,84.666957 106.431385,84.9068231 106.278942,85.0586266 C106.126498,85.21043 105.962263,85.4930695 105.913414,85.6876463 C105.863722,85.8813843 105.771077,86.040736 105.705383,86.040736 C105.640531,86.040736 105.48135,86.2621509 105.351647,86.5338874 C105.222786,86.8047853 104.966748,87.1436172 104.783984,87.2878724 C104.449619,87.5495446 104.328338,87.9974066 104.591113,87.9974066 C104.668598,87.9974066 104.732608,87.8875379 104.73345,87.7525083 C104.735135,87.5470285 104.757033,87.5411577 104.866522,87.7139284 C104.949061,87.8430871 104.945692,87.9521172 104.859785,88.0049549 C104.783984,88.0519217 104.762086,88.1944995 104.811777,88.3228195 C104.861469,88.4511395 104.838729,88.5568148 104.761244,88.5568148 C104.684601,88.5568148 104.584375,88.4620425 104.540579,88.3471416 C104.434459,88.0712116 104.169998,88.0770825 104.169998,88.3555285 C104.169998,88.4746229 104.112727,88.5375249 104.041979,88.4939129 C103.971232,88.4511395 103.930805,88.5710726 103.951861,88.7614559 C103.972917,88.9518392 103.941754,89.0784818 103.88364,89.042418 C103.824684,89.0063543 103.659607,89.2588008 103.51727,89.6043423 C103.359773,89.9851089 103.167745,90.233362 103.028777,90.233362 C102.696939,90.2342007 102.448481,90.5956774 102.552917,90.9252837 C102.623665,91.14586 102.594187,91.1919881 102.424056,91.12657 C102.26319,91.0645067 102.181494,91.1542469 102.120011,91.4612085 C102.067793,91.7195259 101.9044,91.9392635 101.691316,92.0357132 C101.501815,92.1220985 101.387271,92.2571281 101.436963,92.3376426 C101.575089,92.5590576 101.22809,92.8895026 100.857509,92.8895026 C100.561044,92.8895026 100.541673,92.9264051 100.663796,93.2484632 C100.828873,93.6787127 100.84656,94.0108351 100.693274,93.7885814 C100.578731,93.6216815 100.099502,93.4153631 100.099502,93.5327801 C100.099502,93.573876 100.163512,93.7273568 100.242681,93.8741281 C100.356382,94.08464 100.344591,94.125736 100.187094,94.0653501 C100.076762,94.0234155 99.9453741,94.0561245 99.8948403,94.1383164 C99.8434643,94.2205083 99.8923137,94.2876037 100.003488,94.2876037 C100.11382,94.2876037 100.411969,94.3286997 100.664638,94.3790213 C101.004057,94.4469554 101.098387,94.4268268 101.021744,94.3035389 C100.946785,94.1836058 101.01669,94.1617998 101.271886,94.2247018 C102.632929,94.5652111 109.369925,92.0038428 112.640303,89.9020783 C130.103936,78.6812054 132.441966,54.3012401 117.422483,40.0342344 C113.866589,36.6568179 107.923816,33.2391442 104.450461,32.5748994 C103.951861,32.4792884 103.450734,32.3467749 102.544495,32.0716836 C101.826915,31.8527848 99.5377349,31.5575648 99.5377349,31.6833688 M62.1991648,37.9115026 C46.2827076,39.093221 35.4036263,55.1625778 40.1192705,70.5249165 C46.4402045,91.1131509 74.471294,94.7916582 85.8826645,76.5307967 C96.9360873,58.8419238 83.1471024,36.3557272 62.1991648,37.9115026 M62.4796273,46.0594046 C62.4796273,47.5866644 62.4408847,48.9352827 62.3945621,49.0568932 C62.2968635,49.3093397 57.9374824,49.3957251 57.7833544,49.147472 C57.5542679,48.7792858 62.0020831,42.9897884 62.3490817,43.2036551 C62.4223557,43.2481058 62.4796273,44.5002744 62.4796273,46.0594046 M73.4934653,44.0356385 C75.8390751,45.0798112 80.4241737,48.6098698 80.1041264,49.125666 C80.0418014,49.2263091 79.1616714,49.2774694 77.50669,49.2774694 L75.0044255,49.2774694 L74.2127295,47.8449818 C73.7764545,47.0566105 72.9232758,45.7079922 72.3168704,44.848332 C70.9238225,42.8748874 70.9095046,42.8849518 73.4934653,44.0356385 M56.4433669,43.7102256 C56.4433669,43.8008045 56.3574595,43.9735752 56.2513385,44.0951857 C55.7771632,44.6394974 54.0446967,47.3467982 53.5814703,48.2643283 L53.0710791,49.2774694 L50.9057065,49.2774694 C49.7139515,49.2774694 48.7049603,49.2221157 48.6628488,49.1533428 C48.3916508,48.7163838 52.2995967,45.6006395 54.6603666,44.3719544 C56.3439838,43.4955202 56.4433669,43.4586177 56.4433669,43.7102256 M67.4395181,44.9405882 C68.6649624,46.4233973 70.3805843,49.0141198 70.2340363,49.1600524 C70.1641313,49.2296639 69.290739,49.2690825 68.2935391,49.2472765 L66.4802185,49.2078579 L66.4423181,46.5869424 C66.3985222,43.594486 66.3690442,43.6439689 67.4395181,44.9405882 M51.332717,53.244487 C51.3739862,53.3501623 51.2501785,53.9749886 51.0589923,54.6325239 C50.584817,56.2621043 50.2656119,57.8723947 50.0710569,59.6219082 L49.9076643,61.0896209 L46.7147714,61.1265233 C43.7964455,61.1609098 43.5142985,61.1441359 43.4292333,60.922721 C43.1563509,60.2140254 44.2579873,56.0692049 45.2324471,54.1351789 L45.778212,53.0515877 L48.5188275,53.0515877 C50.7162048,53.0515877 51.2737609,53.0901675 51.332717,53.244487 M62.3945621,53.2730026 C62.4408847,53.3946131 62.4796273,55.1189658 62.4796273,57.1058294 C62.4796273,59.0918543 62.4408847,60.816207 62.3945621,60.9378174 C62.2934945,61.2003283 54.1499754,61.2808428 53.9882673,61.0216867 C53.6513754,60.4782137 55.2431896,53.5053205 55.7830588,53.1631338 C56.150271,52.9308159 62.3019168,53.0331364 62.3945621,53.2730026 M72.4752096,53.6109959 C73.1068819,54.8975508 74.3003214,60.3767318 74.0762883,60.9596234 C74.0089099,61.1332329 73.4319826,61.1583937 70.2390897,61.1265233 L66.4802185,61.0896209 L66.4431604,57.2475685 C66.4221046,55.1340622 66.4364225,53.3241629 66.4743229,53.2260358 C66.5282256,53.0859741 67.1733735,53.0541037 69.3892799,53.0842967 L72.2351741,53.1220379 L72.4752096,53.6109959 M83.5648483,54.1687267 C84.3733889,55.7949523 85.2467811,58.8469559 85.3849067,60.5302127 L85.4303871,61.0896209 L81.781848,61.0896209 L78.1324666,61.0896209 L78.0271879,60.2509279 C77.7568322,58.1122609 77.473843,56.5036478 77.14032,55.2187702 C76.9415538,54.4496888 76.7436298,53.646221 76.7015183,53.4331929 L76.6248754,53.0465555 L79.8346129,53.0842967 L83.0443504,53.1220379 L83.5648483,54.1687267 M49.9539869,65.4927588 C50.0550545,66.795249 50.4618515,69.1704274 50.8349592,70.6398174 C51.0623612,71.5372189 51.2493362,72.3188807 51.2493362,72.3767505 C51.2493362,72.4346203 49.950618,72.4815871 48.363015,72.4815871 L45.4766937,72.4815871 L45.0075718,71.4684461 C43.9893161,69.2660384 43.0822347,65.4256634 43.4848205,65.0239295 C43.5378809,64.9710918 45.0067296,64.9450923 46.7484606,64.9660596 L49.9160866,65.0029621 L49.9539869,65.4927588 M62.4114067,65.2478605 C62.4535182,65.4206312 62.4703628,67.1030493 62.449307,68.9867536 L62.4097222,72.4119756 L58.940578,72.4488781 L55.4714338,72.4866193 L55.1151706,71.3216748 C54.4666538,69.2064912 53.7827632,65.4030187 53.9899517,65.0692189 C54.0413278,64.9861883 55.6845179,64.9333506 58.203627,64.9333506 L62.3339216,64.9333506 L62.4114067,65.2478605 M74.0190167,65.9121053 C73.9659562,67.0577599 73.5768461,68.9825602 72.9990765,70.9526499 L72.5501681,72.4815871 L69.4802407,72.4815871 L66.4103134,72.4815871 L66.4103134,68.8005638 C66.4103134,66.775959 66.4532671,65.0767671 66.5054854,65.0239295 C66.5585458,64.9719305 68.2800634,64.945931 70.3308927,64.9660596 L74.0602859,65.0029621 L74.0190167,65.9121053 M85.393329,65.1077988 C85.5845152,65.6361753 84.6479557,69.433777 83.8705777,71.2830949 L83.3669243,72.4815871 L80.0822284,72.4815871 C78.2756457,72.4815871 76.7975325,72.4346203 76.7975325,72.3759118 C76.7975325,72.318042 76.9204981,71.8416644 77.0712572,71.3174813 C77.3550886,70.3303397 77.8284217,67.636458 77.9960254,66.0513283 C78.0490859,65.5514673 78.1206754,65.0960571 78.1552068,65.0381872 C78.2714345,64.8444492 85.3225817,64.9123833 85.393329,65.1077988 M53.4492403,77.5556795 C53.7667609,78.1930861 54.5710902,79.5257692 55.2356095,80.5171043 C56.3599862,82.1944901 56.5570679,82.5459025 56.3709352,82.5459025 C55.16402,82.5459025 48.3023745,77.4785197 48.3023745,76.5869891 C48.3023745,76.4326696 48.7462295,76.3957671 50.5873437,76.3957671 L52.8714707,76.3957671 L53.4492403,77.5556795 M62.3945621,76.6163434 C62.5284766,76.9652396 62.4939452,82.8000265 62.3566618,82.8847344 C61.9591293,83.1296328 57.2519074,76.9300145 57.5138409,76.5064746 C57.6603889,76.2708019 62.3019168,76.3756385 62.3945621,76.6163434 M70.5380813,76.5140228 C70.7090539,76.7899528 67.1177864,81.8128849 66.5854972,82.041848 C66.4482137,82.1013952 66.4103134,81.4925041 66.4103134,79.2565488 L66.4103134,76.3957671 L68.4367181,76.3957671 C69.5518303,76.3957671 70.4976542,76.4486048 70.5380813,76.5140228 M80.5210301,76.5416997 C80.8789777,77.1178817 76.3056704,80.6546499 73.3654464,82.0762344 C71.0653171,83.1875026 70.9591961,83.148084 72.0785194,81.5990182 C73.1363599,80.1338216 74.2641055,78.2870197 74.7660744,77.1942028 L75.1332866,76.3957671 L77.7820991,76.3957671 C79.4732963,76.3957671 80.4637585,76.4486048 80.5210301,76.5416997 M32.9291554,99.4942095 C33.4673402,104.73017 36.9769114,111.654419 41.3287124,116.070137 C59.1612422,134.161582 89.4646675,125.897102 95.4124938,101.320044 C95.6028377,100.536705 95.7434901,99.6845928 95.7258032,99.4279528 C95.7089586,99.1704741 95.7418056,98.8836411 95.7990772,98.7905462 C95.9532053,98.5431317 95.3998603,98.5741634 95.1909874,98.8240939 C95.0983421,98.9364787 95.0621262,99.0924756 95.1109755,99.1721515 C95.164036,99.2568594 95.1151867,99.2836976 94.9939056,99.2375695 C94.8802046,99.1939575 94.6713316,99.2618916 94.5306793,99.3876955 C94.3891847,99.5143382 94.0522928,99.7592365 93.7827793,99.932846 C93.48463,100.123229 93.3077617,100.340451 93.3321864,100.483029 C93.3549266,100.612187 93.3077617,100.717863 93.2269077,100.717863 C93.1468958,100.717863 93.0803597,100.64238 93.0803597,100.550963 C93.0803597,100.459545 92.9910833,100.505673 92.8824357,100.654122 C92.7737881,100.802571 92.7139898,100.971987 92.7502056,101.029856 C92.7864215,101.088565 92.6550337,101.075146 92.4579519,101.000502 C92.2617124,100.925858 92.1075844,100.910762 92.1160067,100.966116 C92.1623293,101.273077 92.0688418,101.382946 91.8170151,101.317528 C91.4775965,101.228627 91.4607519,101.321721 91.7639546,101.622812 C91.8886046,101.746939 91.9433496,101.89371 91.8852357,101.947386 C91.8262796,102.001063 91.750479,101.966676 91.7159475,101.871065 C91.6106688,101.576684 91.3192573,101.673973 90.7743347,102.185575 C90.4879766,102.453957 90.1586648,102.674533 90.0424371,102.674533 C89.9270516,102.674533 89.7367077,102.769305 89.62048,102.885884 C89.5034101,103.001623 89.3551776,103.063687 89.2894837,103.023429 C89.2237898,102.983172 89.132829,103.06788 89.0873486,103.211297 C89.041026,103.355552 88.7681435,103.574451 88.480101,103.697739 C87.9318094,103.933411 87.6799827,104.08186 86.9581919,104.589269 C86.7181564,104.757846 86.3618932,104.918037 86.1664959,104.944036 C85.9719409,104.970036 85.7260098,105.05726 85.6215733,105.138613 C85.5162946,105.219966 85.3158439,105.328158 85.1760338,105.377641 C85.0278013,105.430478 84.9637919,105.536154 85.0219057,105.630926 C85.0859152,105.733246 85.0614905,105.755052 84.9545274,105.689634 C84.8618821,105.632603 84.6968051,105.66028 84.586473,105.750859 C84.4769831,105.841438 84.3060105,105.888405 84.2066274,105.854018 C84.1080865,105.82047 83.8731044,105.9555 83.6852872,106.155109 C83.4974699,106.354718 83.3222862,106.499812 83.2970193,106.477167 C83.1866872,106.378201 81.7287875,106.928384 81.7532122,107.05922 C81.7692146,107.143089 81.5611838,107.18754 81.2546122,107.164895 C80.8023348,107.131348 80.7096896,107.175798 80.5917774,107.486115 C80.5159767,107.684046 80.3576376,107.846753 80.2397254,107.846753 C79.9626318,107.846753 79.9693697,107.720949 80.2641501,107.397213 C80.4873409,107.151476 80.4873409,107.141412 80.2641501,107.22612 C80.1327622,107.276441 80.025799,107.376246 80.025799,107.448373 C80.025799,107.520501 79.9171514,107.560758 79.7840791,107.538114 C79.622371,107.510437 79.5406747,107.590113 79.538148,107.774625 C79.5364636,107.945718 79.4269737,108.064813 79.2543166,108.086619 C79.0993464,108.10507 79.0521815,108.08578 79.1490379,108.042168 C79.4732963,107.895397 79.3275906,107.696627 78.9384805,107.753658 C78.7262386,107.785528 78.5678994,107.881978 78.5872707,107.968363 C78.6184332,108.110102 77.9134869,108.206552 77.3803555,108.133586 C77.275919,108.119328 77.2321231,108.174682 77.2826568,108.256873 C77.3374018,108.344936 77.2514943,108.405322 77.0712572,108.405322 C76.8489085,108.405322 76.7907947,108.466547 76.8548042,108.631769 C76.9247092,108.812088 76.8775444,108.841442 76.6240332,108.77267 C76.2441876,108.670349 74.8326106,108.955505 74.8326106,109.134985 C74.8326106,109.204596 74.7677589,109.22137 74.6894315,109.172726 C74.6111042,109.124921 74.5849951,109.024277 74.6313177,108.949634 C74.7450187,108.76596 73.9811164,108.95215 73.7090762,109.174404 C73.4858853,109.357239 72.52069,109.540912 71.4443204,109.605492 C71.0863728,109.626459 70.5254478,109.716199 70.1978205,109.804262 C69.8179748,109.905744 69.5543569,109.914969 69.4684495,109.829423 C69.3825421,109.743876 69.0717593,109.764843 68.608533,109.887293 C68.2101583,109.992968 67.662709,110.044128 67.3923533,110.000516 C67.0310367,109.942646 66.9560783,109.960259 67.1102063,110.065934 C67.3190793,110.211028 65.5082854,110.148965 65.2716188,110.003871 C65.213505,109.967807 65.1242286,110.005548 65.0736948,110.08774 C65.0029475,110.200964 62.9706472,110.191738 62.9706472,110.078515 C62.9706472,110.058386 61.9734472,109.989613 61.1463777,109.951872 C60.8372794,109.937614 60.3150969,109.970323 59.9849429,110.023161 C59.5107676,110.100321 59.3271615,110.06845 59.1073395,109.870519 C58.8664618,109.653297 58.7561297,109.641555 58.2870078,109.781617 C57.631753,109.977033 57.5669014,109.979549 57.5669014,109.813488 C57.5669014,109.742199 57.6772335,109.654975 57.8119902,109.620588 C57.9475892,109.585363 57.7420851,109.541751 57.3563439,109.524138 C56.4560004,109.482204 56.1115284,109.521622 56.014672,109.677619 C55.970876,109.747231 55.8133791,109.704457 55.6634622,109.583686 C55.3973176,109.36898 55.3990021,109.364787 55.7064159,109.430205 C55.8807575,109.467107 56.0222521,109.448656 56.0222521,109.389109 C56.0222521,109.254079 54.9239845,109.072922 53.9697382,109.051116 C53.4854561,109.040213 53.2715298,108.981504 53.3136413,108.871635 C53.3574372,108.757573 53.2108893,108.730735 52.8217791,108.782734 C52.3981376,108.839765 52.091566,108.769315 51.5247454,108.485837 C51.1162639,108.281196 50.7035714,108.14365 50.6075572,108.180552 C50.5123852,108.217455 50.3237258,108.126037 50.188969,107.977589 C50.0028363,107.772109 49.8983998,107.745271 49.7552207,107.863526 C49.6137261,107.980943 49.4747582,107.959137 49.1976646,107.778818 C48.8919353,107.57921 48.7656008,107.566629 48.4632403,107.704175 C48.1052927,107.866043 48.102766,107.863526 48.3461704,107.595145 C48.6081038,107.307473 48.1743555,107.039091 47.6075349,107.137218 C47.4955184,107.156508 47.325388,107.065091 47.2285316,106.932577 C47.1232528,106.789161 46.9598603,106.728775 46.8208924,106.781613 C46.6793978,106.835289 46.4267289,106.732968 46.1664799,106.514908 C45.8843329,106.278397 45.6510353,106.189495 45.466587,106.248204 C45.2745586,106.30859 45.1229573,106.242333 44.9747248,106.031821 C44.8189123,105.809567 44.6715221,105.75002 44.4298022,105.810406 C44.1611309,105.877502 44.1156505,105.848986 44.1889245,105.658603 C44.2461961,105.509315 44.2234559,105.458155 44.1274417,105.517702 C44.044061,105.568863 43.7787586,105.500928 43.5395654,105.365899 C43.1571931,105.151193 43.0864458,105.146161 42.9710603,105.328996 C42.8590438,105.506799 42.8127211,105.509315 42.6577509,105.343254 C42.5221519,105.198999 42.5213097,105.174677 42.6518553,105.248482 C42.7487117,105.302158 42.8278813,105.285384 42.8278813,105.210741 C42.8278813,105.135258 42.4168732,104.875263 41.9149043,104.631204 C41.4129354,104.387983 41.0027695,104.138891 41.0027695,104.076828 C41.0027695,104.015603 40.8696972,103.930895 40.7079891,103.888122 C40.5454387,103.846187 40.451109,103.750576 40.4974316,103.675094 C40.546281,103.596257 40.4637425,103.570257 40.3011921,103.612192 C40.1462219,103.652449 40.0198874,103.622256 40.0198874,103.545096 C40.0198874,103.467098 39.8548104,103.362261 39.6526752,103.31194 C39.2517739,103.211297 38.8971952,102.919432 38.8971952,102.688791 C38.8971952,102.519375 38.456709,102.655243 38.2966854,102.874142 C38.2360449,102.956334 38.2225692,102.866594 38.2672074,102.674533 C38.3657482,102.245122 37.5664722,101.771261 37.345808,102.127705 C37.2809564,102.231703 37.1857844,102.274477 37.1335661,102.222478 C37.0813479,102.171317 37.1411462,102.027062 37.2657962,101.902097 C37.584159,101.58591 37.5614188,101.570813 36.9668047,101.702488 C36.5086317,101.803131 36.473258,101.793906 36.6947645,101.631199 C36.858157,101.510427 36.8952151,101.409784 36.7975165,101.350237 C36.714978,101.299077 36.6888689,101.189208 36.7410871,101.105339 C36.7983587,101.013082 36.7697229,100.994631 36.6669709,101.057533 C36.4564135,101.186692 36.0605655,100.878053 36.183531,100.680121 C36.234907,100.596252 36.205429,100.576123 36.1144682,100.632316 C35.9384422,100.741346 35.5291185,100.558511 35.1880155,100.219679 C34.9867226,100.018393 34.9665091,100.018393 34.9665091,100.223034 C34.9665091,100.407546 34.9142908,100.420127 34.6742554,100.291807 C34.3929506,100.14168 34.3912662,100.128261 34.639724,99.9278138 C34.8772327,99.7357531 34.8654415,99.7265275 34.4754892,99.8036872 C34.1655486,99.8649118 34.1099615,99.8498154 34.2649317,99.7458174 C34.4401155,99.6284004 34.3811594,99.5210477 33.9162486,99.1058947 C33.5903057,98.815707 33.3342679,98.6756452 33.3022632,98.7704175 C33.2727851,98.859319 33.3325834,98.9851229 33.4370199,99.0488636 C33.5406142,99.1126043 33.5835679,99.2056992 33.5330341,99.2560207 C33.382275,99.4069855 33.1422395,99.1830545 33.1422395,98.892028 C33.1422395,98.7427407 33.0740189,98.6211302 32.9906382,98.6211302 C32.8887284,98.6211302 32.8685149,98.9071245 32.9291554,99.4942095"/>
  </g>
</svg>
