<svg xmlns="http://www.w3.org/2000/svg" width="111" height="124" viewBox="0 0 111 124">
  <g fill="none">
    <path fill="#000" d="M5.55,10.7684211 C37.7670732,15.8807018 45.7807317,49.4640351 45.7807317,49.4640351 C39.96,45.0859649 35.1139024,52.8631579 35.1139024,52.8631579 C30.9987805,42.1491228 26.64,57.7307018 26.64,57.7307018 C27.3439024,26.8394737 5.55,10.7684211 5.55,10.7684211 Z M105.45,10.7684211 C105.45,10.7684211 83.6560976,26.8394737 84.36,57.7307018 C84.36,57.7307018 80.0012195,42.1491228 75.8860976,52.8631579 C75.8860976,52.8631579 71.04,45.0859649 65.2192683,49.4640351 C65.2463415,49.4640351 73.2329268,15.8807018 105.45,10.7684211 Z M55.3917073,7.53245614 C58.2073171,23.4947368 65.8690244,37.1184211 65.8960976,37.145614 C60.0212195,39.8377193 59.5068293,50.6877193 59.5068293,50.6877193 C55.8790244,46.8807018 50.6268293,50.6877193 50.6268293,50.6877193 C50.7080488,41.5236842 44.562439,36.2482456 44.562439,36.2482456 C52.7385366,26.6763158 55.3917073,7.53245614 55.3917073,7.53245614 Z M23.472439,4.48684211 C23.472439,4.48684211 28.6704878,2.06666667 30.5114634,5.81929825 C30.5114634,5.81929825 32.0817073,15.4184211 29.5368293,19.4429825 C29.5368293,19.4429825 20.3319512,11.7473684 17.8953659,11.5842105 C17.922439,11.5842105 14.754878,4.35087719 23.472439,4.48684211 Z M87.2568293,4.48684211 C95.9743902,4.35087719 92.8339024,11.5842105 92.8339024,11.5842105 C90.3973171,11.7473684 81.192439,19.4429825 81.192439,19.4429825 C78.647561,15.4184211 80.2178049,5.81929825 80.2178049,5.81929825 C82.0587805,2.06666667 87.2568293,4.48684211 87.2568293,4.48684211 Z M44.562439,1.30526316 C44.562439,1.30526316 48.9212195,-1.84912281 51.7097561,1.90350877 C51.7097561,1.90350877 52.1970732,12.7263158 48.1360976,18.0833333 C48.1360976,18.0833333 41.1782927,9.00087719 38.7417073,7.09736842 C38.7417073,7.1245614 34.9785366,0.353508772 44.562439,1.30526316 Z M66.1939024,1.30526316 C75.7778049,0.353508772 72.0146341,7.1245614 72.0146341,7.09736842 C69.5780488,9.00087719 62.6202439,18.0833333 62.6202439,18.0833333 C58.5592683,12.7263158 59.0465854,1.90350877 59.0465854,1.90350877 C61.835122,-1.84912281 66.1939024,1.30526316 66.1939024,1.30526316 Z"/>
    <path fill="#A30A18" d="M35.1139024,7.1245614 C40.9346341,15.7175439 47.8653659,22.9236842 47.892439,22.9508772 L42.3153659,34.2631579 C41.0158537,29.7491228 32.5419512,21.1561404 32.5419512,21.1561404 C36.0885366,13.2973684 35.1139024,7.1245614 35.1139024,7.1245614 Z M76.2109756,7.1245614 C76.2109756,7.1245614 75.2363415,13.2973684 78.7829268,21.1561404 C78.7829268,21.1561404 70.3090244,29.7491228 69.0095122,34.2631579 L63.432439,22.9508772 C63.4595122,22.9236842 70.4173171,15.7175439 76.2109756,7.1245614 Z"/>
    <g fill="#A30A18" transform="translate(0 20.667)">
      <path d="M48.4339024,64.8552632 C48.4339024,64.8552632 26.3963415,56.2078947 32.0817073,34.8070175 C32.0817073,34.8070175 38.1460976,36.2754386 42.7485366,44.1885965 C42.7485366,44.1885965 43.8314634,36.4114035 46.8636585,33.4745614 C46.8636585,33.4745614 51.6014634,37.6078947 52.9280488,46.8535088 C54.2546341,56.0991228 53.7673171,64.8552632 53.7673171,64.8552632 L48.4339024,64.8552632 Z"/>
      <rect width="5.415" height="38.396" x="48.434" y="64.692"/>
      <rect width="53.794" height="5.846" x=".054" y="97.432"/>
      <rect width="5.496" height="85.005" x=".054" y="18.246"/>
      <path d="M11.0458537,0.0271929825 L14.43,3.18157895 C14.43,3.18157895 5.55,6.74385965 5.55,18.2736842 L0.0541463415,18.2736842 C0.0541463415,18.2464912 0.541463415,2.39298246 11.0458537,0.0271929825 Z"/>
    </g>
    <g fill="#A30A18" transform="translate(56.854 20.667)">
      <path d="M5.55,64.8552632 C5.55,64.8552632 27.587561,56.2078947 21.9021951,34.8070175 C21.9021951,34.8070175 15.8378049,36.2754386 11.2353659,44.1885965 C11.2353659,44.1885965 10.152439,36.4114035 7.1202439,33.4745614 C7.1202439,33.4745614 2.38243902,37.6078947 1.05585366,46.8535088 C-0.270731707,56.0991228 0.216585366,64.8552632 0.216585366,64.8552632 L5.55,64.8552632 Z"/>
      <rect width="5.415" height="38.587" x=".135" y="64.692"/>
      <rect width="53.794" height="5.846" x=".135" y="97.432"/>
      <rect width="5.496" height="85.005" x="48.434" y="18.246"/>
      <path d="M42.9380488,0.0271929825 L39.5539024,3.18157895 C39.5539024,3.18157895 48.4339024,6.74385965 48.4339024,18.2736842 L53.9297561,18.2736842 C53.9297561,18.2464912 53.442439,2.39298246 42.9380488,0.0271929825 Z"/>
    </g>
  </g>
</svg>
