<svg xmlns="http://www.w3.org/2000/svg" width="111" height="128" viewBox="0 0 111 128">
  <path fill="#EFC23B" fill-rule="evenodd" d="M3.58030189,1.55232978 L3.76176733,2.50692178 L37.3325933,2.50692178 L70.9031392,2.50692178 L71.0661221,1.57328833 C71.1557346,1.05966418 71.2291049,0.495460073 71.2291049,0.319687718 L71.2291049,0 L37.3138307,0 L3.39883645,0 L3.39883645,0.29872917 C3.39883645,0.463044185 3.48060791,1.0272483 3.58030189,1.55232978 Z M5.39355607,12.8294258 C5.5243344,13.6001415 5.76600828,15.0932284 5.93123144,16.1475831 C6.09617456,17.2019378 6.31908581,18.5955415 6.42634085,19.2441387 C6.53359588,19.8930153 6.75454685,21.3078571 6.91724966,22.3884798 C7.25273669,24.6173515 7.2185719,24.5399446 7.80805453,24.4108399 C8.95985599,24.158499 10.34381,22.6983868 10.9282519,21.1189507 C11.421121,19.7868254 11.8221372,19.6149653 11.8221372,20.7358284 C11.8221372,22.6100815 9.88566577,24.9599539 7.94303346,25.4425594 C7.49861116,25.5529411 7.46696672,25.7002098 7.63078969,26.8917731 L7.72460284,27.5761396 L37.3250322,27.5761396 L66.9254616,27.5761396 L67.020675,26.8755652 C67.0730423,26.4904868 67.1268098,26.0810965 67.1405318,25.9659642 C67.156214,25.8321089 66.8722542,25.6686323 66.3522213,25.5121418 C64.0539391,24.821348 62.1317496,22.549162 62.2429252,20.6545093 L62.2885716,19.879043 L62.6949086,20.1990101 C62.9183799,20.3750619 63.1012455,20.6539504 63.1012455,20.8188243 C63.1012455,22.106238 64.7531971,23.8541809 66.5541296,24.4725978 L67.3768849,24.7548396 L67.4580963,24.2853681 C67.5029026,24.0271588 67.6023165,23.38443 67.6793273,22.8571129 C67.7560581,22.3300753 67.9224014,21.2681755 68.048419,20.4977393 C68.1747167,19.7273031 68.4152705,18.2009619 68.583014,17.1060874 C68.7510375,16.0112128 68.9784294,14.5511007 69.0884848,13.8617041 C69.5410283,11.0272701 69.9350435,8.51867166 70.2114423,6.70980926 C70.3724648,5.65517512 70.5430087,4.54381319 70.5906154,4.23977452 L70.6768675,3.6867483 L37.3334334,3.6867483 C18.9945027,3.6867483 3.98999932,3.70519183 3.98999932,3.72782706 C3.98999932,3.92874967 5.0499479,10.8011973 5.39355607,12.8294258 Z M12.8070353,7.13792253 C12.7661496,7.38914566 12.6535738,8.15846409 12.5566802,8.84786059 C12.3155664,10.5633876 12.0836939,11.0269907 11.9114698,10.1383482 C11.2455364,6.70449976 11.5168944,5.3201178 12.6367714,6.43734813 C12.8008744,6.6013837 12.8568823,6.83108939 12.8070353,7.13792253 Z M24.5370396,10.4700522 C24.2001524,10.4700522 23.7876546,6.77575882 24.0844962,6.41862516 C24.3239297,6.13079444 24.7378278,6.13023554 24.9764212,6.41722793 C25.2830642,6.78581892 24.8837282,10.4700522 24.5370396,10.4700522 Z M37.5437429,7.6174541 C37.4558106,8.09139673 37.3348336,8.90514729 37.2749052,9.42575762 C37.1502877,10.5114104 36.859887,10.7743703 36.7223878,9.92652719 C36.6722607,9.61717902 36.5725667,9.06555004 36.5008767,8.70059186 C36.1989944,7.16502892 36.1841523,6.67851116 36.431427,6.43175919 C36.7492715,6.11458649 37.1374059,6.13079444 37.4490896,6.47451462 C37.6714408,6.71958991 37.6834825,6.86518196 37.5437429,7.6174541 Z M49.5602274,10.4278557 C49.1790939,10.5533275 48.6867849,7.03312979 49.0133107,6.51643172 C49.258065,6.12911775 49.7562548,6.12632328 49.9979287,6.51084277 C50.1956364,6.82577989 49.8019012,10.3484926 49.5602274,10.4278557 Z M62.5428473,7.68927206 C62.4448335,8.28589206 62.3216163,9.15581152 62.2692489,9.62220907 C62.1491121,10.6888594 61.8281871,10.7721347 61.699089,9.7694778 C61.649522,9.38439942 61.5456275,8.79085334 61.4683366,8.45076597 C61.0692807,6.69360131 61.5246245,5.73146424 62.4395128,6.3987844 C62.7016295,6.59020581 62.7086305,6.67823171 62.5428473,7.68927206 Z M11.2539376,8.98171585 C11.4115997,9.51629855 11.5762628,10.0609413 11.6193888,10.1917227 C11.6653152,10.3294902 11.5981058,10.4678166 11.4600465,10.5206322 C11.2343348,10.6069814 9.45776579,8.18417324 9.45776579,7.78987309 C9.45776579,7.00797953 10.357812,6.83360441 10.7260636,7.54395946 C10.8585221,7.79993319 11.0962755,8.44685371 11.2539376,8.98171585 Z M14.6606151,8.28253869 C14.5959261,8.30964508 14.2187132,8.84618391 13.8218976,9.4746609 C13.0783933,10.6525313 13.0431084,10.6871828 12.7667096,10.5047037 C12.5678818,10.3733634 13.3503114,7.73454253 13.7062413,7.33633011 C13.9742389,7.0367626 14.3475312,7.00267003 14.6004067,7.2552904 C14.7986745,7.45313909 14.8426406,8.20624958 14.6606151,8.28253869 Z M23.6445545,10.609217 C23.5664235,10.6053047 22.3815775,8.79448616 22.0399296,8.1567874 C21.6414337,7.41373702 22.3796172,6.72210494 22.956498,7.29776639 C23.6000283,7.93993629 24.1601068,10.635485 23.6445545,10.609217 Z M25.4818921,10.5941268 C25.1690882,10.9711012 25.0313089,10.3023838 25.2738229,9.58532203 C25.424764,9.13904468 25.6205115,8.49519809 25.7087239,8.15399293 C25.9551584,7.20051872 26.5491217,6.79168732 27.0137068,7.2552904 C27.364876,7.60571732 26.6275327,9.21281877 25.4818921,10.5941268 Z M36.3292126,9.90696588 C36.5728468,10.8347309 36.1558683,10.7355271 35.4182449,9.69011477 C34.3174106,8.12940157 34.205955,7.88404683 34.4019825,7.45481577 C34.6080914,7.00322893 35.2336991,6.93895605 35.4526898,7.34694911 C35.6229536,7.6646807 36.1275844,9.13764745 36.3292126,9.90696588 Z M39.0716371,8.80259013 C38.6994649,9.354778 38.2998489,9.98884394 38.1833525,10.2121223 C37.9576409,10.6441479 37.8694285,10.6838294 37.5650259,10.4912902 C37.4250062,10.4027054 37.4115644,10.2730418 37.5154589,10.0142736 C37.5938699,9.81893998 37.8069798,9.17257836 37.9887253,8.57819394 C38.4555507,7.05129386 38.9932261,6.64916919 39.5115787,7.43860783 C39.7395307,7.78596083 39.7238485,7.83486411 39.0716371,8.80259013 Z M48.337576,8.20373455 C48.4187874,8.51755388 48.5453651,8.90682397 48.6190154,9.06918286 C48.958703,9.81782219 49.0385142,10.4476964 48.8046814,10.5371196 C48.6792239,10.5851845 48.5666481,10.6064225 48.5540463,10.5840667 C48.5417246,10.5619904 48.15219,9.97794549 47.688445,9.28631341 C47.22498,8.59468133 46.8455268,7.89466583 46.8455268,7.73063026 C46.8455268,7.09432875 47.4980183,6.8707709 47.93824,7.35589143 C48.0765794,7.50846965 48.2563646,7.88991523 48.337576,8.20373455 Z M50.392224,10.6103347 C49.8853529,10.6282194 50.4538326,7.92261056 51.0906419,7.28742684 C51.4188479,6.95991459 51.9153575,7.08706312 52.0738597,7.53920886 C52.1965169,7.88879744 50.7125889,10.5991569 50.392224,10.6103347 Z M61.4756177,10.2934415 C61.4756177,11.035933 59.8435489,9.21337767 59.3711227,7.94328966 C59.1647337,7.38830731 60.044057,6.80845415 60.4027873,7.26255603 C60.5584891,7.45956638 61.4756177,10.0508812 61.4756177,10.2934415 Z M64.7268734,7.69514046 C64.7268734,7.824804 62.9559052,10.6176004 62.8738537,10.6176004 C62.4277511,10.6176004 62.4213102,10.4119272 62.8279272,9.1734167 C63.0595197,8.46837115 63.2491063,7.82983406 63.2491063,7.75466273 C63.2491063,7.21085827 64.0253751,6.93308765 64.4566355,7.32235775 C64.6050563,7.45649246 64.7268734,7.62444029 64.7268734,7.69514046 Z M10.1598242,10.0299227 C11.1875683,11.4665613 11.0114236,11.7317568 9.74620622,10.6530902 C9.29506298,10.2685707 8.64677211,9.72392789 8.30540425,9.44308335 C7.67559597,8.9247086 7.52353465,8.47787236 7.86182207,8.14002057 C8.21523161,7.78763751 8.68681772,7.9446869 9.11583786,8.55751484 C9.34462993,8.88446819 9.81425576,9.54703775 10.1598242,10.0299227 Z M15.2212537,10.0402622 C14.774031,10.3976753 14.2089118,10.8727358 13.9649976,11.0960142 C13.2027308,11.7940735 13.3463909,11.1723033 14.2727608,9.76640388 C15.5525402,7.82340677 15.7754514,7.65238502 16.3190076,8.19479224 C16.7718311,8.64665853 16.5970866,8.94035765 15.2212537,10.0402622 Z M22.4622288,10.8931354 C22.1777089,10.6416328 21.5644229,10.1366716 21.0992777,9.77087504 C20.174028,9.04319426 19.995363,8.72490378 20.2473983,8.25487341 C20.6013679,7.59481887 21.1101992,7.91981609 22.1959114,9.49897281 C23.455808,11.3315882 23.5569022,11.8603025 22.4622288,10.8931354 Z M27.265182,10.3470954 C27.0212678,10.5334867 26.6560967,10.8366871 26.4539083,11.0205634 C25.6020289,11.7946324 25.6720387,11.3388539 26.6359338,9.83514792 C27.8168594,7.99303128 28.1010992,7.73985202 28.6121709,8.07602713 C29.2167756,8.4734012 28.8037177,9.16978389 27.265182,10.3470954 Z M35.1953337,10.343742 C35.8587467,11.1941002 35.7360895,11.6713962 35.0219894,11.0186073 C34.819521,10.8336131 34.1717902,10.2953976 33.5825876,9.82229335 C32.5016361,8.95433001 32.2834855,8.54438082 32.6884223,8.14002057 C33.0997999,7.72951247 33.5215391,7.94356911 34.1552679,8.88474764 C34.4966357,9.39166505 34.9645813,10.0483662 35.1953337,10.343742 Z M40.0478539,10.0271282 C39.6009113,10.3915275 39.035512,10.8727358 38.7918779,11.0960142 C38.0957003,11.7334335 38.1416267,11.213382 38.8831706,10.0567496 C40.2304395,7.95614424 40.5424032,7.69681714 41.1075225,8.20708792 C41.5802287,8.6340834 41.4220065,8.90626508 40.0478539,10.0271282 Z M48.0793798,11.2150587 C47.9138766,11.3802121 45.0723182,9.04207647 45.0723182,8.74055283 C45.0723182,7.944128 45.8673497,7.71246619 46.3487372,8.36860846 C47.4660938,9.89159628 48.1983965,11.0962936 48.0793798,11.2150587 Z M51.9918082,10.5318101 C50.5213221,11.7585837 50.4454314,11.5923126 51.6383987,9.75746157 C52.8268853,7.92987619 53.1433296,7.67054909 53.6137956,8.14002057 C54.1049844,8.63017114 53.887674,8.9506972 51.9918082,10.5318101 Z M60.5596093,11.2242805 C60.521804,11.4553834 60.4243503,11.4137458 59.908518,10.9462304 C59.5749912,10.6438684 58.9295007,10.0978284 58.4741569,9.73259076 C57.5570284,8.99764435 57.3915252,8.70925473 57.6303986,8.26353627 C57.789741,7.96648379 58.3058533,7.86616221 58.596254,8.07602713 C58.9505037,8.33172142 60.6002149,10.9772491 60.5596093,11.2242805 Z M65.6504429,9.53110925 C65.2642688,9.83654516 64.8820152,10.1570712 64.8008038,10.2436999 C64.4462741,10.6209537 63.3759641,11.383286 63.3031538,11.3103502 C63.1057262,11.1133399 65.230384,7.96313042 65.5608303,7.96313042 C65.6818073,7.96313042 65.9091992,8.03187446 66.0665812,8.11570865 C66.5754126,8.38761088 66.4177505,8.92387026 65.6504429,9.53110925 Z M12.2309945,13.7879301 L12.6490932,13.231271 C13.4407641,12.1763574 16.592886,9.29413794 16.9574971,9.29162291 C17.2224142,9.28966678 17.1977708,9.38328163 16.6488938,10.460551 C15.8874671,11.9553146 15.5500198,13.0373346 15.2204136,15.0415307 C14.9246921,16.840333 14.6062875,17.7138853 13.8625032,18.7648866 C13.5023728,19.2737601 13.4287224,19.2712451 12.8327989,18.7279995 C12.226794,18.1758117 12.0237655,18.1752528 11.3555918,18.7249256 L10.821837,19.1642168 L10.4499449,18.7933902 C9.85122095,18.1956524 9.28414145,16.8386563 9.12843963,15.6314439 C8.89600704,13.8290088 8.44822427,12.2540438 7.75008641,10.7821948 C6.69153802,8.551367 7.04298729,8.69025231 10.12986,11.7236528 L12.2309945,13.7879301 Z M36.6358556,13.4908776 C36.95258,13.9108869 36.9747031,13.9175936 37.1175231,13.6384258 C37.3348336,13.2142247 40.9596617,9.70716106 41.5062984,9.39250339 C42.0845794,9.05968165 42.0879399,9.21114209 41.5270213,10.3202684 C40.647418,12.0587101 40.2690849,13.3262831 39.9165155,15.7141603 C39.5687067,18.0712984 38.4533104,19.5596347 37.6495977,18.7394569 C37.0931597,18.1716199 36.8556864,18.171061 36.1670699,18.7375007 L35.6179129,19.189367 L35.226138,18.7743878 C34.5907289,18.1009198 34.1437863,16.8911924 33.8265018,14.9862001 C33.4862541,12.9434403 33.1552477,11.8739955 32.429946,10.4756411 C31.6321142,8.93700428 31.8186203,8.8473017 33.2389794,10.0858122 C34.1149422,10.8498211 36.282166,13.0222444 36.6358556,13.4908776 Z M64.9439038,15.7952001 C64.8528911,16.6751796 64.2491265,18.0763284 63.6523628,18.7931108 L63.2911122,19.2265335 L62.719272,18.7562237 C62.0160934,18.1780472 61.949164,18.1769294 61.2501861,18.7310734 L60.6884273,19.1765125 L60.3344577,18.8448085 C59.787541,18.3320227 59.1314091,16.8129471 58.9715066,15.6890101 C58.6301388,13.286881 58.1633133,11.7379046 57.2879106,10.1014612 C56.8073633,9.20331756 56.9801475,9.09712759 57.8502295,9.75578489 C58.6444208,10.3571555 61.7004892,13.4070434 61.8167055,13.7144354 C61.8808345,13.8837805 61.9780081,13.8320827 62.2325638,13.4931132 C62.7598777,12.7905826 64.7064306,10.8861492 65.8349888,9.96816484 C67.0159143,9.00826334 67.1979398,9.10579045 66.5328466,10.3423448 C65.7134517,11.8664504 65.1500127,13.7999463 64.9439038,15.7952001 Z M24.2852843,13.5626955 L24.5311588,13.9273743 L24.7857145,13.5626955 C25.5070956,12.5290199 28.9765019,9.29022568 29.3626761,9.29022568 C29.5811067,9.29022568 29.5351802,9.42296315 28.6981429,11.2075136 C28.1722292,12.3283768 27.6345538,14.2730506 27.6345538,15.0538264 C27.6345538,15.7803893 27.1030393,17.4662949 26.6661781,18.1255111 C25.9067116,19.2715245 25.9638396,19.2466537 25.2581407,18.7363829 C24.5572024,18.229745 24.2429984,18.2465118 23.6613569,18.8218938 C23.1836099,19.2944392 23.1575662,19.2838202 22.549881,18.370307 C21.9379953,17.4506459 21.4325244,15.9773997 21.429724,15.106083 C21.4272037,14.2752862 20.90185,12.3532476 20.3641747,11.2075136 C19.2927445,8.92359081 19.3341903,8.80594349 20.7702316,10.055073 C21.936035,11.0689078 23.9769611,13.1057992 24.2852843,13.5626955 Z M48.7744372,13.0068748 L49.4812563,13.8480112 L49.9931681,13.2281971 C51.0581573,11.9388272 53.9672051,9.29022568 54.3189344,9.29022568 C54.5561277,9.29022568 54.4917187,9.49254552 53.8255053,10.8386432 C53.1766543,12.1492511 52.7546352,13.6009798 52.5871717,15.0957434 C52.4233487,16.5597679 51.8439475,18.0626355 51.1743736,18.760136 L50.7887596,19.1617017 L50.1919959,18.7238078 C49.450452,18.1794445 49.3445971,18.1797239 48.7430728,18.7279995 C48.1082238,19.3067349 48.1121444,19.3078527 47.4856966,18.3306255 C46.8673699,17.3656939 46.5142404,16.2364474 46.2728465,14.4516174 C46.0779392,13.0082721 45.8667896,12.345982 45.0611167,10.6514135 C44.2518032,8.94957941 44.2968895,8.90738287 45.6926052,10.0584263 C47.0835602,11.2055575 47.9872469,12.0701675 48.7744372,13.0068748 Z M12.6269701,12.4401557 L12.1032966,13.0093899 L11.599506,12.4401557 C10.6554937,11.3735053 11.6529935,10.1995472 12.7627891,11.0705845 C13.2811418,11.4774597 13.2531378,11.7597015 12.6269701,12.4401557 Z M25.0458709,12.4443474 L24.5384398,13.0177733 L24.0209273,12.4443474 C23.3222293,11.6702784 23.5972279,10.7648691 24.5311588,10.7648691 C24.7011426,10.7648691 25.003305,10.9277869 25.202973,11.1270328 C25.674279,11.5973426 25.6555164,11.7555098 25.0458709,12.4443474 Z M37.4530102,12.4270217 L36.9349375,12.9831218 L36.4233058,12.4270217 C35.7316089,11.6755879 36.0172489,10.7648691 36.9444589,10.7648691 C37.1144427,10.7648691 37.4166051,10.9277869 37.6162731,11.1270328 C38.0917797,11.6012549 38.0713368,11.7633343 37.4530102,12.4270217 Z M49.9940082,12.449098 L49.4557727,13.026995 L48.965704,12.449098 C48.0082498,11.319572 49.0721189,10.1305237 50.1491499,11.1264739 C50.6579812,11.5973426 50.6394987,11.7555098 49.9940082,12.449098 Z M63.1138473,11.6395392 L62.5532087,12.3557626 L61.9928502,13.0719861 L61.4462135,12.4714538 C60.4165092,11.3402511 61.5949144,10.123817 62.6755859,11.2022041 L63.1138473,11.6395392 Z M11.5986659,19.5775193 C10.9248915,20.0128982 10.8977276,19.6814737 11.5546997,19.0404216 C12.1172986,18.4915871 12.1184188,18.4913077 12.1158984,18.9124348 C12.1147783,19.1281681 11.9341529,19.3606682 11.5986659,19.5775193 Z M12.2738405,19.0323176 L12.2657194,18.6729484 L12.7090216,19.09687 C12.9526557,19.329929 13.1523237,19.6459839 13.1523237,19.7991211 C13.1523237,20.2507079 12.284202,19.4931263 12.2738405,19.0323176 Z M23.8232195,19.1840575 C24.2219954,18.7939491 24.318889,18.7534292 24.3608949,18.958823 C24.3894589,19.0965905 24.2343172,19.3740817 24.0161666,19.5758427 C23.4070812,20.1394879 23.2247757,19.7694996 23.8232195,19.1840575 Z M25.4858126,19.9078261 C25.2469391,19.9078261 24.5311588,19.223739 24.5311588,18.9954306 C24.5311588,18.6313108 24.6641774,18.658976 25.1511657,19.1242558 C25.5194173,19.4763594 25.7036831,19.9078261 25.4858126,19.9078261 Z M36.2426805,19.1781891 C36.6439768,18.7682399 36.731349,18.7305146 36.7744751,18.9484835 C36.802759,19.0918399 36.6560184,19.3662572 36.4482293,19.5585169 C35.6960439,20.2546202 35.5154186,19.9212395 36.2426805,19.1781891 Z M37.0923196,18.9683242 C37.0923196,18.7075999 37.1572887,18.7330296 37.6098322,19.1709235 C37.95092,19.5006713 38.0774977,19.7211553 37.9811642,19.8170057 C37.7820563,20.0159722 37.0923196,19.3575943 37.0923196,18.9683242 Z M48.8038413,19.1781891 C49.1844147,18.8059653 49.2941901,18.7581798 49.3333956,18.9479246 C49.3605594,19.0795442 49.2073779,19.3494903 48.9931479,19.5476185 C48.237602,20.2465162 48.0617373,19.9039138 48.8038413,19.1781891 Z M50.4602735,19.9078261 C50.2214,19.9078261 49.5056197,19.223739 49.5056197,18.9954306 C49.5056197,18.6313108 49.6386384,18.658976 50.1256266,19.1242558 C50.4938782,19.4763594 50.6781441,19.9078261 50.4602735,19.9078261 Z M61.2773499,19.144376 C61.6702449,18.733309 61.7004892,18.7246462 61.7444553,19.0099619 C61.7738595,19.2008244 61.6355201,19.4495325 61.3748035,19.6744876 C60.7892414,20.1805666 60.7080301,19.7398782 61.2773499,19.144376 Z M62.5184839,19.6188775 C62.0264549,19.269289 61.8461096,18.5865992 62.3252568,18.8884023 C62.4675167,18.9781049 62.7069503,19.2153556 62.8570513,19.4159988 C63.2286634,19.9117383 63.0670808,20.0087065 62.5184839,19.6188775 Z M23.4138022,20.8523579 C23.4684098,20.5938692 23.6997222,20.2560174 23.9467169,20.0735383 L24.3832981,19.751615 L24.3832981,20.4952243 C24.3832981,20.9043351 24.3216894,21.3542453 24.2460788,21.4950867 C24.1707483,21.6359282 23.9682799,22.0606881 23.7960557,22.4387803 C21.3980796,27.7052442 12.7543879,26.3085666 12.2962437,20.5807352 L12.2259538,19.7052268 L12.683538,20.064596 C12.9459348,20.2708281 13.2102918,20.6648488 13.3032649,20.9887282 C14.7387461,25.9846872 22.3507731,25.88213 23.4138022,20.8523579 Z M32.1921927,24.5321201 C33.9808034,24.0131864 35.7624132,22.1562591 35.7624132,20.8107203 C35.7624132,20.6497586 35.9618011,20.3761797 36.2057153,20.2029224 L36.6490175,19.8877058 L36.6490175,20.7039714 C36.6490175,23.2810345 33.7234474,25.8063998 30.7379489,25.8063998 C27.7322875,25.8063998 24.9120122,23.3662659 24.7050632,20.586883 L24.6403741,19.7175224 L25.0220676,19.9969697 C25.232097,20.1506658 25.4771314,20.475663 25.567024,20.7187821 C26.7359078,23.8877146 29.3086285,25.3685059 32.1921927,24.5321201 Z M38.193994,21.183503 C38.5443232,23.0267374 40.9851453,24.7696503 43.2209787,24.7730036 C45.5374634,24.7766365 48.323294,22.641659 48.323294,20.8626975 C48.323294,20.6478025 48.4904774,20.3990944 48.7668761,20.2029224 L49.2101783,19.8877058 L49.2101783,20.6321535 C49.2101783,23.2818728 46.3030908,25.8013697 43.2411416,25.805282 C40.1539888,25.8094737 37.3275526,23.392534 37.1197635,20.5715134 L37.0545143,19.6867832 L37.4034432,19.9816001 C37.5955502,20.1436796 37.8319033,20.3761797 37.9290769,20.4977393 C38.0262505,20.6192989 38.1455472,20.9280882 38.193994,21.183503 Z M60.7251125,21.154161 C60.8108045,20.8235749 61.085803,20.3633252 61.3420389,20.1221621 L61.8038237,19.6867832 L61.7444553,20.6452875 C61.4845789,24.8288931 55.8513092,27.2751748 52.2421633,24.7718859 C50.7938003,23.7669933 49.6554407,21.9002853 49.6540405,20.5276402 L49.6534804,19.746585 L50.0133309,20.011501 C50.2127188,20.1582108 50.5188017,20.6712761 50.6997071,21.1611472 C52.4449117,25.8905134 59.4974204,25.8857628 60.7251125,21.154161 Z M8.07325171,29.6040887 L8.16258423,29.9363515 L37.3681583,29.8989056 L66.5740124,29.8617391 L66.6202188,29.382487 L66.6667054,28.9032348 L37.323352,28.9032348 C13.946235,28.9032348 7.98055872,28.9406808 7.98195891,29.08767 C7.98307907,29.1891094 8.02424484,29.4213301 8.07325171,29.6040887 Z M9.08363335,35.8340869 C9.19536901,36.5234834 9.42192077,37.9503413 9.58686389,39.004696 C9.99404097,41.6032765 10.4314623,44.3200632 10.7151421,46.0093222 C10.8445202,46.7797584 11.0766727,48.2395911 11.2312544,49.253426 C11.385556,50.2672608 11.6179886,51.727373 11.7470867,52.4978092 C11.8764648,53.2682454 12.1150583,54.7280781 12.277201,55.7419129 C12.4393437,56.7557478 12.7045409,58.4148264 12.8666837,59.4286613 C13.0288264,60.4424961 13.2632192,61.9023288 13.3872766,62.672765 C13.5116141,63.4434807 13.7387259,64.8700592 13.8919074,65.8433742 C14.0450888,66.8166891 14.2775214,68.2432676 14.4080197,69.0139833 C14.5387981,69.7844195 14.7729109,71.2442522 14.9283327,72.2580871 C15.0837544,73.2719219 15.315907,74.7317546 15.4438849,75.5024703 C15.5721429,76.2729065 15.8096162,77.7327392 15.9717589,78.746574 C16.2896035,80.7351211 16.7385064,83.5231668 17.063632,85.5301574 C17.1753676,86.2195539 17.4024795,87.6461324 17.5688228,88.7004871 C18.0992172,92.0681065 18.8530828,95.5860687 19.5282575,97.843444 C19.9701594,99.3206025 20.7576298,101.638059 20.9819413,102.119826 C21.0572718,102.282185 21.2905445,102.832976 21.5002939,103.344085 C23.8117379,108.980257 27.6309133,114.203407 31.6984835,117.2913 C32.1860318,117.661288 32.6514571,118.017024 32.7329485,118.081577 C34.5246397,119.502007 38.8537665,121.550077 41.4099649,122.186378 C44.8152422,123.033942 44.7595144,123.029471 53.1044042,123.094303 C60.5145229,123.151589 61.7971027,123.091229 60.2549265,122.758127 C58.0347753,122.278596 55.5037805,119.686722 54.6729041,117.041753 C52.7899201,111.048447 59.8149849,107.519586 68.1156285,110.288909 C72.4299132,111.728342 75.4560174,110.419132 75.4081307,107.13367 C75.3633244,104.042982 72.7250746,101.11186 68.0313366,98.9383186 C65.9024782,97.9527079 65.1116474,97.5684679 65.0223148,97.4762503 C64.9817091,97.4343332 64.6644247,97.2079808 64.317456,96.9729657 C61.5769919,95.1174355 59.6139167,91.3778717 58.8916954,86.6359304 C58.4971201,84.0468511 58.767078,77.2448242 59.3218357,75.7972872 C59.3686023,75.6757276 59.5117024,74.8793028 59.6396803,74.0278268 C59.7679383,73.1760715 59.9620055,71.9152052 60.0706607,71.2258087 C60.179596,70.5364122 60.4100683,69.0765795 60.5831326,67.9817049 C60.7561968,66.8868304 61.0303552,65.1282685 61.1922179,64.0739138 C61.3540806,63.0195591 61.5786721,61.5927012 61.6909679,60.9033047 C61.8035436,60.2139082 62.0359762,58.7540755 62.2076403,57.6589215 C62.3790243,56.5640469 62.6136972,55.07096 62.7287933,54.3410436 C63.0555991,52.267824 63.532226,49.2075966 63.8425095,47.1888693 C63.9982113,46.1750344 64.2309239,44.7152017 64.359742,43.9447655 C64.48828,43.1743293 64.7209926,41.7142171 64.8766944,40.7003823 C65.0321162,39.6865475 65.2603482,38.2267147 65.3835655,37.4562785 C65.5067828,36.6858423 65.7378151,35.1927553 65.8965974,34.1384006 C66.1727161,32.3052263 66.2911727,31.5881645 66.4387534,30.8571304 L66.5056828,30.5254264 L37.3905614,30.5254264 C21.3773567,30.5254264 8.27712029,30.5751681 8.27908056,30.6360876 C8.28272107,30.7551321 8.75262694,33.7904887 9.08363335,35.8340869 Z M39.5160594,49.2020077 C39.4020834,49.4577019 39.3091104,49.7181468 39.3091104,49.7813019 C39.3091104,49.8441776 39.1175635,50.4312964 38.8834507,51.0860414 C38.6493379,51.7407864 38.2455213,52.8812109 37.9859249,53.620349 L37.5140587,54.9639316 L35.9363176,55.0500014 C35.0684759,55.097228 34.2087554,55.1805033 34.0258898,55.2349955 L33.6934832,55.3339199 L33.6934832,51.4353505 C33.6934832,46.8837128 33.7912169,46.3466151 34.7063851,45.8640096 C35.4202052,45.4875941 38.2564428,45.4440003 39.1380064,45.7961039 C40.2144773,46.2258938 40.3396548,47.3540226 39.5160594,49.2020077 Z M46.4641133,48.8278277 L46.6570604,49.4747482 L44.4520313,52.2764869 C43.2391813,53.8176388 42.1655108,55.1888867 42.0658168,55.3238598 C41.8977932,55.5518888 41.8025799,55.5493738 40.7079064,55.2880905 C40.0604557,55.1335562 39.2472217,55.0064076 38.9005331,55.0058487 L38.2704448,55.004731 L38.507358,54.4517047 C38.6378563,54.1473866 39.1727312,52.7372955 39.6961246,51.3179827 C41.2315799,47.1542178 41.2052562,47.2098278 41.8042601,46.8940524 C42.5623264,46.4941633 43.6690415,46.5170779 44.6474987,46.9527363 C45.6357572,47.3925864 46.2143183,47.9900447 46.4641133,48.8278277 Z M32.9544596,49.37778 C32.9544596,50.5003198 32.9978656,52.3234341 33.0510731,53.4289276 C33.1420859,55.320227 33.1311643,55.444581 32.8665272,55.5326069 C31.9107533,55.8503385 30.2946467,56.6537495 30.2946467,56.8107989 C30.2946467,57.2632241 29.8356624,56.4905523 28.3875794,53.5993905 C26.3763374,49.5842916 26.3119284,49.2523082 27.3629157,48.3105707 C28.7838349,47.0374088 31.9051525,46.2893284 32.6590181,47.0416005 C32.9261756,47.3079138 32.9544596,47.5331483 32.9544596,49.37778 Z M48.6929458,55.9674269 C47.9614832,56.3525053 47.29639,56.7155074 47.2151786,56.7741913 C47.0051492,56.9262106 44.777997,58.101566 44.699866,58.101566 C44.664301,58.101566 44.5032785,57.8436361 44.3419759,57.5284196 C44.1084231,57.0715232 43.5382632,56.5112314 42.7269895,55.9417178 C42.6970253,55.9204798 43.3612784,55.0209389 44.2033564,53.9425517 C47.6537201,49.5230926 48.4221478,49.0888315 50.0105305,50.6612815 C52.2270412,52.8555017 51.869151,54.296332 48.6929458,55.9674269 Z M28.3548148,55.2964739 L29.4041219,57.4314514 L28.7625519,58.0982126 C28.4097025,58.4651269 27.8907897,59.0737632 27.6093503,59.4512965 L27.0977186,60.1373396 L26.5068357,59.5985652 C26.1819902,59.3023511 25.5261383,58.7280869 25.0492314,58.3226088 C21.6408736,55.423343 21.5750644,55.3548784 21.664957,54.8060439 C21.9085912,53.3224582 22.1656672,52.7073947 22.9520174,51.7251374 C23.3017864,51.2883612 24.6933015,50.8258759 25.8994306,50.7453951 C26.0864968,50.7330994 26.3197695,51.0687157 26.7322673,51.944783 C27.0473115,52.6137798 27.7773738,54.1222364 28.3548148,55.2964739 Z M23.6445545,58.1985342 C23.847583,58.3740271 24.6123702,59.0287722 25.3438327,59.6536163 C26.0755753,60.2784605 26.6527362,60.8619465 26.6269726,60.9502518 C26.601209,61.0388366 26.4561486,61.3822774 26.3046474,61.7137019 C26.1534262,62.0451264 25.9422766,62.5956376 25.8355816,62.9371222 C25.5874669,63.7299142 25.9355557,63.8274413 21.8707859,61.8249219 C17.5298973,59.6863117 17.327709,59.4652688 18.0322878,57.6276234 C18.6038479,56.1373309 19.5741839,55.4946021 20.6416936,55.8995212 C20.9959432,56.0339354 22.2549997,56.9980286 23.6445545,58.1985342 Z M37.4258464,57.8618002 C37.3474354,59.111768 37.5863089,60.5774691 38.0478135,61.6793299 C38.3774198,62.4665329 38.3412947,62.948859 37.9419587,63.0992016 C37.7590931,63.1679456 37.2438208,63.3716627 36.7968782,63.5519062 C36.3496555,63.7324292 35.8842303,63.9098782 35.7624132,63.9467653 C35.3367535,64.0750316 33.1776508,61.7749008 32.6542575,60.6358736 C32.479793,60.2558253 32.2748043,59.812063 32.1991937,59.6497041 C31.7250872,58.6341926 32.0972594,57.3582362 33.0015062,56.897707 C33.9099535,56.4352217 36.995426,56.1465526 37.3412745,56.4916701 C37.4432088,56.5936683 37.4740131,57.0899668 37.4258464,57.8618002 Z M43.1280057,59.9632439 C42.7558335,60.6210629 42.6471783,61.0086563 42.5914505,61.8780169 L42.5211606,62.9678614 L40.94706,62.9678614 C39.1478077,62.9678614 39.1791721,62.9896583 38.6367361,61.3456698 C38.2768857,60.2549869 38.2287189,56.8448915 38.5700868,56.614068 C38.9134149,56.3815678 40.3687789,56.5791371 41.4264872,57.0016614 C43.5015781,57.8305021 43.9210769,58.5606979 43.1280057,59.9632439 Z M34.2373194,63.8257646 L35.0572743,64.5433853 L34.5599246,65.2087493 C34.2866063,65.5748253 33.9914449,65.9965113 33.9040727,66.1457361 C33.7335288,66.4369202 32.294127,66.1717247 31.3349925,65.672073 C31.1286036,65.5644857 30.8930906,65.4761804 30.8115992,65.4756215 C30.6116511,65.4742243 28.9734215,64.457595 28.4343459,64.0001397 C26.8473635,62.6534832 27.0274287,61.3498615 29.0826368,59.3093373 C30.082657,58.316461 30.4343863,58.4293577 31.2801049,60.0141034 C32.0734561,61.5013219 33.1140819,62.842669 34.2373194,63.8257646 Z M75.987812,61.2978843 C72.0608215,63.1455899 66.4569559,68.9418859 64.1793967,73.5116877 C64.017534,73.836126 63.6476021,74.5489961 63.3569214,75.0961539 C62.7988031,76.1463169 61.7553769,78.6138366 61.5013813,79.4840355 C60.8368481,81.7612516 60.6780659,82.4120843 60.4288309,83.8808594 C59.6791658,88.2986418 60.3330575,91.8048672 62.3311376,94.0843189 C63.8063844,95.7671505 65.0038322,96.467166 70.1946399,98.6809476 C70.8569327,98.9634688 71.3612834,99.2174864 72.485081,99.8342266 C76.6050185,102.095514 78.4331148,106.96181 76.765761,111.230367 C76.4983235,111.914454 76.2325663,111.833694 79.7263361,112.127672 C83.7219362,112.463568 86.5976593,112.962102 87.6830914,113.507024 C88.3582661,113.845715 88.357426,114.079332 87.7071748,107.428766 C87.5881581,106.212052 87.3582459,103.790083 87.1961032,102.046331 C87.0339604,100.302301 86.7707235,97.4821186 86.6111012,95.7788873 C86.4511987,94.075656 86.2492904,91.8526527 86.1621982,90.8388179 C86.075106,89.824983 85.9686911,88.722284 85.925285,88.388065 L85.846874,87.780826 L84.3747077,87.7101258 C83.2063839,87.6539569 82.8389724,87.5818595 82.5942181,87.3610961 L82.2858949,87.0824872 L82.8356119,86.621958 L83.385329,86.1614288 L82.2209257,86.0569156 C79.789905,85.8392261 78.8881786,84.8253913 80.3292606,83.9303216 L81.024038,83.4988549 L80.2936956,83.3988128 C78.8019265,83.1939779 77.7388975,82.1589051 77.7335767,80.9058634 C77.7313364,80.3659712 77.7509391,80.3416593 78.1163904,80.433318 C78.5638931,80.5453763 79.8002664,80.3891653 79.8002664,80.2206586 C79.8002664,80.1575035 79.5434704,80.003528 79.2301065,79.8780562 C78.4997641,79.5865926 77.8010662,78.8882538 77.5845958,78.2335088 C77.3695257,77.5840733 77.4392554,77.4812366 78.3866283,77.0486522 C79.6524057,76.4710346 79.8389118,75.7972872 78.7330368,75.7972872 C76.4319542,75.7972872 76.4073108,72.8289979 78.6879505,70.3709794 C79.654366,69.3291998 79.7221355,68.9608883 78.9920731,68.7205636 C77.9030005,68.3617533 76.5039243,66.2890926 76.4851617,65.0067089 C76.4490366,62.5143184 82.0999488,61.0097741 83.1867811,63.2224379 C83.4721411,63.8034088 84.5290093,63.9601788 84.5290093,63.4214044 C84.5290093,63.0357671 85.1310937,62.3505623 85.7732237,62.0051654 C86.431876,61.6513851 86.4307559,61.5977312 85.7567014,61.2009161 C84.4491981,60.4310387 80.9943538,60.0652422 78.9133821,60.4763092 C77.129532,60.8286923 76.7702417,60.9295727 75.987812,61.2978843 Z M23.5487811,63.6399321 L25.4477273,64.5162789 L25.3589548,65.1634789 C25.309948,65.5194947 25.2701824,66.2072145 25.2701824,66.6917762 L25.2701824,67.5725941 L24.7899151,67.4834504 C24.525558,67.4342677 23.5115359,67.2615692 22.5361591,67.0997692 C18.2003113,66.3793541 17.0451494,66.1426622 16.7749115,65.9188249 C16.05073,65.319131 16.2739213,62.8633481 17.1364422,61.9420103 C17.7029616,61.3367275 18.0950166,61.3618777 20.038769,62.1284017 C20.9245332,62.4779902 22.5042346,63.158165 23.5487811,63.6399321 Z M84.2386086,64.8479828 C83.7317375,65.3199693 83.5891975,65.2724633 82.9840327,64.4318858 C81.7703426,62.7462597 79.8019467,62.6730445 78.0374193,64.2480095 L77.3832476,64.8323338 L77.8399916,65.8067666 C79.390569,69.1129076 82.2822543,69.7201466 84.1195919,67.1254784 C86.3355425,63.9956686 88.2818154,63.3501453 90.1507974,65.1251946 C90.4386777,65.398494 90.8170107,65.6220519 90.9917552,65.6220519 C91.2659137,65.6220519 93.0427628,66.8259109 93.4695426,67.3009713 C93.9405686,67.8252144 94.1346358,67.880545 94.1346358,67.4904366 C94.1346358,66.9782097 92.0909093,64.9019162 91.1737808,64.4824658 C90.8052491,64.3136796 90.1734805,63.8833307 89.769944,63.5256382 C87.9950552,61.9526293 87.5503528,61.943687 85.8233507,63.4471135 C85.147616,64.0350706 84.4346361,64.6655038 84.2386086,64.8479828 Z M32.3632967,66.7172059 L33.6195528,67.0419236 L33.6223532,68.3597971 C33.6240334,69.084404 33.6761207,69.8201888 33.7385695,69.9948433 C33.8755087,70.3785245 33.5809074,70.4330167 30.2946467,70.6311448 C27.3682365,70.8077555 26.9473375,70.4545341 26.5900074,67.5214552 C26.2480795,64.7163632 26.7090241,63.2417197 27.5740653,64.3732019 C28.2517603,65.2598882 29.9599998,66.0959945 32.3632967,66.7172059 Z M42.7079468,64.6302934 C42.7079468,66.7515779 44.6839038,70.1703362 50.5899317,78.2664836 C54.7571959,83.9786659 57.9289205,89.1920349 57.9289205,90.3288265 C57.9289205,90.3819215 58.0246939,90.6345419 58.1414703,90.8902362 C58.6774654,92.0630765 60.0037313,95.581877 60.6489418,97.5441559 C61.5915539,100.410726 61.6828467,100.720913 62.4322318,103.59447 C63.3017537,106.929394 63.4913402,107.5126 64.0094129,108.445116 C64.146072,108.691309 64.1236689,108.712826 63.817586,108.629272 C61.4728173,107.98822 57.975407,108.702207 56.4119478,110.141082 L55.7863401,110.717022 L55.8345069,108.753626 C55.9182386,105.337103 55.2738683,100.271003 54.3276157,96.9064572 C53.3746421,93.518997 50.8601696,88.8494325 47.9777255,85.1151781 C47.2983503,84.2349191 46.7822379,83.5835275 46.6240158,83.4071962 C46.5428044,83.3163758 46.1437484,82.8446688 45.7376915,82.3584305 C44.4733143,80.8460616 43.3189925,79.5673108 41.2150575,77.3498964 C40.5970109,76.6987842 39.7448514,75.7679452 39.320872,75.281148 C38.8971726,74.7946302 38.1060617,73.9071056 37.5627856,73.3088089 C35.8693882,71.4443365 35.3647574,70.7798108 35.183572,70.1764841 C34.2639231,67.1140211 35.6884828,64.8982834 39.0873193,64.1035352 C39.5395827,63.9976247 41.5309418,63.9920358 42.1537491,64.0945929 C42.6510988,64.1767504 42.7079468,64.2315221 42.7079468,64.6302934 Z M85.0089966,71.330322 C85.8202703,72.1412781 87.3097991,72.17062 87.9116035,71.3876087 C89.5296703,69.2825321 90.9836341,68.434689 92.9892753,68.4263056 C93.6675303,68.4235111 93.6790119,68.3156445 93.0632056,67.7315996 C92.2440908,66.9547361 91.4118141,66.6233116 90.4218754,66.679201 C89.6660494,66.721677 89.5529135,66.6937323 89.5531936,66.4634677 C89.5540337,65.5309521 87.6984936,65.1159728 86.5979393,65.8022954 C84.6634281,67.0086694 83.7754237,70.0979594 85.0089966,71.330322 Z M89.2580322,67.4638891 C89.2580322,67.5901993 89.4742225,67.6226151 89.9883746,67.5734324 C90.8279323,67.4929516 91.7702644,67.6343519 91.7702644,67.8408635 C91.7702644,67.9182704 91.6268843,67.9817049 91.4518597,67.9817049 C91.0197592,67.9817049 89.6038807,68.6607619 88.9253456,69.1933885 C88.5825775,69.4627757 88.3711479,69.553596 88.3708678,69.431757 C88.3705878,69.3236109 88.1213529,69.1022886 87.8166702,68.9402092 C86.9793528,68.4942113 87.0048364,67.5393398 87.8539154,67.5393398 C88.1622386,67.5393398 88.1815613,67.5896404 88.1109914,68.2136462 L88.0348207,68.888232 L88.5355309,68.8404465 C89.0093573,68.795176 89.0387615,68.7594068 89.0813274,68.1717291 C89.163939,67.0354964 88.4545996,66.5568031 87.2672331,66.9480294 C85.8230707,67.4236487 85.9868937,69.5306813 87.4845436,69.7405463 L88.086348,69.8249394 L87.5321503,70.3930557 C86.5864577,71.3627379 85.575516,71.0634498 85.4514586,69.7771539 C85.2209863,67.3828494 87.7245372,65.3389718 88.9631509,66.910304 C89.1252936,67.1159772 89.2580322,67.3649647 89.2580322,67.4638891 Z M23.7924152,68.2063806 C25.3407523,68.334088 25.367636,68.347222 25.4774114,69.0315885 C25.5838263,69.6955553 25.9781216,70.5380889 26.6202516,71.4736785 C26.8529643,71.812648 27.0433909,72.1175251 27.0433909,72.1510587 C27.0433909,72.2745744 18.4321838,72.383 18.1252608,72.2631171 C17.3425511,71.9576812 17.142323,71.5790301 17.142323,70.4042336 C17.142323,67.859307 17.8452215,67.4812148 21.6495548,67.9794694 C22.2183146,68.0540818 23.1827698,68.1560801 23.7924152,68.2063806 Z M80.5020448,74.7923947 C81.5869169,74.5445249 80.9949139,76.3192947 79.4894228,77.8283102 C79.0382796,78.2804559 78.9061011,78.5031754 79.0209172,78.6180283 C79.2225454,78.8189509 81.2080238,79.0458621 81.7798639,78.9329654 C82.7126747,78.7490891 81.7512999,80.4690872 80.4334352,81.3418012 C79.4701001,81.9797794 79.547671,82.164494 80.8179291,82.2561528 C81.4001307,82.2980698 81.9470474,82.2346353 82.4550386,82.0661286 C82.8748174,81.9272433 83.2579111,81.8529103 83.3060779,81.9012547 C83.5029455,82.0977061 82.9966345,83.2261144 82.3631857,84.0021395 C81.4354156,85.1386517 82.115911,85.3683574 84.4449975,84.7052289 C85.7452198,84.3352407 85.7905861,84.4400334 84.9485081,85.8652147 C84.4295954,86.743797 84.4615198,86.7904647 85.5609539,86.7586077 C86.730958,86.7242357 87.9065628,86.0795508 88.5414118,85.1235616 C88.7836457,84.7588828 88.778605,84.75022 87.9502489,84.0597057 C85.5018657,82.0191814 84.1027895,79.6911059 83.25035,76.2396523 C82.9638699,75.0788282 82.8521342,70.5330588 83.0845668,69.4932354 C83.2290671,68.8463149 83.0638439,68.8658762 81.4552984,69.6863335 C77.5742344,71.6659382 76.8340906,75.631016 80.5020448,74.7923947 Z M89.4795433,70.7054778 C88.9919949,71.1570647 88.193883,71.8073385 87.7063347,72.1504998 C85.7306577,73.5404707 85.0232786,74.7949097 85.7861055,75.5558447 C87.0860477,76.8533185 89.848915,74.3324244 89.848915,71.8489762 C89.848915,70.6395283 91.1407361,69.8674154 94.0607054,69.3317149 C94.7448413,69.206243 94.6955544,69.1959035 93.3956122,69.1903145 C92.623544,69.1872406 91.8920814,69.2185387 91.7702644,69.2601764 C90.9841942,69.5276074 90.2527316,69.9892544 89.4795433,70.7054778 Z M93.5286309,70.4886267 C95.6320057,70.4886267 97.8289137,72.1586038 97.8289137,73.7578807 C97.8289137,74.6646872 98.1613203,74.8371062 98.3489466,74.0278268 C98.4522811,73.5815495 98.6469083,72.92401 98.7816072,72.5665969 C98.9160261,72.2089043 99.0059187,71.6449797 98.9815553,71.3129963 L98.937309,70.7096695 L97.902844,70.6255559 C97.2730358,70.5741376 96.625305,70.415691 96.2464118,70.2200779 C95.5535947,69.8623853 93.4751434,69.7849784 92.5459731,70.0825898 C91.6999745,70.3533742 92.0270604,70.4886267 93.5286309,70.4886267 Z M35.38296,72.8058038 C36.1844323,73.6952845 36.3941817,73.5642238 33.078797,74.2452368 C30.0272092,74.8720371 30.4170239,74.8745522 29.6942425,74.2231605 C27.9308353,72.6333848 28.3038476,71.6279334 30.7575516,71.3560311 C31.5189783,71.2719175 32.4741922,71.1495196 32.8805292,71.0844084 C33.2871462,71.0192971 33.6859221,70.9594954 33.7674135,70.9516709 C33.8486249,70.9438464 34.0936593,71.1894806 34.3120899,71.4974315 C34.5302405,71.8056619 35.012188,72.3944573 35.38296,72.8058038 Z M89.8623569,74.912557 C89.5963196,75.3585549 89.135375,75.9431587 88.8379733,76.2111486 L88.2974976,76.6990636 L89.9967758,76.6328346 C91.4569004,76.5761068 93.6529683,76.1681138 94.150598,75.8612806 C94.4465995,75.6785221 96.5362525,75.2448199 96.7947287,75.3121667 C97.1733418,75.411091 97.1895841,74.9642548 96.8445757,73.9434338 C96.1394368,71.8576391 94.8011292,71.0257244 93.1035313,71.6184322 C92.0035371,72.0023928 90.9743928,73.0486435 89.8623569,74.912557 Z M28.8227604,74.9882872 C29.3142293,75.1439394 29.147886,75.3090927 28.2626819,75.5449463 C27.7952963,75.6693003 26.9473375,75.9163317 26.3782977,76.0937808 C24.6434545,76.6347908 20.8111173,77.3345268 20.2930447,77.2048633 C19.4929725,77.0044995 18.4722294,75.5628309 18.4722294,74.6331097 C18.4722294,73.8193591 18.8561633,73.68243 22.1844298,73.30825 C23.840862,73.1221381 25.295946,72.9499986 25.4177631,72.9259661 C26.522798,72.7079972 27.3116686,72.8524715 27.4682105,73.3009844 C27.6773998,73.8995605 28.4587093,74.8728755 28.8227604,74.9882872 Z M38.172431,77.2322491 C37.7814962,77.3342474 36.4728728,77.6768498 35.2645034,77.9934636 C33.1457264,78.5487253 33.0440721,78.5613005 32.4229451,78.3503178 C31.1482064,77.916895 30.3792186,76.135139 31.2274575,75.5804361 C31.4960151,75.4049432 35.9203553,74.3723854 36.5750871,74.3324244 C36.6562985,74.3276738 37.2102161,74.8826561 37.8061397,75.5661843 C39.0861991,77.0346798 39.0777979,76.9958367 38.172431,77.2322491 Z M91.3266822,77.2783579 C85.9628103,77.3261434 84.2741736,80.8700941 88.407833,83.4041223 C89.0572441,83.8020552 89.1096114,83.8783444 89.1098914,84.4280172 C89.1101715,85.2093519 89.4291362,85.6327145 90.1667596,85.8308427 C91.7111761,86.2458219 92.7742051,85.4432493 93.0343616,83.665685 C93.1614994,82.7946477 93.4527402,82.1980277 94.3315034,81.0075822 C94.7487619,80.4422603 94.9363882,80.0733898 94.8271729,80.0325905 C94.5056878,79.9127076 94.1615196,80.1412955 93.6442871,80.8183964 C92.045823,82.9114567 88.6299042,83.0573282 87.6170022,81.0757673 C86.6819511,79.2470642 88.179601,78.2530701 91.8909613,78.2393772 C94.5056878,78.229876 94.4905657,78.2251254 94.7316795,79.115165 C94.9243465,79.826079 95.3746496,79.536851 96.3217424,78.0932262 C97.8829613,75.713453 97.8714796,75.1850181 96.2774962,76.0613649 C94.7675245,76.8910439 93.2628736,77.2610322 91.3266822,77.2783579 Z M31.3288317,78.8614269 L31.8460642,78.9866193 L30.9594599,79.221355 C30.4719116,79.3501802 29.2416991,79.7003277 28.2257167,79.9993363 C26.1727489,80.6032219 24.5583226,81.0615155 23.8257399,81.2481863 C21.729366,81.7824896 20.2902443,78.7155554 22.3488129,78.1007713 C24.4015006,77.4879434 28.5435612,76.4844481 29.3534348,76.4036878 C29.4452876,76.3947455 29.5923083,76.6716778 29.6802406,77.0195897 C29.8857894,77.8350169 30.6598179,78.6996269 31.3288317,78.8614269 Z M41.7350904,79.8830862 L42.1321861,80.3559111 L41.3486363,80.5772333 C40.3690589,80.8536067 37.3404344,81.6749024 36.6490175,81.8517925 C35.0452326,82.2614623 33.9889246,81.6310291 33.9889246,80.2642524 C33.9889246,79.213251 34.1250237,79.1129295 36.353296,78.5213395 C37.4507699,78.229876 38.5479637,77.9358974 38.7918779,77.8679917 C39.6191138,77.6374477 39.7795763,77.7003233 40.5650864,78.5624183 C40.990186,79.0285364 41.5166598,79.6229208 41.7350904,79.8830862 Z M89.7422201,79.5209225 C90.7873266,79.5139363 91.8038691,79.8045615 92.4473993,80.2944327 L92.9315872,80.6627442 L93.2376701,80.2745919 C94.0657462,79.2241495 91.5929995,78.4559488 89.4795433,79.1070611 C88.643346,79.3649909 88.7464005,79.5276293 89.7422201,79.5209225 Z M33.9519594,82.4282923 C34.3762189,82.4397496 34.0905788,82.7286981 33.5086572,82.8768052 C33.1633688,82.9648311 32.7144659,83.0972891 32.5111574,83.1713427 C32.308129,83.2451168 31.7760544,83.4021662 31.3288317,83.5200929 C30.881889,83.6380197 29.6850012,83.9820193 28.6690188,84.2846607 C25.7465292,85.1551391 25.2239759,85.1020441 24.5857664,83.8707993 C24.3463329,83.4085934 24.375737,82.381904 24.6361735,82.1222975 C24.7761931,81.9822944 28.6690188,80.8063801 30.4422274,80.3682068 C31.0518729,80.2175847 31.7500107,80.0339878 31.9939249,79.9602137 C32.4893144,79.8101505 32.6531373,79.9395346 32.6567778,80.4841774 C32.6618185,81.2635559 33.4288461,82.4145994 33.9519594,82.4282923 Z M41.8210625,84.5685792 C41.4553312,84.675887 40.5603258,84.9396852 39.8322237,85.1551391 C37.9220759,85.7199021 36.7968782,85.1777743 36.7968782,83.6925119 C36.7968782,82.5853417 36.7489915,82.6093741 41.3659987,81.3940578 C41.9689232,81.2353317 42.4897962,81.0780029 42.5234009,81.0444692 C42.5903303,80.9776813 44.6295762,83.0760511 44.8219632,83.4094318 C44.9687037,83.6642877 45.1675316,83.5874397 41.8210625,84.5685792 Z M36.773915,85.850404 C37.2443809,86.035957 36.5591249,86.2734872 30.4931945,88.0264602 C28.6819006,88.549865 27.8204999,88.3123348 27.3413527,87.1576585 C26.8949701,86.0823453 27.3497539,85.4301153 28.8014774,85.0648776 C29.3383126,84.9299046 30.1098208,84.7186424 30.5161578,84.5954061 C35.0494332,83.2208049 35.2930674,83.2113036 35.5927094,84.3981164 C35.7691341,85.0978524 36.1956339,85.6220955 36.773915,85.850404 Z M47.6999266,87.0671176 L46.6447387,87.3898792 C46.0644973,87.5676077 45.0908008,87.8568357 44.4811554,88.0328875 C43.8715099,88.2086598 43.2397414,88.4112591 43.0773186,88.4827976 C41.5284215,89.164649 40.3990231,89.0349855 39.7893777,88.1055438 C39.0184296,86.9304678 39.4597715,86.0370748 41.0083886,85.638024 C41.4962169,85.5122728 42.3606981,85.2671975 42.9294579,85.0933812 C45.6562001,84.2606283 45.1742525,84.1312442 46.925058,86.1664589 L47.6999266,87.0671176 Z M39.498977,89.3353913 C40.0008073,89.467011 39.534542,89.6444601 35.9839242,90.6731056 C35.4148845,90.8379795 34.3510153,91.1492838 33.6195528,91.3650171 C31.4010818,92.0192033 30.9017718,91.9848313 30.2957669,91.1355909 C29.5250988,90.0555271 29.8813088,88.9673592 31.1073206,88.6566138 C31.7320882,88.4981672 34.2339589,87.7696481 37.16625,86.8921836 C37.6560386,86.7457532 38.2746453,87.3309158 38.2746453,87.9412287 C38.2746453,88.3992429 38.9767038,89.1984622 39.498977,89.3353913 Z M49.1732131,90.8709543 C48.7464333,90.9964261 47.6848045,91.3088482 46.8141624,91.564822 C45.9432403,91.8210751 45.0454345,92.1270699 44.8188827,92.2447172 C43.5519851,92.9042129 41.9689232,91.9658288 41.9689232,90.5548994 C41.9689232,89.9839885 42.3066506,89.3641744 42.6174941,89.3641744 C42.8185623,89.3641744 43.9056747,89.0447661 46.4022247,88.2516947 C47.2557843,87.9806308 48.0062895,87.7551168 48.0701385,87.7503662 C48.1342675,87.7458951 48.5831704,88.3539724 49.0676383,89.1017734 C50.1287071,90.7387757 50.1200258,90.5926248 49.1732131,90.8709543 Z M41.9669629,92.7848889 C42.3632185,92.9763103 42.3013298,93.0056523 40.2153174,93.6209952 C39.0259907,93.9717016 37.4210857,94.4565427 36.6490175,94.698544 C33.9609206,95.5407982 32.9029323,95.3572013 32.522639,93.9826 C32.2042344,92.8312771 32.5500829,92.381367 34.0628549,91.9798012 C36.0472131,91.4524841 40.8605278,90.0312151 40.8605278,89.9722518 C40.8605278,89.9627505 40.8605278,90.3808037 40.8605278,90.9011346 C40.8605278,91.9339718 41.1198442,92.3754986 41.9669629,92.7848889 Z M51.605354,93.7238318 L51.8456277,94.3232463 L50.1953564,94.8055724 C49.2877492,95.0707678 48.1793538,95.425107 47.7324111,95.5930549 C45.8452266,96.3020127 44.6012922,96.0032835 44.1837537,94.7412995 C43.7124476,93.3161182 44.0445742,93.1202257 49.6534804,91.5125653 C50.4266688,91.2909636 50.3821426,91.2632983 50.9369003,92.3134613 C51.1724134,92.7594592 51.4731755,93.394084 51.605354,93.7238318 Z M43.9269577,96.3059249 C44.6337768,96.6057719 44.6410578,96.602698 39.23518,98.1530716 C38.5037175,98.3629366 37.5538243,98.6376333 37.1245241,98.7639434 C35.725168,99.1750104 34.7679938,98.5934806 34.6148123,97.2389995 C34.5229594,96.4235723 34.8248418,95.9283916 35.4935755,95.7978897 C35.9505996,95.708746 36.7498316,95.4829526 38.9394585,94.8245748 C39.4272869,94.6778649 40.3248127,94.4140667 40.9344582,94.2382943 C41.5441037,94.062522 42.1758722,93.8604816 42.338295,93.789502 C42.8703696,93.5575607 42.9294579,93.6274225 42.9294579,94.4886791 C42.9294579,95.4449478 43.2428218,96.0155792 43.9269577,96.3059249 Z M53.1158858,97.8663587 C53.2021379,98.1544689 53.110285,98.2137117 52.1343482,98.5009835 C51.5420652,98.6753586 50.4588733,99.0187994 49.7274108,99.2644336 C47.4646936,100.023692 46.7402321,99.9521534 46.1009024,98.9053438 C45.6178347,98.1150668 45.8460667,96.7373916 46.4596327,96.7373916 C46.6649015,96.7373916 48.5109203,96.2005733 48.9883872,96.0021657 C50.0609376,95.5564473 52.1035439,95.030248 52.2007175,95.1747222 C52.2606459,95.2635865 52.4695552,95.8342179 52.6653026,96.4425747 C52.86077,97.0509315 53.0635185,97.6914247 53.1158858,97.8663587 Z M45.7754968,100.156709 L46.2571643,100.336673 L44.8888925,100.758918 C44.1364271,100.991138 43.0885202,101.300766 42.5600861,101.446917 C42.031652,101.593068 40.9014136,101.920021 40.0478539,102.17348 C37.6832024,102.875731 37.0200695,102.755848 36.4322671,101.519853 C35.8937516,100.386973 36.3037291,99.7495541 37.815941,99.3689469 C38.3527763,99.2339738 39.1576091,99.0134899 39.6045518,98.8787963 C40.5541649,98.5926422 41.9736839,98.1852081 43.2251793,97.8395318 C43.7127277,97.7048381 44.2114776,97.538567 44.3332946,97.4703819 C44.5170004,97.3672658 44.5676875,97.5022389 44.6290161,98.2584233 C44.6763427,98.8435859 44.8088013,99.3150135 44.9983879,99.5737817 C45.1610907,99.7953834 45.5105797,100.057784 45.7754968,100.156709 Z M53.9389212,102.224898 C53.9389212,102.282464 53.6563616,102.404303 53.3110732,102.495403 C52.3477381,102.749141 51.2950706,103.070506 50.3182936,103.408637 C48.7248703,103.960266 47.7730168,103.707646 47.2112581,102.583988 C46.8614891,101.884252 47.0373537,100.997566 47.5677481,100.788819 C48.0370938,100.604104 52.9503826,99.1467862 53.2270614,99.1101786 C53.2825092,99.102913 53.367081,99.2200014 53.4149677,99.3703441 C53.5012198,99.6416874 53.9383611,102.023696 53.9389212,102.224898 Z M46.8575685,104.012802 C47.4473312,104.234963 47.3997245,104.366303 46.6609809,104.553533 C46.3154125,104.641279 45.8998342,104.771502 45.7374115,104.84304 C45.1750927,105.09091 39.5292212,106.621163 39.1839328,106.619487 C37.687123,106.611662 36.8654878,103.894596 38.2628837,103.57379 C38.6742614,103.479337 39.2755056,103.306918 41.2301797,102.723153 C46.2510035,101.223359 45.9101957,101.274777 45.8385056,102.025652 C45.7651354,102.793574 46.2784473,103.794833 46.8575685,104.012802 Z M54.3197746,105.242929 L54.4186284,106.449024 L53.7722978,106.616692 C52.674824,106.901449 51.2149793,107.39635 51.0111107,107.552561 C50.6044937,107.864145 49.2479836,107.736717 48.8307251,107.347726 C47.4705744,106.079594 47.7856186,104.955657 49.6534804,104.412691 C50.2631259,104.235522 51.4600137,103.869446 52.3135733,103.598661 C53.1668529,103.328156 53.9075568,103.100407 53.959364,103.092582 C54.0114513,103.084758 54.0915426,103.294064 54.137189,103.557583 C54.1831154,103.821381 54.2651669,104.579801 54.3197746,105.242929 Z M47.8592689,107.976483 L48.3554985,108.283595 L47.7853386,108.469148 C47.196416,108.660849 45.5279421,109.158265 43.5945511,109.718557 C42.9849056,109.895168 42.1935147,110.135213 41.8356245,110.251743 C40.1716313,110.793591 39.2657043,110.616701 38.8117606,109.661829 C38.3130107,108.613064 38.5978106,107.733643 39.5180196,107.481861 C39.8501462,107.391041 40.5208402,107.196266 41.0083886,107.049277 C41.4962169,106.902008 42.3937428,106.637651 43.0033882,106.461878 C44.8844119,105.919471 45.4178867,105.761304 46.1067833,105.540541 C46.4725145,105.423452 46.8054812,105.319218 46.846647,105.309158 C46.8878127,105.298819 46.8973341,105.595033 46.8676499,105.967536 C46.8007205,106.808114 47.1653316,107.546972 47.8592689,107.976483 Z M54.1976774,110.736304 C53.5247431,111.00122 50.4599935,111.930942 50.2667664,111.928706 C48.4879571,111.908306 47.8063415,109.202698 49.458013,108.718136 C49.7685766,108.627036 50.6212961,108.376931 51.3527586,108.162315 C52.0845012,107.947979 52.9489824,107.683622 53.274108,107.575196 C54.2948511,107.235109 54.329856,107.255788 54.4351507,108.261519 C54.6205367,110.032097 54.5670492,110.590992 54.1976774,110.736304 Z M48.459113,112.188033 L48.9883872,112.413827 L48.323294,112.599659 C47.9575627,112.701937 47.1930555,112.926892 46.6240158,113.09959 C46.054976,113.272289 45.2571442,113.505348 44.8505272,113.617127 C42.7054265,114.207599 42.0047682,114.413272 41.6267152,114.563335 C40.419746,115.042028 39.1811324,114.413272 38.9543006,113.206619 C38.7400706,112.067032 39.0338318,111.8105 41.2301797,111.220028 C42.1646707,110.968805 43.793939,110.502407 44.8505272,110.183558 C47.4190472,109.40893 47.289109,109.399428 47.289109,110.358212 C47.289109,111.291287 47.638598,111.837886 48.459113,112.188033 Z M57.4326909,116.424175 C57.4273702,119.484123 59.2145807,121.377378 62.9533848,122.27161 L64.3572216,122.607505 L84.7138352,122.65585 L105.070169,122.703915 L105.070169,122.364386 C105.070169,122.177715 104.919508,121.859425 104.735242,121.657664 C104.550976,121.455624 104.138478,120.968267 103.818113,120.574526 C103.270076,119.900779 103.202867,119.863333 102.670792,119.934592 C102.219649,119.994952 102.019701,119.938225 101.682254,119.654865 C101.352928,119.378212 101.08745,119.299688 100.483406,119.299688 L99.707417,119.299688 L99.7970296,120.258192 L99.8869222,121.216696 L98.8947431,121.216417 C98.0817891,121.216417 97.8319941,121.156615 97.5088288,120.884713 C97.2923585,120.702234 96.9885159,120.448216 96.8342142,120.31967 C95.5418331,119.245475 93.0620855,118.52003 90.0707061,118.340624 C89.1143721,118.283338 87.7150159,118.068443 86.6718697,117.818617 C84.719436,117.351102 83.9168435,117.204112 81.4995446,116.870452 C80.6056593,116.746936 79.4084915,116.577591 78.8394517,116.494037 C78.270692,116.410202 76.7077929,116.278303 75.3666849,116.200338 C71.7516582,115.990473 69.3612431,115.766635 68.1996402,115.529664 C65.9145199,115.062987 63.8259871,115.398883 63.6072765,116.267964 C63.3636423,117.236808 63.8786345,118.143055 65.0001917,118.719555 L65.6431619,119.049862 L74.0146554,119.021917 C83.3609656,118.990619 86.3515048,119.156331 87.5912386,119.774189 C88.8595363,120.406299 88.657628,120.430052 81.2410684,120.521152 C77.40061,120.568378 72.6293012,120.688541 70.637942,120.788303 C63.0519586,121.167793 60.1457112,119.938784 60.1457112,116.350401 C60.1457112,113.902442 62.976068,112.849485 66.7958034,113.876454 C68.8459708,114.427803 70.2439268,114.564453 74.7758021,114.656391 C80.2290065,114.767052 85.0171177,115.334889 86.524009,116.049436 C88.1280738,116.810371 88.6665893,116.940314 90.2166066,116.940314 C92.2401702,116.940314 94.2108065,117.359764 95.6174437,118.089681 C96.1962848,118.390087 96.9045041,118.755883 97.1909842,118.902593 C98.573258,119.609315 98.9678333,118.816523 97.9101251,117.457571 C96.1425173,115.185944 97.5541952,114.742181 99.7200188,116.888896 C101.076249,118.233317 101.324644,118.299266 100.714158,117.153532 C100.455962,116.668971 100.383992,116.39623 100.487606,116.292835 C100.666551,116.114268 100.489287,115.933465 102.853378,118.709774 C105.546516,121.872559 105.783149,122.101426 106.356949,122.101426 C106.892664,122.101426 107.07609,121.445563 106.641189,121.085076 C106.529733,120.992859 106.253895,120.503826 106.027903,119.998026 C105.343487,118.466096 104.852858,118.000258 103.51063,117.609031 C102.775527,117.394695 102.755644,117.373178 102.208168,116.206206 C101.494347,114.684336 100.434399,114.122647 99.5265116,114.785216 C99.2764366,114.967695 99.2033463,114.943942 98.8476965,114.563894 C98.2209686,113.894618 97.0921304,113.951625 95.4687428,114.734916 L94.2320895,115.331815 L91.9298867,115.286545 C89.8161504,115.244907 89.4957855,115.201313 88.0236192,114.753359 C85.0801265,113.857731 84.7275571,113.810784 72.2635699,112.663094 C71.3055556,112.574788 69.8868768,112.318256 69.0123142,112.075136 C67.6919291,111.707943 65.8842757,111.36534 64.0617802,111.136752 C63.817866,111.106293 63.1530528,111.175596 62.584013,111.291007 C59.3845645,111.939604 57.4374516,113.879807 57.4326909,116.424175 Z M53.794701,114.58625 L53.7913405,115.107978 L52.3065723,115.593378 C50.1945163,116.284451 49.165372,115.998018 48.8195235,114.622857 C48.5179213,113.42347 48.8380061,113.161907 51.5745497,112.37163 C52.1841952,112.195578 53.082001,111.932059 53.5695494,111.785908 C54.651341,111.46175 54.5788109,111.334601 54.1556716,112.814833 C53.959084,113.502274 53.7966612,114.299257 53.794701,114.58625 Z M49.1454892,116.508288 C49.3028713,116.514157 49.0326334,116.634878 48.5450851,116.776837 C48.0575367,116.918517 47.1597309,117.185389 46.5500854,117.369545 C43.8449062,118.18637 41.5132993,118.844747 41.2301797,118.871295 C39.1310054,119.069144 38.4127047,116.299262 40.4172257,115.737573 C40.9050541,115.601202 42.1352665,115.246584 43.1512489,114.949531 C46.7965199,113.884558 47.3644396,113.72136 47.4700144,113.708785 C47.5288226,113.701799 47.5383439,113.890147 47.4907373,114.127677 C47.3003106,115.077518 48.2723268,116.476431 49.1454892,116.508288 Z M-1.42108547e-14,126.378088 L55.4959394,126.378088 L110.991599,126.378088 L110.949593,124.866557 L110.907307,123.355027 L55.4536535,123.31786 L-1.42108547e-14,123.280973 L-1.42108547e-14,124.829391 L-1.42108547e-14,126.378088 Z M-1.42108547e-14,128 L55.50014,128 L111,128 L110.953794,127.520748 L110.907307,127.041496 L55.4536535,127.004609 L-1.42108547e-14,126.967442 L-1.42108547e-14,127.483861 L-1.42108547e-14,128 Z"/>
</svg>
