<svg xmlns="http://www.w3.org/2000/svg" width="126" height="126" viewBox="0 0 126 126">
  <g fill="none" fill-rule="evenodd">
    <path d="M17.4611604,6.77080234e-07 L108.027198,6.77080234e-07 C117.595802,6.77080234e-07 125.48833,7.90460445 125.48833,17.4852837 L125.48833,108.181737 C125.48833,117.762416 117.595802,125.66702 108.027198,125.66702 L17.4611604,125.66702 C7.89255658,125.66702 2.82758813e-05,117.762416 2.82758813e-05,108.181737 L2.82758813e-05,17.4876988 C-0.00830999913,12.8517252 1.82781242,8.40284334 5.10345328,5.12221879 C8.37909415,1.84159424 12.8251795,-0.00128960545 17.4611604,6.77080236e-07"/>
    <path fill="#00790A" d="M62.8938516,125.579606 C97.39207,125.579606 125.574461,97.3904285 125.574461,62.7898029 C125.574461,28.1891774 97.4451442,0 62.8938516,0 C28.3956333,0 0.21324263,28.1891774 0.21324263,62.7898029 C0.21324263,97.3904285 28.3425591,125.579606 62.8938516,125.579606 Z"/>
    <path fill="#FFFEFD" d="M70.7488306,0.476884579 C68.1481957,0.158961526 65.5475607,0 62.8407775,0 C59.9747716,0 57.16184,0.211948702 54.3489083,0.58285893 L59.4440298,7.15326869 L61.0362553,9.21976853 C63.1592225,11.763153 65.0168189,15.101345 70.3773113,17.4857679 C76.7992873,20.3470754 81.6821121,19.7112293 86.0872692,20.82396 C86.0872692,20.82396 87.3079754,21.141883 88.6348299,21.7247419 C90.0147587,22.3605881 90.9700939,23.26137 91.8192809,24.2681264 C93.2522838,25.9107288 94.5791383,27.5003441 94.8445092,27.9242415 C94.8975834,27.9772287 100.31115,34.7595871 100.31115,34.7595871 L109.439909,25.6457929 C109.439909,25.6457929 107.316942,22.943447 105.671642,20.82396 C104.663233,19.4992806 104.185565,19.022396 103.336378,18.4925242 C102.646414,18.0686268 101.797227,17.6447294 100.629595,17.3797936 C99.3027405,17.0618705 97.4982183,16.8499218 94.3668416,16.6909603 C86.1403434,16.3730372 83.115115,15.6842039 77.9138452,9.43171723 L74.0394299,4.71585862 L70.7488306,0.476884579 L70.7488306,0.476884579 Z M46.1224101,2.22546137 L52.7566829,10.7563966 L55.2511694,13.9356272 C56.3126531,15.3132937 57.2149142,16.5319987 58.8071396,18.2805755 C62.1508131,21.9366906 64.4330029,23.1553957 71.4387949,24.2151392 C78.4976612,25.2748827 81.2044444,25.8047545 83.9643019,27.6063184 C85.7157499,28.7190491 86.8833819,29.8317798 87.5733463,30.6795746 C89.6432394,33.2759462 94.9506576,40.164279 94.9506576,40.164279 L85.7157499,49.4370347 C85.7157499,49.4370347 79.7183673,41.6479199 76.9585099,38.0977792 C75.1009135,35.7133563 73.774059,33.6998436 71.2264982,31.7393181 C66.8213411,28.4011261 61.7262196,28.7720363 56.3126531,28.083203 C52.9159054,27.6593056 49.5722319,27.6063184 44.4771105,21.0359087 L40.9211403,16.3730372 L33.7561257,7.10028151 C33.4376806,7.25924304 33.1723097,7.41820457 32.8538646,7.57716609 C36.9936508,5.35170472 41.4518821,3.55014076 46.1224101,2.22546137 L46.1224101,2.22546137 Z M27.2280013,11.1273069 L34.3399417,20.2940882 C34.3399417,20.2940882 35.295277,21.5657804 38.6389504,25.9107288 C41.9826239,30.2556772 43.6279236,30.6265874 43.6279236,30.6265874 C47.3961905,32.4281514 50.3152705,32.4811386 53.4466472,32.7990616 C57.1087658,33.1699718 60.7178102,32.7460744 64.751448,35.6603691 C66.7151927,37.0910228 69.3689018,40.5351892 71.0142015,42.7076634 C74.4109491,47.2115734 80.3552575,54.8417266 80.3552575,54.8417266 L71.173424,64.0614952 C71.173424,64.0614952 62.2038873,52.2983422 61.0893294,50.8147013 C58.0110269,46.7876759 57.2679883,45.8339068 53.5527956,41.5419456 C50.474493,37.9388176 45.1140006,37.5149202 35.4014253,35.7133563 C35.4014253,35.7133563 30.7308973,35.2894589 27.440298,31.9512668 C26.1665177,30.6795746 25.4234791,29.7258054 24.1496987,28.0302158 L17.515426,19.4992806 C20.3814318,16.4260244 23.6720311,13.5647169 27.2280013,11.1273069 L27.2280013,11.1273069 Z M12.5264529,25.4338442 L18.5238354,33.1699718 C18.5238354,33.1699718 19.2137998,34.0707538 20.2222093,35.1304973 C24.4681438,39.5284329 31.6331584,40.3762277 31.6331584,40.3762277 C33.543829,40.6941508 42.0356981,41.1180482 45.8570392,44.2972787 C47.6084872,45.7809196 50.474493,49.4370347 54.4019825,54.5767907 C57.9579527,59.1336878 65.91908,69.3602127 65.91908,69.3602127 L56.4188014,78.8979043 C56.4188014,78.8979043 37.3120959,53.3580857 35.3483511,51.0796372 C33.2253839,48.5362527 30.0940071,44.8801376 21.9205831,45.2510479 C21.9205831,45.2510479 21.018322,45.304035 19.7976158,45.3570222 C18.2053903,45.4100094 16.0293489,45.4629966 13.9063816,45.0390992 C13.428714,44.9331248 12.9510463,44.7741633 12.5264529,44.6152018 C11.9426369,44.3502659 11.0403758,43.8733813 10.4034856,43.2905224 C9.66044704,42.6546763 9.07663103,41.9128558 9.07663103,41.9128558 L8.86433431,41.7009071 L5.6268092,37.5149202 L5.6268092,37.5149202 L5.6268092,37.5149202 C7.43133139,33.1699718 9.7665954,29.1429465 12.5264529,25.4338442 Z"/>
  </g>
</svg>
