<svg xmlns="http://www.w3.org/2000/svg" width="126" height="108" viewBox="0 0 126 108">
  <path fill="#01458C" fill-rule="evenodd" d="M28.95671,9.06717354 C41.7659854,8.95315033 54.5752607,9.06221601 67.3845361,9.0126407 C68.2388189,8.92836268 69.0186003,9.28034736 69.7785147,9.6273745 C69.9324842,10.4106643 70.2553237,11.1493364 70.7718668,11.7690277 C74.169131,16.3993614 76.3445721,21.7485369 78.1822735,27.1522453 C81.3957675,39.5807746 79.6375343,53.5362234 72.2867287,64.2444895 C71.4274792,65.5334475 70.6923986,67.4867146 68.8646307,67.5214173 C57.0437407,67.4420968 45.2228507,67.5660351 33.4069274,67.4619269 C35.0459584,66.5546988 36.9680947,66.3316099 38.622026,65.4392544 C43.8867921,62.8712536 48.4959459,58.6077772 50.9296585,53.233814 C53.4031053,48.9158048 54.1977869,43.8690386 54.6050613,38.9759559 C54.8484326,35.9915224 54.2275875,33.0170041 53.1895346,30.2308718 C51.4611019,26.2598898 49.3998963,22.3682282 46.4794411,19.1309607 C41.8653206,14.0494918 35.5029004,10.8766722 28.95671,9.06717354 Z M10.6740646,24.9858044 C19.2963608,24.9907619 27.9335574,25.1940207 36.5558536,24.8469936 C40.7130321,24.9312716 44.8702107,24.599117 49.032356,24.8222059 C47.4529262,25.7938819 45.6599256,26.3094651 44.0059944,27.1225001 C37.0127956,30.5828565 30.5460734,35.8279239 27.2084103,43.0213009 C22.3260847,53.3627098 24.8491991,66.7480425 33.5112294,74.3231493 C35.4532328,76.5242929 37.8273443,78.4081546 40.4646941,79.7020701 C55.4941114,79.8260083 70.5334623,79.7119851 85.5678463,79.7566029 C85.5231455,79.449236 85.4387106,78.8394597 85.3940097,78.5320928 C85.4685111,78.87912 85.6224807,79.5682167 85.7019489,79.9152439 C90.9021471,76.8316598 95.590769,72.6673341 98.4863904,67.2983284 C101.888621,61.3195465 102.539267,54.0071888 100.706532,47.4235881 C98.5410248,39.1692996 92.4716434,32.3725251 85.1456717,28.1933267 C83.2632695,27.1572028 81.4156345,25.9574804 79.2848943,25.4914725 C79.1060909,25.3080439 78.7435174,24.9362291 78.564714,24.7528005 C86.5860322,24.7329704 94.6222507,24.9659743 102.638602,24.6288622 C106.924917,24.6982676 111.206264,24.3809857 115.497545,24.5197965 C117.901457,27.5290176 119.619956,30.979459 121.621561,34.2415141 C121.810298,34.9950588 122.088436,35.7238158 122.470877,36.4029975 C124.512216,41.6827676 125.748939,47.2649471 125.997277,52.9264471 C126.086679,61.5277628 123.975805,70.228229 119.505721,77.6199072 C119.267316,78.2693437 118.21933,79.0030583 119.247449,79.617792 C117.340213,79.8359234 116.684601,82.0767272 115.666415,83.4549208 C113.64991,83.7523726 111.608572,83.6086042 109.582133,83.6284343 C77.1243535,83.6383494 44.6715403,83.6284343 12.2187271,83.6333919 C4.27191027,74.7693271 -0.521013624,62.8464659 0.0451970747,50.8789869 C0.214066932,44.9696104 2.18090409,39.2585351 4.81825393,34.0184252 C6.49205222,30.8406481 8.280086,27.6876586 10.6740646,24.9858044 Z M50.1548439,93.369982 C52.9958309,89.0519729 58.1910624,86.3749063 63.3713936,86.6178253 C65.3580978,86.5930377 67.2405,87.2722194 69.1477361,87.7283122 C71.8099197,89.2552316 74.3578679,91.1192631 75.8876301,93.8508625 C77.9339354,97.1178752 78.6392154,101.18305 77.8196999,104.950774 C77.6408966,105.823299 77.3279906,106.715655 77.5862622,107.617925 C76.2750374,108.445833 75.9074971,110.07686 74.9191118,111.197262 C72.2469946,114.479147 68.2835198,117.032276 63.9177373,116.947998 C59.8598939,117.290067 55.6580145,115.936662 52.6978253,113.120784 C47.0108845,108.45079 46.1119008,99.3834667 50.1548439,93.369982 Z" transform="translate(0 -9)"/>
</svg>
