<svg xmlns="http://www.w3.org/2000/svg" width="128" height="127" viewBox="0 0 128 127">
  <path fill="#009AB0" fill-rule="evenodd" d="M68.9295502,6.05727003 C71.5249827,2.93578635 75.2586851,0.853323442 79.222699,0.0353709199 C77.9249827,1.27335312 76.3349481,2.46712166 76.1134948,4.39041543 C75.5820069,7.41020772 77.8585467,9.88617211 79.8737716,11.8138872 C87.4784775,19.4009496 95.0388927,27.0322255 102.661315,34.6016024 C104.982145,36.874184 107.183391,39.3634125 108.525398,42.3522552 C110.08,45.6727003 110.726644,49.5811869 109.579516,53.131543 C108.512111,57.0135015 105.132734,60.2499407 101.093426,60.8424036 C98.1923875,61.4569733 95.260346,60.6876558 92.5010381,59.8166469 C90.0916263,59.0296439 87.3500346,58.9589021 85.0690657,60.1615134 C82.3053287,61.5321365 80.1970934,63.8533531 77.9737024,65.9313947 C68.3271972,75.6097626 58.6674048,85.2704451 49.0386159,94.9620772 C44.2950865,99.7415727 39.2282353,104.468012 32.9611073,107.173887 C29.0413841,108.884955 24.7806228,109.83997 20.5021453,109.915134 C21.7821453,112.218665 23.3544637,114.619466 25.9764706,115.525846 C29.6038754,116.715193 33.5235986,115.689436 36.8941176,114.181751 C43.5997232,110.967418 49.4017993,106.165816 54.5616609,100.869021 C63.1319031,92.3446291 71.7287197,83.8467656 80.2901038,75.3091098 C84.1345329,71.2989318 88.9976471,67.6380415 94.7465744,67.3064392 C102.222837,66.5636499 109.601661,71.9975074 111.497301,79.1733828 C110.093287,77.807181 108.383668,76.5426706 106.324152,76.6089911 C102.87391,76.6045697 100.189896,79.0937982 97.9753633,81.4548071 C87.1462976,92.1810386 76.4678201,103.057596 65.5723183,113.717507 C66.9010381,114.942226 68.5442215,115.976825 70.4088581,115.985668 C73.3940484,116.259792 76.1223529,114.557567 78.1375779,112.514896 C84.6881661,105.91822 91.2697578,99.3569139 97.8247751,92.7735015 C100.336055,90.2665875 102.758754,87.5783976 105.867958,85.7921662 C108.755709,84.0766766 112.210381,82.9580712 115.589758,83.5682196 C121.852457,84.7796736 126.790865,90.5539763 127.565952,96.7792582 C126.502976,95.6341246 125.462145,94.1927596 123.774671,94.0247478 C121.139377,93.5781899 118.907128,95.36 117.148789,97.079911 C108.795571,105.374392 100.473356,113.704243 92.1334256,122.011988 C86.1807612,127.680178 76.1799308,128.224006 69.6382007,123.236706 C67.0161938,121.242671 65.0629758,118.373205 64.1948789,115.198665 C59.0660208,120.314184 52.7147405,124.403947 45.5750865,126.000059 C39.4939792,127.547537 32.7795156,126.968338 27.2476125,123.922018 C21.7555709,120.911068 17.8402768,115.432997 16.2280969,109.446469 C11.3251211,108.305757 6.74103806,105.573353 3.8532872,101.395163 C0.38532872,96.3636499 -0.664359862,89.8686647 0.584636678,83.9307715 C1.73619377,77.7983383 4.77010381,72.1920475 8.47723183,67.2356973 C9.23903114,66.2541543 9.9166782,65.1399703 11.0195156,64.4988724 C12.7247059,62.0671217 14.8949481,59.5911573 17.9465744,58.9544807 C20.6040138,58.20727 23.5227682,58.6449852 25.8967474,60.0288724 C24.452872,57.4689021 23.9346713,54.3208902 25.0153633,51.5310089 C26.07391,48.2061424 29.0192388,45.632908 32.3941869,44.8414837 C34.6884429,44.518724 37.186436,44.4921958 39.2503806,45.6992285 C43.6971626,47.7949555 46.0268512,53.4189318 44.3703806,58.0392582 C43.1036678,61.8637389 39.4674048,64.7420475 35.436955,65.0471217 C33.3907266,65.2902967 31.4286505,64.5430861 29.5950173,63.7339763 C30.8440138,66.2497329 31.1673356,69.2032047 30.3568166,71.9046588 C29.3647059,75.008457 26.813564,77.5640059 23.6955017,78.5411276 C20.7324567,79.4032938 17.3353633,79.018635 14.8107958,77.1837685 C12.1046367,75.384273 10.4703114,72.1920475 10.443737,68.9600297 C10.3418685,67.6424629 10.8777855,66.3912166 10.9530796,65.0913353 C10.8600692,65.1045994 10.6784775,65.1267062 10.5854671,65.1399703 C6.21397924,71.2856677 2.27653979,78.1432047 1.51474048,85.7877448 C1.11612457,89.6475964 2.65301038,94.015905 6.26712803,95.8772997 C9.81038062,98.0570326 14.2527336,97.5308902 17.986436,96.1558457 C23.6024913,94.0114837 28.5851903,90.4743917 32.9876817,86.4332641 C43.3915571,76.0342136 53.7998616,65.6351632 64.1948789,55.2228487 C68.4999308,51.0623442 74.5898962,48.3078338 80.6665744,49.3203264 C85.1089273,49.8376261 88.3155709,53.2376558 92.0669896,55.2891691 C93.4754325,55.9258457 95.2780623,56.9206528 96.7175087,55.8285757 C97.412872,55.4439169 97.2179931,54.5596439 97.1737024,53.9097033 C96.5137716,51.6990208 94.8705882,49.9791098 93.2849827,48.3785757 C86.1851903,41.3132344 79.0721107,34.2567359 71.9811765,27.1825519 C69.0801384,24.3219288 66.6530104,20.7936795 65.8114879,16.7569733 C65.076263,12.9457567 66.4315571,8.96210682 68.9295502,6.05727003"/>
</svg>
