<svg xmlns="http://www.w3.org/2000/svg" width="125" height="128" viewBox="0 0 125 128">
  <path fill="#2D2D94" fill-rule="evenodd" d="M41.8107218,0.138932619 L41.8107218,109.574399 C46.6863724,120.877 57.3071411,119.436978 70.0687898,112.314756 C66.3827627,126.234482 14.7835401,139.995141 0.252377315,105.680708 L0.252377315,0.138932619 L41.8107218,0.138932619 Z M62.4981579,83.8646515 C51.2871827,83.8646515 42.1430353,74.7890016 42.1430353,63.6611921 C42.1430353,52.5337483 51.2871827,43.4577327 62.4981579,43.4577327 C73.7095015,43.4577327 82.8532805,52.5337483 82.8532805,63.6611921 C82.8532805,74.7890016 73.7095015,83.8646515 62.4981579,83.8646515 Z M83.1503486,127.1816 L83.1503486,17.7461337 C78.2746981,6.44389796 67.6535609,7.8839201 54.8919122,15.0061424 C58.5783078,1.08641589 110.17753,-12.6742426 124.708693,21.6401905 L124.708693,127.1816 L83.1503486,127.1816 Z"/>
</svg>
