<svg xmlns="http://www.w3.org/2000/svg" width="128" height="125" viewBox="0 0 128 125">
  <g fill="none">
    <path fill="#87D3F6" d="M62.3704188,0.85534576 C62.7636689,0.482502736 63.3316967,-0.350911081 63.9215719,0.175455541 C68.4876423,5.65844118 71.8739624,12.1941601 73.2503377,19.2343136 C74.5611713,18.707947 75.6972271,17.8526012 76.9643662,17.2823707 C85.3318541,13.0495058 94.3110643,10.1764214 103.399511,7.85163544 C103.683525,7.78583961 103.989386,7.74197573 104.295247,7.72004378 C104.164164,11.9748406 103.63983,16.2296375 102.85333,20.4186385 C101.913899,25.594577 100.537524,30.7266515 98.5057318,35.5955428 C98.2435651,36.2535011 97.8940095,36.8895274 97.7847733,37.6132815 C107.921887,37.8326009 117.796833,40.7714812 127.060057,44.7630948 C127.081904,44.8069587 127.125599,44.8946864 127.147446,44.9385503 C120.789903,53.0533691 113.908027,60.8611406 105.8464,67.3310637 C104.841428,68.1644775 103.749066,68.8662997 102.787788,69.7435774 C108.992401,74.9853116 113.339999,82.1351249 116.311222,89.6358493 C107.069845,93.561667 97.5007594,96.8733903 87.538424,98.3647624 C87.8661324,101.172051 87.9972158,104.023204 87.7568963,106.852424 C87.4510351,109.769373 86.9048544,112.686321 86.096507,115.49361 C85.8780348,116.151568 85.7906459,116.875322 85.3973958,117.467484 C80.0011308,116.984982 74.6048658,116.283159 69.3396841,114.945311 C67.7011421,114.528604 66.0626001,114.089965 64.4895998,113.453939 C64.1400441,113.322347 63.7686413,113.256551 63.3972384,113.190756 C61.8242381,116.392819 59.7269043,119.287836 57.2363205,121.810009 C56.1658064,122.862742 55.1608339,123.981271 53.9373892,124.858549 C53.6315281,125.034005 53.2819724,124.858549 53.0198057,124.683093 C49.0654577,122.095124 45.1548041,119.353631 41.8995673,115.888385 C41.4407755,115.427814 41.0256782,114.945311 40.523192,114.528604 C37.3553441,116.721798 33.7068573,118.081579 29.9928287,119.024652 C29.5558842,119.11238 29.1189396,119.156244 28.6819951,119.200108 C26.7594392,116.06384 24.9898138,112.817913 23.7882163,109.330734 C23.4168135,108.49732 23.3294246,107.532314 22.8269383,106.742764 C19.1129098,107.137539 15.3333396,106.611173 11.7722416,105.536508 C11.2042137,102.268648 11.2042137,98.913061 11.3352971,95.6232696 C11.4445332,94.7898558 11.4445332,93.956442 11.7066999,93.1449601 C13.6729503,93.7809864 15.7047424,94.2196253 17.780229,94.1318975 C19.5280071,94.2196253 21.2320908,93.93451 22.9580217,93.6932586 C22.215216,97.9699874 21.8219659,102.444104 23.0017161,106.698901 C27.1526892,106.282194 30.6700927,103.825816 33.9908712,101.479098 C35.2361631,105.799691 37.0276357,110.032556 39.8022335,113.585531 C40.0862475,113.936442 40.4794976,114.440876 40.9819838,114.133829 C43.0356231,112.752117 44.5430817,110.712446 45.8539153,108.628912 C47.0555128,106.896288 47.8638602,104.944345 48.7814437,103.058198 C52.6920973,107.02788 57.2144733,110.515059 62.3704188,112.664389 C62.7199744,112.817913 63.1132245,112.861776 63.4846273,112.90564 C64.5551414,110.405399 65.2105582,107.751634 65.2760999,105.032073 C65.3853361,102.202852 65.2979472,99.3516998 64.8173082,96.5444112 C72.1798236,98.3208985 79.8482002,99.4832915 87.3854934,98.2989666 C86.7082294,93.93451 84.5016595,89.9867604 81.9018395,86.4776495 C80.5473114,84.5695705 78.9524639,82.880811 77.4013108,81.1262556 C81.5085894,80.0515904 85.5284791,78.647946 89.46098,77.0249823 C94.092592,75.1169033 98.5275791,72.7263216 102.591163,69.7435774 C100.25351,67.4845873 97.3041344,65.9493513 94.3547587,64.6553667 C89.8323828,62.8569474 85.1352291,61.4313711 80.3069919,60.7514809 C80.3069919,60.6637531 80.3288392,60.4882976 80.3506864,60.4005698 C83.0378953,57.8126006 85.6595625,55.1807675 88.019063,52.2857511 C90.9902858,48.7547083 93.8085781,45.04821 95.9277591,40.9469368 C96.495787,39.8503396 97.1512038,38.7756745 97.5007594,37.5913496 C95.1631061,37.437826 92.8254529,37.6571454 90.5096468,37.8983968 C86.9485489,38.2931717 83.4748398,39.2362453 80.022978,40.1573868 C76.7240468,41.1004604 73.46881,42.2847853 70.2791149,43.5568379 C71.742879,39.1485175 72.7478515,34.6086054 73.3814211,30.0248294 C73.6435878,27.5903837 73.86206,25.1120742 73.5998933,22.6556967 C73.4906572,21.5590995 73.4469627,20.4186385 73.0755599,19.3659053 C69.5581564,21.4055759 66.1718362,23.7303619 63.1569189,26.4937866 C59.3773487,29.7397141 55.8817924,33.2926888 52.6702501,37.0869149 C51.9274444,34.740197 51.3594165,32.3496153 50.2889024,30.1125571 C48.8251382,26.7569699 47.0555128,23.2697911 43.9750538,21.1423926 C41.8340256,24.2567285 40.0862475,27.5903837 38.6224833,31.0775626 C37.1587191,34.5647415 35.8915799,38.1396481 34.9958436,41.8022825 C31.2818151,38.8414703 26.934217,36.1219094 22.0404382,36.0561136 C21.4287158,38.6002189 21.2757852,41.232052 21.3413269,43.8419532 C21.3850214,47.0659487 21.8001187,50.2680124 22.3462993,53.448144 C18.3264096,53.2946204 14.0662004,53.5578037 10.4832552,55.5755425 C10.0463107,55.7290661 10.1555468,56.2554327 10.2210885,56.6063438 C11.1823665,60.334774 13.257853,63.6464973 15.5299646,66.7169693 C15.7702841,67.1117443 16.4257009,67.5065192 16.0979925,68.0109539 C12.6898251,69.9628968 9.19426884,72.1999549 7.09693507,75.6652019 C8.38592145,77.0907781 9.78414396,78.4505586 11.4882276,79.3717001 C13.1704641,80.4463653 15.0274784,81.2139833 16.8626454,81.9816013 C14.4594505,85.2933246 12.3402695,89.0217549 11.7285471,93.1230281 C9.19426884,92.1360907 6.8784628,90.6008547 4.73743458,88.9340271 C3.90723996,88.3199327 3.2081287,87.5303828 2.37793409,86.9601523 C3.25182316,82.9685387 4.89036516,79.1523807 7.03139339,75.6652019 C6.3104349,74.5247408 5.39285138,73.5378034 4.71558735,72.3534785 C3.14258702,69.875169 1.87544787,67.199472 0.826780988,64.4579792 C1.41665611,63.5587696 2.11576737,62.7253557 2.83672585,61.9577378 C4.36603172,60.3567059 5.8953376,58.7337422 7.68681019,57.4178256 C8.40776867,56.891459 9.17242161,56.4089563 9.89338009,55.8825897 C9.89338009,54.9395161 9.60936615,54.0183745 9.45643556,53.075301 C8.64808817,48.6011847 8.60439371,44.0174087 8.73547707,39.4774966 C9.28165774,39.3020411 9.80599119,39.0607897 10.3303246,38.8195383 C13.9788115,37.1307788 17.9550068,36.1219094 21.9967437,36.0341816 C23.373119,28.8405045 26.1040223,21.9977384 28.9660091,15.286564 C32.6144959,15.5716792 36.1974411,16.6682764 39.5182196,18.1815804 C41.1349144,18.9491984 42.6205258,19.9580677 44.0405955,21.0327329 C45.8976098,18.5544234 47.6890824,16.03225 49.7645689,13.7074641 C52.2551528,10.6589241 55.073445,7.91743127 57.8261956,5.11014262 C59.3555015,3.68456635 60.7974184,2.2151262 62.3704188,0.85534576 L62.3704188,0.85534576 Z"/>
    <path fill="#00A0E4" d="M63.2224606,26.4937866 C66.2373779,23.7303619 69.6236981,21.4055759 73.1411016,19.3659053 C73.5125044,20.4186385 73.5561989,21.5371676 73.665435,22.6556967 C73.9276017,25.1120742 73.7091295,27.5903837 73.4469627,30.0248294 C72.8133932,34.6305373 71.8084207,39.1704494 70.3446565,43.5568379 C73.5343516,42.2847853 76.7677412,41.1004604 80.0885197,40.1573868 C83.5403815,39.2362453 87.0140906,38.2931717 90.5751885,37.8983968 C92.8909946,37.6571454 95.2286478,37.4597579 97.5663011,37.5913496 C97.1948982,38.7756745 96.5613286,39.8503396 95.9933008,40.9469368 C93.8522725,45.04821 91.0558275,48.7547083 88.0846047,52.2857511 C85.7251042,55.1807675 83.0815897,57.8126006 80.4162281,60.4005698 C80.4162281,60.4882976 80.3943808,60.6637531 80.3725336,60.7514809 C85.2007707,61.4313711 89.8979245,62.8569474 94.4203004,64.6553667 C97.369676,65.9493513 100.319052,67.4845873 102.656705,69.7435774 C98.614968,72.7263216 94.1799809,75.1169033 89.5265216,77.0249823 C85.5940208,78.6260141 81.5741311,80.0515904 77.4668525,81.1262556 C79.0180056,82.880811 80.6128531,84.5695705 81.9673812,86.4776495 C84.5672012,89.9867604 86.7737711,93.9125781 87.4510351,98.2989666 C79.9137419,99.4832915 72.223518,98.3428305 64.8828498,96.5444112 C65.3634888,99.3516998 65.4508777,102.202852 65.3416416,105.032073 C65.2760999,107.751634 64.6206831,110.427331 63.550169,112.90564 C63.1787662,112.861776 62.7855161,112.817913 62.4359604,112.664389 C57.2581677,110.515059 52.7357918,107.02788 48.8469854,103.058198 C47.9294019,104.944345 47.1210545,106.896288 45.919457,108.628912 C44.6086234,110.690514 43.1011648,112.730185 41.0475255,114.133829 C40.5450392,114.418944 40.1299419,113.936442 39.8677752,113.585531 C37.0931774,110.032556 35.3017048,105.799691 34.0564129,101.479098 C30.7356344,103.803884 27.2182309,106.282194 23.0672578,106.698901 C21.8875076,102.466036 22.2589104,97.9699874 23.0235634,93.6932586 C21.2976325,93.93451 19.5935488,94.2196253 17.8457706,94.1318975 C15.7702841,94.2415572 13.738492,93.7809864 11.7722416,93.1449601 L11.7722416,93.1010962 C12.4058112,88.9998229 14.5031449,85.2713927 16.9063399,81.9596694 C15.0711728,81.1920514 13.2360058,80.4244334 11.5319221,79.3497682 C9.82783841,78.4286266 8.4296159,77.0907781 7.14062952,75.6432699 C9.23796329,72.1999549 12.7335196,69.9628968 16.1416869,67.989022 C16.4475481,67.4845873 15.8139785,67.0898123 15.5736591,66.6950373 C13.3015475,63.6464973 11.2260609,60.3128421 10.2647829,56.5844118 C10.1992413,56.2335007 10.0900051,55.7071341 10.5269497,55.5536105 C14.1098949,53.5358718 18.3701041,53.2726885 22.3899938,53.4262121 C21.8656604,50.2460804 21.4287158,47.0440168 21.3850214,43.8200212 C21.2976325,41.2101201 21.450563,38.578287 22.0841326,36.0341816 C26.9779114,36.0999775 31.3255095,38.7976064 35.0395381,41.7803506 C35.9352744,38.1177162 37.2024135,34.5428095 38.6661777,31.0556307 C40.1080947,27.5903837 41.8777201,24.2347965 44.0187483,21.1204607 C47.0992073,23.2478591 48.8688326,26.735038 50.3325968,30.0906252 C51.4031109,32.3057514 51.9711388,34.7182651 52.7139445,37.0649829 C55.9254869,33.2707569 59.4428904,29.7177822 63.2224606,26.4937866 L63.2224606,26.4937866 Z M48.5629715,42.5041047 C47.4706101,44.1270684 46.3564016,45.7500322 45.438818,47.4826557 C44.4556928,48.9740278 43.800276,50.6627873 42.926387,52.2199553 C42.0088034,50.7066512 41.3315394,49.0617555 40.2610253,47.6361793 C38.7754139,45.5087808 37.0931774,43.4910421 35.0395381,41.8900103 C33.7505517,46.7589016 33.0514405,51.8032483 33.2699127,56.8475951 C32.8985099,56.7379354 32.5489542,56.5844118 32.2212458,56.4089563 C29.5340369,54.8956522 26.5409669,53.9964426 23.4823551,53.6235996 C23.1327995,53.5578037 22.7832439,53.5797357 22.4336883,53.6235996 C22.8487856,54.9395161 23.1109523,56.2992966 23.569744,57.6152131 C24.3780914,60.2470462 25.5578417,62.7472877 26.9560642,65.1159375 C24.1159247,65.2694611 21.3194797,65.9493513 18.6759653,66.9143568 C17.9550068,67.2433359 17.1685066,67.4407234 16.5567843,67.96709 C18.2608679,69.7655093 20.0086461,71.5639286 22.1278271,72.8798451 C23.0017161,73.4939395 23.9629941,73.9325784 24.8368832,74.5466728 C21.8219659,76.4986157 19.2221459,79.042721 16.9937288,81.8500097 C17.2558955,82.0035333 17.5399095,82.1570569 17.8457706,82.2228527 C19.7683266,82.7272874 21.734577,83.1878582 23.7445219,83.253654 C24.815036,83.2755859 25.8855501,83.253654 26.934217,83.231722 C26.3224946,84.6353664 25.4923,85.9512829 24.9679666,87.4207231 C24.2251608,89.4384618 23.3512718,91.4781324 23.1546467,93.6274628 C25.9073973,93.166892 28.5290645,92.1580227 30.9759539,90.7982422 C31.5876763,90.4253992 32.1775514,90.0306242 32.8548154,89.745509 C32.7674265,92.5966615 32.7674265,95.469746 33.3791489,98.2551027 C33.5976211,99.2639721 33.7068573,100.338637 34.1438018,101.281711 C34.9958436,100.579889 35.8260383,99.8122706 36.5906912,99.0227207 C38.5569416,97.1585056 40.0644002,94.8775835 41.4189283,92.5527976 C41.965109,93.1010962 42.1835812,93.8906461 42.5768313,94.5486044 C44.1935261,97.5313486 46.203471,100.316705 48.5848187,102.729219 C48.9125271,103.058198 49.1091521,102.487968 49.196541,102.268648 C50.4636802,98.5621499 51.3812637,94.6801961 51.2501803,90.7543783 C51.315722,90.6885825 51.4249582,90.5789228 51.4904998,90.513127 C55.5322368,93.2546198 60.1201544,95.1626988 64.8173082,96.4786153 C64.8828498,95.4916779 64.5551414,94.5266725 64.3366692,93.5835989 C63.7467941,91.1052894 62.8073633,88.7585716 61.7368492,86.4557176 C61.1906685,85.2933246 60.4478628,84.2625233 59.9235294,83.1001304 C65.7785861,83.4729734 71.6336429,82.6395596 77.2920746,81.2139833 C77.226533,80.9946639 77.1172968,80.7972764 76.942519,80.6656848 C73.2721849,77.1127101 68.9682813,74.1518978 64.227433,72.2657508 C64.3585164,71.8709758 64.7736137,71.7393841 65.1013221,71.5419967 C69.7766286,69.1514149 74.0805323,66.080943 78.0348804,62.615696 C78.7776861,62.0235336 79.5860335,61.475235 80.1540614,60.707617 C75.8938521,60.0496587 71.5681012,59.8084074 67.2860448,60.1812504 C65.4945722,60.2470462 63.7249468,60.6637531 61.9334742,60.7953448 C62.2611826,60.0935226 62.7418216,59.4794282 63.1787662,58.8434019 C64.2711275,57.1765743 65.3197944,55.4878147 66.1718362,53.6674635 C67.3734337,51.5181331 68.3784061,49.259143 69.2741424,46.956289 C69.6236981,45.8596919 70.1917259,44.8288906 70.3228093,43.6884296 C67.8322255,44.7850267 65.3634888,45.9035558 63.0039883,47.2414043 C59.792446,49.0836875 56.6245981,51.0356304 53.8281531,53.4920079 C53.7407642,52.6147302 53.8718476,51.7593845 53.9810837,50.9040387 C54.2432504,46.8027654 54.0029309,42.6356963 53.1290419,38.6221509 C53.0416529,38.1615801 52.9761113,37.6790773 52.7139445,37.2843024 C51.1409442,38.9072661 49.9174995,40.7714812 48.5629715,42.5041047 L48.5629715,42.5041047 Z"/>
    <path fill="#0075C3" d="M48.5629715,42.5041047 C49.9174995,40.7714812 51.1409442,38.9291981 52.5828612,37.2623704 C52.8450279,37.6571454 52.9105696,38.1396481 52.9979585,38.6002189 C53.8718476,42.6137644 54.0903198,46.7808335 53.8500003,50.8821068 C53.7626114,51.7374525 53.6096808,52.6147302 53.6970697,53.470076 C56.4935148,51.0136984 59.6613627,49.0617555 62.872905,47.2194723 C65.2324055,45.8816238 67.7229893,44.7630948 70.1917259,43.6664976 C70.0606426,44.8069587 69.4926147,45.83776 69.1430591,46.9343571 C68.2473228,49.2372111 67.2205031,51.4742692 66.0407529,53.6455315 C65.2105582,55.4439508 64.1400441,57.1546423 63.0476828,58.82147 C62.6107383,59.4574963 62.1300993,60.0715907 61.8023909,60.7734129 C63.5938635,60.6418212 65.3634888,60.2251143 67.1549614,60.1593185 C71.4588651,59.7864754 75.784616,60.0277268 80.022978,60.6856851 C79.4549501,61.4533031 78.6466027,62.0016016 77.903797,62.5937641 C73.949449,66.059011 69.6455453,69.129483 64.9702388,71.5200647 C64.6425304,71.7174522 64.227433,71.8490438 64.0963497,72.2438188 C68.8590451,74.1299659 73.1629488,77.0907781 76.8114357,80.6437528 C76.9862135,80.7753445 77.0954496,80.972732 77.1609913,81.1920514 C71.5025596,82.6176276 65.6256556,83.4510415 59.792446,83.0781984 C60.3167795,84.2405914 61.0595852,85.2713927 61.6057658,86.4337857 C62.6544327,88.7366396 63.6157107,91.0833575 64.2055858,93.561667 C64.4240581,94.5266725 64.7517665,95.469746 64.6862248,96.4566834 C59.9890711,95.1407669 55.4230007,93.2326879 51.3594165,90.491195 C51.2938748,90.5569909 51.1846387,90.6666506 51.119097,90.7324464 C51.2501803,94.6582641 50.3325968,98.5621499 49.0654577,102.246716 C48.9780688,102.487968 48.7595965,103.058198 48.4537353,102.707287 C46.0723876,100.294773 44.0624427,97.5094167 42.445748,94.5266725 C42.0524979,93.8687142 41.8340256,93.0791643 41.2878449,92.5308657 C39.9333169,94.8556516 38.4258582,97.1585056 36.4596078,99.0007887 C35.6949549,99.8122706 34.8866075,100.557957 34.0127184,101.259779 C33.5757739,100.294773 33.488385,99.2420401 33.2480655,98.2331708 C32.6581904,95.4258821 32.6363431,92.5527976 32.7237321,89.723577 C32.0683153,90.0086923 31.4565929,90.4034673 30.8448706,90.7763103 C28.3979812,92.1141588 25.7763139,93.1449601 23.0235634,93.6055309 C23.2201884,91.4562005 24.0940775,89.4165298 24.8368832,87.3987911 C25.3830639,85.9512829 26.1914113,84.6353664 26.8031336,83.2097901 C25.7326195,83.2097901 24.6621054,83.253654 23.6134385,83.231722 C21.6034936,83.1659262 19.6590905,82.6834235 17.7146873,82.2009207 C17.4088261,82.113193 17.1248122,81.9596694 16.8626454,81.8280777 C19.0910626,79.0207891 21.7127298,76.4766837 24.7057998,74.5247408 C23.8319108,73.9106464 22.8706328,73.4720076 21.9967437,72.8579132 C19.8775627,71.5419967 18.1079374,69.7655093 16.4257009,67.9451581 C17.0374232,67.4187914 17.8239234,67.221404 18.5448819,66.8924248 C21.2102436,65.9054874 24.0066886,65.2255972 26.8249808,65.0940055 C25.4486055,62.7253557 24.2470081,60.2251143 23.4386607,57.5932812 C22.9798689,56.2992966 22.7177022,54.9175842 22.3026049,53.6016676 C22.6521605,53.5358718 23.0017161,53.5358718 23.3512718,53.6016676 C26.4098835,53.9745107 29.4029536,54.8737203 32.0901625,56.3870243 C32.4178709,56.5844118 32.7674265,56.7160035 33.1388294,56.8256632 C32.9203571,51.7813164 33.6194684,46.7369696 34.9084547,41.8680784 C36.9839413,43.4691102 38.6443305,45.4868489 40.1299419,47.6142473 C41.200456,49.0398236 41.8777201,50.6847193 42.7953036,52.1980233 C43.6691927,50.6408554 44.3246095,48.9740278 45.3077347,47.4607237 C46.3564016,45.7500322 47.4706101,44.1270684 48.5629715,42.5041047 L48.5629715,42.5041047 Z M42.9045397,52.6147302 C41.3315394,56.123841 40.2828725,59.8522713 39.9333169,63.6903612 C38.6006361,61.6726225 37.0057885,59.7864754 35.0613853,58.3389672 C34.5152047,57.9441923 34.0127184,57.4397576 33.3573016,57.2423701 C33.488385,60.0715907 34.0345657,62.9008113 35.0832325,65.5326444 C35.2361631,65.9712832 35.4327882,66.4099221 35.7168021,66.8046971 C35.5857188,66.7827651 35.323552,66.7389012 35.1924687,66.7169693 C32.6581904,65.6203722 29.8835926,65.0940055 27.130842,65.2255972 C28.6383007,67.6161789 30.5608566,69.7874412 32.9640516,71.2788133 C32.9858988,71.3446092 33.0295932,71.4981328 33.0732877,71.5858605 C30.211301,71.9367716 27.4585504,73.0553007 25.011661,74.5466728 C27.5677865,75.6871338 30.3205371,76.4766837 33.1169821,76.4547518 C33.007746,76.5863434 32.8985099,76.7179351 32.7674265,76.8275948 C30.5171622,78.5602183 28.6383007,80.7314806 27.1526892,83.1220623 C30.0583704,82.9246748 32.8985099,81.9596694 35.4546354,80.556025 C34.0345657,83.2975179 33.1388294,86.3679898 32.9422043,89.4603937 C35.4764826,87.7497022 37.7048998,85.534576 39.3215945,82.9246748 C39.4089834,86.0828746 40.1080947,89.1972104 41.3315394,92.1141588 C41.3970811,92.0702949 41.5281644,92.0044991 41.5937061,91.9606352 C42.9700814,89.1094826 43.9969011,86.0609426 44.2153733,82.880811 C45.919457,85.7758274 48.3444992,88.2322049 51.0972498,90.1622159 C51.0754025,86.7846967 50.3107496,83.4071776 48.8906799,80.3586376 C52.2114583,81.9596694 55.8599452,82.8150151 59.5084321,83.0124026 C57.5640289,80.0077265 54.9423617,77.4197573 51.8619027,75.599406 C55.8817924,75.2484949 59.792446,73.9764423 63.4190857,72.2438188 C63.4190857,72.1999549 63.4409329,72.1122272 63.4627801,72.0464313 C59.9016821,70.6647189 56.0565702,69.9190329 52.2333056,70.0506246 C55.8599452,67.6600428 58.8093208,64.4141153 61.4746825,61.0146642 C58.1320568,61.5629628 54.8986672,62.7034238 51.8837499,64.2167278 C51.1409442,64.545707 50.5073746,65.0720736 49.7208745,65.313325 C51.6652777,61.7384183 52.9324168,57.7906687 53.4130558,53.7551912 C50.2015135,56.4089563 47.361374,59.5232921 45.1766513,63.0762668 C45.0674152,59.5013602 44.4119984,55.9045216 42.9045397,52.6147302 L42.9045397,52.6147302 Z"/>
  </g>
</svg>
