<svg xmlns="http://www.w3.org/2000/svg" width="127" height="128" viewBox="0 0 127 128">
  <path fill="#153585" fill-rule="evenodd" d="M92.6117647,0.752941176 L126.945882,0.752941176 L126.945882,127.247059 L0.451764706,127.247059 L0.451764706,0.752941176 L34.7858824,0.752941176 L63.6988235,29.6658824 L92.6117647,0.752941176 L92.6117647,0.752941176 Z M28.7623529,15.2094118 L14.9082353,15.2094118 L14.9082353,112.790588 L112.489412,112.790588 L112.489412,15.2094118 L98.6352941,15.2094118 L73.9388235,39.9058824 L83.4258824,49.3929412 L112.338824,49.3929412 L97.8823529,63.8494118 L97.8823529,63.8494118 L77.4023529,63.8494118 L77.4023529,63.8494118 L63.5482353,49.9952941 L49.6941176,63.8494118 L39.4541176,53.6094118 L53.3082353,39.7552941 L28.7623529,15.2094118 L28.7623529,15.2094118 Z M63.6988235,98.3341176 L87.7929412,74.24 L77.5529412,64 L63.6988235,77.8541176 L49.8447059,64 L29.3647059,64 L29.3647059,64 L14.9082353,78.4564706 L43.8211765,78.4564706 L63.6988235,98.3341176 Z"/>
</svg>
