<svg xmlns="http://www.w3.org/2000/svg" width="91" height="124" viewBox="0 0 91 124">
  <g fill="none" fill-rule="evenodd">
    <path fill="#000064" d="M21.0777778,78.74 L21.0777778,42.5475 C46.9,41.695 69.6888889,25.575 90.8444444,0.31 L90.9222222,41.7725 C67.6666667,69.44 44.4111111,78.275 21.0777778,78.74 Z M54.9888889,121.5975 C46.3555556,121.5975 39.3555556,114.6225 39.3555556,106.02 C39.3555556,97.4175 46.3555556,90.4425 54.9888889,90.4425 C63.6222222,90.4425 70.6222222,97.4175 70.6222222,106.02 C70.6222222,114.6225 63.6222222,121.5975 54.9888889,121.5975 Z"/>
    <path fill="#C0C0C0" d="M69.9222222,45.26 L69.9222222,81.4525 C44.1,82.305 21.3111111,98.425 0.155555556,123.69 L0.0777777778,82.2275 C23.4111111,54.56 46.6666667,45.725 69.9222222,45.26 Z"/>
  </g>
</svg>
