<svg xmlns="http://www.w3.org/2000/svg" width="114" height="128" viewBox="0 0 114 128">
  <g fill="none" transform="translate(-6)">
    <path d="M17.741283,0.0941886792 L108.307321,0.0941886792 C117.875925,0.0941886792 125.768453,7.99879245 125.768453,17.5794717 L125.768453,108.275925 C125.768453,117.856604 117.875925,125.761208 108.307321,125.761208 L17.741283,125.761208 C8.17267925,125.761208 0.280150943,117.856604 0.280150943,108.275925 L0.280150943,17.5818868 C0.271812668,12.9459132 2.10793508,8.49703134 5.38357595,5.21640679 C8.65921681,1.93578224 13.1053021,0.0928983967 17.741283,0.0941886792"/>
    <g transform="translate(6)">
      <path fill="#EA6200" d="M45.3443149,1.34777021 C49.3744779,0.430139429 53.5189718,0.0286759619 57.6491744,0 C61.0505176,0.157717791 64.4661522,0.458815391 67.8103301,1.17571444 C70.5685622,1.79224762 73.3410857,2.42311878 76.0135697,3.35508754 C78.4716833,4.17235246 80.8154661,5.26203901 83.1449575,6.38040153 C86.8321279,8.33036694 90.2906366,10.6961338 93.534775,13.3343223 C97.0790318,16.2305944 100.223131,19.585682 102.895615,23.2992191 C104.410499,25.4069023 105.911091,27.5289234 107.111565,29.8373384 C109.512514,34.2104226 111.256059,38.9419563 112.342202,43.8168698 C113.47122,48.3333338 114,52.9931776 114,57.6530214 C113.814212,61.5242763 113.356889,65.3811932 112.413659,69.1377442 C111.47043,73.4678144 110.027002,77.6975188 108.040504,81.6691395 C106.039713,85.6981122 103.467269,89.4116493 100.63758,92.8814407 C101.380731,93.4406219 102.209629,93.9137753 102.809866,94.6450123 C103.753096,95.8637407 104.710617,97.154159 105.010736,98.7026609 C105.110775,99.3478701 105.468059,100.007417 105.26798,100.666964 C105.082192,101.340849 105.025027,102.057748 104.682034,102.674282 C102.066716,107.520519 99.8944294,112.596164 97.5220639,117.571444 C96.607417,119.564423 95.492691,121.471375 94.0921379,123.163256 C93.5061922,123.837142 92.7487503,124.310295 92.019891,124.812124 C89.4474465,126.145556 86.6177576,126.819442 83.80236,127.392961 C82.3303501,127.622369 80.8011747,127.909128 79.3148735,127.522003 C77.6142019,127.091863 75.784908,126.862456 74.3128981,125.830121 C73.5554561,125.27094 72.712266,124.76911 72.1406116,123.994859 C71.6261227,123.292298 71.0687598,122.604075 70.7400585,121.801148 C69.1680091,121.198953 67.5816683,120.65411 65.9524535,120.252646 C60.9933522,119.191636 55.8055891,119.205974 50.8321965,120.252646 C48.859989,120.754476 46.9306556,121.414023 45.0441964,122.188274 C44.629747,122.905173 44.1295494,123.579058 43.6293519,124.252943 C42.9862408,125.113222 42.0715938,125.686741 41.2141123,126.303274 C40.4566704,126.83378 39.5706061,127.149215 38.6702506,127.335609 C37.0982012,127.67972 35.5118604,128.195888 33.8826456,127.923466 C31.6817764,127.636706 29.5094899,127.106201 27.3800775,126.47533 C26.3368084,126.088205 25.1934997,125.844459 24.2931442,125.12756 C23.4928281,124.554041 22.7068034,123.937507 22.0065268,123.234946 C20.7917614,121.829824 20.0486107,120.123604 19.1196725,118.532089 C16.4186057,113.685851 13.717539,108.839613 11.0164723,103.993376 C10.7163538,103.376843 10.6591884,102.674282 10.4734007,102.014735 C10.3161958,101.484229 10.4876921,100.939386 10.6020229,100.423219 C10.8021019,99.6059537 10.9450155,98.7600128 11.3022995,97.9714239 C11.6738748,97.0824691 12.3026946,96.3225561 12.8600575,95.5483051 C13.2887983,94.9604479 13.874744,94.5446464 14.4606897,94.128845 C12.9458057,92.4226253 11.5595439,90.6160397 10.244739,88.7521021 C6.15741051,83.0599237 3.24197342,76.5361424 1.71279809,69.6969254 C0.883899311,66.3561759 0.31224498,62.9437364 0.140748681,59.502621 C-0.187952559,56.5776729 0.126457322,53.6527247 0.39799313,50.7421146 C0.712403011,47.7168006 1.41267957,44.7631766 2.14153884,41.8238905 C3.42776108,36.862949 5.4428426,32.0884014 8.11532659,27.7153172 C10.5162748,23.8727383 13.2459242,20.2165532 16.4471885,16.9905074 C19.2482947,14.1229112 22.4352676,11.6711165 25.7508627,9.42005349 C30.0239788,6.5524573 34.740127,4.33007025 39.6563543,2.81024427 C41.5142309,2.22238705 43.4292729,1.79224762 45.3443149,1.34777021 L45.3443149,1.34777021 Z M52.5185767,2.50914667 C48.5884532,2.82458225 44.7154951,3.64184716 40.9282852,4.7458717 C35.9977666,6.22268374 31.2959097,8.41639482 27.0085022,11.2553151 C23.4213713,13.6354199 20.0486107,16.3739743 17.1045909,19.5283301 C14.1605711,22.6683479 11.5881267,26.1524773 9.4158402,29.8803523 C6.82910435,34.3681404 4.9283537,39.2430539 3.78504504,44.2900232 C3.17051663,46.8278458 2.72748453,49.4230204 2.51311415,52.0181949 C2.31303514,54.4556517 2.08437341,56.9217844 2.38449193,59.3735792 C2.58457094,63.5746076 3.38488701,67.74696 4.52819567,71.7902707 C7.01489201,80.536439 11.9168279,88.4940185 18.305065,94.9174339 C17.347544,95.0894897 16.4043144,95.3905873 15.6468724,96.0214585 C13.8890353,97.2832008 12.8886403,99.390884 12.6599785,101.512905 C12.717144,102.158114 12.8886403,102.803323 13.2459242,103.362505 C16.3185662,108.882627 19.4054996,114.388412 22.4638503,119.908535 C22.8782997,120.697124 23.3499145,121.471375 24.0358997,122.044894 C24.7075935,122.618413 25.364996,123.220608 26.1510207,123.622072 C28.7806306,124.683082 31.5388628,125.385643 34.3542604,125.701079 C35.7548135,125.801445 37.1124925,125.414319 38.4558802,125.084546 C40.5852926,124.410661 42.3002556,122.718779 43.2149025,120.697124 C43.3006506,120.353012 43.6865173,120.29566 43.9580531,120.15228 C46.6305371,119.076932 49.3887693,118.159301 52.2327496,117.686148 C57.0632287,116.854545 62.0509127,117.012263 66.8242264,118.159301 C68.7821424,118.66113 70.6971844,119.30634 72.555061,120.080591 C73.0409672,122.087908 74.670182,123.622072 76.5137673,124.439337 C77.4855796,124.855138 78.5288488,125.05587 79.5578266,125.285278 C80.8297575,125.586375 82.1302711,125.356968 83.3879106,125.170574 C85.917481,124.726096 88.4041773,124.023535 90.7193774,122.919511 C91.5625675,122.475033 92.3057181,121.844162 92.8773725,121.069911 C93.9063503,119.736479 94.692375,118.245329 95.4212343,116.725503 C97.6363948,112.108673 99.6657677,107.405815 102.023842,102.860675 C102.438291,102.014735 103.038528,101.211808 103.081402,100.222487 C102.995654,99.5342638 102.781284,98.8603787 102.481165,98.2295076 C101.738015,96.6666676 100.551832,95.2472075 98.9511997,94.5446464 C98.1794664,94.2722248 97.364859,94.100169 96.5502516,94.0284791 C98.4367108,92.0928517 100.137382,89.9851685 101.709432,87.7771194 C104.253294,84.2356381 106.368415,80.3643833 107.954755,76.2923967 C109.483931,72.3637899 110.512909,68.2344514 111.141728,64.0764369 C111.456138,62.0834576 111.556178,60.0618022 111.727674,58.0688229 C111.756257,53.5093449 111.298933,48.921191 110.227081,44.4764169 C109.15523,39.7162073 107.425975,35.1137154 105.082192,30.840997 C104.653452,29.9233663 104.067506,29.0917634 103.553017,28.2314845 C100.837659,23.9444282 97.6221034,19.9728075 93.8634762,16.589044 C90.6765033,13.7357858 87.1751205,11.1979631 83.4307847,9.13329387 C82.64476,8.58845059 81.7444044,8.24433905 80.8869229,7.8285376 C76.2279401,5.50578469 71.1830906,4.02897265 66.0667844,3.11134187 C63.380009,2.62385052 60.6646509,2.43745676 57.9492929,2.27973897 C56.1342904,2.22238705 54.3335792,2.38010484 52.5185767,2.50914667 L52.5185767,2.50914667 Z"/>
      <path fill="#222" d="M46.9591221,4.54752366 C50.2909473,3.8630822 53.6802177,3.57789826 57.0838495,3.43530629 C58.6635942,3.3925287 60.2433389,3.56363906 61.8230836,3.66345344 C70.2818985,4.30511731 78.5540162,7.04288316 85.7490353,11.5060119 C93.0589448,16.0404365 99.2486718,22.3572609 103.557066,29.7863026 C105.739986,33.5222122 107.434622,37.5290466 108.61225,41.6927322 C109.990936,46.5551184 110.594111,51.6313926 110.57975,56.6648891 C110.407414,59.188767 110.235078,61.7269041 109.775516,64.2222636 C108.281939,72.9203739 104.461829,81.1907082 98.846555,88.0208636 C95.7875948,91.7567733 92.1972659,95.0791662 88.2335428,97.8739688 C87.601645,98.3302631 86.9123018,98.7152614 86.3234879,99.2428517 C87.7452581,99.2143333 89.1095831,98.8150758 90.4739081,98.5013735 C91.6371746,98.1876712 92.8004412,97.8311912 93.9349851,97.4461929 C94.2796567,96.7617514 94.5956056,96.07731 94.9546385,95.3928685 C95.0408064,95.1932398 95.2849487,95.136203 95.4716458,95.064907 C96.6492737,94.6228719 98.0423213,94.5515759 99.1768652,95.1647214 C100.397577,95.792126 101.187449,96.9898986 101.690095,98.2304487 C101.804986,98.5441511 102.006044,98.900631 101.790625,99.2143333 C99.392285,103.634684 97.3386169,108.226146 95.1987809,112.760571 C94.4950764,114.229268 93.8200946,115.712224 92.972777,117.109626 C92.3408791,118.10777 91.6515359,119.177209 90.5600759,119.719059 C88.0324844,120.888313 85.3181958,121.686828 82.5321006,121.943494 C81.0241624,122.128863 79.501863,121.772383 78.1088154,121.230534 C76.7301291,120.674425 75.4663333,119.590726 75.1073005,118.10777 C74.9780486,117.73703 75.0211326,117.20944 74.5615705,117.081107 C70.4829569,115.355744 66.1314783,114.215009 61.7081931,113.887047 C55.0732653,113.359457 48.3952536,114.828154 42.3347785,117.494624 C41.903939,118.578323 41.3725703,119.676281 40.4965301,120.474796 C39.1178438,121.800902 37.1359823,122.242937 35.2833726,122.285714 C32.6552518,122.143122 30.0845764,121.430162 27.6431527,120.489055 C26.882003,120.189612 26.3219117,119.590726 25.7043751,119.077395 C25.1299225,118.606841 24.8283349,117.9224 24.469302,117.294995 C21.6975681,112.361313 18.9114729,107.427631 16.139739,102.479689 C15.7807061,101.75247 15.2636988,101.096547 15.0051951,100.326551 C15.0195564,99.3426661 15.4647572,98.4015591 15.9817645,97.5745257 C16.7285529,96.3910123 18.049794,95.5497197 19.4715642,95.4926829 C20.1609073,95.4499053 20.8215279,95.6495341 21.467787,95.863422 C21.6544842,96.4765675 21.8699039,97.089713 22.0853236,97.7028585 C23.8661267,98.3302631 25.6469299,98.9291494 27.427733,99.5565541 C27.8442111,99.699146 28.2606893,99.8702564 28.6915287,99.9558116 C28.9787551,99.8987748 29.2372587,99.7419236 29.4957624,99.6135909 C22.2289368,95.0934254 16.0392098,88.847897 11.7164538,81.4901513 C7.72400811,74.7312919 5.29694579,67.0598438 4.7512158,59.2458038 C4.72249317,58.5613624 4.66504791,57.8911801 4.59324133,57.2067386 C4.49271212,55.1961918 4.63632528,53.1999042 4.80866106,51.2036166 C5.52672684,42.4627288 8.58568704,33.9357289 13.5403409,26.6777976 C18.1934071,19.833383 24.4980246,14.1297041 31.7648503,10.1228697 C36.4897231,7.51343666 41.6454353,5.61696345 46.9591221,4.54752366 L46.9591221,4.54752366 Z M50.3340312,5.68825943 C42.2629719,6.80047681 34.4935002,9.88046339 27.8442111,14.5432208 C22.2145755,18.4787592 17.4035348,23.5550334 13.7844833,29.3727858 C9.41864334,36.3597924 6.84796787,44.4590164 6.37404445,52.6723139 C6.37404445,54.1410112 6.17298604,55.6097086 6.31659919,57.0926651 C6.48893498,62.8818991 7.7096468,68.6426147 9.87820544,74.018332 C13.2674759,82.4312583 19.0263634,89.8745592 26.2788277,95.3643501 C27.8585724,96.5906411 29.5532077,97.6315625 31.2334816,98.7295206 C31.4489013,98.6582247 31.6786824,98.5869287 31.8941021,98.5156327 C31.8797408,98.3872999 31.8653795,98.2732263 31.8653795,98.1448936 C30.3287187,97.3178601 28.9213098,96.3054571 27.4995396,95.2787949 C23.5501778,92.3556595 20.0316555,88.8621562 17.1019471,84.9266178 C11.2281691,77.0698002 7.75273074,67.4448422 7.40805917,57.6487737 C7.35061391,56.5508156 7.29316865,55.4528574 7.39369785,54.3548992 C7.55167232,47.4249294 9.26066887,40.5519964 12.3196291,34.3349864 C16.1684616,26.4496504 22.1714915,19.6337542 29.4957624,14.7571088 C36.9923691,9.73787142 45.8676621,6.77195841 54.9009295,6.3299233 C56.2365319,6.30140491 57.5721342,6.14455374 58.9077366,6.28714571 C63.7905838,6.37270089 68.6590698,7.21399352 73.2977747,8.72546842 C85.6772287,12.6895252 96.3333248,21.6300418 102.307632,33.0944363 C107.63568,43.1471703 109.229786,55.0678591 106.75964,66.1472552 C105.78307,70.6389023 104.160242,74.9736982 101.948599,79.009051 C97.8412629,86.5521663 91.7377038,92.9830642 84.4277942,97.5460073 C84.5857687,97.7028585 84.7437432,97.8597096 84.916079,98.0165608 C88.1473749,96.006014 91.1632512,93.6247281 93.8631785,90.943999 C99.938015,84.9693954 104.447468,77.4262801 106.817085,69.2700194 C108.123965,64.7070763 108.784585,59.9730229 108.784585,55.2389694 C108.684056,53.5278658 108.698417,51.8025029 108.468636,50.1056585 C107.606957,42.2345817 104.806501,34.591652 100.397577,28.0039029 C95.5578137,20.7317124 88.7936341,14.7571088 80.9810785,10.7787928 C71.6462234,6.01622097 60.7747076,4.20530293 50.3340312,5.68825943 L50.3340312,5.68825943 Z M43.4693224,8.51158046 C35.1110368,10.935644 27.427733,15.5984014 21.3959805,21.8439298 C14.9333885,28.517234 10.3808515,37.0157155 8.55696441,46.1130833 C7.22136207,52.7150915 7.2500847,59.6022837 8.7293002,66.1900328 C9.77767623,70.8813087 11.5010341,75.4014742 13.8706511,79.5936781 C18.1646845,87.1938302 24.5123859,93.6104689 32.0520766,98.0450792 C32.3105803,98.2161895 32.6408905,98.2161895 32.9424781,98.2589671 C32.9712008,97.9452648 33.2009818,97.5602665 32.9712008,97.2750825 C32.6408905,96.8473066 32.1238832,96.6476779 31.6499597,96.4337899 C30.6877516,96.0345324 29.8691566,95.3786093 29.0362003,94.7654638 C27.6287914,93.7245425 26.1782985,92.7263987 24.7565283,91.7139957 C24.8426962,91.4573301 24.9145028,91.1864054 24.9863093,90.9154806 C23.9953786,90.3593719 23.0188091,89.7747449 22.1140462,89.0760442 C21.0656702,88.26327 20.3476044,87.0940158 19.8593197,85.881984 C19.6295387,85.297357 19.1556153,84.869581 18.7247758,84.4275459 C17.7625676,83.4721797 16.7285529,82.5738503 15.8525127,81.5329289 C16.139739,81.3760777 16.4269653,81.1907082 16.7429142,81.1336714 C17.1019471,81.0481162 17.5327866,81.0908938 17.7912903,80.7914507 C16.6136624,79.8646029 15.6083703,78.7381263 14.818498,77.4690577 C13.3249212,75.1305494 12.4919649,72.4640795 11.2999757,69.9687201 C11.0127494,69.3413154 10.6393552,68.7709475 10.3664902,68.1292836 C10.9122202,68.086506 11.4723115,68.1007652 12.0180414,68.1150244 C11.6590086,67.4020646 11.1276399,66.7889191 10.768607,66.0617 C10.3090449,64.9494827 10.0074573,63.7944877 9.77767623,62.6252335 C9.17450098,59.6450613 9.34683676,56.579334 9.33247545,53.5563842 C9.53353386,53.613421 9.72023097,53.6847169 9.92128938,53.7417537 C10.1223478,52.1447237 10.0218186,50.5334344 9.95001201,48.9364043 C9.9356507,48.3517772 9.87820544,47.7528909 10.0649025,47.1967823 C10.5962712,45.442901 11.2856144,43.7460565 11.7308151,41.9636569 C11.9605962,41.2079195 11.7308151,40.30959 12.3339904,39.6964446 C12.5637714,39.7534814 12.8079138,39.7962589 13.0376948,39.8532957 C13.181308,38.1564513 13.4110891,36.4168292 14.1147935,34.8340583 C14.7897753,33.3225835 15.8525127,32.0249965 16.9296113,30.7844464 C17.2455603,30.4422256 17.4322574,30.0144497 17.6620384,29.6151922 C18.0928779,29.6294514 18.5237174,29.6151922 18.9545568,29.5724146 C18.9401955,29.3727858 18.9258342,29.1874163 18.9114729,28.9877875 C19.0694474,28.8879731 19.2848671,28.8166772 19.2992284,28.58853 C19.5290095,27.718719 19.8880423,26.8631672 20.3906884,26.1074297 C21.8555426,23.8687358 24.0815465,22.2574465 25.5033167,19.9902341 C25.7761817,20.0044933 26.0490467,20.0187525 26.3219117,20.0330117 C26.5947767,20.845786 26.838919,21.6585602 27.1261454,22.4713344 C27.7724046,21.9437442 28.3181345,21.3020803 28.9787551,20.7887492 C29.9840471,19.9617158 31.1760363,19.2487559 32.5116387,19.2630151 C32.7126971,20.4180101 32.1956897,21.5444866 31.4489013,22.4000385 C30.9606166,23.0274431 30.2425508,23.5407742 30.0845764,24.3535485 C30.931894,24.3678077 31.8222955,24.3392893 32.5690839,24.8098428 C31.9659087,25.3659515 31.1329524,25.6368762 30.6733903,26.3355769 C29.2659814,28.2748277 27.700598,30.1142641 25.9628788,31.768331 C25.4602328,32.1675885 25.5320393,32.8662891 25.287897,33.3938794 C24.699083,34.8483175 23.8374041,36.1886821 22.9326412,37.4720098 C21.9273491,38.8694111 20.8933344,40.2525533 19.6869839,41.4788442 C19.7444292,41.6927322 19.8162358,41.9066201 19.9024037,42.1205081 C19.1125313,44.287906 18.6673305,46.5551184 18.1646845,48.7938123 C17.8774582,50.2339912 17.5184253,51.6741701 17.3030056,53.1286083 C17.4178961,53.1428674 17.6620384,53.185645 17.776929,53.2141634 C17.3460895,55.1106367 17.4466187,57.0784059 17.6476771,59.0033975 C17.8774582,61.1850546 18.0785166,63.380971 17.9492648,65.5768873 C18.1503232,65.6767017 18.4949947,65.6339241 18.5237174,65.9333673 C19.8162358,70.7529759 21.6257615,75.5155477 24.6703604,79.5366413 C25.3309809,80.4777483 26.1926599,81.2762634 26.7671125,82.2886664 C27.4564556,83.4294021 28.1314374,84.6129155 29.1367295,85.5255041 C30.8026421,86.9799422 32.8706716,87.9495676 34.3786097,89.5751161 C36.1019675,91.2577014 37.5237378,93.2397298 38.5721138,95.4071277 C40.3241943,95.0791662 41.947023,94.2806511 43.6991035,93.8813936 C48.4096149,92.8119538 53.2206556,92.1275124 58.060419,92.1132532 C63.4459123,92.027698 68.802683,92.7263987 74.0589244,93.8243568 C75.2078297,91.9706612 77.0029941,90.6730743 78.3242351,88.9619706 C78.9704943,88.8621562 79.6598375,88.7623419 80.1912062,88.3488251 C80.7943814,87.9210492 81.139053,87.250867 81.4693632,86.6234623 C81.8427574,86.6947583 82.2161516,86.823091 82.6039072,86.7945727 C83.5661153,86.2099456 83.9395095,85.0549506 84.7581045,84.3134724 C85.1745826,83.8999556 85.7203126,83.6860677 86.2660426,83.5434757 C86.467101,81.9179272 87.9463165,80.8057099 88.1330136,79.1659022 C88.3484334,79.1659022 88.5638531,79.1801614 88.7792728,79.1944206 C88.7936341,79.294235 88.8079955,79.4938637 88.8223568,79.5936781 C88.8941633,79.6507149 89.0234152,79.7647885 89.0952218,79.8075661 C89.8420102,78.9662734 90.4164628,77.9538704 90.6462438,76.8416531 C90.8616636,76.7418387 91.2350578,76.7988755 91.2781417,76.4994323 C91.7664264,75.1162902 92.4844922,73.8187033 92.6855506,72.350006 C93.0302222,72.064822 93.3461712,71.7511197 93.5472296,71.337603 C94.1216822,70.2253856 94.4950764,69.0133538 94.8541093,67.8155813 C95.5865364,65.191889 96.1897116,62.5254192 96.4912992,59.8161717 C96.6061898,59.8019125 96.8646935,59.7733941 96.979584,59.7591349 C97.0083066,58.6469175 96.7498029,57.5632186 96.5774671,56.4652604 C96.8072482,56.4224828 97.0370292,56.365446 97.252449,56.3226684 C97.1806424,54.7113791 96.706719,53.1286083 96.979584,51.517319 C96.8072482,49.4354762 96.2902408,47.3821518 95.5290911,45.442901 C95.7157882,45.371605 95.9024853,45.3145682 96.0891824,45.2432722 C96.0891824,44.2308692 95.385478,43.4466134 94.7679414,42.7193944 C95.0408064,42.6480984 95.3136714,42.5768024 95.5865364,42.5055064 C94.566883,39.9388509 92.9871383,37.6573794 91.5797293,35.3046119 C91.6802586,35.1049831 91.7951491,34.8910951 91.8956783,34.6914664 C90.8473023,33.8786921 89.9856233,32.8662891 89.195751,31.8111086 C89.2962802,31.6827758 89.3968094,31.554443 89.4973386,31.411851 C88.4776852,30.0857457 87.0415536,29.1731571 85.69159,28.2320501 C85.6054221,27.8327926 85.5766995,27.3764983 85.2751118,27.0627959 C84.8011884,26.5352056 84.1405679,26.2500217 83.5804766,25.836505 C83.5661153,25.5228026 83.6666445,25.1520635 83.4368635,24.895398 C82.7044364,23.8687358 81.5268085,23.2698495 80.4497098,22.6709632 C80.5071551,22.5996672 80.6076843,22.442816 80.6651296,22.3572609 C79.9614251,21.5302274 78.9417717,21.1024515 77.9364796,20.7459716 C77.9364796,20.6176388 77.9364796,20.4750468 77.9364796,20.3467141 C78.3673191,20.0757893 78.7981585,19.7906054 79.2146367,19.4911622 C78.8986878,18.2791305 77.6205307,17.6232074 77.3763883,16.3826573 C78.4822096,16.3256205 79.5305856,16.6963596 80.593323,16.9245068 C80.4640711,16.2543245 80.3491806,15.5841422 80.2917354,14.8997008 C81.5124472,15.1135887 82.4315714,15.9833998 83.4512248,16.5965452 C83.6522832,16.2685837 83.8389803,15.9406222 84.0113161,15.5984014 C84.370349,15.7980302 84.7150205,16.0261773 85.0166082,16.3113613 C86.5245463,17.7230218 87.831426,19.3200519 89.1813897,20.8743044 C89.4398933,21.2593027 89.9281781,21.1452291 90.3302949,21.1594883 C90.8903862,22.4285569 91.7233425,23.7546622 93.1451127,24.1824381 C93.6190361,25.4657658 94.3514632,26.6207608 95.0408064,27.8042742 C95.3136714,27.861311 95.5865364,27.9183477 95.8594014,27.9611253 C96.2615182,29.2729715 96.6061898,30.8985199 98.02796,31.483147 C98.2433797,32.8092524 98.7460258,34.0783209 99.392285,35.2618343 C99.66515,35.2760935 99.9236537,35.2903527 100.196519,35.3046119 C100.627358,36.4596068 101.08692,37.6003426 101.331063,38.8123743 C101.589566,38.8266335 101.833709,38.8408927 102.092212,38.8551519 C102.092212,40.2810716 102.17838,41.7069914 102.465606,43.1043927 C102.666665,43.1186519 102.882085,43.1329111 103.083143,43.1614295 C103.255479,44.6016084 103.370369,46.0560465 103.470899,47.5104846 C103.686318,47.5247438 103.916099,47.539003 104.131519,47.539003 C104.131519,49.0362187 104.131519,50.5334344 104.131519,52.0163909 C104.375661,52.0591685 104.634165,52.1019461 104.892669,52.1447237 C104.763417,53.7987905 104.476191,55.4385982 104.346939,57.0926651 C104.533636,57.1354426 104.720333,57.1782202 104.90703,57.2209978 C104.634165,58.6183991 104.260771,59.9872821 104.074074,61.3989426 C104.174603,61.4417202 104.3613,61.5130162 104.461829,61.5415346 C104.332578,62.083384 104.14588,62.6109743 103.959183,63.1528238 C103.585789,64.2080044 103.356008,65.3059626 103.083143,66.3896616 C103.255479,66.4466984 103.442176,66.5037352 103.628873,66.5607719 C103.341647,67.9296549 102.72411,69.2272418 101.991683,70.4250144 C101.589566,70.981123 101.862431,71.6940829 101.63265,72.3072284 C101.015114,74.1181464 99.9092923,75.7151765 98.9040003,77.3264658 C98.1572118,78.4814607 97.3529782,79.6364557 96.9508613,80.9768202 C97.0370292,81.033857 97.209365,81.1479306 97.2955329,81.2192266 C95.4285619,83.6575493 93.5328683,86.0816128 91.3068644,88.2062332 C91.062722,88.3916027 91.292503,88.6910459 91.3068644,88.919193 C90.4164628,90.0884472 89.1670283,90.9154806 87.8170647,91.4715893 C87.9175939,91.7282549 88.0468457,91.9849204 88.1473749,92.241586 C87.1851668,92.9260274 86.0649842,93.3395441 85.1027761,94.0097264 C84.916079,94.3234287 85.0022468,94.7369454 84.9448016,95.0934254 C84.0831227,95.6780525 83.1927211,96.2199019 82.2448743,96.6476779 C82.4028487,96.8187882 82.5608232,97.0041578 82.7618816,97.1467498 C83.2645277,97.1895274 83.8102577,96.9756394 84.2698198,97.2893417 C89.8132875,93.8956528 94.6243282,89.3469689 98.4300768,84.1138436 C104.045351,76.3853588 107.319731,66.9742887 107.63568,57.449145 C107.836738,52.1875012 107.176118,46.8830799 105.653819,41.8210649 C103.05442,33.0231403 97.8556242,25.0237307 90.9478315,18.9493128 C84.0687613,12.8748948 75.4806947,8.73972762 66.4043433,7.15695674 C58.8215687,5.91640659 50.8941225,6.3299233 43.4693224,8.51158046 L43.4693224,8.51158046 Z M81.0672464,15.5556238 C81.095969,16.3826573 81.2395822,17.3522827 82.0868998,17.7515402 C82.230513,17.5519114 82.1443451,17.0243211 82.4746553,17.0385803 C82.8767722,17.4378379 83.1639985,17.9369098 83.6235606,18.2648713 C83.551754,16.8817292 82.3310422,15.8693262 81.0672464,15.5556238 L81.0672464,15.5556238 Z M78.1231767,16.9102476 C78.5252936,18.0795017 79.4875017,18.963572 80.5789617,19.5196806 C80.7943814,19.6622726 81.0528851,19.5767174 81.2826661,19.5624582 C80.6507682,18.8780168 79.8034506,18.4074633 79.1571914,17.737281 C80.0619543,17.808577 80.866188,18.2791305 81.7135056,18.5785736 C81.957648,18.678388 82.230513,18.6926472 82.5033779,18.6498696 C81.4550019,17.3522827 79.7172827,16.8817292 78.1231767,16.9102476 L78.1231767,16.9102476 Z M84.2554584,16.8532108 C84.2698198,17.6945034 84.4421555,18.5500552 84.8011884,19.3200519 C84.872995,19.548199 85.1027761,19.6337542 85.2751118,19.762087 C85.1602213,19.2202375 85.0022468,18.6926472 84.9304403,18.1507977 C85.4474476,18.6356104 85.7346739,19.3770887 86.4383784,19.6622726 C86.4240171,19.3343111 86.467101,18.9778311 86.3091266,18.678388 C85.8782871,17.8513546 85.0740534,17.2952459 84.2554584,16.8532108 L84.2554584,16.8532108 Z M82.230513,19.3057927 C82.1730677,20.8885636 83.5804766,21.9865217 84.8442724,22.6852224 C84.5139621,21.786893 83.9825934,20.9741187 83.5230313,20.1185669 C84.1692905,20.4607876 84.8299111,20.8885636 85.5910608,20.8030084 C85.2176666,20.1756037 84.6288526,19.6622726 83.9251482,19.4483847 C83.3650569,19.3343111 82.7906043,19.3343111 82.230513,19.3057927 L82.230513,19.3057927 Z M87.1995281,19.7906054 C87.1708055,20.6176388 87.1277215,21.4304131 87.1564442,22.2574465 C87.3575026,22.2859649 87.5729223,22.3144833 87.7883421,22.3430017 C87.7739807,21.8867074 87.7596194,21.4304131 87.7596194,20.9741187 C88.4058786,21.4161539 88.650021,22.2717057 89.3680868,22.6139264 C89.1813897,21.4731906 88.3197107,20.631898 87.6160063,19.7906054 C87.4723931,19.7763462 87.3431413,19.7763462 87.1995281,19.7906054 L87.1995281,19.7906054 Z M79.0279396,20.2896773 C79.0279396,20.489306 79.0279396,20.703194 79.0279396,20.9028228 C79.544947,21.1880067 79.9757864,21.786893 80.6364069,21.6870786 C80.9236332,21.6728194 81.1964982,21.5872642 81.4693632,21.5159682 C81.0528851,21.2307843 80.550239,21.1167107 80.1050383,20.8885636 C80.593323,20.703194 81.0816077,20.560602 81.5698924,20.3894917 C80.8087427,19.8619014 79.8034506,19.762087 79.0279396,20.2896773 L79.0279396,20.2896773 Z M28.9069485,21.9580033 C29.524485,21.6870786 30.1276603,21.3591171 30.7739195,21.1452291 C30.4866932,21.9152258 29.9696858,22.5711488 29.6537369,23.3411455 C31.0037005,22.8420736 31.6212371,21.4161539 31.9371861,20.1185669 C30.8170034,20.5035652 29.4526785,20.7887492 28.9069485,21.9580033 L28.9069485,21.9580033 Z M24.8426962,21.9580033 C23.4352873,23.5122558 21.8699039,24.9524347 20.7497213,26.7205752 C20.3188818,27.3907575 20.0029329,28.1464949 19.8162358,28.9307507 C19.8880423,28.9307507 20.0172942,28.9450099 20.0891008,28.9592691 C20.1609073,28.659826 20.2183526,28.3603829 20.2901592,28.0609397 C20.5486629,28.0894581 20.7928052,28.1037173 21.0513089,28.1322357 C21.6688455,27.3907575 22.3151047,26.6635384 22.9470025,25.9505785 C23.923572,24.8668796 25.0868386,23.9685501 26.3937183,23.3126271 C26.3649956,22.514112 26.4511635,21.5872642 25.9054335,20.9456004 C25.4602328,21.1594883 25.1873678,21.6015234 24.8426962,21.9580033 L24.8426962,21.9580033 Z M81.6704216,22.3144833 C81.641699,22.442816 81.5555311,22.6852224 81.5268085,22.8135552 C82.4746553,23.6120702 83.3506956,24.5674364 84.5714074,24.9666939 C85.0309695,25.1378043 85.5336155,25.0665083 85.964455,24.8383612 C85.2463892,24.1824381 84.3129037,23.8544766 83.4799474,23.3696639 C83.9107869,23.2983679 84.3559876,23.2555903 84.7868271,23.1415167 C84.3129037,22.7707776 83.7958963,22.4142977 83.1927211,22.2574465 C82.690075,22.1148545 82.1730677,22.2289281 81.6704216,22.3144833 L81.6704216,22.3144833 Z M85.7921192,22.3287425 C85.964455,22.8420736 86.1798747,23.3411455 86.4383784,23.8259582 C86.6825208,24.3107709 87.012831,24.8383612 87.6303676,24.8668796 C87.4293092,24.3250301 87.0415536,23.8972542 86.7112434,23.4267007 C87.3862252,23.8259582 87.9463165,24.3678077 88.5925757,24.824102 C88.8510794,25.0379899 89.195751,25.0379899 89.5116999,25.0950267 C89.468616,24.5816956 89.2531962,24.0683645 88.8223568,23.740403 C87.9606778,23.0274431 86.8979405,22.5426304 85.7921192,22.3287425 L85.7921192,22.3287425 Z M89.9999846,24.9952123 C90.1005138,25.2661371 90.4164628,25.3374331 90.6462438,25.480025 C90.6031599,24.9809531 90.516992,24.4961404 90.4021015,24.0255869 C90.5744373,24.0398461 90.7324117,24.0398461 90.9047475,24.0541053 C91.335587,24.7813244 91.5366454,25.6796538 92.2116272,26.2357625 C92.2547112,25.0950267 91.7233425,23.9970685 91.0483607,23.0987391 C90.8185796,22.7707776 90.4595467,22.5711488 90.1005138,22.4000385 C89.9569007,23.2413311 89.6265904,24.1539197 89.9999846,24.9952123 L89.9999846,24.9952123 Z M25.1011999,24.7813244 C23.8374041,25.8935418 22.6166923,27.1055735 21.7119294,28.5314932 C21.3959805,29.0163059 21.1805607,29.5581554 21.0656702,30.1142641 C21.5395936,29.9288945 22.013517,29.7150066 22.4156339,29.4013042 C23.8086815,28.3318645 24.5411086,26.6635384 25.9341562,25.5940986 C26.1495759,25.4087291 26.4511635,25.4942842 26.7096672,25.4515066 C26.106492,26.3213177 25.2735357,26.9914999 24.5698312,27.790015 C23.5070939,28.9592691 22.3869112,30.2425969 22.1427689,31.8538861 C22.9470025,31.554443 23.6650683,31.0553711 24.3256888,30.5277808 C25.0868386,29.9431537 25.4889554,29.0448243 26.1782985,28.3889012 C27.154868,27.5190902 27.6862367,26.2927993 28.1457988,25.1092859 C28.4186638,24.3678077 28.6771674,23.6120702 28.6915287,22.8135552 C27.2984811,23.0274431 26.1495759,23.9257725 25.1011999,24.7813244 L25.1011999,24.7813244 Z M28.9643937,25.0237307 C28.4904703,25.9078009 27.930379,26.7633528 27.384649,27.6046454 C26.7814738,28.5742708 26.1208533,29.5581554 25.8767109,30.684632 C26.1352146,30.5277808 26.379357,30.3424113 26.609138,30.1285233 C28.0309082,28.8166772 29.1798135,27.2624247 30.4292479,25.7937274 C30.6303063,25.551321 30.7882808,25.2803963 30.9031713,24.9952123 C30.2569121,24.9524347 29.6106529,24.9809531 28.9643937,25.0237307 L28.9643937,25.0237307 Z M84.4708782,25.6653946 C84.872995,26.6492792 85.8208418,27.2909431 86.8117726,27.6189046 C87.1277215,27.7614966 87.4149478,27.5476086 87.6734515,27.3764983 C87.1133602,26.9202039 86.4383784,26.6207608 85.7921192,26.3213177 C86.4527397,26.2927993 87.1133602,26.3213177 87.7739807,26.3355769 C87.5441997,25.9790969 87.2569734,25.6796538 86.9697471,25.3659515 C86.1224295,25.4229882 85.3038345,25.5655802 84.4708782,25.6653946 L84.4708782,25.6653946 Z M88.7792728,25.6796538 C88.9372473,26.9487223 89.7127583,28.0181621 90.5600759,28.9307507 C90.8473023,28.0609397 90.0287073,27.433535 89.7127583,26.7205752 C90.4595467,26.9487223 90.9478315,27.5476086 91.4361162,28.1179765 C91.5940907,28.1179765 91.7664264,28.1179765 91.9244009,28.1179765 C91.6515359,27.5476086 91.3643096,26.9629815 90.8616636,26.5494648 C90.2728496,26.0503929 89.5116999,25.8792826 88.7792728,25.6796538 L88.7792728,25.6796538 Z M92.9440543,25.7794682 C92.8866091,26.5066872 92.9153317,27.2339063 93.0014996,27.9611253 C93.1163901,27.9326069 93.3174485,27.8755702 93.432339,27.8470518 C94.0067917,28.2035317 94.1216822,28.9307507 94.5525217,29.4013042 C94.6243282,29.1303795 94.7104961,28.8451956 94.6243282,28.5742708 C94.4376311,27.6759414 93.9637077,26.848908 93.475423,26.0789113 C93.3892551,25.8650234 93.1307514,25.8507642 92.9440543,25.7794682 L92.9440543,25.7794682 Z M87.0989989,28.3033461 C87.6303676,29.7292658 88.9946926,30.5562992 90.1866817,31.3833326 C90.4882694,31.6399982 90.9047475,31.5401838 91.2637804,31.5401838 C90.5744373,30.827224 89.6265904,30.4137072 88.8941633,29.7577842 C89.6840357,29.8005618 90.3733788,30.1998193 91.0483607,30.5277808 C91.062722,30.2568561 91.2781417,29.9003761 91.019638,29.6864882 C89.9425394,28.7596404 88.5351305,28.1892725 87.0989989,28.3033461 L87.0989989,28.3033461 Z M91.7951491,29.1161203 C91.9244009,29.9431537 92.1685433,30.7844464 92.699912,31.4403694 C92.8148025,31.6114798 93.0302222,31.6685166 93.202558,31.7540718 C93.0445835,31.1694447 92.7142733,30.6418544 92.4701309,30.0857457 C93.1163901,30.4279664 93.475423,31.1551855 94.2222114,31.3262959 C94.1647661,30.0714865 92.929693,29.3442675 91.7951491,29.1161203 L91.7951491,29.1161203 Z M95.342394,29.4013042 C95.0408064,30.4564848 94.8684706,31.6542574 95.4572845,32.6524012 C95.5865364,32.2816621 95.6727043,31.9109229 95.7301495,31.5259246 C95.8163174,31.5259246 95.9886532,31.5259246 96.0891824,31.5259246 C96.160989,31.9537005 96.2758795,32.3814764 96.6349124,32.6666604 C96.7210803,31.4688878 96.4194927,30.0714865 95.342394,29.4013042 L95.342394,29.4013042 Z M15.7376222,33.1657323 C14.8041367,34.9909095 14.0717096,36.9301603 13.7844833,38.9692255 C14.1004322,38.9407071 14.4163811,38.9264479 14.7323301,38.8979295 C15.4360345,36.7733092 16.9439727,35.0479463 17.8918195,33.0231403 C18.3082976,32.1675885 18.4375495,31.2122223 18.3801042,30.2711153 C17.0875858,30.7844464 16.36952,32.0249965 15.7376222,33.1657323 L15.7376222,33.1657323 Z M20.3188818,31.7398126 C18.7247758,33.2227691 17.3173669,34.9338727 16.2259069,36.8160867 C15.6801769,37.8284897 15.091363,38.9692255 15.2924214,40.1527389 C15.364228,40.3666268 15.3785893,40.7231068 15.6801769,40.737366 C17.188115,38.569968 17.8487355,35.9462757 19.3135897,33.7503594 C19.4284802,33.579249 19.5864547,33.4509162 19.7444292,33.3225835 C19.9454876,34.2636905 19.6295387,35.2047975 19.1556153,36.0175717 C18.322659,37.4577506 17.3891734,38.8408927 16.9296113,40.452182 C16.8721661,40.9655131 16.9439727,41.4931034 17.0445019,42.0064345 C17.8918195,41.5073626 18.3370203,40.6232924 18.782221,39.7962589 C19.8880423,37.6573794 20.6779147,35.3616486 21.3241739,33.0516587 C21.5395936,32.2959213 21.6832068,31.5116654 21.7262907,30.7274096 C21.238006,30.9840751 20.7497213,31.3262959 20.3188818,31.7398126 L20.3188818,31.7398126 Z M90.2154044,32.0392557 C90.6031599,33.0944363 91.4504775,33.8786921 92.3121564,34.5488744 C92.5706601,34.7770216 92.929693,34.7770216 93.2600033,34.7912808 C92.656828,34.0783209 91.8238717,33.5935082 91.2206965,32.8805483 C92.0967367,33.0944363 92.6855506,33.9072105 93.6190361,33.9499881 C93.6477588,33.4936938 93.5185069,33.0231403 93.1307514,32.7522156 C92.2977951,32.1105517 91.2063351,32.1105517 90.2154044,32.0392557 L90.2154044,32.0392557 Z M94.1934888,32.2816621 C94.1504048,33.4509162 94.4663538,34.6201704 95.0982516,35.604055 C95.2131422,35.8036838 95.4142006,35.9462757 95.5865364,36.0888677 C95.6727043,35.2475751 95.2562261,34.4918376 94.9115545,33.7503594 C95.7301495,33.9072105 95.8594014,35.0051687 96.6205511,35.2190567 C96.1897116,34.0070249 95.3711166,32.8662891 94.1934888,32.2816621 L94.1934888,32.2816621 Z M97.48223,32.9518443 C97.3098942,34.2066537 97.3960621,35.4899814 97.4678687,36.75905 C97.5971205,36.8018275 97.8412629,36.9016419 97.9705147,36.9586787 C97.9561534,36.4881252 97.9417921,36.0175717 97.9274308,35.5612774 C98.0997666,35.5612774 98.2721024,35.5612774 98.4587995,35.5612774 C98.5162447,36.0460901 98.57369,36.5309028 98.6742192,37.0014563 C98.7460258,36.8160867 98.8609163,36.6449764 98.846555,36.4310884 C98.8178324,35.4757222 98.3869929,34.591652 98.02796,33.721841 C97.8987082,33.4223978 97.6832884,33.1799915 97.48223,32.9518443 L97.48223,32.9518443 Z M22.0996849,33.6362858 C21.4103418,34.3349864 21.5970389,35.4186854 21.1374768,36.2314597 C20.5486629,37.2866403 19.9024037,38.35608 19.7875131,39.582371 C20.0172942,39.653667 20.2470752,39.724963 20.462495,39.7962589 C22.0853236,37.771453 23.2342289,35.4186854 24.2969662,33.0659179 C23.5501778,33.1942507 22.7172215,33.1799915 22.0996849,33.6362858 L22.0996849,33.6362858 Z M92.4844922,35.532759 C92.699912,36.5309028 93.3461712,37.3721954 94.1791275,37.9710817 C94.7248574,38.3418208 95.2705874,38.8123743 95.9742919,38.8266335 C95.6583429,37.9140449 94.7535801,37.4434914 94.1360435,36.7733092 C94.6099669,36.8160867 95.0982516,36.9016419 95.5721751,36.9586787 C95.2418648,36.4596068 94.7535801,36.0746085 94.2365727,35.7751654 C93.705204,35.4329446 93.0733062,35.5042406 92.4844922,35.532759 L92.4844922,35.532759 Z M96.6205511,36.6592356 C96.5918285,37.8284897 96.8216095,39.0405215 97.4535074,40.0386653 C97.6545658,39.2544095 97.2811716,38.4844128 97.1950037,37.7144162 C97.3386169,37.6003426 97.4965913,37.486269 97.6402045,37.3579362 C97.3386169,37.0870115 96.9939453,36.8446051 96.6205511,36.6592356 L96.6205511,36.6592356 Z M99.6077047,36.616458 C99.4066463,37.5860834 99.2630331,38.5842272 99.4066463,39.5681118 C99.66515,39.368483 99.938015,39.1688543 100.21088,38.9692255 C100.225241,39.4540382 100.225241,39.9245917 100.253964,40.4094044 C100.354493,40.3523676 100.555552,40.2382941 100.656081,40.1812573 C100.885862,38.9834847 100.483745,37.7857122 100.067267,36.6734948 C99.9523763,36.6592356 99.7225952,36.6307172 99.6077047,36.616458 L99.6077047,36.616458 Z M97.6832884,37.8427489 C97.7263724,38.0994145 97.7694563,38.3418208 97.8269016,38.5984864 C98.02796,38.5414496 98.2290184,38.498672 98.4300768,38.4416352 C98.1859345,38.2277473 97.9274308,38.0281185 97.6832884,37.8427489 L97.6832884,37.8427489 Z M94.6530509,39.0405215 C95.0264451,40.594774 95.9312079,42.2345817 97.5109526,42.8334679 C97.5683979,41.6499546 96.3764087,41.0368091 95.7014269,40.2382941 C96.1035437,40.3523676 96.4769379,40.5092188 96.8503321,40.6945884 C96.9221387,40.66607 97.0657519,40.594774 97.1375584,40.5662556 C96.8072482,40.0671837 96.5343832,39.4682974 95.9599306,39.2116319 C95.5290911,39.0975583 95.0838903,39.0832991 94.6530509,39.0405215 L94.6530509,39.0405215 Z M12.6499393,40.5805148 C12.3196291,43.3895766 11.0701946,45.9847505 10.5819099,48.7652939 C10.3090449,50.4621384 10.3234062,52.3300932 11.2281691,53.8558273 C11.4148662,52.1875012 11.2568917,50.504916 11.314337,48.8365899 C11.314337,48.3232588 11.6015633,47.8669645 11.816983,47.4106702 C12.6212167,45.7851217 13.4685343,44.1167957 13.6408701,42.2916184 C13.7413993,41.5643994 13.3680051,40.8086619 12.6499393,40.5805148 L12.6499393,40.5805148 Z M100.54119,43.3895766 C100.684803,43.3325398 100.957668,43.2327255 101.08692,43.1756887 C101.259256,43.418095 101.431592,43.6462422 101.647012,43.8601301 C101.790625,42.7906903 101.603928,41.7212506 101.273617,40.7088476 C100.627358,41.4503258 100.483745,42.4484696 100.54119,43.3895766 L100.54119,43.3895766 Z M98.300825,40.9369947 C98.2433797,42.1205081 98.2290184,43.3325398 98.5449674,44.4875348 C98.6742192,44.4875348 98.9327229,44.4732756 99.0476134,44.4732756 C99.0045295,43.7317973 98.8896389,43.0045783 98.846555,42.2773592 C99.0476134,42.1918041 99.2486718,42.1205081 99.4497302,42.0349529 C99.2917558,41.4788442 98.8609163,41.0795867 98.300825,40.9369947 L98.300825,40.9369947 Z M14.0717096,43.4751318 C13.1382241,44.9723475 12.6212167,46.6834512 12.3339904,48.4230732 C12.0467641,50.3195464 11.8887896,52.2730564 12.2621838,54.1695296 C12.4488809,54.0982337 12.6212167,54.0269377 12.8079138,53.9556417 C12.8509977,50.8899143 13.7701219,47.9382605 14.5599943,45.0008659 C14.5743556,44.715682 14.8903045,44.6729044 15.091363,44.5588308 C15.2206148,45.9419729 14.8615819,47.2965966 14.5887169,48.6369612 C14.229684,50.362324 13.8562898,52.1162053 13.9280964,53.8843457 C14.8759432,53.542125 15.2349761,52.5154628 15.5222024,51.6599109 C16.1541003,49.4497354 16.2689908,47.1254863 16.3407974,44.8297555 C16.4269653,43.6890198 16.4269653,42.548284 16.4413266,41.4075482 C15.4360345,41.7640281 14.6461622,42.5768024 14.0717096,43.4751318 L14.0717096,43.4751318 Z M95.7875948,42.9475415 C95.9024853,43.2327255 95.9599306,43.5749462 96.2184343,43.7745749 C96.6779964,44.1025365 97.2380877,44.287906 97.7694563,44.4732756 C97.6976498,43.9742037 97.6545658,43.3895766 97.209365,43.0758743 C96.7641642,42.8619863 96.2615182,42.9618007 95.7875948,42.9475415 L95.7875948,42.9475415 Z M99.4640916,43.0473559 C99.5789821,43.4751318 99.6077047,43.9742037 99.9954602,44.2736468 C99.9810989,43.8601301 99.9236537,43.4608726 99.8518471,43.0616151 C99.7513179,43.0616151 99.5646208,43.0616151 99.4640916,43.0473559 L99.4640916,43.0473559 Z M17.7482063,43.4323542 C17.4897027,43.6034646 17.1450311,43.7603157 17.1737537,44.1167957 C16.9870566,45.9847505 16.7429142,47.8527053 16.5274945,49.7206601 C16.4269653,50.647508 16.2833522,51.5743558 16.3264361,52.5012036 C16.5562171,52.3300932 16.8003595,52.1447237 16.9008887,51.8595397 C17.3891734,50.7045447 17.6333158,49.4639946 17.9061808,48.2519628 C18.279575,46.5123408 18.5955239,44.7584595 18.8683889,43.0045783 C18.4806334,43.1186519 18.0928779,43.2184663 17.7482063,43.4323542 L17.7482063,43.4323542 Z M96.6923577,44.8012371 C96.7641642,44.9866067 96.8216095,45.1862355 96.9221387,45.3573458 C97.0513906,45.656789 97.4247848,45.5569746 97.6832884,45.6140114 C97.4965913,45.3573458 97.2955329,45.1149395 97.1088358,44.8725331 C96.9939453,44.8582739 96.7928869,44.8297555 96.6923577,44.8012371 L96.6923577,44.8012371 Z M101.532121,47.6958541 C101.704457,47.467707 101.876793,47.2395598 102.049128,47.0114127 C102.192742,47.0399311 102.336355,47.0684495 102.479968,47.0827087 C102.479968,47.467707 102.479968,47.8527053 102.523052,48.2377036 C102.637942,48.0808525 102.767194,47.9097421 102.738471,47.7101133 C102.752833,46.6834512 102.781555,45.6425298 102.494329,44.644386 C101.833709,45.4856786 101.201811,46.5836368 101.532121,47.6958541 L101.532121,47.6958541 Z M96.5631058,46.0703057 C96.6061898,47.1112271 96.9365,48.1236301 97.4535074,49.0219595 C97.5827592,49.0077003 97.8556242,48.9934411 97.9848761,48.9791819 C97.7694563,48.3945548 97.48223,47.8527053 97.1519198,47.3393742 C97.2955329,47.3393742 97.5683979,47.3393742 97.7120111,47.3393742 C97.8987082,47.6245582 98.0566826,47.9097421 98.2864637,48.1664077 C98.6167739,48.0665933 98.6885805,47.7243725 98.7747484,47.4391886 C98.2146571,46.7547471 97.3960621,46.3554896 96.5631058,46.0703057 L96.5631058,46.0703057 Z M99.3635624,50.0913993 C99.4928142,49.9630665 99.6938726,49.8632521 99.7082339,49.6636234 C99.894931,48.8365899 99.8518471,47.9952973 99.8805697,47.1540047 C99.9810989,47.1967823 100.167796,47.2823374 100.253964,47.325115 C100.555552,47.9382605 100.713526,48.622702 100.957668,49.2643658 C101.043836,49.2501066 101.216172,49.2215882 101.30234,49.207329 C101.316701,48.9934411 101.402869,48.7795531 101.331063,48.5656652 C101.08692,47.5532622 100.4263,46.6834512 99.6507887,45.9990097 C99.2773945,47.3108558 98.9614455,48.7225163 99.3635624,50.0913993 L99.3635624,50.0913993 Z M101.862431,52.0734277 C102.020406,52.1304645 102.192742,52.2017604 102.350716,52.2587972 C102.3938,52.1162053 102.451245,51.9736133 102.494329,51.8452805 C102.652304,51.8880581 102.795917,51.9450949 102.953891,51.9878725 C102.93953,52.3586116 102.93953,52.7293507 102.953891,53.1143491 C103.772486,51.9450949 103.585789,50.4763976 103.528344,49.1502923 C102.365077,49.6208458 101.991683,50.9612103 101.862431,52.0734277 L101.862431,52.0734277 Z M99.8805697,53.7132353 C100.383216,53.1999042 100.598635,52.5154628 100.656081,51.8310213 C100.842778,51.7739845 101.029475,51.7026885 101.230533,51.6456518 C101.115643,50.9754695 100.986391,50.1769544 100.282687,49.8489929 C100.095989,51.1323207 99.9523763,52.4156484 99.8805697,53.7132353 L99.8805697,53.7132353 Z M97.5540366,50.1199177 C97.5827592,50.504916 97.525314,50.9184327 97.6832884,51.2749126 C98.2002958,51.4032454 98.6885805,51.6313926 99.1337813,51.9165765 C99.1337813,51.6599109 99.1337813,51.4175046 99.1337813,51.1750982 C98.6454966,50.7615815 98.1428505,50.3765832 97.5540366,50.1199177 L97.5540366,50.1199177 Z M97.755095,51.4888006 C97.8987082,52.0591685 97.9992374,52.7578691 98.5593287,53.0715715 C98.6167739,52.4441668 98.4157155,51.6884293 97.755095,51.4888006 L97.755095,51.4888006 Z M97.6832884,53.2997186 C97.755095,54.198048 97.8556242,55.0963775 98.0135987,55.9804477 C98.0423213,56.222854 98.1572118,56.4510012 98.2864637,56.6648891 C98.4300768,56.0802621 98.3726316,55.4671166 98.3295476,54.8824895 C98.8896389,54.9823039 98.9901681,55.6097086 99.2917558,55.9947069 C99.4210076,55.8663741 99.5358981,55.7237821 99.66515,55.5954494 C99.5215368,54.5117504 98.7029418,53.6419393 97.6832884,53.2997186 L97.6832884,53.2997186 Z M102.321993,55.1106367 C102.049128,55.5241534 101.934238,56.0660029 102.221464,56.4937788 C102.422523,56.1943356 102.594858,55.8806333 102.781555,55.566931 C102.968253,55.5384126 103.169311,55.5241534 103.356008,55.5098942 C103.26984,56.1372988 103.183672,56.7789627 103.198034,57.4206266 C103.873015,56.29415 104.074074,54.9252671 103.772486,53.6561985 C103.140588,53.9841601 102.709749,54.554528 102.321993,55.1106367 L102.321993,55.1106367 Z M9.89256675,54.3976768 C9.84948281,56.151558 9.95001201,57.9196985 10.0218186,59.6735797 C10.1797931,62.0976432 10.6968004,64.5359659 11.8026217,66.7176231 C11.8887896,66.7318823 12.0611254,66.7461415 12.1472933,66.7604007 C11.9462349,65.8763305 11.7308151,65.0065195 11.6015633,64.10819 C11.2281691,61.8267185 11.4435888,59.5024694 11.816983,57.235257 C11.860067,56.9215547 11.9318736,56.579334 11.8026217,56.2656316 C11.4723115,55.424339 10.9122202,54.4689728 9.89256675,54.3976768 L9.89256675,54.3976768 Z M13.2674759,54.483232 C12.7361072,56.9072955 11.9318736,59.3028406 11.9893188,61.8124593 C11.9605962,63.7659693 12.5924941,65.6624425 13.3967277,67.4163238 C13.454173,67.6444709 13.7126767,67.6444709 13.8850125,67.7300261 C14.5169103,64.5217068 13.2243919,61.356165 13.2818372,58.1478456 C13.3967277,58.1478456 13.5977862,58.1478456 13.7126767,58.1478456 C13.956819,60.3152436 13.8562898,62.51116 14.1435161,64.6785579 C14.229684,65.3202218 14.4451038,65.9476265 14.775414,66.5037352 C15.2493374,66.0189224 15.3067827,65.3059626 15.4216732,64.6785579 C15.6083703,62.8248623 15.364228,60.9711667 15.0339177,59.1459894 C14.7610527,57.5632186 14.3876585,55.9947069 13.7701219,54.5260096 C13.6552314,54.4974912 13.3967277,54.483232 13.2674759,54.483232 L13.2674759,54.483232 Z M16.3551587,54.7541567 C15.9674032,55.4385982 15.6801769,56.1800764 15.5509251,56.9643323 C15.2493374,58.7609911 15.2924214,60.6289459 15.8237901,62.3828272 C16.0392098,62.9531951 16.1828229,63.6518957 16.7716369,63.9655981 C16.6280237,64.9637419 16.4987719,65.9761449 16.4269653,66.9885479 C16.5274945,66.9742887 16.7141916,66.9457703 16.8003595,66.9315111 C17.1737537,65.7337385 17.3748121,64.4931884 17.4035348,63.238379 C17.504064,60.3722804 16.8578048,57.5489594 16.7859982,54.6828607 C16.642385,54.7113791 16.4987719,54.7398975 16.3551587,54.7541567 L16.3551587,54.7541567 Z M100.612997,54.6258239 C100.455022,55.0250815 100.32577,55.4528574 100.282687,55.8806333 C100.526829,56.0089661 100.785333,56.1372988 101.029475,56.2656316 C101.130004,57.0784059 101.259256,57.9054393 101.431592,58.7039543 C101.876793,58.4330296 101.948599,57.9339577 102.006044,57.4634042 C101.948599,57.4206266 101.819347,57.3208122 101.747541,57.2780346 C101.560844,56.3369276 101.431592,55.2674878 100.612997,54.6258239 L100.612997,54.6258239 Z M100.153435,56.4795196 C99.9954602,56.9928507 99.9954602,57.5347002 99.9954602,58.0622905 C100.067267,58.0052537 100.225241,57.9054393 100.297048,57.8626617 C100.411938,57.3493306 100.397577,56.8074811 100.4263,56.2798908 C100.354493,56.3369276 100.225241,56.436742 100.153435,56.4795196 L100.153435,56.4795196 Z M97.4391461,57.0641467 C97.5396753,58.2191416 97.6689271,59.3741366 97.9274308,60.5148724 C97.9561534,60.7715379 98.1428505,60.9426483 98.3295476,61.1137586 C98.3295476,60.486354 98.2290184,59.8589493 98.1715732,59.2315446 C98.3439089,59.2458038 98.5162447,59.2458038 98.6742192,59.260063 C98.8609163,59.7020981 99.0332521,60.1583924 99.2486718,60.5861683 C99.4928142,60.2867252 99.7944018,59.9302453 99.622066,59.5309878 C99.2343105,58.4900664 98.4013542,57.6202553 97.4391461,57.0641467 L97.4391461,57.0641467 Z M101.704457,60.9426483 C102.365077,60.6432051 102.709749,59.9872821 102.996975,59.3741366 C103.111866,59.3883958 103.356008,59.402655 103.48526,59.4169142 C103.226756,60.3722804 102.60922,61.1850546 102.451245,62.1831984 C102.824639,61.9122737 103.169311,61.5843121 103.341647,61.142277 C103.70068,60.2867252 103.887377,59.3598774 103.987906,58.4472888 C102.795917,58.6896951 101.718818,59.6593205 101.704457,60.9426483 L101.704457,60.9426483 Z M100.095989,61.213573 C100.268325,61.284869 100.440661,61.3419058 100.612997,61.4132018 C100.670442,62.083384 100.612997,62.7393071 100.684803,63.4094894 C100.914584,63.1385646 101.187449,62.8818991 101.259256,62.5254192 C101.445953,61.498757 101.187449,60.4578356 101.058198,59.4311734 C100.885862,59.3883958 100.727887,59.331359 100.555552,59.2885814 C100.182157,59.8589493 100.095989,60.5433908 100.095989,61.213573 L100.095989,61.213573 Z M97.5396753,61.2991282 C97.0370292,62.5681967 96.4625766,63.9513389 96.9365,65.3202218 C97.0083066,65.3059626 97.1662811,65.2917034 97.2380877,65.2917034 C97.2811716,64.6072619 97.2237263,63.9370797 97.1088358,63.2668974 C97.3386169,63.2241198 97.5540366,63.1813422 97.7838176,63.1385646 C97.9130695,63.7517101 97.9417921,64.4076332 98.2721024,64.9637419 C98.4300768,64.7926315 98.6454966,64.6500395 98.7460258,64.4218924 C98.7603871,63.2668974 98.300825,62.15468 97.5396753,61.2991282 L97.5396753,61.2991282 Z M101.115643,64.46467 C100.900223,64.6928171 100.986391,65.0065195 101.000752,65.2917034 C101.331063,64.7783723 101.84807,64.4218924 102.436884,64.2365228 C102.293271,65.0207787 101.977322,65.7765161 101.862431,66.5750311 C102.637942,65.4628138 103.083143,64.1652268 103.298563,62.8391215 C102.250187,62.7820847 101.63265,63.7089325 101.115643,64.46467 L101.115643,64.46467 Z M99.8087631,63.9513389 C99.0045295,65.1348522 98.2864637,66.41818 98.0423213,67.8440997 C98.7460258,67.3022502 99.1912266,66.5322535 99.622066,65.7765161 C99.894931,65.7765161 100.167796,65.7622569 100.4263,65.7622569 C100.32577,65.3915178 100.167796,65.0350378 100.067267,64.6642987 C100.139073,64.4931884 100.253964,64.322078 100.354493,64.1652268 C100.182157,64.0796716 99.9954602,64.0226349 99.8087631,63.9513389 L99.8087631,63.9513389 Z M95.8163174,65.5768873 C95.7875948,66.9742887 95.8163174,68.4144676 96.3046021,69.7405729 C96.706719,68.9848355 96.4912992,68.1150244 96.2615182,67.3307686 C96.3764087,67.3307686 96.6061898,67.3307686 96.7210803,67.3307686 C96.8790548,67.6444709 97.0226679,67.9724325 97.1806424,68.2861348 C97.3242555,68.1863204 97.4535074,68.0722468 97.5971205,67.9724325 C97.4535074,67.3165094 97.3386169,66.6035495 96.8503321,66.1044776 C96.5918285,65.7907753 96.1897116,65.6767017 95.8163174,65.5768873 L95.8163174,65.5768873 Z M99.7656792,66.2470696 C99.7225952,66.7176231 99.66515,67.2024358 99.6364273,67.6729893 C100.282687,67.4163238 100.167796,66.6178087 100.397577,66.0902184 C100.196519,66.1472552 99.9810989,66.1900328 99.7656792,66.2470696 L99.7656792,66.2470696 Z M17.2024763,67.4163238 C17.0445019,67.9153957 17.1163085,68.4572452 17.231199,68.9563171 C17.8343742,71.0239006 19.2417831,72.7350043 19.9311263,74.7598103 C20.1034621,74.7455511 20.2614365,74.7312919 20.4337723,74.7170327 C20.8933344,75.0735126 20.9364184,75.7009173 21.2236447,76.1714708 C20.8215279,72.8348187 18.6529692,70.0257568 18.049794,66.7318823 C17.733845,66.9029927 17.3317282,67.0313254 17.2024763,67.4163238 L17.2024763,67.4163238 Z M100.311409,68.6140963 C99.4066463,68.5713187 98.4875221,68.5855779 97.5827592,68.5713187 C97.2668103,68.5713187 96.9365,68.5142819 96.6205511,68.6140963 C97.8412629,68.6140963 99.0619747,68.5570595 100.282687,68.6283555 C99.9092923,69.1559458 99.6077047,69.7405729 99.5646208,70.396496 C99.9236537,70.111312 100.225241,69.7690913 100.54119,69.4411298 C100.727887,69.241501 101.043836,69.3270562 101.273617,69.2700194 C101.043836,69.7405729 100.770971,70.182608 100.526829,70.6389023 C100.598635,70.7244575 100.727887,70.8955679 100.799694,70.9953822 C101.072559,70.7387167 101.331063,70.467792 101.474676,70.1255712 C101.891154,69.1987234 102.235825,68.2433572 102.436884,67.2452134 C101.63265,67.5303973 100.914584,68.01521 100.311409,68.6140963 L100.311409,68.6140963 Z M14.7179688,67.9296549 C14.6461622,69.0703906 14.6748848,70.2253856 14.7897753,71.3661214 C14.9764724,73.6475929 15.6658156,75.9861012 17.1737537,77.7542417 C17.6907611,78.3246096 18.2221297,78.937755 18.9545568,79.2657166 C18.9545568,78.9662734 19.0120021,78.6525711 18.8540276,78.3816464 C17.8056516,76.3853588 16.7429142,74.3890712 16.139739,72.2216732 C15.9386806,71.4944541 15.9099579,70.7387167 15.9961258,69.9829792 C16.3264361,70.7529759 16.5849398,71.5514909 16.9008887,72.3357468 C17.7051224,74.4175896 18.6960532,76.4281363 19.6151773,78.4672015 C19.7300679,78.4814607 19.9454876,78.5242383 20.0603781,78.5384975 C20.1752687,76.4851731 19.4284802,74.5174039 18.4949947,72.7350043 C17.4897027,70.8527903 16.2833522,69.0703906 15.0051951,67.3450278 C14.8328593,67.5018789 14.6892461,67.6872485 14.7179688,67.9296549 L14.7179688,67.9296549 Z M11.4723115,68.6711331 C11.6015633,69.1987234 11.7595378,69.6977953 11.9605962,70.2111264 C12.9658883,72.7492635 14.2153227,75.1875862 15.4934798,77.5973905 C15.594009,77.6116497 15.7807061,77.6401681 15.8812353,77.6544273 C15.0339177,75.5155477 14.9764724,73.1770394 14.2009614,71.0239006 C13.7988446,69.8261281 12.7217459,68.9135395 11.4723115,68.6711331 L11.4723115,68.6711331 Z M98.3439089,69.098909 C97.2955329,70.3537184 96.1753503,71.7796381 96.2327956,73.5050009 C96.5918285,73.2340762 96.9077774,72.9203739 97.1806424,72.5638939 C97.1519198,72.0505628 97.3960621,71.5800093 97.6402045,71.1522334 C97.8269016,71.123715 97.9992374,71.0951966 98.1859345,71.0809374 C98.1284892,71.6655645 98.071044,72.2501916 98.0997666,72.8348187 C99.0906974,71.8651933 98.9327229,70.3679776 98.9327229,69.1131682 C98.7316645,69.0846498 98.5449674,69.098909 98.3439089,69.098909 L98.3439089,69.098909 Z M95.1269743,69.5266849 C94.796664,71.0666782 94.250934,72.5924123 94.250934,74.1751832 C94.5094377,73.5762969 94.5956056,72.9346331 94.7392188,72.3072284 C95.0264451,72.3642652 95.3136714,72.421302 95.6008977,72.4498204 C96.5343832,71.7368605 96.0604598,70.4392736 95.6296203,69.5694625 C95.4572845,69.5694625 95.2993101,69.5409441 95.1269743,69.5266849 L95.1269743,69.5266849 Z M97.8412629,74.7883287 C98.2721024,74.6885143 98.6885805,74.5601815 99.1050587,74.4318487 C98.8609163,75.1162902 98.5018834,75.7436949 98.3439089,76.4423955 C99.6364273,75.3301782 100.239603,73.6761113 100.75661,72.1075996 C99.392285,72.421302 98.3151863,73.4907417 97.8412629,74.7883287 L97.8412629,74.7883287 Z M91.9100396,77.126837 C92.3121564,76.7275795 92.8722477,76.5992467 93.4036164,76.4709139 C93.5185069,75.6011029 93.5472296,74.7170327 93.5041456,73.8472217 C93.4036164,73.8187033 93.202558,73.7474073 93.1163901,73.7188889 C92.6424667,74.8168471 91.9962075,75.8862869 91.9100396,77.126837 L91.9100396,77.126837 Z M95.0982516,75.6153621 C94.7392188,76.1429524 94.1791275,76.6135059 94.1791275,77.2979474 C94.523799,77.126837 94.8684706,76.9414674 95.112613,76.6277651 C95.4285619,76.2712852 95.6439816,75.7579541 96.160989,75.6581397 C96.160989,76.0859156 96.1322664,76.5136915 96.160989,76.9414674 C96.3046021,76.7988755 96.5056606,76.6848019 96.5774671,76.4851731 C96.8934161,75.6866581 97.0513906,74.8453655 97.1231971,73.9898136 C96.2758795,74.2749976 95.615259,74.9024023 95.0982516,75.6153621 L95.0982516,75.6153621 Z M96.4769379,77.8255377 C95.8306787,78.2675728 95.342394,78.937755 95.2275035,79.7077517 C95.7301495,79.3370126 96.2040729,78.9092366 96.8359708,78.7666447 C96.5056606,79.4653453 95.9886532,80.0784908 95.8163174,80.8627467 C96.160989,80.6631179 96.5056606,80.4349707 96.7785256,80.1355276 C97.6689271,79.1944206 98.4013542,78.0964624 98.846555,76.8701715 C97.9848761,76.9557266 97.1662811,77.3122066 96.4769379,77.8255377 L96.4769379,77.8255377 Z M22.559247,78.0109072 C22.5305244,78.8379407 22.5018018,79.6934925 22.7603054,80.4920075 C23.0044478,81.3333002 23.5501778,82.0320008 24.1246304,82.6879239 C24.9145028,83.5862533 25.7187364,84.4845827 26.3649956,85.4827265 C26.4511635,85.4827265 26.6378606,85.4827265 26.7383898,85.4969857 C26.5947767,85.154765 26.4798862,84.7982851 26.4224409,84.4275459 C26.7383898,84.7412483 26.9968935,85.1119874 27.2266746,85.4969857 C26.2788277,83.2868102 25.244813,81.0908938 23.8374041,79.1231246 C23.5214552,78.6525711 23.0762544,78.2533136 22.559247,78.0109072 L22.559247,78.0109072 Z M92.154182,81.0623754 C92.6424667,80.3779339 93.0876675,79.5794189 93.9349851,79.3227534 C93.5328683,80.1925644 93.0445835,81.033857 92.9871383,82.0177416 C94.0498756,81.0195978 94.7104961,79.6221965 94.7679414,78.1534992 C93.4897843,78.6097935 92.2403499,79.6221965 92.154182,81.0623754 L92.154182,81.0623754 Z M89.2962802,81.4616329 C89.5116999,81.4616329 89.7127583,81.4473737 89.9281781,81.4473737 C89.9999846,81.0481162 90.0717912,80.6488587 90.1435978,80.2496012 C90.3302949,80.2210828 90.5313533,80.1925644 90.7180504,80.1783052 C90.5744373,80.7486731 90.4308241,81.3047818 90.3877402,81.8894088 C90.9478315,81.8181129 91.1058059,81.2192266 91.2494191,80.7771915 C91.4935615,80.0071948 91.3212257,79.151643 90.8329409,78.5099791 C90.3302949,79.4938637 89.7702036,80.4634891 89.2962802,81.4616329 L89.2962802,81.4616329 Z M17.0875858,78.8949774 C17.4322574,79.222939 17.8056516,79.5366413 18.1934071,79.8360845 C18.322659,79.7362701 18.4519108,79.6221965 18.5811626,79.5223821 C18.0928779,79.294235 17.6045932,79.0518286 17.0875858,78.8949774 L17.0875858,78.8949774 Z M19.8305971,79.8931212 C20.1321847,81.7468169 20.6635534,83.6147717 21.7693747,85.1690242 C22.8464733,86.7375359 24.3544115,87.9353084 25.8623496,89.0903034 C26.1208533,89.3327097 26.4942475,89.3184505 26.838919,89.3469689 C25.287897,87.3934589 23.6219844,85.5255041 22.0853236,83.5577349 C21.9417105,83.3581061 21.8555426,83.129959 21.7550134,82.9018118 C22.056601,83.058663 22.3581886,83.2297734 22.6166923,83.4721797 C24.3687728,85.1690242 25.6469299,87.2793854 27.427733,88.919193 C27.5139009,88.6910459 27.6431527,88.4486395 27.5713461,88.191974 C27.3702877,87.4077181 26.8676417,86.7660543 26.4080796,86.1243904 C25.0724772,84.3847683 23.5358165,82.8019975 21.9129878,81.3475594 C21.2523673,80.8199691 20.6348308,80.2068236 19.8305971,79.8931212 L19.8305971,79.8931212 Z M88.0324844,81.5757065 C87.7308968,82.0034824 87.6447289,82.5310727 87.601645,83.0444038 C87.7739807,83.3010694 87.8888713,83.5862533 87.9175939,83.8999556 C88.1617363,83.5719941 88.4633239,83.272551 88.650021,82.916071 C88.8941633,82.3742215 88.8510794,81.7610761 88.8654407,81.176449 C88.5925757,81.2905226 88.2048202,81.2762634 88.0324844,81.5757065 L88.0324844,81.5757065 Z M16.6998303,81.6612617 C17.5327866,82.9018118 18.9401955,83.6147717 19.8449584,84.7840259 C20.462495,85.7251329 20.8646118,86.7803135 21.4965097,87.7071613 C22.056601,88.5627131 22.8033894,89.2899321 23.6794296,89.8175224 C24.2107983,90.1312248 24.7565283,90.4734455 25.3884262,90.4877047 C24.6129151,89.7462265 23.6650683,89.1901178 22.9613639,88.3630843 C23.7655975,88.6625275 24.2395209,89.4610425 25.0437546,89.789004 C25.4171488,89.9601144 25.833627,89.9886328 26.2501051,90.002892 C25.9054335,89.3469689 25.1873678,89.0332666 24.6129151,88.6054907 C23.9522946,88.1349372 23.2055062,87.7499389 22.6741376,87.108275 C21.3672578,85.4969857 20.4481336,83.5719941 18.9114729,82.1603336 C18.3370203,81.6470025 17.4466187,81.176449 16.6998303,81.6612617 L16.6998303,81.6612617 Z M92.0105688,83.9712516 C92.5993827,83.7145861 93.202558,83.4864389 93.8488172,83.4436613 C93.3030872,83.9142148 92.6137441,84.2992132 92.4414083,85.0549506 C94.1073209,84.4560643 95.0408064,82.8732934 96.2040729,81.6612617 C94.5381603,81.4045961 92.4126856,82.1603336 92.0105688,83.9712516 L92.0105688,83.9712516 Z M89.0377765,83.99977 C88.7361889,84.2279172 88.606937,84.5986563 88.5064078,84.940877 C88.922886,84.9123586 89.3537254,84.869581 89.7127583,84.6556931 C90.6318825,84.1281028 91.4361162,83.3153286 91.6802586,82.260148 C90.7180504,82.7307015 89.8276489,83.3153286 89.0377765,83.99977 L89.0377765,83.99977 Z M90.6893278,84.0425476 C90.3877402,84.4988419 90.1435978,84.9979138 90.0430686,85.5397633 C90.5600759,85.1832834 90.9765541,84.6984707 91.1776125,84.0995844 C91.0483607,84.0853252 90.8042183,84.0568068 90.6893278,84.0425476 L90.6893278,84.0425476 Z M85.1027761,84.9266178 C84.0831227,85.8962432 83.0634693,87.0940158 83.0491079,88.5627131 C83.6235606,88.0066044 84.0256774,87.3079037 84.3559876,86.5949439 C84.5139621,86.5379071 84.6719366,86.4808703 84.8155497,86.4380927 C84.6719366,87.036979 84.5283234,87.6216061 84.4565169,88.2347516 C84.6288526,88.1634556 84.8155497,88.0921596 84.9878855,88.0351228 C85.6197834,87.0512382 85.8782871,85.881984 85.8495645,84.7269891 C85.6054221,84.7840259 85.2894732,84.7127299 85.1027761,84.9266178 L85.1027761,84.9266178 Z M89.6840357,86.5093887 C89.6840357,86.6234623 89.6696744,86.8373502 89.6553131,86.9514238 C90.2010431,86.7375359 90.7754957,86.5806847 91.3643096,86.5379071 C90.7754957,87.1938302 89.9281781,87.6501245 89.6265904,88.5199355 C91.0483607,87.9638268 92.0105688,86.7090175 93.0445835,85.6395777 C91.838233,85.4684673 90.7036891,85.9247616 89.6840357,86.5093887 L89.6840357,86.5093887 Z M86.1080681,87.3791997 C86.23732,87.4647549 86.3665718,87.5645693 86.4958237,87.6501245 C86.8117726,87.250867 87.1564442,86.8088319 87.7452581,86.8516094 C87.4436705,87.5930877 86.9553858,88.2490108 86.7256047,89.0190074 C88.0468457,88.4628987 88.8941633,87.1653118 89.152667,85.7964289 C87.9750392,85.9247616 87.0271923,86.6947583 86.1080681,87.3791997 L86.1080681,87.3791997 Z M29.4526785,86.4808703 C29.5532077,87.6929021 29.8117114,89.061785 30.8600874,89.8317816 C31.8797408,90.5732599 33.1435366,90.8869622 34.2493578,91.4573301 C34.6371134,91.7139957 35.0535915,91.4573301 35.4269857,91.3004789 C34.392971,90.2310392 33.2727884,89.2328954 32.1382445,88.26327 C31.3196495,87.5645693 30.4723319,86.8801278 29.4526785,86.4808703 L29.4526785,86.4808703 Z M79.7172827,90.7443703 C79.9901477,90.4449271 80.2199288,90.1312248 80.4209872,89.789004 C80.593323,89.7604857 80.7656588,89.7319673 80.9379946,89.7177081 C80.9523559,89.9743736 80.9667172,90.2310392 80.9810785,90.4877047 C81.368834,90.2880759 81.7565895,90.0599288 82.0150932,89.7034489 C82.1299837,89.1615994 81.9002027,88.6054907 81.7565895,88.0921596 C80.4353485,88.2062332 79.774728,89.5751161 79.7172827,90.7443703 L79.7172827,90.7443703 Z M88.2335428,89.0760442 C87.4723931,89.2899321 86.739966,89.5893753 85.9500937,89.7034489 C85.9500937,89.789004 85.9500937,89.9743736 85.9500937,90.0599288 C86.7256047,90.002892 87.4867544,89.8460408 88.2622655,89.789004 C87.5729223,90.2595576 86.78305,90.5732599 86.0362616,90.943999 C86.0793455,91.1008502 86.1367908,91.2719605 86.1798747,91.4288117 C87.1420829,91.1864054 88.1617363,90.9725174 88.9659699,90.3593719 C89.4398933,89.9743736 90.0430686,89.5893753 90.1148752,88.9334522 C89.5116999,88.9049338 88.8510794,88.8906746 88.2335428,89.0760442 L88.2335428,89.0760442 Z M82.4315714,90.2595576 C82.187429,90.5304823 81.8140348,90.7586295 81.7853122,91.157887 C82.2592356,91.3147381 82.6182685,90.8869622 82.9485787,90.6445559 C83.278889,90.3451127 83.6953671,90.1597432 84.1262066,90.0456696 C83.7240898,90.801407 83.1927211,91.4858485 82.8049656,92.2558452 C83.2645277,92.1132532 83.6379219,91.81381 83.824619,91.3575157 C84.1980132,91.1151094 84.6144913,90.9154806 84.9304403,90.5732599 C85.0596921,90.3451127 85.0309695,90.0599288 85.1171374,89.8175224 C85.2607505,89.6321529 85.418725,89.4753017 85.5766995,89.3041913 C85.2033053,89.1188218 84.7868271,88.9334522 84.370349,89.0475258 C83.6091992,89.2471546 83.006024,89.7747449 82.4315714,90.2595576 L82.4315714,90.2595576 Z M27.7580432,89.4753017 C28.1888827,91.1008502 29.3521493,92.3984371 30.5154158,93.5534321 C29.0792843,92.6836211 27.5713461,91.8708468 25.8910722,91.6284405 C25.8910722,91.7567733 25.8910722,91.9991796 25.8910722,92.1275124 C27.9878243,93.4821361 29.9409632,95.0791662 32.1813284,96.2056428 C32.6839745,96.4480491 33.2009818,96.7902698 33.7897958,96.6476779 C33.5600147,96.1771244 33.2153431,95.7778668 32.8706716,95.3786093 C33.4882081,95.7636076 34.1057447,96.1628652 34.7520039,96.5050859 C35.3839018,96.804529 36.1163289,96.5906411 36.7482267,96.4052715 C36.6620589,96.2056428 36.6476975,95.9489772 36.4322778,95.8349036 C34.4504163,94.5658351 32.4541934,93.2825073 30.615945,91.7995508 C30.9606166,91.885106 31.3196495,91.9991796 31.6212371,92.1988084 C32.7845037,92.968805 33.847241,93.909912 35.0105076,94.6799087 C35.7429347,95.1504622 36.5615296,95.7065709 37.4806538,95.4641645 C35.6424055,93.4393585 33.7179892,91.3004789 31.1042298,90.2880759 C30.0127698,89.931596 28.9069485,89.5465977 27.7580432,89.4753017 L27.7580432,89.4753017 Z M76.8450196,92.9830642 C77.0748007,92.7263987 77.2327752,92.4126963 77.3763883,92.098994 C77.6923373,92.098994 77.9508409,92.1988084 78.0370088,92.5410291 C78.3242351,92.3984371 78.6258228,92.2273268 78.8986878,92.0704756 C78.9848556,91.4430709 79.0279396,90.801407 78.9417717,90.1597432 C77.6061694,90.3451127 76.9599102,91.7852916 76.8450196,92.9830642 L76.8450196,92.9830642 Z M83.6666445,92.3556595 C83.2932503,92.5980659 82.8193269,92.7834354 82.6469911,93.2397298 C83.1639985,93.1969522 83.7097284,92.9973234 84.1980132,93.2825073 C83.8102577,93.4536177 83.3937795,93.5819505 82.9773014,93.6960241 C82.96294,93.7958384 82.9485787,93.9954672 82.9485787,94.0952816 C84.5426847,93.9526896 85.9357324,93.040101 87.0415536,91.9421428 C86.4096558,91.7852916 85.7490353,91.5999221 85.1027761,91.6997365 C84.5570461,91.7710324 84.1118453,92.0847348 83.6666445,92.3556595 L83.6666445,92.3556595 Z M78.4822096,92.8832498 C77.7497825,93.2397298 77.3045817,93.981208 77.0604394,94.7369454 C78.0226475,94.4945391 78.6401841,93.6104689 79.6167535,93.3965809 C79.3438885,94.1095408 78.7407133,94.6513903 78.5683775,95.4071277 C79.2146367,95.3073133 79.9183412,95.136203 80.3779033,94.6228719 C80.9236332,93.981208 81.139053,93.1399154 81.2970274,92.3271411 C80.3348193,92.3984371 79.3438885,92.4697331 78.4822096,92.8832498 L78.4822096,92.8832498 Z M75.495056,92.968805 C75.3945268,93.1684338 75.2939976,93.3680625 75.1934684,93.5819505 C75.0785778,93.5819505 74.8631581,93.5534321 74.7626289,93.5534321 C74.7482676,93.6960241 74.7339063,93.838616 74.7195449,93.9954672 C74.8631581,93.9384304 75.0211326,93.8813936 75.179107,93.8243568 C75.4663333,93.4821361 75.9546181,93.3965809 76.1843991,93.0115826 C75.9402568,92.968805 75.7104757,92.968805 75.495056,92.968805 L75.495056,92.968805 Z M46.0399979,95.1076846 C41.3294864,96.2056428 36.7338654,97.8311912 32.482916,100.126922 C31.0324232,100.953955 29.5532077,101.76673 28.2750506,102.836169 C28.3755798,103.991164 28.9931164,105.032086 29.4383172,106.087266 C31.5063466,110.336507 33.9334089,114.386119 36.303026,118.464249 C36.9780078,118.250362 37.5237378,117.779808 38.126913,117.451846 C42.5358369,114.942228 47.4761294,113.430753 52.4882285,112.646497 C57.8593605,111.847982 63.388467,111.862241 68.7165151,113.017236 C72.3642892,113.815751 75.9258954,115.198893 78.9848556,117.352032 C79.4013338,117.622957 79.7603667,117.979437 80.2055675,118.207584 C80.6364069,118.236102 81.0098011,117.950918 81.2826661,117.651475 C81.4550019,117.309254 81.4693632,116.909997 81.5986151,116.553517 C81.9432866,115.498336 82.5751845,114.585748 83.1927211,113.673159 C83.4368635,113.330938 83.5373927,112.917422 83.6810058,112.532423 C83.6953671,112.275758 83.7097284,112.004833 83.8677029,111.805204 C84.2698198,111.220577 84.6862979,110.664469 84.9735242,110.022805 C84.916079,109.908731 84.872995,109.794658 84.8155497,109.680584 C85.7346739,108.924847 85.9500937,107.684296 86.5532689,106.714671 C86.5532689,106.614857 86.5676302,106.429487 86.5676302,106.329673 C86.6394368,106.315414 86.7974113,106.301154 86.8692179,106.286895 C87.3575026,105.331529 87.6160063,104.262089 88.2479041,103.378019 C85.4330863,100.183959 81.7278669,97.8454504 77.7785051,96.2911979 C73.7429755,94.7084271 69.4345808,93.8671344 65.1118249,93.5249137 C58.7210395,93.0543602 52.2728088,93.6389873 46.0399979,95.1076846 L46.0399979,95.1076846 Z M80.5646004,94.8652782 C80.5646004,94.993611 80.5789617,95.2502765 80.5789617,95.3786093 C81.0528851,95.2930541 81.5268085,95.2360173 82.0150932,95.1932398 C81.6991443,95.4213869 81.368834,95.6352749 81.0528851,95.8491628 C81.0528851,95.9774956 81.0385238,96.2199019 81.0241624,96.3482347 C82.3454035,96.2056428 83.8820642,95.792126 84.5283234,94.5087983 C83.1927211,94.4660207 81.8714801,94.6371311 80.5646004,94.8652782 L80.5646004,94.8652782 Z M89.195751,115.355744 C90.1292365,115.498336 90.8760249,116.14 91.7807878,116.353888 C94.4376311,110.593173 97.1375584,104.846716 99.7944018,99.0860006 C100.124712,98.3872999 100.052905,97.4176745 99.3779237,96.947121 C98.4875221,96.3339755 97.3673395,96.2626795 96.3333248,96.07731 C93.9637077,102.508208 91.5222841,108.910587 89.195751,115.355744 L89.195751,115.355744 Z M16.4556879,99.8987748 C16.6998303,100.554698 17.1019471,101.139325 17.4178961,101.76673 C20.0891008,106.686153 22.7315828,111.619835 25.4171488,116.524999 C26.2644664,116.040186 27.1261454,115.526855 28.1027148,115.355744 C27.8872951,114.714081 27.5713461,114.100935 27.2984811,113.48779 C24.8283349,108.097813 22.329466,102.722096 19.873681,97.3178601 C18.2939363,97.3178601 17.0732245,98.5726695 16.4556879,99.8987748 L16.4556879,99.8987748 Z M92.2690725,99.7419236 C91.7520651,100.383588 91.4792001,101.167843 91.1201673,101.895062 C88.2766268,108.040776 85.3612797,114.157972 82.5464619,120.332204 C83.1496371,120.688684 83.8533416,120.560351 84.5139621,120.489055 C86.0506229,120.275167 87.5011157,119.719059 88.9659699,119.234246 C88.9946926,119.134432 89.0521378,118.934803 89.0808604,118.834989 C88.2191815,118.378694 87.2426121,117.865363 86.8979405,116.895738 C86.6825208,116.111482 87.1995281,115.384263 87.4723931,114.685562 C88.606937,111.89076 89.6696744,109.067439 90.7754957,106.258377 C91.4361162,104.932271 91.8095104,103.477833 92.3121564,102.094691 C92.5850214,101.210621 92.972777,100.369328 93.1163901,99.4567397 C92.8291638,99.4995173 92.4557696,99.4424805 92.2690725,99.7419236 L92.2690725,99.7419236 Z M22.9613639,99.5993317 C23.1767836,100.355069 23.5358165,101.068029 23.8374041,101.809507 C25.9054335,106.614857 28.1601601,111.34891 30.2281895,116.15426 C30.5584998,116.753146 30.2281895,117.437587 29.9122406,117.979437 C29.4526785,118.706656 28.6197222,119.063136 27.8298498,119.319801 C27.9878243,119.51943 28.1601601,119.719059 28.4043024,119.804614 C29.6968208,120.317945 31.0180619,120.75998 32.3823868,121.030905 C33.1435366,121.187756 33.9334089,120.902572 34.5222228,120.432019 C31.3914561,114.129454 28.2894119,107.812629 25.1730064,101.510064 C24.742167,100.583216 23.9810173,99.7989604 22.9613639,99.5993317 L22.9613639,99.5993317 Z M26.2501051,117.73703 C26.2644664,118.022214 26.2644664,118.307398 26.2788277,118.592582 C27.0256161,118.507027 27.8154885,118.392953 28.4330251,117.936659 C28.8925872,117.56592 28.8638645,116.895738 28.8925872,116.368147 C27.8585724,116.410925 26.9250869,116.967034 26.2501051,117.73703 L26.2501051,117.73703 Z M88.4776852,116.453703 C88.4776852,116.696109 88.4776852,116.952775 88.4776852,117.195181 C88.8223568,117.480365 89.152667,117.794067 89.5978678,117.908141 C90.1292365,118.022214 90.7036891,117.936659 91.2063351,117.722771 C91.019638,117.252218 90.789857,116.753146 90.3159336,116.510739 C89.741481,116.239815 89.0664991,116.368147 88.4776852,116.453703 L88.4776852,116.453703 Z M49.0271515,25.8507642 C49.185126,25.5085434 49.6016041,25.6083578 49.8888304,25.6796538 C49.9749983,26.3783545 50.2191407,27.0913143 50.7648707,27.576127 C51.9855825,28.7738996 54.1541411,28.8166772 55.4035756,27.647423 C55.7338858,27.3622391 55.9780282,26.9344631 56.4375903,26.8203896 C57.1125721,27.6331638 57.9598897,28.4887156 59.0944337,28.4887156 C59.9561126,28.5600116 60.7603463,28.1179765 61.3778828,27.5618678 C62.0528647,26.9914999 62.5555107,26.2642809 63.1012407,25.5940986 C63.2735765,25.5940986 63.4602736,25.5940986 63.6469707,25.6083578 C63.9772809,27.2053879 63.8049452,29.1446387 62.4837041,30.2568561 C61.2629923,31.2122223 59.5539958,30.9983343 58.1896708,30.470744 C57.5721342,30.2425969 57.2131013,29.458341 56.4950356,29.5153778 C55.9349443,29.8575986 55.5902727,30.4850032 54.9870974,30.7844464 C53.8812761,31.3548142 52.5025899,31.2264815 51.4398525,30.613336 C50.3914765,30.0572273 49.3431004,29.2301939 49.0127902,28.0324213 C48.8404544,27.3337207 48.8260931,26.563724 49.0271515,25.8507642 L49.0271515,25.8507642 Z M55.9923895,31.2122223 C56.2221706,31.0696303 56.4950356,30.7844464 56.7535392,31.0411119 C57.7731926,31.7540718 58.7641234,32.4812908 59.7550542,33.2085099 C60.0853644,33.3938794 60.1428097,33.8073962 60.1428097,34.1496169 C60.1284484,45.7423441 60.0997258,57.3350714 60.1284484,68.9277987 C63.7618612,65.6624425 66.9644346,61.8552369 69.0468253,57.4206266 C71.2728292,52.7008323 72.1057855,47.1967823 70.6983766,42.1205081 C70.3106211,40.5377372 69.4202195,39.1545951 68.7308764,37.6858978 C67.6106938,35.4329446 66.4330659,33.2227691 65.3703285,30.9412975 C69.2191611,34.1923945 72.3642892,38.3845984 74.0158405,43.1471703 C75.7822823,48.1236301 75.8253662,53.6847169 74.0876471,58.6754359 C72.536625,63.2526382 69.6069166,67.3022502 65.9447812,70.4535328 C64.8389599,71.408899 63.661332,72.27871 62.4549815,73.1057434 C63.0294341,73.8187033 63.9916423,73.9612952 64.8389599,74.1324056 C66.5910404,74.4175896 68.3718435,74.4888855 70.1382853,74.5601815 C71.3302745,74.6172183 72.536625,74.5174039 73.7286142,74.6742551 C71.3015519,75.9433236 68.5441793,76.399618 65.8298906,76.4709139 C63.7905838,76.6135059 61.7369157,76.3853588 59.6976089,76.3140628 C59.108795,77.3264658 58.5056197,78.3246096 57.9168058,79.3370126 C57.8019153,79.6507149 57.2849079,79.7220109 57.1125721,79.4368269 C56.3657837,78.3959055 55.7769698,77.2551698 55.0158201,76.2285076 C54.3121156,76.18573 53.6227725,76.3710996 52.919068,76.3853588 C50.3053086,76.6420243 47.6341039,76.5849875 45.0777897,75.9575828 C43.8570779,75.6581397 42.6507274,75.2588822 41.4874609,74.7598103 C44.2591948,74.959439 47.0740126,74.9736982 49.8026625,74.4175896 C50.5925349,74.2607384 51.4111299,74.0040728 52.0286664,73.4622233 C50.003721,72.3357468 48.1367499,70.9098271 46.4851987,69.2842786 C46.2697789,69.0703906 46.0830818,68.8422435 45.8963847,68.5998371 C48.1367499,68.4715044 50.3771152,68.5998371 52.6174804,68.5428003 C50.3483925,68.5570595 48.0793047,68.4857636 45.8245781,68.5855779 C42.3922237,64.8639275 39.9938841,60.1869108 39.0316759,55.2247102 C38.0694678,50.3195464 38.5864751,45.1006803 40.7406725,40.5662556 C42.4353077,36.9586787 45.135235,33.8644329 48.323447,31.483147 C45.8676621,35.5612774 44.0294137,40.0814429 43.541129,44.8297555 C42.9666764,50.1484361 44.1586655,55.6239677 46.8011476,60.272466 C48.6824799,63.6376365 51.2100715,66.6035495 54.0536119,69.1987234 C54.0823346,66.8602151 53.9099988,64.5359659 53.8812761,62.1974576 C53.737663,60.4435764 53.8381922,58.6754359 53.694579,56.9215547 C53.6514951,53.0145347 53.421714,49.1217739 53.3786301,45.2147539 C53.1632104,41.2506971 53.1632104,37.2866403 52.962152,33.3225835 C53.9387214,32.5953644 54.9870974,31.9394413 55.9923895,31.2122223 L55.9923895,31.2122223 Z M67.6106938,31.2692591 C72.4504571,32.0962925 76.9599102,34.6344296 80.1481222,38.3418208 C82.9773014,41.6214362 84.7150205,45.8136401 85.0596921,50.1199177 C85.3469184,53.3852738 84.8586337,56.6934075 83.7384511,59.7733941 C83.3506956,60.8856115 82.8767722,61.9978289 82.187429,62.9674543 C80.9236332,64.8781867 79.4731404,66.6891047 77.7497825,68.229098 C76.5577933,69.2700194 75.2509136,70.2253856 73.7573368,70.8242719 C73.7429755,70.7101983 73.7286142,70.467792 73.7142529,70.3537184 C76.7157678,66.5892903 78.7550746,62.0406065 79.3726112,57.2637754 C80.1481222,51.7312069 79.0423009,45.9704913 76.3710962,41.0510683 C74.3030668,37.1583075 71.2441066,33.8073962 67.6106938,31.2692591 L67.6106938,31.2692591 Z M43.3544319,32.0677741 C44.086859,31.8111086 44.8480087,31.4403694 45.6522424,31.625739 C45.4655453,31.8681453 45.2644868,32.0962925 45.0203445,32.2959213 C41.7316032,35.1192423 38.8737014,38.5129312 36.9923691,42.4342104 C35.6136828,45.2860498 34.7950878,48.3945548 34.5940294,51.5458374 C34.2062739,57.4919226 36.0732449,63.380971 38.9742307,68.5285411 C39.4481541,69.455389 40.2811104,70.1540896 40.6975885,71.123715 C38.7013657,70.3679776 36.9492852,69.0846498 35.4557084,67.5874341 C33.574376,65.7194793 32.0807992,63.4807854 30.9175327,61.1137586 C30.4148866,60.1013556 29.9409632,59.0746935 29.6680982,57.9767353 C29.0362003,55.3245246 28.8207806,52.5582404 29.064923,49.8347337 C29.4095945,46.0275281 30.8457261,42.3058776 33.2009818,39.2686687 C35.7860186,35.9462757 39.4050701,33.507953 43.3544319,32.0677741 L43.3544319,32.0677741 Z M56.5812035,99.8274788 C58.4194518,98.5441511 60.0422805,96.9898986 61.6507478,95.4499053 C61.8661676,95.4641645 62.0959486,95.4784237 62.3113683,95.4926829 C62.2108391,96.0630508 62.2108391,96.804529 61.6220252,97.1324906 C60.6023718,97.745636 59.7694155,98.6154471 58.8933753,99.4139621 C57.2849079,100.925437 55.5902727,102.394134 53.6802177,103.520611 C51.4829365,104.818198 48.9840676,105.67375 46.4277534,105.802082 C44.6469503,105.859119 42.8805085,105.802082 41.0997053,105.802082 C40.8412017,106.443746 40.5970593,107.199484 39.9508001,107.555964 C39.3476249,107.912444 38.6295591,107.79837 37.9545772,107.841148 C37.5668217,107.841148 37.2652341,108.112072 36.9492852,108.311701 C36.848756,108.211887 36.7338654,108.112072 36.6333362,108.026517 C36.8918399,107.142447 37.2508728,106.172822 38.0981904,105.702268 C38.7013657,105.331529 39.4337927,105.545417 40.0800519,105.388566 C40.8268404,105.060604 41.2576798,104.333385 41.6167127,103.648944 C44.3310013,103.70598 47.1314579,103.89135 49.7595786,103.092835 C52.1866409,102.337098 54.5275353,101.296176 56.5812035,99.8274788 L56.5812035,99.8274788 Z M74.6477384,101.210621 C76.1987604,100.098404 78.0657315,99.3711845 79.9901477,99.2571109 C78.4247643,100.440624 76.4141802,100.825623 74.8344355,101.980618 C73.585001,102.921725 73.1398002,104.504495 72.9243805,105.973193 C73.35522,106.001711 73.7860594,106.01597 74.2168989,106.03023 C74.1594536,106.614857 73.9296726,107.213743 73.4270265,107.555964 C72.9961871,107.912444 72.4360958,107.955221 71.8903658,107.98374 C71.5887782,107.727074 71.1579387,107.456149 71.215384,106.999855 C71.2728292,106.272636 71.7611139,105.688009 71.9621724,104.989308 C70.8850737,105.374307 69.7361685,105.602454 68.5872632,105.65949 C66.4043433,105.759305 64.1927007,105.645231 62.0959486,104.989308 C61.0906565,104.661347 59.9848352,104.133756 59.5539958,103.121353 C59.1949629,102.265802 59.7263316,101.395991 60.1858937,100.683031 C60.4156747,100.683031 60.6598171,100.683031 60.9039594,100.668771 C61.01885,101.76673 61.9236128,102.536726 62.885821,102.935984 C65.2123541,103.919868 67.7973909,104.07672 70.2818985,104.005424 C70.9856029,103.948387 71.7898366,103.976905 72.3355666,103.463574 C73.1254389,102.750614 73.7573368,101.852285 74.6477384,101.210621 L74.6477384,101.210621 Z M66.3899819,100.426365 C66.6915696,100.041367 67.2372996,100.269514 67.6394164,100.326551 C67.4527193,100.768586 67.2229382,101.210621 67.0075185,101.638397 C66.5048725,101.709693 65.9878651,101.76673 65.4708578,101.76673 C65.6001096,101.22488 66.0453104,100.839882 66.3899819,100.426365 L66.3899819,100.426365 Z M75.2365523,102.736355 C75.7391983,102.322838 76.2992896,101.738211 77.0317167,101.895062 C77.362027,102.12321 77.3907496,102.550985 77.5056402,102.907465 C77.0604394,103.206909 76.6152386,103.634684 76.0264247,103.591907 C75.6961144,103.378019 75.4663333,103.050057 75.2365523,102.736355 L75.2365523,102.736355 Z M77.9795636,104.96079 C78.6401841,104.07672 79.3869725,103.192649 80.4353485,102.764873 C79.9183412,103.991164 78.9704943,104.975049 78.5109322,106.215599 C78.2811512,106.771708 78.2093446,107.370594 78.1949833,107.955221 C78.6114614,107.955221 79.0279396,107.955221 79.4587791,107.955221 C79.0566622,108.853551 78.3960417,109.680584 77.4625562,110.051323 C77.1035233,110.193915 76.7588517,109.908731 76.5721546,109.637806 C76.270567,109.181512 76.2992896,108.596885 76.4141802,108.097813 C76.6726839,106.942818 77.2902204,105.901897 77.9795636,104.96079 L77.9795636,104.96079 Z M41.5592674,109.152994 C41.7890485,108.796514 41.9901069,108.397256 42.2916945,108.097813 C42.8374245,108.026517 43.4693224,108.311701 43.6272969,108.86781 C43.5124064,109.324104 43.2395414,109.723362 43.0241216,110.136878 C42.5071143,110.179656 42.0044682,110.079842 41.5018222,109.965768 C41.4874609,110.10836 41.4587382,110.250952 41.4443769,110.407803 C41.9326616,110.550395 42.4209464,110.664469 42.9092311,110.764283 C42.8805085,111.306133 42.8517858,111.862241 42.5932822,112.361313 C42.5501982,112.532423 42.4353077,112.58946 42.2629719,112.560942 C41.9183003,112.518164 41.5879901,112.361313 41.2576798,112.24724 C41.3294864,111.905019 41.401293,111.562798 41.4874609,111.220577 C40.8842856,111.120763 40.2954717,110.963912 39.7210191,110.750024 C39.7928256,110.122619 40.0800519,109.552251 40.3960009,109.010402 C40.7981177,109.03892 41.1715119,109.095957 41.5592674,109.152994 L41.5592674,109.152994 Z M75.6530305,111.006689 C75.9115341,111.035208 76.1700378,111.049467 76.4285415,111.077985 C76.5721546,111.505761 76.6583225,111.947796 76.6726839,112.389831 C76.2131218,112.603719 75.724837,112.803348 75.2365523,112.960199 C74.8918807,112.646497 74.5759318,112.290017 74.4323186,111.847982 C74.8775194,111.619835 75.2796362,111.34891 75.6530305,111.006689 L75.6530305,111.006689 Z"/>
    </g>
  </g>
</svg>
