<svg xmlns="http://www.w3.org/2000/svg" width="95" height="128" viewBox="0 0 95 128">
  <path fill="#EF1A19" fill-rule="evenodd" d="M47.7806691,8.3686257 C54.2020528,8.3686257 59.4135697,13.6559553 59.4135697,20.1782346 C59.4135697,26.7012291 54.2013482,31.9885587 47.7806691,31.9885587 C41.3494205,31.9885587 36.137199,26.7012291 36.137199,20.1782346 C36.137199,13.6559553 41.3494205,8.3686257 47.7806691,8.3686257 Z M74.8684373,0.617117318 C81.3010952,0.617117318 86.5097935,5.90516201 86.5097935,12.4274413 C86.5104981,18.9504358 81.3010952,24.2384804 74.8677326,24.2384804 C68.4456443,24.2384804 63.2334228,18.9504358 63.2334228,12.4274413 C63.2334228,5.90516201 68.4456443,0.617117318 74.8677326,0.617117318 L74.8684373,0.617117318 Z M22.9562045,20.4521117 C29.3846345,20.4521117 34.5954468,25.7415866 34.5954468,32.2667263 C34.5954468,38.7875754 29.3846345,44.0763352 22.9562045,44.0763352 C16.528479,44.0763352 11.3169621,38.7875754 11.3169621,32.2667263 C11.3169621,25.7415866 16.528479,20.4521117 22.9562045,20.4521117 Z M47.530522,94.3331397 L47.7080912,75.6708827 C48.4789673,75.6336983 56.2391668,75.3269274 61.0095791,77.7410503 C62.7563815,78.6241788 62.9360647,79.7625922 62.9332462,80.9675084 C62.9304276,86.5701899 47.8574749,94.5698324 46.3756171,95.3285363 C27.2883307,105.107307 0.371085496,106.769877 0.371085496,106.769877 L0.62405123,127.285631 C12.1406862,125.683128 32.9184038,123.324782 57.992311,109.685274 C70.3939737,102.938458 83.8159551,91.8324916 81.3123694,75.9361788 C78.8933405,60.6004916 62.8966049,56.2792402 47.8321079,56.9414078 L47.6545386,75.6043799 C46.8914135,75.6422793 39.1262815,75.9497654 34.3551646,73.5363575 C32.6076576,72.6532291 32.4314976,71.5155307 32.4314976,70.3091844 C32.4329069,64.7057877 47.5044503,56.7061453 48.9877173,55.9495866 C68.0771176,46.1686704 94.990135,44.5061006 94.990135,44.5061006 L94.7378739,23.9896313 C83.2177158,25.5957095 62.4428168,27.9519106 37.3710235,41.5907039 C24.9672468,48.3368045 11.5494933,59.443486 14.0551929,75.3397989 C16.4735171,90.6790615 32.4702528,94.9967374 47.530522,94.3331397 L47.530522,94.3331397 Z"/>
</svg>
