<svg xmlns="http://www.w3.org/2000/svg" width="111" height="128" viewBox="0 0 111 128">
  <g fill="none" fill-rule="evenodd">
    <polygon fill="#1344A1" points="23.966 109.965 27.57 112.081 55.248 128 82.962 112.081 110.676 96.161 110.676 64.323 110.676 32.52 90.566 20.688 59.428 39.189 79.25 50.555 79.25 78.091"/>
    <polygon fill="#1344A1" points="86.746 18.071 83.178 15.955 55.464 .036 27.75 15.955 .072 31.875 .072 63.713 .072 95.516 20.146 107.348 51.319 88.847 31.498 77.481 31.498 49.945"/>
    <path fill="#FEBA00" d="M54.3467532,81.8196078 C64.2574675,81.8196078 72.3662338,73.7882353 72.3662338,63.892437 C72.3662338,54.032493 64.2935065,45.9652661 54.3467532,45.9652661 C44.436039,45.9652661 36.3272727,53.9966387 36.3272727,63.892437 C36.3633117,73.7882353 44.436039,81.8196078 54.3467532,81.8196078 Z"/>
  </g>
</svg>
