<svg xmlns="http://www.w3.org/2000/svg" width="127" height="128" viewBox="0 0 127 128">
  <g fill="none" fill-rule="evenodd" transform="translate(-1)">
    <rect width="128" height="128" rx="5"/>
    <g transform="translate(1)">
      <polyline stroke="#343A40" stroke-width=".533" points="104.859 110.348 109.37 116.162 19.175 118.254 18.549 116.246 23.729 111.393"/>
      <g fill="#12007F">
        <path d="M64.7532895,0.209150327 L61.8289474,119.550327 L58.9046053,0.376470588 C60.4085526,0.250980392 61.9542763,0.209150327 63.5,0.209150327 C63.9177632,0.167320261 64.3355263,0.209150327 64.7532895,0.209150327 Z"/>
        <path d="M77.1608553 1.67320261L61.8289474 119.508497 71.3539474.669281046C73.3174342.920261438 75.2391447 1.25490196 77.1608553 1.67320261zM88.9835526 5.56339869L61.8289474 119.508497 83.5108553 3.43006536C85.3907895 4.05751634 87.1871711 4.76862745 88.9835526 5.56339869zM99.7618421 11.7124183L61.8289474 119.550327 94.8740132 8.5751634C96.5450658 9.5372549 98.1743421 10.5830065 99.7618421 11.7124183zM109.161513 19.7856209L61.8289474 119.550327 104.942105 15.7699346C106.404276 17.0248366 107.824671 18.4052288 109.161513 19.7856209zM116.764803 29.4901961L61.8289474 119.550327 113.422697 24.7633987C114.592434 26.269281 115.720395 27.8588235 116.764803 29.4901961zM122.321053 40.3660131L61.8289474 119.550327 119.981579 35.1372549C120.817105 36.8104575 121.610855 38.5673203 122.321053 40.3660131zM125.663158 51.9947712L61.8289474 119.550327 124.368092 46.4732026C124.869408 48.2718954 125.287171 50.1124183 125.663158 51.9947712zM126.707566 63.9163399L61.8289474 119.550327 126.498684 58.3111111C126.624013 60.0261438 126.707566 61.7411765 126.707566 63.4562092 126.707566 63.6235294 126.707566 63.7490196 126.707566 63.9163399zM125.537829 75.545098L61.8289474 119.550327 126.331579 70.1490196C126.164474 71.9477124 125.872039 73.7882353 125.537829 75.545098zM122.321053 86.5045752L61.8289474 119.550327 124.075658 81.4849673C123.574342 83.2 122.989474 84.8732026 122.321053 86.5045752zM117.433224 96.3764706L61.8289474 119.550327 119.939803 91.9424837C119.146053 93.448366 118.310526 94.9124183 117.433224 96.3764706zM111.292105 104.784314L61.8289474 119.550327 114.3 101.061438C113.339145 102.31634 112.336513 103.571242 111.292105 104.784314zM104.482566 111.560784L61.8289474 119.550327 107.741118 108.59085C106.654934 109.594771 105.610526 110.598693 104.482566 111.560784zM52.3457237 1.17124183L61.8289474 119.508497 46.6223684 2.46797386C48.5023026 1.96601307 50.4240132 1.50588235 52.3457237 1.17124183zM40.3559211 4.60130719L61.8289474 119.508497 35.0503289 6.98562092C36.7631579 6.10718954 38.5595395 5.3124183 40.3559211 4.60130719zM29.3269737 10.2901961L61.8289474 119.508497 24.5644737 13.6366013C26.1101974 12.4653595 27.6976974 11.3359477 29.3269737 10.2901961zM19.6348684 17.9869281L61.8289474 119.508497 15.6661184 22.2117647C16.9194079 20.7477124 18.25625 19.3254902 19.6348684 17.9869281zM11.6555921 27.3568627L61.8289474 119.508497 8.60592105 32.2091503C9.525 30.5359477 10.5694079 28.9045752 11.6555921 27.3568627zM5.68157895 37.9816993L61.8289474 119.508497 3.59276316 43.2941176C4.21940789 41.4954248 4.92960526 39.696732 5.68157895 37.9816993zM1.87993421 49.4431373L61.8289474 119.508497.877302632 55.0065359C1.12796053 53.124183 1.46217105 51.2836601 1.87993421 49.4431373zM.334210526 61.2810458L61.8289474 119.508497.417763158 66.8026144C.375986842 65.6732026.334210526 64.5856209.334210526 63.4562092.292434211 62.745098.334210526 61.9921569.334210526 61.2810458zM1.00263158 72.951634L61.8289474 119.508497 2.04703947 78.2222222C1.62927632 76.5071895 1.29506579 74.7503268 1.00263158 72.951634zM3.71809211 83.9947712L61.7871711 119.508497 5.59802632 88.8470588C4.92960526 87.2575163 4.30296053 85.6679739 3.71809211 83.9947712z"/>
        <path d="M8.18815789 93.9921569L61.8289474 119.508497 10.7782895 98.2169935C9.85921053 96.8784314 8.98190789 95.4562092 8.18815789 93.9921569zM13.9115132 102.60915L61.8289474 119.508497 16.9194079 106.122876C15.875 104.993464 14.8723684 103.822222 13.9115132 102.60915zM20.3450658 109.636601L61.7871711 119.550327 23.3947368 112.355556C22.3921053 111.477124 21.3476974 110.556863 20.3450658 109.636601z"/>
      </g>
      <rect width="90.947" height="11.545" x="18.507" y="116.288" fill="#FFF" stroke="#12007F" stroke-width=".533"/>
      <path fill="#12007F" stroke="#FFF" stroke-width=".533" d="M22.3503289,27.4405229 L24.9404605,29.0718954 L28.8674342,29.1973856 L32.9197368,25.2653595 L34.8832237,25.3908497 L34.8832237,29.3228758 L37.8911184,32.8366013 L45.8703947,37.2705882 L51.8861842,38.8601307 L57.5259868,39.1111111 L62.1213816,39.2366013 L63.5417763,38.1908497 L66.4243421,34.1333333 L69.1815789,32.4183007 L72.6907895,32.1673203 L76.7430921,32.2928105 L80.6700658,34.3843137 L85.8921053,37.6470588 L90.0697368,39.6130719 L92.1585526,42.875817 C92.1585526,42.875817 92.4092105,44.5908497 92.5345395,46.3895425 C92.6598684,48.2300654 91.9914474,49.7777778 91.9914474,49.7777778 L91.0723684,53.1660131 L91.0723684,55.3830065 L90.6963816,60.6117647 L92.2838816,64.627451 L93.6207237,68.3084967 L94.0802632,70.1071895 L96.2944079,70.6509804 L98.425,70.8183007 L99.4276316,72.8679739 L98.8009868,74.8339869 L97.3805921,76.5490196 L96.04375,78.4313725 L95.3335526,79.6862745 L95.4171053,83.2418301 L96.9210526,85.2078431 L99.5111842,87.8013072 L101.474671,88.8888889 L103.98125,89.0562092 L105.401645,91.1058824 L105.318092,94.9542484 L104.691447,96.669281 L102.644408,97.8405229 L99.3440789,100.517647 L98.0907895,102.10719 L91.4901316,105.495425 L81.9233553,100.601307 L78.9572368,97.8823529 L77.2026316,96.3346405 L75.0302632,95.4562092 L74.7796053,95.4980392 L73.4427632,94.4522876 L73.8605263,95.7908497 L71.9388158,96.5856209 L68.7220395,98.4261438 L64.7115132,98.2588235 L61.0351974,96.5437908 L58.5286184,97.1294118 L53.6825658,95.4980392 L48.8782895,93.0300654 L45.0348684,87.4666667 L43.2802632,82.1960784 L40.3141447,82.1960784 L40.0217105,81.1084967 L36.6378289,79.9372549 L35.2592105,78.8078431 L33.5463816,77.2183007 L32.0424342,74.0810458 L31.1651316,71.7385621 L30.5384868,68.5176471 L27.9483553,64.8366013 L24.1884868,61.2810458 L23.6453947,57.4326797 L23.6453947,53.5424837 L24.3555921,50.4052288 L24.5226974,48.4392157 L24.5226974,46.8496732 L21.9325658,44.0888889 L20.8463816,42.0392157 L20.1361842,40.7843137 C20.0944079,39.9477124 20.1361842,32.0836601 20.4703947,28.4026144 C20.6375,26.0601307 20.6792763,26.3947712 22.3503289,27.4405229 Z"/>
      <path fill="#12007F" stroke="#FFF" stroke-width=".533" d="M31.75 83.1581699L33.1286184 81.2339869 35.3845395 79.4771242 36.9720395 78.3058824 39.3115132 78.3058824 40.8990132 78.5986928 42.06875 79.979085 44.1157895 82.2379085 44.6171053 84.4130719 46.7894737 86.7555556 49.0453947 89.3908497 51.0924342 91.1477124 53.8496711 92.7372549 56.3144737 94.6196078 59.0717105 95.7071895 62.9151316 96.7947712 65.8394737 97.296732 68.3878289 96.7111111 70.64375 95.2470588 72.8161184 93.8666667 75.3644737 93.8666667 77.2444079 95.2470588 79.2914474 97.7150327 82.3411184 100.559477 86.0592105 101.939869 89.7773026 102.14902 94.8740132 102.44183 98.2161184 102.44183 99.1769737 105.579085 99.8453947 107.335948 99.8453947 108.63268 90.8217105 108.71634 88.7746711 108.423529C88.7746711 108.423529 87.8138158 107.545098 87.3125 107.461438 86.8111842 107.377778 84.2628289 107.252288 84.2628289 107.252288L82.7171053 107.252288 81.1296053 108.54902 79.6674342 108.63268 77.9963816 107.461438 77.4950658 105.579085 76.7013158 103.403922 76.4924342 100.768627 76.2 99.5973856 75.1138158 97.924183 74.1529605 97.1294118 72.5654605 97.3385621 70.6855263 99.8901961 69.3069079 102.23268C69.3069079 102.23268 67.6358553 103.989542 67.3434211 104.491503 67.0509868 104.993464 65.6723684 106.081046 65.6723684 106.081046L64.2101974 107.043137 62.4555921 108.130719 60.4085526 108.423529 56.7740132 108.50719 53.5572368 108.50719 52.7634868 106.624837 52.4710526 104.742484 51.59375 103.152941 50.9253289 102.35817 48.8782895 102.27451 47.625 103.320261 46.0375 103.696732 45.1601974 102.818301 44.9513158 101.354248 44.8677632 98.5098039 44.8677632 96.9202614 43.7815789 94.6614379 41.8180921 92.9045752 39.5621711 91.3150327 37.0138158 89.5581699 34.5490132 87.5921569 32.7944079 85.4169935C32.8361842 85.4588235 31.4993421 83.4509804 31.75 83.1581699zM38.1417763 31.2470588L39.7710526 30.075817 40.4394737 28.2352941 40.4394737 26.3529412 40.1470395 25.0980392 40.1470395 24.2196078 40.8990132 23.7594771 42.2358553 22.9647059 53.5572368 22.7973856 55.1029605 22.6300654 57.1082237 24.4287582 58.7375 25.2235294 59.8654605 25.3908497 60.6592105 26.0601307 60.4503289 28.9464052 60.9098684 31.7071895 62.0378289 33.7986928 64.0430921 37.145098 63.6671053 38.9437908 62.6226974 40.1986928 60.5338816 40.5751634 56.5233553 40.5751634 54.6016447 41.0771242 52.7634868 42.1228758 48.7529605 41.8300654 46.9148026 39.8222222 45.1601974 39.2366013 42.2776316 39.027451 39.6039474 38.5254902C38.1417763 35.7228758 38.2253289 34.2169935 38.1417763 31.2470588z"/>
      <path fill="#FFF" d="M59.1134868,52.4130719 L62.1213816,49.4013072 C62.9569079,48.5647059 64.29375,48.5647059 65.1292763,49.4013072 L68.1371711,52.4130719 C68.3460526,52.6222222 68.5131579,52.8732026 68.5967105,53.124183 C68.8473684,52.9986928 69.1398026,52.9568627 69.4322368,52.9568627 L73.6516447,52.9568627 C74.8213816,52.9568627 75.7822368,53.9189542 75.7822368,55.0901961 L75.7822368,59.3150327 C75.7822368,59.6078431 75.7404605,59.9006536 75.6151316,60.151634 C75.8657895,60.2352941 76.1164474,60.4026144 76.3253289,60.6117647 L79.3332237,63.6235294 C80.16875,64.4601307 80.16875,65.7986928 79.3332237,66.6352941 L76.3253289,69.6470588 C76.1164474,69.8562092 75.8657895,70.0235294 75.6151316,70.1071895 C75.7404605,70.3581699 75.7822368,70.6509804 75.7822368,70.9437908 L75.7822368,75.1686275 C75.7822368,76.3398693 74.8213816,77.3019608 73.6516447,77.3019608 L69.4322368,77.3019608 C69.1398026,77.3019608 68.8473684,77.2601307 68.5967105,77.1346405 C68.5131579,77.3856209 68.3460526,77.6366013 68.1371711,77.8457516 L65.1292763,80.8575163 C64.29375,81.6941176 62.9569079,81.6941176 62.1213816,80.8575163 L59.1134868,77.8457516 C58.9046053,77.6366013 58.7375,77.3856209 58.6539474,77.1346405 C58.4032895,77.2601307 58.1108553,77.3019608 57.8184211,77.3019608 L53.5990132,77.3019608 C52.4292763,77.3019608 51.4684211,76.3398693 51.4684211,75.1686275 L51.4684211,70.9437908 C51.4684211,70.6509804 51.5101974,70.3581699 51.6355263,70.1071895 C51.3848684,70.0235294 51.1342105,69.8562092 50.9253289,69.6470588 L47.9174342,66.6352941 C47.0819079,65.7986928 47.0819079,64.4601307 47.9174342,63.6235294 L50.9253289,60.6117647 C51.1342105,60.4026144 51.3848684,60.2352941 51.6355263,60.151634 C51.5101974,59.9006536 51.4684211,59.6078431 51.4684211,59.3150327 L51.4684211,55.0901961 C51.4684211,53.9189542 52.4292763,52.9568627 53.5990132,52.9568627 L57.8184211,52.9568627 C58.1108553,52.9568627 58.4032895,52.9986928 58.6539474,53.124183 C58.7792763,52.8732026 58.9046053,52.6222222 59.1134868,52.4130719 Z"/>
      <path fill="#FFF" d="M41.6092105 41.579085L37.30625 45.6366013 42.3194079 51.7437908C36.0111842 94.075817 67.5523026 88.0104575 73.1921053 85.2915033L69.4322368 80.2718954C68.5131579 80.7738562 67.5940789 81.1503268 66.7167763 81.4431373L65.2963816 82.8653595C64.3773026 83.7856209 62.8315789 83.7856209 61.9125 82.8653595L60.5756579 81.5267974C58.9046053 81.0248366 57.3588816 80.1045752 55.9802632 78.8915033L52.3039474 78.8915033C50.9671053 78.8915033 49.9226974 77.8039216 49.9226974 76.5071895L49.9226974 71.696732C49.9226974 71.3620915 50.00625 71.027451 50.1315789 70.7346405 49.8391447 70.6091503 49.5884868 70.4418301 49.3378289 70.1908497L45.9539474 66.8026144C45.0348684 65.8823529 45.0348684 64.3346405 45.9539474 63.4143791L48.5858553 60.779085C48.6694079 59.8588235 48.8782895 59.0640523 49.2125 58.3947712L49.0871711 49.903268C49.0036184 49.945098 41.7763158 41.4535948 41.6092105 41.579085zM85.725 88.4705882L90.0279605 84.4130719 85.0148026 78.3058824C91.3230263 35.9738562 59.7819079 42.0392157 54.1421053 44.7581699L57.9019737 49.7777778C58.8210526 49.275817 59.7401316 48.8993464 60.6174342 48.6065359L62.0378289 47.1843137C62.9569079 46.2640523 64.5026316 46.2640523 65.4217105 47.1843137L66.7585526 48.5228758C68.4296053 49.0248366 69.9753289 49.945098 71.3539474 51.1581699L75.0302632 51.1581699C76.3671053 51.1581699 77.4115132 52.2457516 77.4115132 53.5424837L77.4115132 58.3529412C77.4115132 58.6875817 77.3279605 59.0222222 77.2026316 59.3150327 77.4950658 59.4405229 77.7457237 59.6078431 77.9963816 59.8588235L81.3802632 63.2470588C82.2993421 64.1673203 82.2993421 65.7150327 81.3802632 66.6352941L78.7483553 69.2705882C78.6648026 70.1908497 78.4559211 70.9856209 78.1217105 71.654902L78.2470395 80.1464052C78.3305921 80.1464052 85.5578947 88.6379085 85.725 88.4705882z"/>
      <path fill="#12007F" d="M62.6226974 56.8470588L64.6279605 56.8470588 64.6279605 60.9464052C64.9621711 60.7372549 65.2546053 60.4444444 65.4217105 60.0679739 65.5470395 60.3189542 65.6305921 60.6117647 65.6305921 60.9045752 65.6305921 61.6575163 65.2128289 62.2849673 64.6279605 62.6614379L64.6279605 66.1751634C65.6305921 65.8823529 66.4661184 65.1712418 66.8838816 64.2509804 67.0927632 64.7111111 67.2180921 65.2130719 67.2180921 65.7986928 67.2180921 67.4300654 66.1319079 68.8104575 64.6279605 69.2705882L64.6279605 71.3620915C66.0901316 71.027451 67.3434211 70.0235294 67.9700658 68.6849673 68.2625 69.3124183 68.4296053 69.9816993 68.4296053 70.7346405 68.4296053 73.3699346 66.2572368 75.545098 63.6253289 75.545098 60.9934211 75.545098 58.8210526 73.3699346 58.8210526 70.7346405 58.8210526 70.0235294 58.9881579 69.3124183 59.2805921 68.6849673 59.9072368 70.0235294 61.1605263 71.027451 62.6226974 71.3620915L62.6226974 69.2705882C61.11875 68.8522876 60.0325658 67.4300654 60.0325658 65.7986928 60.0325658 65.254902 60.1578947 64.7529412 60.3667763 64.2509804 60.7845395 65.1712418 61.6200658 65.8823529 62.6226974 66.1751634L62.6226974 62.6614379C62.0378289 62.3267974 61.6200658 61.6575163 61.6200658 60.9045752 61.6200658 60.6117647 61.7036184 60.3189542 61.8289474 60.0679739 61.9960526 60.4444444 62.2884868 60.7372549 62.6226974 60.9464052L62.6226974 56.8470588 62.6226974 56.8470588zM37.0555921 124.737255L37.0555921 119.424837 39.0608553 119.424837C39.4786184 119.424837 39.7710526 119.466667 40.0217105 119.592157 40.2723684 119.717647 40.4394737 119.884967 40.6065789 120.094118 40.7319079 120.303268 40.8154605 120.554248 40.8154605 120.805229 40.8154605 121.014379 40.7736842 121.265359 40.6483553 121.43268 40.5230263 121.64183 40.3559211 121.80915 40.1052632 121.934641 40.4394737 122.018301 40.6901316 122.185621 40.8572368 122.436601 41.0243421 122.645752 41.1078947 122.938562 41.1078947 123.231373 41.1078947 123.482353 41.0661184 123.733333 40.9407895 123.942484 40.8154605 124.151634 40.6901316 124.318954 40.5648026 124.444444 40.3976974 124.569935 40.2305921 124.653595 39.9799342 124.695425 39.7292763 124.737255 39.4786184 124.779085 39.1026316 124.779085L37.0555921 124.779085 37.0555921 124.737255zM37.7657895 121.64183L38.9355263 121.64183C39.2279605 121.64183 39.4786184 121.6 39.6039474 121.6 39.7710526 121.55817 39.9381579 121.47451 40.0217105 121.34902 40.1052632 121.223529 40.1470395 121.056209 40.1470395 120.888889 40.1470395 120.721569 40.1052632 120.554248 40.0217105 120.428758 39.9381579 120.303268 39.8128289 120.219608 39.6457237 120.135948 39.4786184 120.094118 39.2279605 120.052288 38.8519737 120.052288L37.8075658 120.052288 37.8075658 121.64183 37.7657895 121.64183zM37.7657895 124.109804L37.7657895 124.109804 37.7657895 122.311111 38.9773026 122.311111C39.3115132 122.311111 39.6039474 122.352941 39.7710526 122.394771 39.9381579 122.436601 40.1052632 122.520261 40.1888158 122.687582 40.3141447 122.813072 40.3559211 122.980392 40.3559211 123.189542 40.3559211 123.356863 40.3141447 123.524183 40.2305921 123.649673 40.1888158 123.775163 40.1052632 123.858824 39.9799342 123.942484 39.8546053 123.984314 39.7292763 124.026144 39.5621711 124.067974 39.4786184 124.109804 39.3115132 124.109804 39.1026316 124.109804L37.7657895 124.109804zM41.4421053 124.737255L43.4891447 119.424837 44.2828947 119.424837 46.4552632 124.737255 45.6615132 124.737255 45.0348684 123.105882 42.7789474 123.105882 42.1940789 124.737255 41.4421053 124.737255zM42.9878289 122.562092L44.7842105 122.562092 44.2411184 121.098039C44.0740132 120.637908 43.9486842 120.261438 43.8651316 119.968627 43.7815789 120.303268 43.6980263 120.637908 43.5726974 120.972549L42.9878289 122.562092zM46.9565789 124.737255L46.9565789 119.424837 47.7085526 119.424837 50.4657895 123.607843 50.4657895 119.424837 51.1759868 119.424837 51.1759868 124.737255 50.4240132 124.737255 47.6667763 120.554248 47.6667763 124.737255 46.9565789 124.737255zM52.3039474 124.737255L52.3039474 119.424837 53.0141447 119.424837 53.0141447 122.060131 55.6460526 119.424837 56.6069079 119.424837 54.3927632 121.55817 56.6904605 124.737255 55.7713816 124.737255 53.8914474 122.060131 53.0141447 122.896732 53.0141447 124.737255 52.3039474 124.737255zM60.5756579 124.737255L60.5756579 120.052288 58.8210526 120.052288 58.8210526 119.424837 63.0404605 119.424837 63.0404605 120.052288 61.2858553 120.052288 61.2858553 124.737255 60.5756579 124.737255zM63.7506579 124.737255L63.7506579 119.424837 67.5940789 119.424837 67.5940789 120.052288 64.4608553 120.052288 64.4608553 121.68366 67.3851974 121.68366 67.3851974 122.311111 64.4608553 122.311111 64.4608553 124.109804 67.7194079 124.109804 67.7194079 124.737255 63.7506579 124.737255zM68.3460526 123.231373L68.9726974 123.147712C68.9726974 123.566013 69.05625 123.816993 69.1815789 123.984314 69.3069079 124.151634 69.5157895 124.193464 69.7246711 124.193464 69.8917763 124.193464 70.0588816 124.151634 70.1842105 124.067974 70.3095395 123.984314 70.3930921 123.858824 70.4348684 123.733333 70.4766447 123.607843 70.5184211 123.356863 70.5184211 123.064052L70.5184211 119.383007 71.2286184 119.383007 71.2286184 123.022222C71.2286184 123.482353 71.1868421 123.816993 71.0615132 124.067974 70.9361842 124.318954 70.7690789 124.486275 70.5601974 124.611765 70.3095395 124.737255 70.0588816 124.820915 69.7246711 124.820915 69.2651316 124.820915 68.8891447 124.695425 68.6384868 124.402614 68.4713816 124.151634 68.3460526 123.775163 68.3460526 123.231373zM71.8134868 124.737255L73.8605263 119.424837 74.6542763 119.424837 76.8266447 124.737255 76.0328947 124.737255 75.40625 123.105882 73.1503289 123.105882 72.5654605 124.737255 71.8134868 124.737255zM73.3592105 122.562092L75.1555921 122.562092 74.6125 121.098039C74.4453947 120.637908 74.3200658 120.261438 74.2365132 119.968627 74.1529605 120.303268 74.0694079 120.637908 73.9440789 120.972549L73.3592105 122.562092zM77.3697368 124.737255L77.3697368 119.424837 79.7092105 119.424837C80.16875 119.424837 80.5447368 119.466667 80.7953947 119.550327 81.0460526 119.633987 81.2549342 119.801307 81.3802632 120.052288 81.5473684 120.303268 81.5891447 120.554248 81.5891447 120.847059 81.5891447 121.223529 81.4638158 121.55817 81.2131579 121.80915 80.9625 122.060131 80.5865132 122.227451 80.0851974 122.311111 80.2523026 122.394771 80.4194079 122.478431 80.5029605 122.562092 80.7118421 122.729412 80.9207237 122.980392 81.0878289 123.273203L82.0069079 124.737255 81.1296053 124.737255 80.4194079 123.649673C80.2105263 123.315033 80.0434211 123.064052 79.9180921 122.896732 79.7927632 122.729412 79.6674342 122.603922 79.5421053 122.562092 79.4585526 122.478431 79.3332237 122.436601 79.2078947 122.436601 79.1243421 122.436601 78.9990132 122.394771 78.8319079 122.394771L78.0381579 122.394771 78.0381579 124.737255 77.3697368 124.737255 77.3697368 124.737255zM78.0799342 121.76732L79.5838816 121.76732C79.9180921 121.76732 80.16875 121.72549 80.3358553 121.68366 80.5029605 121.6 80.6700658 121.51634 80.7536184 121.34902 80.8371711 121.223529 80.8789474 121.056209 80.8789474 120.888889 80.8789474 120.637908 80.7953947 120.428758 80.5865132 120.261438 80.4194079 120.094118 80.1269737 120.010458 79.7092105 120.010458L78.0381579 120.010458 78.0381579 121.76732 78.0799342 121.76732zM82.1322368 124.737255L84.1792763 119.424837 84.9730263 119.424837 87.1453947 124.737255 86.3516447 124.737255 85.725 123.105882 83.4690789 123.105882 82.8842105 124.737255 82.1322368 124.737255zM83.6779605 122.562092L85.4743421 122.562092 84.93125 121.098039C84.7641447 120.637908 84.6388158 120.261438 84.5552632 119.968627 84.4717105 120.303268 84.3881579 120.637908 84.2628289 120.972549L83.6779605 122.562092zM88.4822368 124.737255L88.4822368 120.052288 86.7276316 120.052288 86.7276316 119.424837 90.9052632 119.424837 90.9052632 120.052288 89.1924342 120.052288 89.1924342 124.737255 88.4822368 124.737255z"/>
    </g>
  </g>
</svg>
