<svg xmlns="http://www.w3.org/2000/svg" width="128" height="125" viewBox="0 0 128 125">
  <g fill="none">
    <path fill="#008A94" d="M63.2178838,0 L64.5913562,0 C66.0411326,0.114329268 67.5862891,0.342987805 68.7880775,1.20045732 C73.499851,4.6875 78.2307004,8.13643293 82.9615499,11.6044207 C80.4244411,20.2553354 77.8873323,28.8871951 75.3692996,37.5381098 C72.6414307,36.2042683 69.6274218,35.5182927 66.6134128,35.308689 C62.3976155,35.0419207 58.0673621,35.6897866 54.2330849,37.5381098 C50.7803279,29.2682927 47.3084948,20.9794207 43.8557377,12.7096037 C48.6819672,8.84146341 53.5272727,4.97332317 58.3725782,1.10518293 C58.7922504,0.762195122 59.3454545,0.647865854 59.8605067,0.514481707 C60.947839,0.247713415 62.0733234,0.0762195122 63.2178838,0 L63.2178838,0 Z M15.852161,20.6554878 C21.6512668,19.054878 27.4503726,17.5114329 33.2494784,15.929878 C38.457228,23.285061 43.6459016,30.6592988 48.8345753,38.0144817 C45.8396423,39.4245427 43.2453055,41.5967988 41.0897168,44.0929878 C38.514456,47.1036585 36.5305514,50.6669207 35.6721311,54.535061 C27.0307004,52.0769817 18.3892697,49.6379573 9.74783905,47.179878 C9.74783905,40.9870427 9.72876304,34.7751524 9.69061103,28.5823171 C9.72876304,27.7820122 10.1865872,27.0769817 10.5108793,26.3528963 C11.7317437,24.0282012 13.4104322,21.7606707 15.852161,20.6554878 L15.852161,20.6554878 Z M80.6533532,39.7294207 C85.4414307,32.1455793 90.2867362,24.5807927 95.0938897,17.0160061 C101.045604,18.7690549 107.016393,20.5221037 112.968107,22.2751524 C113.464083,22.4085366 113.845604,22.7705793 114.227124,23.0945122 C116.001192,24.6379573 117.565425,26.4862805 118.404769,28.6966463 C118.633681,29.3254573 118.843517,29.992378 118.824441,30.6783537 C118.671833,36.5853659 118.538301,42.492378 118.404769,48.3993902 C109.858718,51.2957317 101.312668,54.1539634 92.766617,57.03125 C92.1943368,53.3727134 90.6110283,49.9428354 88.4935917,46.9131098 C86.414307,44.0167683 83.8008942,41.4634146 80.6533532,39.7294207 L80.6533532,39.7294207 Z M94.0065574,60.7660061 C102.934128,59.8132622 111.861699,58.8414634 120.78927,57.8887195 C123.135618,63.6242378 125.462891,69.3597561 127.80924,75.0762195 C128.038152,75.6097561 127.961848,76.2195122 127.942772,76.7911585 C127.80924,79.3635671 127.217884,82.03125 125.653651,84.1463415 C125.176751,84.8132622 124.451863,85.2515244 123.822355,85.7469512 C119.473025,89.0434451 115.10462,92.339939 110.755291,95.6554878 C103.16304,90.7964939 95.5898659,85.8803354 87.9976155,81.0022866 C90.3058122,78.5060976 91.9272727,75.4573171 92.9764531,72.2370427 C94.1782414,68.5594512 94.6360656,64.5960366 94.0065574,60.7660061 L94.0065574,60.7660061 Z M0.915648286,73.5327744 C3.07123696,68.4070122 5.20774963,63.28125 7.3633383,58.1554878 C16.3672131,58.5746951 25.3901639,59.0129573 34.3940387,59.4512195 C33.3830104,64.1006098 33.9934426,68.9977134 35.6149031,73.4184451 C36.4923994,75.78125 37.7514158,78.0106707 39.3538003,79.9733232 C32.104918,85.2705793 24.8751118,90.5868902 17.6262295,95.8841463 C12.723696,92.0922256 7.84023845,88.3003049 2.93770492,84.527439 C2.46080477,84.1653963 2.21281669,83.59375 1.9266766,83.0792683 C0.763040238,80.773628 -0.0572280179,78.1821646 0.247988077,75.5716463 C0.324292101,74.8285061 0.648584203,74.1806402 0.915648286,73.5327744 L0.915648286,73.5327744 Z M42.5967213,84.0320122 C44.6378539,86.871189 47.4420268,89.1006098 50.4751118,90.7964939 C53.7752608,92.6067073 57.476006,93.7881098 61.2530551,93.9214939 C60.4327869,102.858232 59.5934426,111.775915 58.7922504,120.712652 C52.7070045,121.875 46.6217586,123.018293 40.5365127,124.18064 C39.9260805,124.29497 39.3347243,124.085366 38.7433681,123.951982 C36.6450075,123.39939 34.5657228,122.522866 32.8870343,121.09375 C32.2956781,120.560213 31.7233979,120.007622 31.3800298,119.283537 C28.823845,113.98628 26.2485842,108.689024 23.6923994,103.372713 C30.0065574,96.9512195 36.3016393,90.4916159 42.5967213,84.0320122 L42.5967213,84.0320122 Z M76.0941878,92.3780488 C79.5850969,90.8536585 82.7898659,88.6242378 85.2125186,85.6897866 C91.8128167,91.7682927 98.4131148,97.8467988 105.013413,103.925305 C103.3538,107.298018 101.63696,110.632622 99.9773472,113.98628 C98.7755589,116.291921 97.7073025,118.67378 96.4292101,120.941311 C94.7314456,122.541921 92.690313,123.818598 90.4584203,124.504573 C89.3901639,124.790396 88.2646796,125.03811 87.1582712,124.809451 C81.4163934,123.628049 75.6745156,122.446646 69.9517139,121.265244 C68.6354694,112.347561 67.338301,103.448933 66.0220566,94.53125 C69.4938897,94.5693598 72.9275708,93.75 76.0941878,92.3780488 L76.0941878,92.3780488 Z"/>
    <path fill="#706F6D" d="M62.0923994,43.597561 C66.5752608,43.0449695 71.2298063,44.0167683 75.0831595,46.3605183 C79.4324888,48.9519817 82.7517139,53.2202744 84.1442623,58.0792683 C85.5558867,62.8429878 85.1552906,68.121189 82.9997019,72.5990854 C80.6915052,77.496189 76.3230999,81.3833841 71.1916542,83.1364329 C66.4608048,84.7560976 61.1195231,84.5846037 56.5222057,82.6028963 C51.8104322,80.6021341 47.918927,76.7721037 45.8587183,72.1036585 C43.7222057,67.3208841 43.5505216,61.6996951 45.3818182,56.7835366 C46.9651267,52.4580793 50.0745156,48.7233232 54.0232489,46.3605183 C56.5031297,44.8742378 59.2691505,43.9214939 62.0923994,43.597561"/>
  </g>
</svg>
