<svg xmlns="http://www.w3.org/2000/svg" width="128" height="128" viewBox="0 0 128 128">
  <path fill="#006C03" d="M37.0956851,0.525241419 C46.984588,0.27963601 56.9226893,0.476120337 66.8115921,0.377878173 C73.502591,-0.309816972 80.2427884,0.181393846 86.9829859,0.0340306004 C88.1145519,0.132272764 89.541309,-0.309816972 90.4760809,0.623483582 C94.4119626,4.11108039 97.8558591,7.99164586 101.693344,11.5774848 C109.319115,19.1912525 117.043282,26.706778 124.718252,34.2714246 C125.800619,35.3520884 127.030582,36.285389 127.866957,37.5625371 C128.014553,38.3484744 127.965354,39.1344117 127.965354,39.9694701 C127.916156,56.6706379 128.063751,73.3718058 127.965354,90.0729736 C127.178178,91.546606 125.751421,92.5290277 124.619855,93.7570547 C113.304195,105.054904 102.037733,116.401873 90.771272,127.748843 C79.357215,127.896207 67.8939596,127.60148 56.4799026,127.994449 C50.57608,127.994449 44.6722574,127.994449 38.7684349,127.994449 C37.3908763,128.092691 36.6036999,126.864664 35.7181265,126.078727 C24.156474,114.682636 12.6932185,103.188302 1.08236747,91.8904536 C0.590382257,91.3992428 0.147595564,90.8097898 0.196794086,90.0729736 C0,73.7156533 0.0983970428,57.3583331 0,40.9518918 C0.0491985214,39.871228 -0.0983970428,38.7905642 0.196794086,37.7099004 C3.09950685,34.3696668 6.39580778,31.5206441 9.39691759,28.2786527 C16.9242914,20.7631271 24.4024666,13.1002384 31.9298404,5.58471285 C33.6517886,3.91459606 35.2261413,2.04799496 37.0956851,0.525241419 L37.0956851,0.525241419 Z M44.819853,20.0263109 C38.3256482,26.657657 31.7330463,33.1416398 25.2388415,39.7729858 C23.2709006,41.7869502 21.1553642,43.7026723 19.433416,45.9622421 C19.0890263,46.8955427 19.2858204,47.8779643 19.2366219,48.8603859 C19.3350189,60.1582348 19.1382248,71.4560836 19.3350189,82.7048113 C20.663379,84.3749281 22.3361287,85.7503184 23.8612829,87.2730719 C30.6506788,94.1009023 37.5876704,100.732248 44.3770663,107.560079 C46.0990146,109.721406 49.1493229,108.689864 51.5108519,108.689864 C61.9409385,108.591621 72.371025,108.689864 82.751913,108.5425 C91.1648602,99.7498267 99.8238,91.2027585 108.433541,82.6065692 C108.581137,74.9436804 108.285946,67.3299127 108.630335,59.6670239 C108.285946,55.0005212 108.630335,50.2848973 108.384343,45.5692735 C100.364984,37.2678106 91.902838,29.3101954 83.8342805,21.0087325 C83.1455012,20.3701585 82.6043175,19.3877368 81.52195,19.485979 C70.0586945,19.4368579 58.5462405,19.485979 47.082985,19.485979 C46.3450072,19.485979 45.4102353,19.2894947 44.819853,20.0263109 L44.819853,20.0263109 Z M51.3140578,33.1907608 C55.4959322,28.5733791 60.0713947,24.3489661 64.351666,19.7807055 C73.502591,28.8189846 82.5059204,38.0046269 91.6076469,47.1411481 C97.0686828,52.7900725 102.775711,58.1933915 108.13835,63.9896791 C104.054873,69.0491506 99.1350207,73.3718058 94.7563523,78.1365507 C93.8707789,79.3645778 92.2472277,78.9716091 90.9680661,79.0207302 C82.9487071,78.9716091 74.9293481,79.0207302 66.9099891,79.0207302 C71.6822457,73.9121377 76.7004949,69.0000295 81.5711485,63.9896791 C76.3069067,58.488118 70.7966723,53.1830411 65.483232,47.68148 C60.760174,42.867614 55.7419248,38.2993533 51.3140578,33.1907608 L51.3140578,33.1907608 Z M33.6517886,49.5972022 C34.3897665,48.6147805 35.7181265,49.0077492 36.800494,48.909507 C45.0166471,49.0077492 53.2819987,48.8112649 61.4981518,49.0077492 C56.7750937,54.1654628 51.6584475,58.8810866 46.984588,64.0879213 C48.4113451,65.9545224 50.2316904,67.4772759 51.8060431,69.1965138 C60.0221961,77.3506134 68.1399522,85.6520762 76.3069067,93.8552969 C76.5528993,94.1991445 77.3400757,94.7885974 76.7988919,95.1815661 C72.4202235,99.4059791 68.2875477,103.875998 63.8596808,108.100411 C49.7889037,94.1500234 35.9641192,80.0522729 21.9917391,66.0527646 C21.3521583,65.4141905 20.7125775,64.7264954 20.1221953,64.0388002 C24.3532681,58.9302077 29.2239217,54.4601893 33.6517886,49.5972022 L33.6517886,49.5972022 Z"/>
</svg>
